<svg width="21" height="21" viewBox="0 0 21 21" fill="none" xmlns="http://www.w3.org/2000/svg">
<g clip-path="url(#clip0_201_495)">
<path d="M11.2699 14.2606L8.27907 17.2516C8.27907 17.2516 8.27907 17.2516 8.279 17.2516C8.279 17.2516 8.279 17.2517 8.27893 17.2517C7.04212 18.4886 5.02956 18.4886 3.79261 17.2517C3.19338 16.6525 2.86346 15.8558 2.86346 15.0085C2.86346 14.1612 3.19338 13.3647 3.7924 12.7655C3.79247 12.7654 3.79254 12.7653 3.79261 12.7652L6.78346 9.77432C7.19637 9.36134 7.19637 8.69176 6.78339 8.27885C6.37049 7.86595 5.70091 7.86595 5.28793 8.27885L2.29708 11.2698C2.29687 11.27 2.29666 11.2703 2.29645 11.2705C1.29827 12.269 0.748535 13.5965 0.748535 15.0085C0.748535 16.4207 1.29849 17.7485 2.29715 18.7472C3.32796 19.7779 4.68187 20.2933 6.03584 20.2933C7.38981 20.2933 8.74379 19.7779 9.77446 18.7472C9.77453 18.7472 9.77453 18.747 9.77453 18.747L12.7654 15.7561C13.1783 15.3432 13.1783 14.6736 12.7653 14.2606C12.3525 13.8477 11.683 13.8477 11.2699 14.2606Z" fill="#6573FF"/>
<path d="M20.296 6.03563C20.296 4.62336 19.746 3.29561 18.7473 2.29694C16.6858 0.235457 13.3314 0.235527 11.27 2.29694C11.27 2.29708 11.2698 2.29715 11.2698 2.29729L8.27897 5.288C7.86599 5.70091 7.86599 6.37056 8.27897 6.78347C8.48553 6.99002 8.7561 7.09323 9.02673 7.09323C9.2973 7.09323 9.56801 6.98995 9.77443 6.78347L12.7652 3.79276C12.7653 3.79261 12.7654 3.79254 12.7656 3.7924C14.0024 2.5556 16.0149 2.55553 17.2519 3.7924C17.851 4.39163 18.1811 5.18832 18.1811 6.03563C18.1811 6.88287 17.8512 7.67942 17.2521 8.27865L17.2519 8.27886L14.261 11.2698C13.8481 11.6827 13.8481 12.3523 14.2611 12.7652C14.4676 12.9717 14.7382 13.075 15.0088 13.075C15.2794 13.075 15.5501 12.9717 15.7566 12.7652L18.7474 9.77432C18.7476 9.77411 18.7478 9.77382 18.748 9.77361C19.7462 8.77509 20.296 7.44755 20.296 6.03563Z" fill="#6573FF"/>
<path d="M6.78336 14.2606C6.98985 14.4671 7.26049 14.5704 7.53106 14.5704C7.8017 14.5704 8.07234 14.4671 8.27882 14.2606L14.2607 8.27877C14.6736 7.86587 14.6736 7.19628 14.2607 6.78331C13.8478 6.37041 13.1782 6.37041 12.7652 6.78331L6.78336 12.7651C6.37039 13.1781 6.37039 13.8477 6.78336 14.2606Z" fill="#6573FF"/>
</g>
<defs>
<clipPath id="clip0_201_495">
<rect width="19.5474" height="19.5474" fill="white" transform="translate(0.748535 0.748291)"/>
</clipPath>
</defs>
</svg>
