<svg width="25" height="25" viewBox="0 0 25 25" fill="none" xmlns="http://www.w3.org/2000/svg">
<path fill-rule="evenodd" clip-rule="evenodd" d="M21 9.75001C21 13.4779 17.9779 16.5 14.25 16.5C12.6916 16.5 11.2564 15.9718 10.1139 15.0848C10.0709 15.1758 10.0117 15.2611 9.9364 15.3364L4.5364 20.7364C4.18492 21.0879 3.61508 21.0879 3.2636 20.7364C2.91213 20.385 2.91213 19.8151 3.2636 19.4636L8.6636 14.0636C8.7389 13.9883 8.82422 13.9292 8.91527 13.8861C8.02817 12.7436 7.5 11.3085 7.5 9.75001C7.5 6.02208 10.5221 3 14.25 3C17.9779 3 21 6.02208 21 9.75001ZM19.2 9.75001C19.2 7.01619 16.9838 4.8 14.25 4.8C11.5162 4.8 9.3 7.01619 9.3 9.75001C9.3 12.4839 11.5162 14.7 14.25 14.7C16.9838 14.7 19.2 12.4839 19.2 9.75001Z" fill="#1E1E1E"/>
</svg>
