<svg width="20" height="20" viewBox="0 0 20 20" fill="none" xmlns="http://www.w3.org/2000/svg">
<path fill-rule="evenodd" clip-rule="evenodd" d="M18.5578 12.131V10.9728H14.5435C14.5435 13.4821 12.5092 15.5164 9.99995 15.5164C7.49065 15.5164 5.4564 13.4821 5.4564 10.9728H1.44214V12.131L2.85999 12.6768C3.03983 13.4325 3.33933 14.1545 3.74675 14.816L3.12972 16.2052L4.76765 17.8431L6.15733 17.2259C6.8187 17.6331 7.54034 17.9327 8.29597 18.1125L8.84183 19.5306H11.1582L11.7039 18.1128C12.4597 17.933 13.1816 17.6335 13.8431 17.226L15.2323 17.8431L16.8702 16.2052L16.253 14.8155C16.6602 14.1541 16.9598 13.4325 17.1396 12.6769L18.5578 12.131ZM5.69667 5.45846C5.69667 4.66639 5.05456 4.02424 4.26245 4.02424C3.47034 4.02424 2.82823 4.66635 2.82823 5.45846C2.82823 6.25057 3.47034 6.89268 4.26245 6.89268C5.05456 6.89268 5.69667 6.25057 5.69667 5.45846ZM6.71038 9.81471H1.81448C1.60995 9.81471 1.46151 9.6244 1.51144 9.426C1.82101 8.19483 2.93522 7.28327 4.26245 7.28327C5.58964 7.28327 6.7039 8.19483 7.01347 9.426C7.06335 9.6244 6.91491 9.81471 6.71038 9.81471ZM8.4505 4.48741C8.55433 4.62424 8.74944 4.65104 8.88628 4.54721L11.7889 2.34327L14.671 3.5826C14.792 3.63456 14.9276 3.6042 15.0153 3.51647L17.0693 1.6478L17.0317 1.83795C16.9987 2.00717 17.1091 2.17112 17.2783 2.20416C17.4475 2.23721 17.6114 2.12682 17.6445 1.9576L17.8645 0.840298C17.9017 0.649048 17.7557 0.46936 17.559 0.46936L16.4202 0.473501C16.2483 0.473501 16.1089 0.612876 16.1089 0.78479C16.1089 0.956704 16.2483 1.09608 16.4202 1.09608L16.75 1.09487L14.7332 2.92963L11.8696 1.69823L11.8691 1.69928C11.7696 1.65666 11.6507 1.66721 11.5583 1.73729L8.5103 4.05163C8.37347 4.15545 8.34667 4.35057 8.4505 4.48741ZM12.2274 4.65498H11.2651C11.136 4.65498 11.0308 4.7603 11.0307 4.88936V9.58034C11.0307 9.70944 11.136 9.81471 11.2651 9.81471H12.2274C12.3565 9.81471 12.4618 9.70944 12.4618 9.58034V4.88936C12.4618 4.76026 12.3565 4.65498 12.2274 4.65498ZM9.17944 7.06936H8.21718C8.08808 7.06936 7.9828 7.17463 7.9828 7.30373V9.58034C7.9828 9.70944 8.08808 9.81471 8.21718 9.81471H9.17944C9.30854 9.81471 9.41382 9.70944 9.41382 9.58034V7.30373C9.41382 7.17463 9.30854 7.06936 9.17944 7.06936ZM17.1267 3.01221C17.1267 2.88311 17.232 2.77784 17.3611 2.77784H18.3234C18.4525 2.77784 18.5578 2.88311 18.5578 3.01221V9.58034C18.5578 9.70944 18.4525 9.81471 18.3234 9.81471H17.3611C17.232 9.81471 17.1267 9.70944 17.1267 9.58034V3.01221ZM15.2754 5.63096H14.3131C14.184 5.63096 14.0787 5.73623 14.0787 5.86534V9.58037C14.0787 9.70948 14.184 9.81475 14.3131 9.81475H15.2754C15.4045 9.81475 15.5098 9.70948 15.5098 9.58037V5.86534C15.5098 5.73623 15.4045 5.63096 15.2754 5.63096Z" fill="#6573FF"/>
</svg>
