<svg width="54" height="54" viewBox="0 0 54 54" fill="none" xmlns="http://www.w3.org/2000/svg">
<g clip-path="url(#clip0_128_2157)">
<path d="M43.5799 53.2388H10.4873C5.00396 53.2388 0.55957 48.7944 0.55957 43.3111V10.2185C0.55957 4.73511 5.00396 0.290726 10.4873 0.290726H43.5799C49.0633 0.290726 53.5077 4.73511 53.5077 10.2185V43.3111C53.5077 48.7944 49.0633 53.2388 43.5799 53.2388Z" fill="#6573FF"/>
<path d="M18.0265 13.2128C16.3766 13.2128 15.2979 14.2962 15.2979 15.7202C15.2979 17.1127 16.3445 18.227 17.9632 18.227H17.9945C19.6767 18.227 20.7235 17.1127 20.7235 15.7202C20.6921 14.2962 19.6767 13.2128 18.0265 13.2128Z" fill="white"/>
<path d="M15.5812 20.2044H20.4045V34.7154H15.5812V20.2044Z" fill="white"/>
<path d="M32.2453 19.8671C29.6433 19.8671 27.8986 22.3121 27.8986 22.3121V20.2077H23.0752V34.7187H27.8983V26.6152C27.8983 26.1813 27.9298 25.7482 28.0572 25.438C28.4059 24.5717 29.1994 23.6743 30.5319 23.6743C32.2772 23.6743 32.9752 25.005 32.9752 26.9557V34.7187H37.7981V26.3983C37.7981 21.9412 35.4185 19.8671 32.2453 19.8671Z" fill="white"/>
</g>
<defs>
<clipPath id="clip0_128_2157">
<rect width="52.9481" height="52.9481" fill="white" transform="translate(0.559326 0.290894)"/>
</clipPath>
</defs>
</svg>
