<svg width="54" height="54" viewBox="0 0 54 54" fill="none" xmlns="http://www.w3.org/2000/svg">
<g clip-path="url(#clip0_128_2164)">
<path d="M43.528 53.2388H10.4354C4.95205 53.2388 0.50766 48.7944 0.50766 43.3111V10.2185C0.50766 4.73511 4.95205 0.290726 10.4354 0.290726H43.528C49.0114 0.290726 53.4557 4.73511 53.4557 10.2185V43.3111C53.4557 48.7944 49.0114 53.2388 43.528 53.2388Z" fill="#6573FF"/>
<g clip-path="url(#clip1_128_2164)">
<path d="M28.6361 38.3062V27.6747H32.2036L32.7389 23.5301H28.6361V20.8845C28.6361 19.6849 28.9679 18.8674 30.6902 18.8674L32.8833 18.8665V15.1595C32.504 15.1102 31.2021 14.9972 29.6869 14.9972C26.5228 14.9972 24.3566 16.9283 24.3566 20.474V23.5301H20.7783V27.6747H24.3566V38.3062H28.6361Z" fill="white"/>
</g>
</g>
<defs>
<clipPath id="clip0_128_2164">
<rect width="52.9481" height="52.9481" fill="white" transform="translate(0.507416 0.290894)"/>
</clipPath>
<clipPath id="clip1_128_2164">
<rect width="23.3115" height="23.309" fill="white" transform="translate(15.1755 15)"/>
</clipPath>
</defs>
</svg>
