<svg width="54" height="54" viewBox="0 0 54 54" fill="none" xmlns="http://www.w3.org/2000/svg">
<g clip-path="url(#clip0_156_2566)">
<path d="M43.4761 53.2388H10.3835C4.90014 53.2388 0.45575 48.7944 0.45575 43.3111V10.2185C0.45575 4.73511 4.90014 0.290726 10.3835 0.290726H43.4761C48.9594 0.290726 53.4038 4.73511 53.4038 10.2185V43.3111C53.4038 48.7944 48.9594 53.2388 43.4761 53.2388Z" fill="#6573FF"/>
<g clip-path="url(#clip1_156_2566)">
<path d="M34.1172 18.1019C33.7692 18.1019 33.486 18.3851 33.486 18.7331C33.486 19.0811 33.7692 19.3643 34.1172 19.3643C34.4652 19.3643 34.7484 19.0811 34.7484 18.7331C34.7484 18.385 34.4652 18.1019 34.1172 18.1019Z" fill="white"/>
<path d="M26.5593 20.695C23.4738 20.695 20.9634 23.2053 20.9634 26.2909C20.9634 29.3765 23.4738 31.8868 26.5593 31.8868C29.645 31.8868 32.1553 29.3765 32.1553 26.2909C32.1553 23.2054 29.645 20.695 26.5593 20.695Z" fill="white"/>
<path d="M32.4318 13.2909H20.6868C16.7567 13.2909 13.5593 16.4883 13.5593 20.4184V32.1634C13.5593 36.0936 16.7567 39.2909 20.6868 39.2909H32.4318C36.362 39.2909 39.5593 36.0935 39.5593 32.1634V20.4184C39.5593 16.4883 36.362 13.2909 32.4318 13.2909ZM26.5593 33.4222C22.6271 33.4222 19.4281 30.2231 19.4281 26.2909C19.4281 22.3586 22.6271 19.1597 26.5593 19.1597C30.4915 19.1597 33.6906 22.3587 33.6906 26.2909C33.6906 30.2231 30.4915 33.4222 26.5593 33.4222ZM34.1171 20.8998C32.9225 20.8998 31.9505 19.9278 31.9505 18.7331C31.9505 17.5384 32.9225 16.5664 34.1171 16.5664C35.3118 16.5664 36.2838 17.5384 36.2838 18.7331C36.2838 19.9277 35.3118 20.8998 34.1171 20.8998Z" fill="white"/>
</g>
</g>
<defs>
<clipPath id="clip0_156_2566">
<rect width="52.9481" height="52.9481" fill="white" transform="translate(0.455505 0.290894)"/>
</clipPath>
<clipPath id="clip1_156_2566">
<rect width="26" height="26" fill="white" transform="translate(13.5593 13.2909)"/>
</clipPath>
</defs>
</svg>
