<svg width="53" height="54" viewBox="0 0 53 54" fill="none" xmlns="http://www.w3.org/2000/svg">
<g clip-path="url(#clip0_102_3497)">
<path d="M43.0203 53.2372H9.92777C4.44439 53.2372 0 48.7928 0 43.3094V10.2168C0 4.73345 4.44439 0.289062 9.92777 0.289062H43.0203C48.5037 0.289062 52.9481 4.73345 52.9481 10.2168V43.3094C52.9481 48.7928 48.5037 53.2372 43.0203 53.2372Z" fill="#F3F3F3"/>
<g clip-path="url(#clip1_102_3497)">
<path d="M26.1363 37.1195L27.0528 35.9487C27.7914 34.9946 34.3141 26.5208 34.3141 22.3057C34.3141 17.2417 31.0656 13.9688 26.0335 13.9688C21.0015 13.9688 17.7529 17.2417 17.7529 22.3057C17.7529 26.5268 24.2753 35.0006 25.0207 35.9487L25.9316 37.1195C22.116 37.1295 19.0389 37.6713 19.0389 38.3395C19.0389 39.0137 22.1723 39.5603 26.0375 39.5603C29.9027 39.5603 33.0361 39.0137 33.0361 38.3395C33.0361 37.6709 29.9555 37.1287 26.1363 37.1195ZM26.0335 24.9097C24.5524 24.9097 23.352 23.7413 23.352 22.3001C23.352 20.859 24.5524 19.6906 26.0335 19.6906C27.5147 19.6906 28.7151 20.859 28.7151 22.3001C28.7151 23.7413 27.5147 24.9097 26.0335 24.9097Z" fill="#6573FF"/>
</g>
</g>
<defs>
<clipPath id="clip0_102_3497">
<rect width="52.9481" height="52.9481" fill="white" transform="translate(0 0.289062)"/>
</clipPath>
<clipPath id="clip1_102_3497">
<rect width="25.5916" height="25.5916" fill="white" transform="translate(13.2373 13.9688)"/>
</clipPath>
</defs>
</svg>
