<svg width="54" height="54" viewBox="0 0 54 54" fill="none" xmlns="http://www.w3.org/2000/svg">
<g clip-path="url(#clip0_156_2533)">
<path d="M43.4241 53.2388H10.3316C4.8482 53.2388 0.403809 48.7944 0.403809 43.3111V10.2185C0.403809 4.73511 4.8482 0.290726 10.3316 0.290726H43.4241C48.9075 0.290726 53.3519 4.73511 53.3519 10.2185V43.3111C53.3519 48.7944 48.9075 53.2388 43.4241 53.2388Z" fill="#6573FF"/>
<g clip-path="url(#clip1_156_2533)">
<path d="M20.5689 28.1074L13.9364 25.2053C13.189 24.8785 13.2396 23.8015 14.0145 23.5465L39.2352 15.2323C39.8951 15.0149 40.538 15.604 40.3791 16.2807L35.3392 37.7093C35.1887 38.3495 34.4194 38.6106 33.9106 38.194L27.9886 33.3484L20.5689 28.1074Z" fill="white"/>
<path d="M34.3111 19.8598L20.5691 28.1075L22.2505 35.9069C22.4013 36.6066 23.2261 36.915 23.799 36.486L27.9888 33.3484L24.5415 30.5272L34.7453 20.4184C35.0445 20.122 34.6723 19.643 34.3111 19.8598Z" fill="#A7A9BD"/>
<path d="M22.8054 36.5937C23.1143 36.7333 23.4929 36.7151 23.7994 36.4855L27.9892 33.3479L26.2655 31.9373L24.5418 30.5267L22.8054 36.5937Z" fill="white"/>
</g>
</g>
<defs>
<clipPath id="clip0_156_2533">
<rect width="52.9481" height="52.9481" fill="white" transform="translate(0.403564 0.290894)"/>
</clipPath>
<clipPath id="clip1_156_2533">
<rect width="27" height="27" fill="white" transform="translate(13.4036 13.2909)"/>
</clipPath>
</defs>
</svg>
