<svg width="54" height="54" viewBox="0 0 54 54" fill="none" xmlns="http://www.w3.org/2000/svg">
<g clip-path="url(#clip0_102_3525)">
<path d="M43.4063 53.2372H10.3138C4.83037 53.2372 0.385986 48.7928 0.385986 43.3094V10.2168C0.385986 4.73345 4.83037 0.289062 10.3138 0.289062H43.4063C48.8897 0.289062 53.3341 4.73345 53.3341 10.2168V43.3094C53.3341 48.7928 48.8897 53.2372 43.4063 53.2372Z" fill="#F3F3F3"/>
<path d="M28.6291 27.6568L36.6836 19.8165C36.5057 19.7439 36.3115 19.7031 36.1076 19.7031H16.9088C16.7049 19.7031 16.5107 19.7439 16.3328 19.8165L24.3873 27.6568C25.5674 28.8059 27.4482 28.8059 28.6291 27.6568Z" fill="#6573FF"/>
<path d="M24.1091 28.4809L15.635 20.3945C15.4794 20.6332 15.3882 20.9179 15.3882 21.2241V33.1861C15.3882 34.026 16.0687 34.7066 16.9086 34.7066H36.1075C36.9474 34.7066 37.6279 34.026 37.6279 33.1861V21.2248C37.6279 20.9186 37.5367 20.6332 37.3811 20.3953L28.907 28.4816C27.5644 29.7627 25.4517 29.7627 24.1091 28.4816V28.4809Z" fill="#6573FF"/>
</g>
<defs>
<clipPath id="clip0_102_3525">
<rect width="52.9481" height="52.9481" fill="white" transform="translate(0.385742 0.289062)"/>
</clipPath>
</defs>
</svg>
