<svg width="1198" height="676" viewBox="0 0 1198 676" fill="none" xmlns="http://www.w3.org/2000/svg">
<path d="M585.741 161.543C572.307 161.539 559.038 162.14 546.016 163.293L546.096 134.975C559.118 133.822 572.387 133.22 585.821 133.225C585.794 142.664 585.768 152.104 585.741 161.543Z" fill="#00DAED"/>
<path d="M585.854 181.664C574.196 181.664 562.681 182.18 551.382 183.188L551.462 154.87C562.761 153.862 574.276 153.346 585.934 153.346C585.908 162.785 585.881 172.225 585.854 181.664Z" fill="#00DAED"/>
<path d="M546.096 134.973L540.737 115.107L540.657 143.425L546.016 163.291L551.382 183.187L551.462 154.869L546.096 134.973Z" fill="#004C69"/>
<path d="M556.836 174.761L556.755 203.078L551.382 183.187L551.462 154.869L556.836 174.761Z" fill="#004C69"/>
<path d="M585.967 201.785C576.085 201.781 566.331 202.225 556.755 203.078L556.836 174.76C566.411 173.907 576.165 173.463 586.047 173.467C586.021 182.907 585.994 192.346 585.967 201.785Z" fill="#00DAED"/>
<path d="M769.017 205.45C719.97 177.133 654.878 161.54 585.74 161.541C585.767 152.101 585.794 142.662 585.82 133.223C654.959 133.222 720.051 148.815 769.097 177.132C769.071 186.572 769.044 196.011 769.017 205.45Z" fill="#00DAED"/>
<path d="M744.529 219.683C702.062 195.165 645.707 181.663 585.854 181.664C585.881 172.224 585.907 162.785 585.934 153.346C645.787 153.345 702.142 166.847 744.609 191.365C744.582 200.804 744.556 210.244 744.529 219.683Z" fill="#00DAED"/>
<path d="M562.202 194.657L562.121 222.975L556.755 203.08L556.835 174.762L562.202 194.657Z" fill="#004C69"/>
<path d="M720.047 233.909C684.168 213.194 636.55 201.785 585.967 201.785C585.994 192.345 586.021 182.906 586.048 173.467C636.63 173.467 684.248 184.876 720.127 205.591C720.101 215.031 720.074 224.47 720.047 233.909Z" fill="#00DAED"/>
<path d="M818.705 245.413C806.22 230.802 789.549 217.305 769.018 205.451C769.044 196.011 769.071 186.572 769.098 177.133C789.629 188.986 806.3 202.483 818.785 217.095C818.761 225.59 818.729 236.917 818.705 245.413Z" fill="#00DAED"/>
<path d="M787.746 254.514C776.923 241.773 762.413 230.009 744.528 219.683C744.555 210.244 744.582 200.804 744.609 191.365C762.493 201.691 777.003 213.455 787.826 226.196C787.802 234.692 787.77 246.019 787.746 254.514Z" fill="#00DAED"/>
<path d="M756.802 263.615C747.625 252.743 735.284 242.707 720.047 233.91C720.074 224.47 720.1 215.031 720.127 205.592C735.365 214.389 747.706 224.424 756.883 235.296C756.859 243.792 756.826 255.119 756.802 263.615Z" fill="#00DAED"/>
<path d="M562.202 194.657C570.061 193.953 578.048 193.597 586.161 193.59C627.458 193.59 666.347 202.903 695.646 219.819C708.237 227.089 718.409 235.395 725.925 244.397C725.901 252.893 725.868 264.22 725.844 272.716C718.329 263.713 708.157 255.407 695.566 248.138C666.266 231.221 627.378 221.908 586.081 221.908C577.975 221.908 569.988 222.264 562.122 222.975L562.202 194.657Z" fill="#1865AD"/>
<path d="M793.58 162.906C724.556 123.055 630.008 107.125 540.737 115.108L546.096 134.974L551.462 154.869L556.836 174.761L562.202 194.656C570.061 193.952 578.047 193.596 586.161 193.589C627.458 193.589 666.346 202.903 695.646 219.819C708.237 227.088 718.409 235.394 725.924 244.397L756.883 235.296L787.827 226.195L818.785 217.095L849.685 208.011C835.746 191.727 817.046 176.454 793.58 162.906Z" fill="#2774BC"/>
<path d="M725.924 244.397L756.883 235.297L787.827 226.196L818.785 217.095L849.685 208.012L849.605 236.33L818.705 245.414L787.746 254.514L756.803 263.615L725.844 272.715L725.924 244.397Z" fill="#1865AD"/>
<path d="M542.435 131.551L542.355 159.869C488.336 164.667 438.565 179.219 399.297 202.038L399.378 173.72C438.645 150.901 488.416 136.349 542.435 131.551Z" fill="#00DAED"/>
<path d="M547.801 151.447L547.721 179.765C500.979 183.923 457.918 196.52 423.939 216.266L424.019 187.948C457.998 168.202 501.059 155.605 547.801 151.447Z" fill="#00DAED"/>
<path d="M553.167 171.342L553.087 199.66C513.63 203.182 477.271 213.819 448.581 230.492L448.661 202.174C477.351 185.501 513.71 174.863 553.167 171.342Z" fill="#00DAED"/>
<path d="M399.378 173.721L399.298 202.039C359.509 225.162 334.405 254.508 326.654 286.3L326.735 257.982C334.485 226.19 359.589 196.844 399.378 173.721Z" fill="#00DAED"/>
<path d="M424.019 187.947L423.939 216.265C389.373 236.353 367.615 261.871 360.983 289.509L361.064 261.191C367.695 233.553 389.453 208.035 424.019 187.947Z" fill="#00DAED"/>
<path d="M448.661 202.174L448.581 230.492C419.237 247.545 400.818 269.229 395.312 292.71L395.393 264.392C400.898 240.911 419.317 219.227 448.661 202.174Z" fill="#00DAED"/>
<path d="M395.392 264.394L361.063 261.192L326.734 257.983L292.449 254.781L292.369 283.099L326.654 286.301L360.983 289.511L395.312 292.712L429.634 295.917L429.714 267.599L395.392 264.394Z" fill="#B5C7E8"/>
<path d="M553.167 171.342L547.801 151.447L542.435 131.551L537.069 111.689C477.585 117.008 420.43 132.93 374.728 159.489C328.542 186.33 301.133 219.911 292.449 254.781L326.734 257.982L361.063 261.192L395.393 264.393L429.714 267.598C434.101 248.279 449.188 230.423 473.31 216.406C496.712 202.806 526.361 194.124 558.541 191.234L553.167 171.342Z" fill="#CCDEFF"/>
<path d="M473.31 216.404C449.188 230.422 434.101 248.278 429.714 267.597L429.634 295.915C434.021 276.596 449.108 258.74 473.23 244.722C496.632 231.123 526.281 222.44 558.461 219.551L558.541 191.232C526.361 194.122 496.712 202.805 473.31 216.404Z" fill="#B5C7E8"/>
<path d="M847.703 284.7L847.623 313.018C847.484 289.733 838.249 267.264 820.906 246.963L820.986 218.645C838.33 238.946 847.564 261.415 847.703 284.7Z" fill="#00DAED"/>
<path d="M812.965 284.701L812.885 313.019C812.772 292.948 804.836 273.578 789.948 256.064L790.028 227.746C804.917 245.26 812.852 264.63 812.965 284.701Z" fill="#00DAED"/>
<path d="M778.226 284.7L778.146 313.018C778.051 296.166 771.423 279.89 758.989 265.164L759.07 236.846C771.503 251.572 778.131 267.848 778.226 284.7Z" fill="#00DAED"/>
<path d="M743.488 284.702L743.407 313.02C743.331 299.377 738.017 286.209 728.038 274.261L728.118 245.943C738.097 257.891 743.411 271.059 743.488 284.702Z" fill="#DEDFF1"/>
<path d="M743.488 284.701L743.407 313.019C743.535 336.944 727.589 359.435 698.473 376.356L698.553 348.038C727.669 331.117 743.615 308.626 743.488 284.701Z" fill="#00DAED"/>
<path d="M778.226 284.701L778.146 313.019C778.311 342.318 758.768 369.863 723.114 390.583L723.195 362.265C758.848 341.545 778.391 314 778.226 284.701Z" fill="#00DAED"/>
<path d="M759.069 236.846C771.503 251.572 778.131 267.848 778.226 284.7C778.391 313.999 758.848 341.544 723.194 362.264C722.57 362.627 721.931 362.981 721.299 363.34L696.65 349.109C697.289 348.754 697.928 348.4 698.553 348.037C727.669 331.116 743.615 308.625 743.487 284.7C743.41 271.058 738.097 257.89 728.118 245.942L759.069 236.846Z" fill="#ECEDFF"/>
<path d="M723.194 362.266L723.114 390.584C722.49 390.947 721.85 391.301 721.219 391.659L721.299 363.341C721.931 362.983 722.57 362.628 723.194 362.266Z" fill="#007AA2"/>
<path d="M812.965 284.701L812.884 313.019C813.072 347.693 789.947 380.291 747.756 404.81L747.836 376.492C790.027 351.973 813.152 319.374 812.965 284.701Z" fill="#00DAED"/>
<path d="M790.028 227.746C804.917 245.26 812.852 264.63 812.965 284.701C813.153 319.374 790.027 351.973 747.836 376.492C747.212 376.855 746.573 377.209 745.941 377.568L721.299 363.341C721.931 362.982 722.57 362.628 723.195 362.265C758.848 341.545 778.391 314 778.226 284.701C778.131 267.849 771.503 251.573 759.069 236.847L790.028 227.746Z" fill="#ECEDFF"/>
<path d="M847.703 284.701L847.623 313.019C847.849 353.067 821.141 390.72 772.405 419.042L772.486 390.723C821.221 362.401 847.929 324.749 847.703 284.701Z" fill="#00DAED"/>
<path d="M696.65 349.109L721.299 363.341L745.941 377.568L770.582 391.795L795.232 406.026L795.151 434.344L770.502 420.112L745.861 405.886L721.219 391.659L696.57 377.428L696.65 349.109Z" fill="#DEDFF1"/>
<path d="M820.986 218.645C838.33 238.946 847.565 261.415 847.703 284.7C847.929 324.747 821.221 362.4 772.485 390.722C771.861 391.085 771.214 391.435 770.583 391.794L745.941 377.567C746.573 377.208 747.212 376.854 747.836 376.491C790.027 351.972 813.152 319.373 812.965 284.7C812.852 264.63 804.917 245.259 790.028 227.745L820.986 218.645Z" fill="#ECEDFF"/>
<path d="M882.439 285.543L882.358 313.861C882.236 357.1 853.819 400.275 797.047 433.267C796.422 433.63 795.776 433.98 795.151 434.343L795.232 406.025C795.856 405.662 796.503 405.312 797.127 404.949C853.899 371.957 882.316 328.782 882.439 285.543Z" fill="#DEDFF1"/>
<path d="M851.886 209.562C906.26 273.087 888.09 352.089 797.127 404.951C796.503 405.314 795.856 405.664 795.232 406.026L770.583 391.795C771.214 391.437 771.861 391.087 772.485 390.724C821.221 362.402 847.929 324.749 847.703 284.702C847.565 261.417 838.33 238.947 820.986 218.646L851.886 209.562Z" fill="#ECEDFF"/>
<path d="M319.735 311.142L319.816 282.824C319.841 275.747 320.703 268.699 322.384 261.824L322.304 290.142C320.623 297.017 319.761 304.065 319.735 311.142Z" fill="#00DAED"/>
<path d="M354.474 311.247L354.554 282.929C354.577 276.898 355.304 270.891 356.72 265.029L356.64 293.347C355.224 299.209 354.497 305.216 354.474 311.247Z" fill="#00DAED"/>
<path d="M389.212 311.349L389.293 283.031C389.312 278.049 389.899 273.085 391.042 268.236L390.962 296.554C389.818 301.403 389.232 306.367 389.212 311.349Z" fill="#00DAED"/>
<path d="M423.951 311.448L424.031 283.13C424.046 279.195 424.496 275.274 425.371 271.438L425.291 299.756C424.415 303.592 423.966 307.513 423.951 311.448Z" fill="#5290C9"/>
<path d="M423.951 311.447L424.031 283.129C424.031 283.276 424.031 283.424 424.032 283.572C424.159 307.497 440.373 329.988 469.672 346.904C481.901 353.964 495.794 359.688 510.83 363.978L510.749 392.296C495.714 388.006 481.82 382.282 469.592 375.222C440.292 358.306 424.079 335.815 423.952 311.89C423.951 311.742 423.95 311.594 423.951 311.447Z" fill="#00DAED"/>
<path d="M389.213 311.347L389.293 283.029C389.292 283.21 389.293 283.391 389.294 283.572C389.459 312.871 409.312 340.416 445.191 361.131C460.074 369.723 476.967 376.702 495.25 381.948L495.169 410.266C476.886 405.02 459.993 398.042 445.111 389.449C409.231 368.734 389.378 341.189 389.213 311.89C389.212 311.709 389.212 311.528 389.213 311.347Z" fill="#00DAED"/>
<path d="M354.474 311.248L354.554 282.93C354.554 283.144 354.554 283.358 354.555 283.573C354.75 318.25 378.243 350.849 420.702 375.363C438.232 385.484 458.131 393.722 479.669 399.911L479.589 428.229C458.05 422.04 438.151 413.802 420.622 403.681C378.162 379.167 354.67 346.568 354.475 311.891C354.474 311.676 354.473 311.462 354.474 311.248Z" fill="#00DAED"/>
<path d="M319.735 311.142L319.815 282.824C319.815 283.074 319.815 283.323 319.817 283.572C320.035 323.624 347.174 361.273 396.221 389.59C416.404 401.243 439.31 410.74 464.088 417.881L464.008 446.199C439.229 439.058 416.324 429.561 396.14 417.908C347.093 389.591 319.954 351.942 319.736 311.891C319.735 311.641 319.735 311.392 319.735 311.142Z" fill="#00DAED"/>
<path d="M285 311.052L285.081 282.734C284.957 326.534 313.856 370.399 371.739 403.817C394.865 417.169 420.85 427.832 448.537 435.81L448.457 464.128C420.77 456.15 394.785 445.487 371.659 432.135C313.776 398.717 284.876 354.852 285 311.052Z" fill="#4957E3"/>
<path d="M469.673 346.904C440.374 329.988 424.16 307.497 424.032 283.572C424.013 279.489 424.463 275.417 425.372 271.437L391.043 268.235L356.721 265.03L322.384 261.824L288.099 258.623C275.301 310.033 303.204 364.248 371.739 403.817C394.865 417.169 420.85 427.831 448.537 435.809L464.089 417.881L479.669 399.911L495.25 381.949L510.83 363.978C495.795 359.688 481.901 353.964 469.673 346.904Z" fill="#6573FF"/>
<path d="M495.249 381.949L495.169 410.267L510.75 392.297L510.83 363.979L495.249 381.949Z" fill="#4957E3"/>
<path d="M479.669 399.912L464.088 417.882L448.537 435.81L448.457 464.128L464.008 446.2L479.589 428.229L495.169 410.267L495.249 381.949L479.669 399.912Z" fill="#4957E3"/>
<path d="M692.531 351.258L692.451 379.576C663.574 395.809 625.577 404.735 585.164 404.735C561.096 404.735 537.843 401.564 516.836 395.571L516.917 367.253C537.923 373.246 561.176 376.417 585.244 376.417C625.657 376.417 663.654 367.491 692.531 351.258Z" fill="#00DAED"/>
<path d="M717.181 365.49L717.1 393.808C681.671 413.841 634.975 424.858 585.277 424.858C555.668 424.858 527.083 420.94 501.256 413.543L501.336 385.225C527.163 392.622 555.748 396.54 585.358 396.54C635.056 396.54 681.751 385.523 717.181 365.49Z" fill="#00DAED"/>
<path d="M741.822 379.717L741.742 408.035C699.775 431.866 644.366 444.975 585.39 444.98C550.239 444.98 516.307 440.315 485.682 431.509L485.762 403.191C516.387 411.996 550.319 416.662 585.47 416.662C644.446 416.657 699.856 403.548 741.822 379.717Z" fill="#00DAED"/>
<path d="M766.472 393.947L766.391 422.265C717.88 449.892 653.758 465.101 585.504 465.101C544.818 465.097 505.539 459.693 470.095 449.474L470.175 421.156C505.62 431.375 544.899 436.779 585.584 436.783C653.838 436.783 717.961 421.573 766.472 393.947Z" fill="#00DAED"/>
<path d="M766.471 393.947L741.822 379.716L717.184 365.491L717.185 365.491L703.932 357.846L692.535 351.262C691.893 351.624 691.251 351.973 690.596 352.322C661.97 367.876 624.765 376.414 585.244 376.414C561.18 376.414 537.925 373.247 516.916 367.249L501.334 385.216C507.678 387.036 514.181 388.643 520.843 390.035C514.192 388.645 507.69 387.041 501.336 385.223L485.763 403.189L470.175 421.156L454.631 439.088C563.932 470.598 699.814 460.289 791.113 408.174L766.471 393.947Z" fill="#84B3FF"/>
<path d="M791.113 408.174L791.033 436.492C699.734 488.607 563.852 498.916 454.551 467.406L454.631 439.088C563.932 470.598 699.814 460.289 791.113 408.174Z" fill="#77A2E8"/>
<ellipse cx="585.984" cy="326.096" rx="108.715" ry="26.9042" fill="url(#paint0_radial_102_2838)" fill-opacity="0.37"/>
<circle cx="589.817" cy="211.901" r="93.901" fill="#D1D3D4"/>
<circle cx="582.151" cy="213.817" r="93.901" fill="#F1F2F2"/>
<g clip-path="url(#clip0_102_2838)">
<path d="M661.68 213.817C661.68 169.895 626.074 134.289 582.152 134.289C538.23 134.289 502.624 169.895 502.624 213.817C502.624 257.74 538.23 293.346 582.152 293.346C626.074 293.346 661.68 257.74 661.68 213.817Z" fill="#7681F3"/>
<path fill-rule="evenodd" clip-rule="evenodd" d="M563.443 253.387V231.715H569.166V246.696C586.054 250.769 602.802 242.77 609.641 227.788C611.595 223.57 612.432 219.061 612.572 214.407C612.665 207.043 612.634 199.744 612.603 192.423C612.587 188.755 612.572 185.08 612.572 181.39C612.572 181.099 612.572 180.808 612.432 180.226H596.382V174.117H618.573V176.881C618.573 180.42 618.558 183.959 618.542 187.499C618.512 194.577 618.48 201.656 618.573 208.734C618.713 215.57 618.434 222.406 615.782 228.806C609.222 243.933 598.057 252.369 582.006 253.387C578.03 253.676 573.993 253.582 569.853 253.486C567.745 253.437 565.61 253.387 563.443 253.387ZM548.23 253.387H542.647C542.647 252.931 542.609 252.475 542.573 252.039C542.54 251.642 542.508 251.262 542.508 250.914C542.508 247.806 542.524 244.714 542.539 241.627C542.57 235.47 542.601 229.334 542.508 223.134C542.497 222.642 542.485 222.15 542.473 221.66C542.335 215.918 542.199 210.29 543.485 204.662C545.444 196.08 550.087 188.421 556.682 182.891C563.277 177.361 571.449 174.275 579.913 174.117C582.508 174.021 585.103 174.052 587.739 174.085C589.072 174.101 590.416 174.117 591.776 174.117V180.372C590.748 180.372 589.734 180.388 588.726 180.404C586.726 180.437 584.746 180.468 582.704 180.372C563.862 179.354 546.974 194.917 548.37 218.625C548.853 226.479 548.734 234.333 548.615 242.188C548.562 245.678 548.51 249.169 548.51 252.66C548.37 252.805 548.23 253.096 548.23 253.387ZM608.245 185.172V208.153C608.245 211.934 608.245 215.716 607.687 219.352C605.733 231.861 594.567 242.042 582.285 242.479C580.522 242.575 578.698 242.544 576.852 242.511C575.922 242.495 574.986 242.479 574.051 242.479V231.861H579.773C579.843 232.588 579.878 233.315 579.912 234.043C579.947 234.77 579.982 235.497 580.052 236.224C585.495 236.515 590.101 234.77 594.148 231.424C599.592 226.916 602.383 220.952 602.383 213.68C602.476 209.209 602.445 204.737 602.414 200.309C602.398 198.111 602.383 195.924 602.383 193.753C602.383 193.026 602.383 192.153 602.243 191.281H596.661V185.172H608.245ZM591.776 191.135H581.168C571.259 191.281 564.42 196.226 560.373 205.535C560.004 206.398 559.819 207.26 559.614 208.207C559.509 208.696 559.399 209.208 559.256 209.752H579.494V216.007H552.836C552.573 212.172 553.041 208.321 554.215 204.676C555.389 201.031 557.245 197.664 559.675 194.772C568.188 184.299 579.773 184.153 591.776 185.026V191.135ZM579.633 220.807H553.115V253.242H558.977V226.916H579.633V220.807Z" fill="#2E2E2E"/>
<path fill-rule="evenodd" clip-rule="evenodd" d="M563.443 253.387V231.715H569.166V246.696C586.054 250.769 602.802 242.77 609.641 227.788C611.595 223.57 612.432 219.061 612.572 214.407C612.665 207.043 612.634 199.744 612.603 192.423C612.587 188.755 612.572 185.08 612.572 181.39C612.572 181.099 612.572 180.808 612.432 180.226H596.382V174.117H618.573V176.881C618.573 180.42 618.558 183.959 618.542 187.499C618.512 194.577 618.48 201.656 618.573 208.734C618.713 215.57 618.434 222.406 615.782 228.806C609.222 243.933 598.057 252.369 582.006 253.387C578.03 253.676 573.993 253.582 569.853 253.486C567.745 253.437 565.61 253.387 563.443 253.387ZM548.23 253.387H542.647C542.647 252.931 542.609 252.475 542.573 252.039C542.54 251.642 542.508 251.262 542.508 250.914C542.508 247.806 542.524 244.714 542.539 241.627C542.57 235.47 542.601 229.334 542.508 223.134C542.497 222.642 542.485 222.15 542.473 221.66C542.335 215.918 542.199 210.29 543.485 204.662C545.444 196.08 550.087 188.421 556.682 182.891C563.277 177.361 571.449 174.275 579.913 174.117C582.508 174.021 585.103 174.052 587.739 174.085C589.072 174.101 590.416 174.117 591.776 174.117V180.372C590.748 180.372 589.734 180.388 588.726 180.404C586.726 180.437 584.746 180.468 582.704 180.372C563.862 179.354 546.974 194.917 548.37 218.625C548.853 226.479 548.734 234.333 548.615 242.188C548.562 245.678 548.51 249.169 548.51 252.66C548.37 252.805 548.23 253.096 548.23 253.387ZM608.245 185.172V208.153C608.245 211.934 608.245 215.716 607.687 219.352C605.733 231.861 594.567 242.042 582.285 242.479C580.522 242.575 578.698 242.544 576.852 242.511C575.922 242.495 574.986 242.479 574.051 242.479V231.861H579.773C579.843 232.588 579.878 233.315 579.912 234.043C579.947 234.77 579.982 235.497 580.052 236.224C585.495 236.515 590.101 234.77 594.148 231.424C599.592 226.916 602.383 220.952 602.383 213.68C602.476 209.209 602.445 204.737 602.414 200.309C602.398 198.111 602.383 195.924 602.383 193.753C602.383 193.026 602.383 192.153 602.243 191.281H596.661V185.172H608.245ZM591.776 191.135H581.168C571.259 191.281 564.42 196.226 560.373 205.535C560.004 206.398 559.819 207.26 559.614 208.207C559.509 208.696 559.399 209.208 559.256 209.752H579.494V216.007H552.836C552.573 212.172 553.041 208.321 554.215 204.676C555.389 201.031 557.245 197.664 559.675 194.772C568.188 184.299 579.773 184.153 591.776 185.026V191.135ZM579.633 220.807H553.115V253.242H558.977V226.916H579.633V220.807Z" fill="white"/>
</g>
<g filter="url(#filter0_d_102_2838)">
<rect x="19" y="26" width="277" height="125" rx="11" fill="white" fill-opacity="0.41" shape-rendering="crispEdges"/>
<path d="M51.296 70.247C47.686 70.247 44.76 67.1595 44.76 63.35C44.76 59.5405 47.686 56.453 51.296 56.453C53.443 56.453 55.324 57.536 56.521 59.1985L54.7635 60.139C53.937 59.094 52.664 58.429 51.296 58.429C48.7595 58.429 46.736 60.6615 46.736 63.35C46.736 66.0575 48.7785 68.271 51.296 68.271C52.6925 68.271 53.9465 67.587 54.7635 66.5515L56.521 67.511C55.324 69.1735 53.443 70.247 51.296 70.247ZM62.2385 70.247C59.6165 70.247 57.4885 68.005 57.4885 65.25C57.4885 62.476 59.6165 60.234 62.2385 60.234C64.8605 60.234 66.9885 62.476 66.9885 65.25C66.9885 68.005 64.8605 70.247 62.2385 70.247ZM62.2385 68.271C63.806 68.271 65.0125 66.8745 65.0125 65.25C65.0125 63.597 63.768 62.21 62.2385 62.21C60.671 62.21 59.4645 63.616 59.4645 65.25C59.4645 66.9505 60.728 68.271 62.2385 68.271ZM77.2634 64.034V70H75.2874V64.528C75.2874 63.255 74.2614 62.229 72.9884 62.229C71.7249 62.229 70.6894 63.255 70.6894 64.528V70H68.7134V60.5H70.6894V61.507C71.3544 60.728 72.3519 60.234 73.4634 60.234C75.5629 60.234 77.2634 61.9345 77.2634 64.034ZM84.3656 62.476H82.3706L82.3611 70H80.3851L80.3946 62.476H78.8841V60.5H80.3946L80.3851 57.517H82.3611L82.3706 60.5H84.3656V62.476ZM87.1241 59.1225C86.5256 59.1225 86.0696 58.6855 86.0696 58.087C86.0696 57.498 86.5256 57.0515 87.1241 57.0515C87.7036 57.0515 88.1691 57.498 88.1691 58.087C88.1691 58.6855 87.7131 59.1225 87.1241 59.1225ZM86.1266 60.5H88.1026V70H86.1266V60.5ZM99.0599 64.034V70H97.0839V64.528C97.0839 63.255 96.0579 62.229 94.7849 62.229C93.5214 62.229 92.4859 63.255 92.4859 64.528V70H90.5099V60.5H92.4859V61.507C93.1509 60.728 94.1484 60.234 95.2599 60.234C97.3594 60.234 99.0599 61.9345 99.0599 64.034ZM100.766 66.4375V60.5H102.742V65.953C102.742 67.226 103.778 68.252 105.041 68.252C106.314 68.252 107.331 67.226 107.331 65.953V60.5H109.307L109.316 70H107.34L107.331 68.974C106.675 69.753 105.678 70.247 104.576 70.247C102.467 70.247 100.766 68.5465 100.766 66.4375ZM115.462 70.247C112.84 70.247 110.712 68.005 110.712 65.25C110.712 62.476 112.84 60.234 115.462 60.234C118.084 60.234 120.212 62.476 120.212 65.25C120.212 68.005 118.084 70.247 115.462 70.247ZM115.462 68.271C117.029 68.271 118.236 66.8745 118.236 65.25C118.236 63.597 116.991 62.21 115.462 62.21C113.894 62.21 112.688 63.616 112.688 65.25C112.688 66.9505 113.951 68.271 115.462 68.271ZM121.371 66.4375V60.5H123.347V65.953C123.347 67.226 124.382 68.252 125.646 68.252C126.919 68.252 127.935 67.226 127.935 65.953V60.5H129.911L129.921 70H127.945L127.935 68.974C127.28 69.753 126.282 70.247 125.18 70.247C123.071 70.247 121.371 68.5465 121.371 66.4375ZM134.866 70.1805C133.356 70.095 131.874 69.335 131.351 68.138L133.033 67.416C133.289 67.9385 134.154 68.48 135.066 68.48C135.94 68.48 136.776 68.081 136.776 67.321C136.776 66.485 135.797 66.295 134.961 66.0765C133.08 65.649 131.57 64.832 131.57 63.1505C131.57 61.3265 133.232 60.177 135.075 60.177C136.595 60.177 137.944 60.861 138.619 61.9915L137.051 62.9225C136.757 62.3525 135.997 61.925 135.237 61.887C134.249 61.849 133.422 62.248 133.422 63.103C133.422 63.939 134.429 64.0245 135.389 64.3285C137.07 64.8795 138.647 65.6775 138.609 67.2925C138.609 69.0785 136.785 70.2945 134.866 70.1805ZM145.465 70V56.7H147.441V70H145.465ZM158.744 64.034V70H156.768V64.528C156.768 63.255 155.742 62.229 154.469 62.229C153.206 62.229 152.17 63.255 152.17 64.528V70H150.194V60.5H152.17V61.507C152.835 60.728 153.833 60.234 154.944 60.234C157.044 60.234 158.744 61.9345 158.744 64.034ZM165.847 62.476H163.852L163.842 70H161.866L161.876 62.476H160.365V60.5H161.876L161.866 57.517H163.842L163.852 60.5H165.847V62.476ZM171.695 70.247C169.073 70.247 166.945 68.005 166.945 65.25C166.945 62.476 169.073 60.234 171.695 60.234C174.602 60.234 176.72 62.856 176.388 65.9435H169.063C169.301 67.264 170.317 68.2615 171.695 68.271C172.654 68.271 173.481 67.758 173.984 66.9125L175.989 67.378C175.229 69.069 173.595 70.247 171.695 70.247ZM168.997 64.433H174.393C174.193 63.0745 173.063 61.982 171.695 61.982C170.327 61.982 169.225 63.046 168.997 64.433ZM185.362 60.5H187.338V70.247C187.338 72.869 184.944 74.75 182.303 74.75C180.308 74.75 178.408 73.363 177.724 71.5485L179.539 70.7315C179.909 71.9095 181.106 72.7645 182.303 72.7645C183.861 72.7645 185.362 71.729 185.362 70.247V68.6415C184.735 69.601 183.747 70.247 182.465 70.247C179.757 70.247 177.563 68.005 177.563 65.25C177.563 62.4855 179.757 60.2435 182.465 60.2435C183.747 60.2435 184.735 60.8895 185.362 61.8585V60.5ZM182.493 68.3375C184.118 68.3375 185.229 66.922 185.229 65.25C185.229 63.5495 184.108 62.153 182.493 62.153C180.878 62.153 179.586 63.54 179.586 65.25C179.586 66.9695 180.897 68.3375 182.493 68.3375ZM189.808 70V60.5H191.784V61.507C192.449 60.728 193.446 60.234 194.558 60.234C194.919 60.234 195.28 60.2815 195.612 60.3765L194.824 62.3715C194.596 62.286 194.349 62.229 194.083 62.229C192.819 62.229 191.784 63.255 191.784 64.528V70H189.808ZM203.846 60.5H205.822V70H203.836L203.76 68.6225C203.2 69.601 202.25 70.247 200.948 70.247C198.146 70.247 195.885 67.967 195.885 65.1645C195.885 62.438 198.07 60.234 200.787 60.234C202.164 60.234 203.228 60.9275 203.931 61.906L203.846 60.5ZM200.901 68.3375C202.573 68.3375 203.684 66.96 203.684 65.25C203.684 63.521 202.554 62.153 200.901 62.153C199.238 62.153 197.908 63.54 197.908 65.25C197.908 66.979 199.276 68.3375 200.901 68.3375ZM212.924 62.476H210.929L210.919 70H208.943L208.953 62.476H207.442V60.5H208.953L208.943 57.517H210.919L210.929 60.5H212.924V62.476ZM215.682 59.1225C215.084 59.1225 214.628 58.6855 214.628 58.087C214.628 57.498 215.084 57.0515 215.682 57.0515C216.262 57.0515 216.727 57.498 216.727 58.087C216.727 58.6855 216.271 59.1225 215.682 59.1225ZM214.685 60.5H216.661V70H214.685V60.5ZM223.137 70.247C220.515 70.247 218.387 68.005 218.387 65.25C218.387 62.476 220.515 60.234 223.137 60.234C225.759 60.234 227.887 62.476 227.887 65.25C227.887 68.005 225.759 70.247 223.137 70.247ZM223.137 68.271C224.704 68.271 225.911 66.8745 225.911 65.25C225.911 63.597 224.666 62.21 223.137 62.21C221.569 62.21 220.363 63.616 220.363 65.25C220.363 66.9505 221.626 68.271 223.137 68.271ZM238.161 64.034V70H236.185V64.528C236.185 63.255 235.159 62.229 233.886 62.229C232.623 62.229 231.587 63.255 231.587 64.528V70H229.611V60.5H231.587V61.507C232.252 60.728 233.25 60.234 234.361 60.234C236.461 60.234 238.161 61.9345 238.161 64.034ZM55.2005 81.7V83.676H50.9635V95H48.9875V83.676H44.76V81.7H55.2005ZM60.012 95.247C57.39 95.247 55.262 93.005 55.262 90.25C55.262 87.476 57.39 85.234 60.012 85.234C62.919 85.234 65.0375 87.856 64.705 90.9435H57.3805C57.618 92.264 58.6345 93.2615 60.012 93.271C60.9715 93.271 61.798 92.758 62.3015 91.9125L64.306 92.378C63.546 94.069 61.912 95.247 60.012 95.247ZM57.314 89.433H62.71C62.5105 88.0745 61.38 86.982 60.012 86.982C58.644 86.982 57.542 88.046 57.314 89.433ZM69.3554 95.1805C67.8449 95.095 66.3629 94.335 65.8404 93.138L67.5219 92.416C67.7784 92.9385 68.6429 93.48 69.5549 93.48C70.4289 93.48 71.2649 93.081 71.2649 92.321C71.2649 91.485 70.2864 91.295 69.4504 91.0765C67.5694 90.649 66.0589 89.832 66.0589 88.1505C66.0589 86.3265 67.7214 85.177 69.5644 85.177C71.0844 85.177 72.4334 85.861 73.1079 86.9915L71.5404 87.9225C71.2459 87.3525 70.4859 86.925 69.7259 86.887C68.7379 86.849 67.9114 87.248 67.9114 88.103C67.9114 88.939 68.9184 89.0245 69.8779 89.3285C71.5594 89.8795 73.1364 90.6775 73.0984 92.2925C73.0984 94.0785 71.2744 95.2945 69.3554 95.1805ZM79.9311 87.476H77.9361L77.9266 95H75.9506L75.9601 87.476H74.4496V85.5H75.9601L75.9506 82.517H77.9266L77.9361 85.5H79.9311V87.476ZM82.6895 84.1225C82.091 84.1225 81.635 83.6855 81.635 83.087C81.635 82.498 82.091 82.0515 82.6895 82.0515C83.269 82.0515 83.7345 82.498 83.7345 83.087C83.7345 83.6855 83.2785 84.1225 82.6895 84.1225ZM81.692 85.5H83.668V95H81.692V85.5ZM94.6254 89.034V95H92.6494V89.528C92.6494 88.255 91.6234 87.229 90.3504 87.229C89.0869 87.229 88.0514 88.255 88.0514 89.528V95H86.0754V85.5H88.0514V86.507C88.7164 85.728 89.7139 85.234 90.8254 85.234C92.9249 85.234 94.6254 86.9345 94.6254 89.034ZM103.756 85.5H105.732V95.247C105.732 97.869 103.338 99.75 100.697 99.75C98.7016 99.75 96.8016 98.363 96.1176 96.5485L97.9321 95.7315C98.3026 96.9095 99.4996 97.7645 100.697 97.7645C102.255 97.7645 103.756 96.729 103.756 95.247V93.6415C103.129 94.601 102.141 95.247 100.858 95.247C98.1506 95.247 95.9561 93.005 95.9561 90.25C95.9561 87.4855 98.1506 85.2435 100.858 85.2435C102.141 85.2435 103.129 85.8895 103.756 86.8585V85.5ZM100.887 93.3375C102.511 93.3375 103.623 91.922 103.623 90.25C103.623 88.5495 102.502 87.153 100.887 87.153C99.2716 87.153 97.9796 88.54 97.9796 90.25C97.9796 91.9695 99.2906 93.3375 100.887 93.3375ZM120.347 85.5H122.323V95H120.337L120.261 93.6225C119.701 94.601 118.751 95.247 117.449 95.247C114.647 95.247 112.386 92.967 112.386 90.1645C112.386 87.438 114.571 85.234 117.288 85.234C118.665 85.234 119.729 85.9275 120.432 86.906L120.347 85.5ZM117.402 93.3375C119.074 93.3375 120.185 91.96 120.185 90.25C120.185 88.521 119.055 87.153 117.402 87.153C115.739 87.153 114.409 88.54 114.409 90.25C114.409 91.979 115.777 93.3375 117.402 93.3375ZM127.259 95.1805C125.748 95.095 124.266 94.335 123.744 93.138L125.425 92.416C125.682 92.9385 126.546 93.48 127.458 93.48C128.332 93.48 129.168 93.081 129.168 92.321C129.168 91.485 128.19 91.295 127.354 91.0765C125.473 90.649 123.962 89.832 123.962 88.1505C123.962 86.3265 125.625 85.177 127.468 85.177C128.988 85.177 130.337 85.861 131.011 86.9915L129.444 87.9225C129.149 87.3525 128.389 86.925 127.629 86.887C126.641 86.849 125.815 87.248 125.815 88.103C125.815 88.939 126.822 89.0245 127.781 89.3285C129.463 89.8795 131.04 90.6775 131.002 92.2925C131.002 94.0785 129.178 95.2945 127.259 95.1805ZM139.549 99.75H137.573V85.5H139.549V86.8965C140.176 85.9275 141.173 85.253 142.513 85.253C145.277 85.253 147.51 87.495 147.51 90.25C147.51 93.024 145.277 95.266 142.513 95.266C141.173 95.266 140.176 94.5915 139.549 93.6225V99.75ZM142.494 87.1625C140.85 87.1625 139.71 88.54 139.71 90.25C139.71 91.96 140.831 93.347 142.494 93.347C144.128 93.347 145.496 91.9885 145.496 90.25C145.496 88.559 144.156 87.1625 142.494 87.1625ZM156.621 85.5H158.597V95H156.611L156.535 93.6225C155.975 94.601 155.025 95.247 153.723 95.247C150.921 95.247 148.66 92.967 148.66 90.1645C148.66 87.438 150.845 85.234 153.562 85.234C154.939 85.234 156.003 85.9275 156.706 86.906L156.621 85.5ZM153.676 93.3375C155.348 93.3375 156.459 91.96 156.459 90.25C156.459 88.521 155.329 87.153 153.676 87.153C152.013 87.153 150.683 88.54 150.683 90.25C150.683 91.979 152.051 93.3375 153.676 93.3375ZM160.682 95V85.5H162.658V86.507C163.323 85.728 164.321 85.234 165.432 85.234C165.793 85.234 166.154 85.2815 166.487 85.3765L165.698 87.3715C165.47 87.286 165.223 87.229 164.957 87.229C163.694 87.229 162.658 88.255 162.658 89.528V95H160.682ZM173.032 87.476H171.037L171.027 95H169.051L169.061 87.476H167.55V85.5H169.061L169.051 82.517H171.027L171.037 85.5H173.032V87.476ZM183.857 95.247C181.235 95.247 179.107 93.005 179.107 90.25C179.107 87.476 181.235 85.234 183.857 85.234C186.479 85.234 188.607 87.476 188.607 90.25C188.607 93.005 186.479 95.247 183.857 95.247ZM183.857 93.271C185.425 93.271 186.631 91.8745 186.631 90.25C186.631 88.597 185.387 87.21 183.857 87.21C182.29 87.21 181.083 88.616 181.083 90.25C181.083 91.9505 182.347 93.271 183.857 93.271ZM192.94 83.3435V85.5H195.619V87.476H192.94V95H190.964V87.476H189.834V85.5H190.964V83.3435C190.964 81.7855 192.228 80.522 193.795 80.522C194.546 80.522 195.306 80.826 195.876 81.453L194.46 82.8495C194.308 82.6215 194.042 82.498 193.795 82.498C193.32 82.498 192.94 82.8685 192.94 83.3435ZM202.16 95V81.7H206.882C208.924 81.7 210.549 83.0205 210.549 85.196C210.549 86.2505 210.017 87.3715 209.133 87.6945C210.758 88.1125 211.223 89.9745 211.223 91.3045C211.223 93.4515 209.523 95 207.442 95H202.16ZM204.136 86.963H206.673C207.718 86.963 208.573 86.2885 208.573 85.1865C208.573 84.0085 207.718 83.4195 206.673 83.4195H204.136V86.963ZM204.136 93.29H207.252C208.459 93.29 209.447 92.2925 209.447 90.934C209.447 89.756 208.459 88.6445 207.252 88.6445H204.136V93.29ZM212.639 91.4375V85.5H214.615V90.953C214.615 92.226 215.651 93.252 216.914 93.252C218.187 93.252 219.204 92.226 219.204 90.953V85.5H221.18L221.189 95H219.213L219.204 93.974C218.548 94.753 217.551 95.247 216.449 95.247C214.34 95.247 212.639 93.5465 212.639 91.4375ZM224.282 84.1225C223.683 84.1225 223.227 83.6855 223.227 83.087C223.227 82.498 223.683 82.0515 224.282 82.0515C224.861 82.0515 225.327 82.498 225.327 83.087C225.327 83.6855 224.871 84.1225 224.282 84.1225ZM223.284 85.5H225.26V95H223.284V85.5ZM227.76 95V80.75H229.736V95H227.76ZM239.47 80.75H241.446V95H239.47V93.6035C238.843 94.5915 237.836 95.247 236.497 95.247C233.742 95.247 231.5 93.005 231.5 90.25C231.5 87.4855 233.742 85.2435 236.497 85.2435C237.836 85.2435 238.843 85.9085 239.47 86.8775V80.75ZM236.516 93.3375C238.188 93.3375 239.299 91.96 239.299 90.25C239.299 88.521 238.169 87.153 236.516 87.153C234.853 87.153 233.523 88.54 233.523 90.25C233.523 91.979 234.891 93.3375 236.516 93.3375ZM45.14 120V106.7H49.719C51.866 106.7 53.5665 108.476 53.5665 110.661C53.5665 112.884 51.7995 114.633 49.719 114.633H47.116V120H45.14ZM47.116 112.656H49.5195C50.65 112.656 51.5905 111.725 51.5905 110.538C51.5905 109.341 50.65 108.419 49.5195 108.419H47.116V112.656ZM55.2939 120V110.5H57.2699V111.507C57.9349 110.728 58.9324 110.234 60.0439 110.234C60.4049 110.234 60.7659 110.281 61.0984 110.376L60.3099 112.371C60.0819 112.286 59.8349 112.229 59.5689 112.229C58.3054 112.229 57.2699 113.255 57.2699 114.528V120H55.2939ZM66.1209 120.247C63.4989 120.247 61.3709 118.005 61.3709 115.25C61.3709 112.476 63.4989 110.234 66.1209 110.234C68.7429 110.234 70.8709 112.476 70.8709 115.25C70.8709 118.005 68.7429 120.247 66.1209 120.247ZM66.1209 118.271C67.6884 118.271 68.8949 116.874 68.8949 115.25C68.8949 113.597 67.6504 112.21 66.1209 112.21C64.5534 112.21 63.3469 113.616 63.3469 115.25C63.3469 116.95 64.6104 118.271 66.1209 118.271ZM78.7807 117.302L80.5477 118.261C79.6832 119.468 78.3057 120.247 76.7572 120.247C74.1352 120.247 72.0072 118.005 72.0072 115.25C72.0072 112.476 74.1352 110.234 76.7572 110.234C78.3057 110.234 79.6832 111.013 80.5477 112.229L78.7807 113.188C78.2582 112.561 77.4982 112.21 76.7572 112.21C75.1897 112.21 73.9832 113.625 73.9832 115.25C73.9832 116.874 75.2087 118.271 76.7572 118.271C77.5457 118.271 78.2867 117.881 78.7807 117.302ZM86.4101 120.247C83.7881 120.247 81.6601 118.005 81.6601 115.25C81.6601 112.476 83.7881 110.234 86.4101 110.234C89.3171 110.234 91.4356 112.856 91.1031 115.943H83.7786C84.0161 117.264 85.0326 118.261 86.4101 118.271C87.3696 118.271 88.1961 117.758 88.6996 116.912L90.7041 117.378C89.9441 119.069 88.3101 120.247 86.4101 120.247ZM83.7121 114.433H89.1081C88.9086 113.074 87.7781 111.982 86.4101 111.982C85.0421 111.982 83.9401 113.046 83.7121 114.433ZM95.7535 120.181C94.243 120.095 92.761 119.335 92.2385 118.138L93.92 117.416C94.1765 117.938 95.041 118.48 95.953 118.48C96.827 118.48 97.663 118.081 97.663 117.321C97.663 116.485 96.6845 116.295 95.8485 116.076C93.9675 115.649 92.457 114.832 92.457 113.15C92.457 111.326 94.1195 110.177 95.9625 110.177C97.4825 110.177 98.8315 110.861 99.506 111.991L97.9385 112.922C97.644 112.352 96.884 111.925 96.124 111.887C95.136 111.849 94.3095 112.248 94.3095 113.103C94.3095 113.939 95.3165 114.024 96.276 114.328C97.9575 114.879 99.5345 115.677 99.4965 117.292C99.4965 119.078 97.6725 120.295 95.7535 120.181ZM104.163 120.181C102.653 120.095 101.171 119.335 100.648 118.138L102.33 117.416C102.586 117.938 103.451 118.48 104.363 118.48C105.237 118.48 106.073 118.081 106.073 117.321C106.073 116.485 105.094 116.295 104.258 116.076C102.377 115.649 100.867 114.832 100.867 113.15C100.867 111.326 102.529 110.177 104.372 110.177C105.892 110.177 107.241 110.861 107.916 111.991L106.348 112.922C106.054 112.352 105.294 111.925 104.534 111.887C103.546 111.849 102.719 112.248 102.719 113.103C102.719 113.939 103.726 114.024 104.686 114.328C106.367 114.879 107.944 115.677 107.906 117.292C107.906 119.078 106.082 120.295 104.163 120.181Z" fill="#141420"/>
</g>
<path d="M375 130.5V94C375 88.4772 370.523 84 365 84H296.5" stroke="#7E99CD" stroke-width="2" stroke-dasharray="11 11"/>
<circle cx="375.5" cy="135.5" r="8.5" fill="#CCDEFF"/>
<g filter="url(#filter1_d_102_2838)">
<rect x="816" y="15" width="277" height="100" rx="11" fill="white" fill-opacity="0.41" shape-rendering="crispEdges"/>
<path d="M848.296 59.247C844.686 59.247 841.76 56.1595 841.76 52.35C841.76 48.5405 844.686 45.453 848.296 45.453C850.443 45.453 852.324 46.536 853.521 48.1985L851.764 49.139C850.937 48.094 849.664 47.429 848.296 47.429C845.76 47.429 843.736 49.6615 843.736 52.35C843.736 55.0575 845.779 57.271 848.296 57.271C849.693 57.271 850.947 56.587 851.764 55.5515L853.521 56.511C852.324 58.1735 850.443 59.247 848.296 59.247ZM859.239 59.247C856.617 59.247 854.489 57.005 854.489 54.25C854.489 51.476 856.617 49.234 859.239 49.234C861.861 49.234 863.989 51.476 863.989 54.25C863.989 57.005 861.861 59.247 859.239 59.247ZM859.239 57.271C860.806 57.271 862.013 55.8745 862.013 54.25C862.013 52.597 860.768 51.21 859.239 51.21C857.671 51.21 856.465 52.616 856.465 54.25C856.465 55.9505 857.728 57.271 859.239 57.271ZM873.095 44.75H875.071V59H873.095V57.6035C872.468 58.5915 871.461 59.247 870.122 59.247C867.367 59.247 865.125 57.005 865.125 54.25C865.125 51.4855 867.367 49.2435 870.122 49.2435C871.461 49.2435 872.468 49.9085 873.095 50.8775V44.75ZM870.141 57.3375C871.813 57.3375 872.924 55.96 872.924 54.25C872.924 52.521 871.794 51.153 870.141 51.153C868.478 51.153 867.148 52.54 867.148 54.25C867.148 55.979 868.516 57.3375 870.141 57.3375ZM881.587 59.247C878.965 59.247 876.837 57.005 876.837 54.25C876.837 51.476 878.965 49.234 881.587 49.234C884.494 49.234 886.613 51.856 886.28 54.9435H878.956C879.193 56.264 880.21 57.2615 881.587 57.271C882.547 57.271 883.373 56.758 883.877 55.9125L885.881 56.378C885.121 58.069 883.487 59.247 881.587 59.247ZM878.889 53.433H884.285C884.086 52.0745 882.955 50.982 881.587 50.982C880.219 50.982 879.117 52.046 878.889 53.433ZM899.121 59.247C895.511 59.247 892.585 56.1595 892.585 52.35C892.585 48.5405 895.511 45.453 899.121 45.453C901.268 45.453 903.149 46.536 904.346 48.1985L902.589 49.139C901.762 48.094 900.489 47.429 899.121 47.429C896.585 47.429 894.561 49.6615 894.561 52.35C894.561 55.0575 896.604 57.271 899.121 57.271C900.518 57.271 901.772 56.587 902.589 55.5515L904.346 56.511C903.149 58.1735 901.268 59.247 899.121 59.247ZM914.953 53.034V59H912.977V53.528C912.977 52.255 911.951 51.229 910.678 51.229C909.415 51.229 908.379 52.255 908.379 53.528V59H906.403V44.75H908.379V50.507C909.044 49.728 910.042 49.234 911.153 49.234C913.253 49.234 914.953 50.9345 914.953 53.034ZM921.034 59.247C918.412 59.247 916.284 57.005 916.284 54.25C916.284 51.476 918.412 49.234 921.034 49.234C923.941 49.234 926.059 51.856 925.727 54.9435H918.402C918.64 56.264 919.656 57.2615 921.034 57.271C921.993 57.271 922.82 56.758 923.323 55.9125L925.328 56.378C924.568 58.069 922.934 59.247 921.034 59.247ZM918.336 53.433H923.732C923.532 52.0745 922.402 50.982 921.034 50.982C919.666 50.982 918.564 52.046 918.336 53.433ZM933.675 56.302L935.442 57.2615C934.578 58.468 933.2 59.247 931.652 59.247C929.03 59.247 926.902 57.005 926.902 54.25C926.902 51.476 929.03 49.234 931.652 49.234C933.2 49.234 934.578 50.013 935.442 51.229L933.675 52.1885C933.153 51.5615 932.393 51.21 931.652 51.21C930.084 51.21 928.878 52.6255 928.878 54.25C928.878 55.8745 930.103 57.271 931.652 57.271C932.44 57.271 933.181 56.8815 933.675 56.302ZM945.247 59H942.967L940.63 54.972L939.1 56.796V59H937.124V44.75H939.1V53.718L942.634 49.5H945.218L941.979 53.3665L945.247 59ZM946.777 52.312H952.857V54.288H946.777V52.312ZM956.333 48.1225C955.734 48.1225 955.278 47.6855 955.278 47.087C955.278 46.498 955.734 46.0515 956.333 46.0515C956.912 46.0515 957.378 46.498 957.378 47.087C957.378 47.6855 956.922 48.1225 956.333 48.1225ZM955.335 49.5H957.311V59H955.335V49.5ZM968.269 53.034V59H966.293V53.528C966.293 52.255 965.267 51.229 963.994 51.229C962.73 51.229 961.695 52.255 961.695 53.528V59H959.719V49.5H961.695V50.507C962.36 49.728 963.357 49.234 964.469 49.234C966.568 49.234 968.269 50.9345 968.269 53.034ZM979.689 59H977.722L974.54 49.5H976.478L978.72 56.169L980.943 49.5H982.938L985.161 56.169L987.393 49.5H989.331L986.158 59H984.173L981.931 52.2835L979.689 59ZM992.013 48.1225C991.414 48.1225 990.958 47.6855 990.958 47.087C990.958 46.498 991.414 46.0515 992.013 46.0515C992.592 46.0515 993.058 46.498 993.058 47.087C993.058 47.6855 992.602 48.1225 992.013 48.1225ZM991.015 49.5H992.991V59H991.015V49.5ZM1000.47 51.476H998.475L998.466 59H996.49L996.499 51.476H994.989V49.5H996.499L996.49 46.517H998.466L998.475 49.5H1000.47V51.476ZM1010.91 53.034V59H1008.94V53.528C1008.94 52.255 1007.91 51.229 1006.64 51.229C1005.37 51.229 1004.34 52.255 1004.34 53.528V59H1002.36V44.75H1004.34V50.507C1005 49.728 1006 49.234 1007.11 49.234C1009.21 49.234 1010.91 50.9345 1010.91 53.034ZM1023.01 59.247C1019.82 59.247 1017.75 56.663 1017.75 53.452V45.7H1019.73V53.452C1019.73 55.542 1020.92 57.271 1023.01 57.271C1025.15 57.271 1026.3 55.542 1026.3 53.452V45.7H1028.28V53.452C1028.28 56.663 1026.21 59.247 1023.01 59.247ZM1039.07 53.034V59H1037.1V53.528C1037.1 52.255 1036.07 51.229 1034.8 51.229C1033.53 51.229 1032.5 52.255 1032.5 53.528V59H1030.52V49.5H1032.5V50.507C1033.16 49.728 1034.16 49.234 1035.27 49.234C1037.37 49.234 1039.07 50.9345 1039.07 53.034ZM1042.16 48.1225C1041.56 48.1225 1041.1 47.6855 1041.1 47.087C1041.1 46.498 1041.56 46.0515 1042.16 46.0515C1042.74 46.0515 1043.2 46.498 1043.2 47.087C1043.2 47.6855 1042.74 48.1225 1042.16 48.1225ZM1041.16 49.5H1043.13V59H1041.16V49.5ZM1050.61 51.476H1048.62L1048.61 59H1046.63L1046.64 51.476H1045.13V49.5H1046.64L1046.63 46.517H1048.61L1048.62 49.5H1050.61V51.476ZM852.201 70.7V72.676H847.964V84H845.988V72.676H841.76V70.7H852.201ZM857.012 84.247C854.39 84.247 852.262 82.005 852.262 79.25C852.262 76.476 854.39 74.234 857.012 74.234C859.919 74.234 862.037 76.856 861.705 79.9435H854.38C854.618 81.264 855.634 82.2615 857.012 82.271C857.971 82.271 858.798 81.758 859.301 80.9125L861.306 81.378C860.546 83.069 858.912 84.247 857.012 84.247ZM854.314 78.433H859.71C859.51 77.0745 858.38 75.982 857.012 75.982C855.644 75.982 854.542 77.046 854.314 78.433ZM866.355 84.1805C864.845 84.095 863.363 83.335 862.84 82.138L864.522 81.416C864.778 81.9385 865.643 82.48 866.555 82.48C867.429 82.48 868.265 82.081 868.265 81.321C868.265 80.485 867.286 80.295 866.45 80.0765C864.569 79.649 863.059 78.832 863.059 77.1505C863.059 75.3265 864.721 74.177 866.564 74.177C868.084 74.177 869.433 74.861 870.108 75.9915L868.54 76.9225C868.246 76.3525 867.486 75.925 866.726 75.887C865.738 75.849 864.911 76.248 864.911 77.103C864.911 77.939 865.918 78.0245 866.878 78.3285C868.559 78.8795 870.136 79.6775 870.098 81.2925C870.098 83.0785 868.274 84.2945 866.355 84.1805ZM876.931 76.476H874.936L874.927 84H872.951L872.96 76.476H871.45V74.5H872.96L872.951 71.517H874.927L874.936 74.5H876.931V76.476ZM879.689 73.1225C879.091 73.1225 878.635 72.6855 878.635 72.087C878.635 71.498 879.091 71.0515 879.689 71.0515C880.269 71.0515 880.734 71.498 880.734 72.087C880.734 72.6855 880.278 73.1225 879.689 73.1225ZM878.692 74.5H880.668V84H878.692V74.5ZM891.625 78.034V84H889.649V78.528C889.649 77.255 888.623 76.229 887.35 76.229C886.087 76.229 885.051 77.255 885.051 78.528V84H883.075V74.5H885.051V75.507C885.716 74.728 886.714 74.234 887.825 74.234C889.925 74.234 891.625 75.9345 891.625 78.034ZM900.756 74.5H902.732V84.247C902.732 86.869 900.338 88.75 897.697 88.75C895.702 88.75 893.802 87.363 893.118 85.5485L894.932 84.7315C895.303 85.9095 896.5 86.7645 897.697 86.7645C899.255 86.7645 900.756 85.729 900.756 84.247V82.6415C900.129 83.601 899.141 84.247 897.858 84.247C895.151 84.247 892.956 82.005 892.956 79.25C892.956 76.4855 895.151 74.2435 897.858 74.2435C899.141 74.2435 900.129 74.8895 900.756 75.8585V74.5ZM897.887 82.3375C899.511 82.3375 900.623 80.922 900.623 79.25C900.623 77.5495 899.502 76.153 897.887 76.153C896.272 76.153 894.98 77.54 894.98 79.25C894.98 80.9695 896.291 82.3375 897.887 82.3375Z" fill="#141420"/>
</g>
<path d="M737 113.5V77C737 71.4772 741.477 67 747 67H815.5" stroke="#7E99CD" stroke-width="2" stroke-dasharray="11 11"/>
<circle cx="8.5" cy="8.5" r="8.5" transform="matrix(-1 0 0 1 745 110)" fill="#2774BC"/>
<circle cx="636.5" cy="506.5" r="8.5" fill="#84B3FF"/>
<path d="M636 515V553" stroke="#7E99CD" stroke-width="2" stroke-dasharray="11 11"/>
<g filter="url(#filter2_d_102_2838)">
<rect x="498" y="553" width="277" height="100" rx="11" fill="white" fill-opacity="0.41" shape-rendering="crispEdges"/>
<path d="M528.881 597.247C526.705 597.247 524.587 596.173 523.95 594.397L525.803 593.703C526.126 594.615 527.456 595.271 528.881 595.271C530.41 595.271 531.807 594.492 531.807 593.314C531.807 592.107 530.325 591.594 528.881 591.357C526.088 590.901 523.988 589.941 523.988 587.414C523.988 585.039 526.287 583.481 528.881 583.481C531.018 583.481 533.156 584.526 533.821 586.35L531.949 587.025C531.636 586.103 530.306 585.467 528.881 585.467C527.37 585.457 525.964 586.265 525.964 587.414C525.964 588.839 527.247 589.086 528.881 589.362C531.503 589.78 533.783 590.977 533.783 593.314C533.783 595.679 531.503 597.247 528.881 597.247ZM540.051 597.247C537.429 597.247 535.301 595.005 535.301 592.25C535.301 589.476 537.429 587.234 540.051 587.234C542.958 587.234 545.077 589.856 544.744 592.943H537.42C537.657 594.264 538.674 595.261 540.051 595.271C541.011 595.271 541.837 594.758 542.341 593.912L544.345 594.378C543.585 596.069 541.951 597.247 540.051 597.247ZM537.353 591.433H542.749C542.55 590.074 541.419 588.982 540.051 588.982C538.683 588.982 537.581 590.046 537.353 591.433ZM552.692 594.302L554.459 595.261C553.595 596.468 552.217 597.247 550.669 597.247C548.047 597.247 545.919 595.005 545.919 592.25C545.919 589.476 548.047 587.234 550.669 587.234C552.217 587.234 553.595 588.013 554.459 589.229L552.692 590.188C552.17 589.561 551.41 589.21 550.669 589.21C549.101 589.21 547.895 590.625 547.895 592.25C547.895 593.874 549.12 595.271 550.669 595.271C551.457 595.271 552.198 594.881 552.692 594.302ZM555.817 593.437V587.5H557.793V592.953C557.793 594.226 558.829 595.252 560.092 595.252C561.365 595.252 562.382 594.226 562.382 592.953V587.5H564.358L564.367 597H562.391L562.382 595.974C561.726 596.753 560.729 597.247 559.627 597.247C557.518 597.247 555.817 595.546 555.817 593.437ZM566.462 597V587.5H568.438V588.507C569.103 587.728 570.101 587.234 571.212 587.234C571.573 587.234 571.934 587.281 572.267 587.376L571.478 589.371C571.25 589.286 571.003 589.229 570.737 589.229C569.474 589.229 568.438 590.255 568.438 591.528V597H566.462ZM574.571 586.122C573.972 586.122 573.516 585.685 573.516 585.087C573.516 584.498 573.972 584.051 574.571 584.051C575.15 584.051 575.616 584.498 575.616 585.087C575.616 585.685 575.16 586.122 574.571 586.122ZM573.573 587.5H575.549V597H573.573V587.5ZM583.028 589.476H581.033L581.024 597H579.048L579.057 589.476H577.547V587.5H579.057L579.048 584.517H581.024L581.033 587.5H583.028V589.476ZM591.13 587.5H593.239L588.033 601.75H585.933L587.653 597L584.242 587.5H586.399L588.641 594.292L591.13 587.5ZM607.46 587.5H609.436V597H607.45L607.374 595.622C606.814 596.601 605.864 597.247 604.562 597.247C601.76 597.247 599.499 594.967 599.499 592.164C599.499 589.438 601.684 587.234 604.401 587.234C605.778 587.234 606.842 587.927 607.545 588.906L607.46 587.5ZM604.515 595.337C606.187 595.337 607.298 593.96 607.298 592.25C607.298 590.521 606.168 589.153 604.515 589.153C602.852 589.153 601.522 590.54 601.522 592.25C601.522 593.979 602.89 595.337 604.515 595.337ZM620.071 591.034V597H618.095V591.528C618.095 590.255 617.069 589.229 615.796 589.229C614.533 589.229 613.497 590.255 613.497 591.528V597H611.521V587.5H613.497V588.507C614.162 587.728 615.16 587.234 616.271 587.234C618.371 587.234 620.071 588.934 620.071 591.034ZM629.373 582.75H631.349V597H629.373V595.604C628.746 596.591 627.739 597.247 626.399 597.247C623.644 597.247 621.402 595.005 621.402 592.25C621.402 589.485 623.644 587.243 626.399 587.243C627.739 587.243 628.746 587.908 629.373 588.877V582.75ZM626.418 595.337C628.09 595.337 629.202 593.96 629.202 592.25C629.202 590.521 628.071 589.153 626.418 589.153C624.756 589.153 623.426 590.54 623.426 592.25C623.426 593.979 624.794 595.337 626.418 595.337ZM642.92 597L638.094 583.7H640.184L644.155 594.653L648.145 583.7H650.235L645.409 597H642.92ZM651.126 593.437V587.5H653.102V592.953C653.102 594.226 654.138 595.252 655.401 595.252C656.674 595.252 657.691 594.226 657.691 592.953V587.5H659.667L659.676 597H657.7L657.691 595.974C657.035 596.753 656.038 597.247 654.936 597.247C652.827 597.247 651.126 595.546 651.126 593.437ZM661.845 597V582.75H663.821V597H661.845ZM674.834 591.034V597H672.858V591.528C672.858 590.255 671.832 589.229 670.559 589.229C669.296 589.229 668.26 590.255 668.26 591.528V597H666.284V587.5H668.26V588.507C668.925 587.728 669.923 587.234 671.034 587.234C673.134 587.234 674.834 588.934 674.834 591.034ZM680.915 597.247C678.293 597.247 676.165 595.005 676.165 592.25C676.165 589.476 678.293 587.234 680.915 587.234C683.822 587.234 685.941 589.856 685.608 592.943H678.284C678.521 594.264 679.538 595.261 680.915 595.271C681.875 595.271 682.701 594.758 683.205 593.912L685.209 594.378C684.449 596.069 682.815 597.247 680.915 597.247ZM678.217 591.433H683.613C683.414 590.074 682.283 588.982 680.915 588.982C679.547 588.982 678.445 590.046 678.217 591.433ZM687.372 597V587.5H689.348V588.507C690.013 587.728 691.01 587.234 692.122 587.234C692.483 587.234 692.844 587.281 693.176 587.376L692.388 589.371C692.16 589.286 691.913 589.229 691.647 589.229C690.383 589.229 689.348 590.255 689.348 591.528V597H687.372ZM701.41 587.5H703.386V597H701.4L701.324 595.622C700.764 596.601 699.814 597.247 698.512 597.247C695.71 597.247 693.449 594.967 693.449 592.164C693.449 589.438 695.634 587.234 698.351 587.234C699.728 587.234 700.792 587.927 701.495 588.906L701.41 587.5ZM698.465 595.337C700.137 595.337 701.248 593.96 701.248 592.25C701.248 590.521 700.118 589.153 698.465 589.153C696.802 589.153 695.472 590.54 695.472 592.25C695.472 593.979 696.84 595.337 698.465 595.337ZM710.485 587.234C713.25 587.234 715.492 589.476 715.492 592.24C715.492 595.005 713.25 597.247 710.485 597.247C709.155 597.247 708.148 596.572 707.521 595.604V597H705.545V582.75H707.521V588.877C708.148 587.908 709.155 587.234 710.485 587.234ZM710.466 595.328C712.129 595.328 713.468 593.941 713.468 592.24C713.468 590.511 712.1 589.143 710.466 589.143C708.804 589.143 707.683 590.54 707.683 592.24C707.683 593.96 708.823 595.328 710.466 595.328ZM718.033 586.122C717.434 586.122 716.978 585.685 716.978 585.087C716.978 584.498 717.434 584.051 718.033 584.051C718.612 584.051 719.078 584.498 719.078 585.087C719.078 585.685 718.622 586.122 718.033 586.122ZM717.035 587.5H719.011V597H717.035V587.5ZM721.511 597V582.75H723.487V597H721.511ZM726.948 586.122C726.349 586.122 725.893 585.685 725.893 585.087C725.893 584.498 726.349 584.051 726.948 584.051C727.527 584.051 727.993 584.498 727.993 585.087C727.993 585.685 727.537 586.122 726.948 586.122ZM725.95 587.5H727.926V597H725.95V587.5ZM735.405 589.476H733.41L733.401 597H731.425L731.434 589.476H729.924V587.5H731.434L731.425 584.517H733.401L733.41 587.5H735.405V589.476ZM743.507 587.5H745.616L740.41 601.75H738.31L740.03 597L736.619 587.5H738.776L741.018 594.292L743.507 587.5ZM528.881 622.247C526.705 622.247 524.587 621.173 523.95 619.397L525.803 618.703C526.126 619.615 527.456 620.271 528.881 620.271C530.41 620.271 531.807 619.492 531.807 618.314C531.807 617.107 530.325 616.594 528.881 616.357C526.088 615.901 523.988 614.941 523.988 612.414C523.988 610.039 526.287 608.481 528.881 608.481C531.018 608.481 533.156 609.526 533.821 611.35L531.949 612.025C531.636 611.103 530.306 610.467 528.881 610.467C527.37 610.457 525.964 611.265 525.964 612.414C525.964 613.839 527.247 614.086 528.881 614.362C531.503 614.78 533.783 615.977 533.783 618.314C533.783 620.679 531.503 622.247 528.881 622.247ZM542.075 619.302L543.842 620.261C542.977 621.468 541.6 622.247 540.051 622.247C537.429 622.247 535.301 620.005 535.301 617.25C535.301 614.476 537.429 612.234 540.051 612.234C541.6 612.234 542.977 613.013 543.842 614.229L542.075 615.188C541.552 614.561 540.792 614.21 540.051 614.21C538.484 614.21 537.277 615.625 537.277 617.25C537.277 618.874 538.503 620.271 540.051 620.271C540.84 620.271 541.581 619.881 542.075 619.302ZM552.915 612.5H554.891V622H552.905L552.829 620.622C552.269 621.601 551.319 622.247 550.017 622.247C547.215 622.247 544.954 619.967 544.954 617.164C544.954 614.438 547.139 612.234 549.856 612.234C551.233 612.234 552.297 612.927 553 613.906L552.915 612.5ZM549.97 620.337C551.642 620.337 552.753 618.96 552.753 617.25C552.753 615.521 551.623 614.153 549.97 614.153C548.307 614.153 546.977 615.54 546.977 617.25C546.977 618.979 548.345 620.337 549.97 620.337ZM565.527 616.034V622H563.551V616.528C563.551 615.255 562.525 614.229 561.252 614.229C559.988 614.229 558.953 615.255 558.953 616.528V622H556.977V612.5H558.953V613.507C559.618 612.728 560.615 612.234 561.727 612.234C563.826 612.234 565.527 613.934 565.527 616.034ZM570.463 622.181C568.952 622.095 567.47 621.335 566.948 620.138L568.629 619.416C568.886 619.938 569.75 620.48 570.662 620.48C571.536 620.48 572.372 620.081 572.372 619.321C572.372 618.485 571.394 618.295 570.558 618.076C568.677 617.649 567.166 616.832 567.166 615.15C567.166 613.326 568.829 612.177 570.672 612.177C572.192 612.177 573.541 612.861 574.215 613.991L572.648 614.922C572.353 614.352 571.593 613.925 570.833 613.887C569.845 613.849 569.019 614.248 569.019 615.103C569.019 615.939 570.026 616.024 570.985 616.328C572.667 616.879 574.244 617.677 574.206 619.292C574.206 621.078 572.382 622.295 570.463 622.181Z" fill="#141420"/>
</g>
<g filter="url(#filter3_d_102_2838)">
<rect x="72" y="448" width="277" height="100" rx="11" fill="white" fill-opacity="0.41" shape-rendering="crispEdges"/>
<path d="M98.14 492V478.7H102.539C106.215 478.7 109.189 481.683 109.189 485.35C109.189 489.017 106.215 492 102.539 492H98.14ZM100.116 490.024H102.539C105.104 490.024 107.213 487.943 107.213 485.35C107.213 482.775 105.104 480.676 102.539 480.676H100.116V490.024ZM115.053 492.247C112.431 492.247 110.303 490.005 110.303 487.25C110.303 484.476 112.431 482.234 115.053 482.234C117.96 482.234 120.078 484.856 119.746 487.943H112.421C112.659 489.264 113.675 490.261 115.053 490.271C116.012 490.271 116.839 489.758 117.342 488.912L119.347 489.378C118.587 491.069 116.953 492.247 115.053 492.247ZM112.355 486.433H117.751C117.551 485.074 116.421 483.982 115.053 483.982C113.685 483.982 112.583 485.046 112.355 486.433ZM128.891 477.75H130.867V492H128.891V490.604C128.264 491.591 127.257 492.247 125.918 492.247C123.163 492.247 120.921 490.005 120.921 487.25C120.921 484.485 123.163 482.243 125.918 482.243C127.257 482.243 128.264 482.908 128.891 483.877V477.75ZM125.937 490.337C127.609 490.337 128.72 488.96 128.72 487.25C128.72 485.521 127.59 484.153 125.937 484.153C124.274 484.153 122.944 485.54 122.944 487.25C122.944 488.979 124.312 490.337 125.937 490.337ZM134.331 481.122C133.732 481.122 133.276 480.685 133.276 480.087C133.276 479.498 133.732 479.051 134.331 479.051C134.91 479.051 135.376 479.498 135.376 480.087C135.376 480.685 134.92 481.122 134.331 481.122ZM133.333 482.5H135.309V492H133.333V482.5ZM143.809 489.302L145.576 490.261C144.711 491.468 143.334 492.247 141.785 492.247C139.163 492.247 137.035 490.005 137.035 487.25C137.035 484.476 139.163 482.234 141.785 482.234C143.334 482.234 144.711 483.013 145.576 484.229L143.809 485.188C143.286 484.561 142.526 484.21 141.785 484.21C140.218 484.21 139.011 485.625 139.011 487.25C139.011 488.874 140.237 490.271 141.785 490.271C142.574 490.271 143.315 489.881 143.809 489.302ZM154.649 482.5H156.625V492H154.639L154.563 490.622C154.003 491.601 153.053 492.247 151.751 492.247C148.949 492.247 146.688 489.967 146.688 487.164C146.688 484.438 148.873 482.234 151.59 482.234C152.967 482.234 154.031 482.927 154.734 483.906L154.649 482.5ZM151.704 490.337C153.376 490.337 154.487 488.96 154.487 487.25C154.487 485.521 153.357 484.153 151.704 484.153C150.041 484.153 148.711 485.54 148.711 487.25C148.711 488.979 150.079 490.337 151.704 490.337ZM163.727 484.476H161.732L161.722 492H159.746L159.756 484.476H158.245V482.5H159.756L159.746 479.517H161.722L161.732 482.5H163.727V484.476ZM169.575 492.247C166.953 492.247 164.825 490.005 164.825 487.25C164.825 484.476 166.953 482.234 169.575 482.234C172.482 482.234 174.6 484.856 174.268 487.943H166.943C167.181 489.264 168.197 490.261 169.575 490.271C170.534 490.271 171.361 489.758 171.864 488.912L173.869 489.378C173.109 491.069 171.475 492.247 169.575 492.247ZM166.877 486.433H172.273C172.073 485.074 170.943 483.982 169.575 483.982C168.207 483.982 167.105 485.046 166.877 486.433ZM183.413 477.75H185.389V492H183.413V490.604C182.786 491.591 181.779 492.247 180.44 492.247C177.685 492.247 175.443 490.005 175.443 487.25C175.443 484.485 177.685 482.243 180.44 482.243C181.779 482.243 182.786 482.908 183.413 483.877V477.75ZM180.459 490.337C182.131 490.337 183.242 488.96 183.242 487.25C183.242 485.521 182.112 484.153 180.459 484.153C178.796 484.153 177.466 485.54 177.466 487.25C177.466 488.979 178.834 490.337 180.459 490.337ZM204.18 492.342L202.66 490.831C201.587 491.687 200.247 492.2 198.784 492.2C195.165 492.2 192.229 489.112 192.229 485.302C192.229 481.502 195.165 478.405 198.784 478.405C202.394 478.405 205.33 481.502 205.33 485.302C205.33 486.851 204.836 488.257 204.028 489.406L205.577 490.945L204.18 492.342ZM198.784 490.223C199.668 490.223 200.542 489.919 201.226 489.387L199.753 487.924L201.15 486.518L202.556 487.934C203.078 487.174 203.354 486.252 203.354 485.302C203.354 482.595 201.292 480.381 198.784 480.381C196.248 480.381 194.205 482.633 194.205 485.302C194.205 488.019 196.267 490.223 198.784 490.223ZM211.208 478.7H213.516L218.352 492H216.262L215.34 489.473H209.393L208.472 492H206.372L211.208 478.7ZM210.115 487.497H214.609L212.357 481.322L210.115 487.497ZM225.205 492V478.7H230.097C232.254 478.7 233.926 480.457 233.926 482.661C233.926 484.514 232.786 485.977 231.19 486.452L234.401 492H232.111L228.995 486.633H227.181V492H225.205ZM227.181 484.656H229.888C231.019 484.656 231.95 483.725 231.95 482.538C231.95 481.341 231.019 480.419 229.888 480.419H227.181V484.656ZM240.132 492.247C237.51 492.247 235.382 490.005 235.382 487.25C235.382 484.476 237.51 482.234 240.132 482.234C243.039 482.234 245.158 484.856 244.825 487.943H237.501C237.738 489.264 238.755 490.261 240.132 490.271C241.092 490.271 241.918 489.758 242.422 488.912L244.426 489.378C243.666 491.069 242.032 492.247 240.132 492.247ZM237.434 486.433H242.83C242.631 485.074 241.5 483.982 240.132 483.982C238.764 483.982 237.662 485.046 237.434 486.433ZM249.476 492.181C247.965 492.095 246.483 491.335 245.961 490.138L247.642 489.416C247.899 489.938 248.763 490.48 249.675 490.48C250.549 490.48 251.385 490.081 251.385 489.321C251.385 488.485 250.407 488.295 249.571 488.076C247.69 487.649 246.179 486.832 246.179 485.15C246.179 483.326 247.842 482.177 249.685 482.177C251.205 482.177 252.554 482.861 253.228 483.991L251.661 484.922C251.366 484.352 250.606 483.925 249.846 483.887C248.858 483.849 248.032 484.248 248.032 485.103C248.032 485.939 249.039 486.024 249.998 486.328C251.68 486.879 253.257 487.677 253.219 489.292C253.219 491.078 251.395 492.295 249.476 492.181ZM259.086 492.247C256.464 492.247 254.336 490.005 254.336 487.25C254.336 484.476 256.464 482.234 259.086 482.234C261.708 482.234 263.836 484.476 263.836 487.25C263.836 490.005 261.708 492.247 259.086 492.247ZM259.086 490.271C260.653 490.271 261.86 488.874 261.86 487.25C261.86 485.597 260.615 484.21 259.086 484.21C257.518 484.21 256.312 485.616 256.312 487.25C256.312 488.95 257.575 490.271 259.086 490.271ZM264.995 488.437V482.5H266.971V487.953C266.971 489.226 268.006 490.252 269.27 490.252C270.543 490.252 271.559 489.226 271.559 487.953V482.5H273.535L273.545 492H271.569L271.559 490.974C270.904 491.753 269.906 492.247 268.804 492.247C266.695 492.247 264.995 490.546 264.995 488.437ZM275.64 492V482.5H277.616V483.507C278.281 482.728 279.279 482.234 280.39 482.234C280.751 482.234 281.112 482.281 281.445 482.376L280.656 484.371C280.428 484.286 280.181 484.229 279.915 484.229C278.652 484.229 277.616 485.255 277.616 486.528V492H275.64ZM288.491 489.302L290.258 490.261C289.393 491.468 288.016 492.247 286.467 492.247C283.845 492.247 281.717 490.005 281.717 487.25C281.717 484.476 283.845 482.234 286.467 482.234C288.016 482.234 289.393 483.013 290.258 484.229L288.491 485.188C287.968 484.561 287.208 484.21 286.467 484.21C284.9 484.21 283.693 485.625 283.693 487.25C283.693 488.874 284.919 490.271 286.467 490.271C287.256 490.271 287.997 489.881 288.491 489.302ZM296.12 492.247C293.498 492.247 291.37 490.005 291.37 487.25C291.37 484.476 293.498 482.234 296.12 482.234C299.027 482.234 301.146 484.856 300.813 487.943H293.489C293.726 489.264 294.743 490.261 296.12 490.271C297.08 490.271 297.906 489.758 298.41 488.912L300.414 489.378C299.654 491.069 298.02 492.247 296.12 492.247ZM293.422 486.433H298.818C298.619 485.074 297.488 483.982 296.12 483.982C294.752 483.982 293.65 485.046 293.422 486.433ZM305.463 492.181C303.953 492.095 302.471 491.335 301.948 490.138L303.63 489.416C303.886 489.938 304.751 490.48 305.663 490.48C306.537 490.48 307.373 490.081 307.373 489.321C307.373 488.485 306.394 488.295 305.558 488.076C303.677 487.649 302.167 486.832 302.167 485.15C302.167 483.326 303.829 482.177 305.672 482.177C307.192 482.177 308.541 482.861 309.216 483.991L307.648 484.922C307.354 484.352 306.594 483.925 305.834 483.887C304.846 483.849 304.019 484.248 304.019 485.103C304.019 485.939 305.026 486.024 305.986 486.328C307.667 486.879 309.244 487.677 309.206 489.292C309.206 491.078 307.382 492.295 305.463 492.181ZM100.582 505.343V507.5H103.261V509.476H100.582V517H98.6055V509.476H97.475V507.5H98.6055V505.343C98.6055 503.785 99.869 502.522 101.437 502.522C102.187 502.522 102.947 502.826 103.517 503.453L102.102 504.849C101.95 504.621 101.684 504.498 101.437 504.498C100.962 504.498 100.582 504.868 100.582 505.343ZM108.986 517.247C106.364 517.247 104.236 515.005 104.236 512.25C104.236 509.476 106.364 507.234 108.986 507.234C111.608 507.234 113.736 509.476 113.736 512.25C113.736 515.005 111.608 517.247 108.986 517.247ZM108.986 515.271C110.553 515.271 111.76 513.874 111.76 512.25C111.76 510.597 110.515 509.21 108.986 509.21C107.418 509.21 106.212 510.616 106.212 512.25C106.212 513.95 107.475 515.271 108.986 515.271ZM115.46 517V507.5H117.436V508.507C118.101 507.728 119.099 507.234 120.21 507.234C120.571 507.234 120.932 507.281 121.265 507.376L120.476 509.371C120.248 509.286 120.001 509.229 119.735 509.229C118.472 509.229 117.436 510.255 117.436 511.528V517H115.46ZM127.548 517V503.7H135.804V505.676H129.524V508.887H134.578V510.863H129.524V515.024H135.804V517H127.548ZM143.211 517H140.674L137.207 507.481H139.316L141.938 514.71L144.569 507.481H146.669L143.211 517ZM152.129 517.247C149.507 517.247 147.379 515.005 147.379 512.25C147.379 509.476 149.507 507.234 152.129 507.234C155.036 507.234 157.154 509.856 156.822 512.943H149.497C149.735 514.264 150.751 515.261 152.129 515.271C153.088 515.271 153.915 514.758 154.418 513.912L156.423 514.378C155.663 516.069 154.029 517.247 152.129 517.247ZM149.431 511.433H154.827C154.627 510.074 153.497 508.982 152.129 508.982C150.761 508.982 149.659 510.046 149.431 511.433ZM158.585 517V507.5H160.561V508.507C161.226 507.728 162.224 507.234 163.335 507.234C163.696 507.234 164.057 507.281 164.39 507.376L163.601 509.371C163.373 509.286 163.126 509.229 162.86 509.229C161.597 509.229 160.561 510.255 160.561 511.528V517H158.585ZM172.204 507.5H174.313L169.107 521.75H167.007L168.727 517L165.316 507.5H167.473L169.715 514.292L172.204 507.5ZM181.143 517V503.7H185.722C187.869 503.7 189.569 505.476 189.569 507.661C189.569 509.884 187.802 511.633 185.722 511.633H183.119V517H181.143ZM183.119 509.656H185.522C186.653 509.656 187.593 508.725 187.593 507.538C187.593 506.341 186.653 505.419 185.522 505.419H183.119V509.656ZM191.296 517V507.5H193.272V508.507C193.937 507.728 194.935 507.234 196.046 507.234C196.407 507.234 196.768 507.281 197.101 507.376L196.312 509.371C196.084 509.286 195.837 509.229 195.571 509.229C194.308 509.229 193.272 510.255 193.272 511.528V517H191.296ZM202.123 517.247C199.501 517.247 197.373 515.005 197.373 512.25C197.373 509.476 199.501 507.234 202.123 507.234C204.745 507.234 206.873 509.476 206.873 512.25C206.873 515.005 204.745 517.247 202.123 517.247ZM202.123 515.271C203.691 515.271 204.897 513.874 204.897 512.25C204.897 510.597 203.653 509.21 202.123 509.21C200.556 509.21 199.349 510.616 199.349 512.25C199.349 513.95 200.613 515.271 202.123 515.271ZM209.87 506.122C209.271 506.122 208.815 505.685 208.815 505.087C208.815 504.498 209.271 504.051 209.87 504.051C210.449 504.051 210.915 504.498 210.915 505.087C210.915 505.685 210.468 506.122 209.87 506.122ZM206.754 521.75V519.774C207.951 519.774 208.872 518.872 208.872 517.703V507.5H210.848V517.703C210.848 519.936 209.062 521.75 206.754 521.75ZM217.329 517.247C214.707 517.247 212.579 515.005 212.579 512.25C212.579 509.476 214.707 507.234 217.329 507.234C220.236 507.234 222.354 509.856 222.022 512.943H214.697C214.935 514.264 215.951 515.261 217.329 515.271C218.288 515.271 219.115 514.758 219.618 513.912L221.623 514.378C220.863 516.069 219.229 517.247 217.329 517.247ZM214.631 511.433H220.027C219.827 510.074 218.697 508.982 217.329 508.982C215.961 508.982 214.859 510.046 214.631 511.433ZM229.97 514.302L231.737 515.261C230.872 516.468 229.495 517.247 227.946 517.247C225.324 517.247 223.196 515.005 223.196 512.25C223.196 509.476 225.324 507.234 227.946 507.234C229.495 507.234 230.872 508.013 231.737 509.229L229.97 510.188C229.447 509.561 228.687 509.21 227.946 509.21C226.379 509.21 225.172 510.625 225.172 512.25C225.172 513.874 226.398 515.271 227.946 515.271C228.735 515.271 229.476 514.881 229.97 514.302ZM238.658 509.476H236.663L236.653 517H234.677L234.687 509.476H233.176V507.5H234.687L234.677 504.517H236.653L236.663 507.5H238.658V509.476Z" fill="#141420"/>
</g>
<path d="M295 403.5H218.5C212.977 403.5 208.5 407.977 208.5 413.5V448" stroke="#7E99CD" stroke-width="2" stroke-dasharray="11 11"/>
<circle cx="301.5" cy="403.5" r="8.5" fill="#6573FF"/>
<g filter="url(#filter4_d_102_2838)">
<rect x="902" y="366" width="277" height="125" rx="11" fill="white" fill-opacity="0.41" shape-rendering="crispEdges"/>
<path d="M928.14 410V396.7H936.396V398.676H930.116V401.887H935.17V403.863H930.116V408.024H936.396V410H928.14ZM937.765 410L941.242 405.231L937.784 400.481H940.226L942.458 403.54L944.7 400.481H947.132L943.684 405.231L947.161 410H944.719L942.458 406.903L940.207 410H937.765ZM950.869 414.75H948.893V400.5H950.869V401.896C951.496 400.927 952.494 400.253 953.833 400.253C956.598 400.253 958.83 402.495 958.83 405.25C958.83 408.024 956.598 410.266 953.833 410.266C952.494 410.266 951.496 409.591 950.869 408.622V414.75ZM953.814 402.162C952.171 402.162 951.031 403.54 951.031 405.25C951.031 406.96 952.152 408.347 953.814 408.347C955.448 408.347 956.816 406.988 956.816 405.25C956.816 403.559 955.477 402.162 953.814 402.162ZM964.73 410.247C962.108 410.247 959.98 408.005 959.98 405.25C959.98 402.476 962.108 400.234 964.73 400.234C967.637 400.234 969.755 402.856 969.423 405.943H962.098C962.336 407.264 963.352 408.261 964.73 408.271C965.689 408.271 966.516 407.758 967.019 406.912L969.024 407.378C968.264 409.069 966.63 410.247 964.73 410.247ZM962.032 404.433H967.428C967.228 403.074 966.098 401.982 964.73 401.982C963.362 401.982 962.26 403.046 962.032 404.433ZM971.186 410V400.5H973.162V401.507C973.827 400.728 974.825 400.234 975.936 400.234C976.297 400.234 976.658 400.281 976.991 400.376L976.202 402.371C975.974 402.286 975.727 402.229 975.461 402.229C974.198 402.229 973.162 403.255 973.162 404.528V410H971.186ZM979.295 399.122C978.696 399.122 978.24 398.685 978.24 398.087C978.24 397.498 978.696 397.051 979.295 397.051C979.874 397.051 980.34 397.498 980.34 398.087C980.34 398.685 979.884 399.122 979.295 399.122ZM978.297 400.5H980.273V410H978.297V400.5ZM986.749 410.247C984.127 410.247 981.999 408.005 981.999 405.25C981.999 402.476 984.127 400.234 986.749 400.234C989.656 400.234 991.775 402.856 991.442 405.943H984.118C984.355 407.264 985.372 408.261 986.749 408.271C987.709 408.271 988.535 407.758 989.039 406.912L991.043 407.378C990.283 409.069 988.649 410.247 986.749 410.247ZM984.051 404.433H989.447C989.248 403.074 988.117 401.982 986.749 401.982C985.381 401.982 984.279 403.046 984.051 404.433ZM1001.76 404.034V410H999.779V404.528C999.779 403.255 998.753 402.229 997.48 402.229C996.217 402.229 995.181 403.255 995.181 404.528V410H993.205V400.5H995.181V401.507C995.846 400.728 996.844 400.234 997.955 400.234C1000.05 400.234 1001.76 401.934 1001.76 404.034ZM1009.86 407.302L1011.63 408.261C1010.76 409.468 1009.38 410.247 1007.84 410.247C1005.21 410.247 1003.09 408.005 1003.09 405.25C1003.09 402.476 1005.21 400.234 1007.84 400.234C1009.38 400.234 1010.76 401.013 1011.63 402.229L1009.86 403.188C1009.34 402.561 1008.58 402.21 1007.84 402.21C1006.27 402.21 1005.06 403.625 1005.06 405.25C1005.06 406.874 1006.29 408.271 1007.84 408.271C1008.62 408.271 1009.37 407.881 1009.86 407.302ZM1017.49 410.247C1014.87 410.247 1012.74 408.005 1012.74 405.25C1012.74 402.476 1014.87 400.234 1017.49 400.234C1020.4 400.234 1022.51 402.856 1022.18 405.943H1014.86C1015.09 407.264 1016.11 408.261 1017.49 408.271C1018.45 408.271 1019.27 407.758 1019.78 406.912L1021.78 407.378C1021.02 409.069 1019.39 410.247 1017.49 410.247ZM1014.79 404.433H1020.19C1019.99 403.074 1018.86 401.982 1017.49 401.982C1016.12 401.982 1015.02 403.046 1014.79 404.433ZM1033.45 410H1031.48L1028.3 400.5H1030.23L1032.48 407.169L1034.7 400.5H1036.69L1038.92 407.169L1041.15 400.5H1043.09L1039.92 410H1037.93L1035.69 403.283L1033.45 410ZM1045.77 399.122C1045.17 399.122 1044.72 398.685 1044.72 398.087C1044.72 397.498 1045.17 397.051 1045.77 397.051C1046.35 397.051 1046.82 397.498 1046.82 398.087C1046.82 398.685 1046.36 399.122 1045.77 399.122ZM1044.77 400.5H1046.75V410H1044.77V400.5ZM1054.23 402.476H1052.23L1052.22 410H1050.25L1050.26 402.476H1048.75V400.5H1050.26L1050.25 397.517H1052.22L1052.23 400.5H1054.23V402.476ZM1064.67 404.034V410H1062.69V404.528C1062.69 403.255 1061.67 402.229 1060.39 402.229C1059.13 402.229 1058.09 403.255 1058.09 404.528V410H1056.12V395.75H1058.09V401.507C1058.76 400.728 1059.76 400.234 1060.87 400.234C1062.97 400.234 1064.67 401.934 1064.67 404.034ZM1071.51 410V400.5H1073.49V401.507C1074.15 400.728 1075.14 400.234 1076.25 400.234C1077.61 400.234 1078.81 400.946 1079.48 402.02C1080.14 400.946 1081.33 400.234 1082.69 400.234C1084.79 400.234 1086.49 401.934 1086.49 404.034V410H1084.51V404.547C1084.51 403.293 1083.51 402.229 1082.25 402.229C1081 402.229 1079.99 403.226 1079.99 404.547V410H1078.02V404.547C1078.02 403.226 1077 402.229 1075.75 402.229C1074.5 402.229 1073.49 403.293 1073.49 404.547V410H1071.51ZM1095.79 400.5H1097.77V410H1095.78L1095.7 408.622C1095.14 409.601 1094.19 410.247 1092.89 410.247C1090.09 410.247 1087.83 407.967 1087.83 405.164C1087.83 402.438 1090.01 400.234 1092.73 400.234C1094.11 400.234 1095.17 400.927 1095.87 401.906L1095.79 400.5ZM1092.84 408.337C1094.52 408.337 1095.63 406.96 1095.63 405.25C1095.63 403.521 1094.5 402.153 1092.84 402.153C1091.18 402.153 1089.85 403.54 1089.85 405.25C1089.85 406.979 1091.22 408.337 1092.84 408.337ZM1108.4 404.034V410H1106.43V404.528C1106.43 403.255 1105.4 402.229 1104.13 402.229C1102.86 402.229 1101.83 403.255 1101.83 404.528V410H1099.85V400.5H1101.83V401.507C1102.49 400.728 1103.49 400.234 1104.6 400.234C1106.7 400.234 1108.4 401.934 1108.4 404.034ZM1110.11 406.437V400.5H1112.08V405.953C1112.08 407.226 1113.12 408.252 1114.38 408.252C1115.66 408.252 1116.67 407.226 1116.67 405.953V400.5H1118.65L1118.66 410H1116.68L1116.67 408.974C1116.02 409.753 1115.02 410.247 1113.92 410.247C1111.81 410.247 1110.11 408.546 1110.11 406.437ZM1128.01 400.5H1129.99V410H1128L1127.93 408.622C1127.37 409.601 1126.42 410.247 1125.12 410.247C1122.31 410.247 1120.05 407.967 1120.05 405.164C1120.05 402.438 1122.24 400.234 1124.95 400.234C1126.33 400.234 1127.4 400.927 1128.1 401.906L1128.01 400.5ZM1125.07 408.337C1126.74 408.337 1127.85 406.96 1127.85 405.25C1127.85 403.521 1126.72 402.153 1125.07 402.153C1123.41 402.153 1122.08 403.54 1122.08 405.25C1122.08 406.979 1123.44 408.337 1125.07 408.337ZM1132.15 410V395.75H1134.13V410H1132.15ZM935.531 425.5H937.507V435H935.522L935.446 433.622C934.885 434.601 933.935 435.247 932.634 435.247C929.831 435.247 927.57 432.967 927.57 430.164C927.57 427.438 929.755 425.234 932.472 425.234C933.85 425.234 934.914 425.927 935.617 426.906L935.531 425.5ZM932.586 433.337C934.258 433.337 935.37 431.96 935.37 430.25C935.37 428.521 934.239 427.153 932.586 427.153C930.924 427.153 929.594 428.54 929.594 430.25C929.594 431.979 930.962 433.337 932.586 433.337ZM948.143 429.034V435H946.167V429.528C946.167 428.255 945.141 427.229 943.868 427.229C942.604 427.229 941.569 428.255 941.569 429.528V435H939.593V425.5H941.569V426.507C942.234 425.728 943.231 425.234 944.343 425.234C946.442 425.234 948.143 426.934 948.143 429.034ZM957.444 420.75H959.42V435H957.444V433.604C956.817 434.591 955.81 435.247 954.47 435.247C951.715 435.247 949.473 433.005 949.473 430.25C949.473 427.485 951.715 425.243 954.47 425.243C955.81 425.243 956.817 425.908 957.444 426.877V420.75ZM954.489 433.337C956.161 433.337 957.273 431.96 957.273 430.25C957.273 428.521 956.142 427.153 954.489 427.153C952.827 427.153 951.497 428.54 951.497 430.25C951.497 431.979 952.865 433.337 954.489 433.337ZM974.031 425.5H976.007V435H974.022L973.946 433.622C973.385 434.601 972.435 435.247 971.134 435.247C968.331 435.247 966.07 432.967 966.07 430.164C966.07 427.438 968.255 425.234 970.972 425.234C972.35 425.234 973.414 425.927 974.117 426.906L974.031 425.5ZM971.086 433.337C972.758 433.337 973.87 431.96 973.87 430.25C973.87 428.521 972.739 427.153 971.086 427.153C969.424 427.153 968.094 428.54 968.094 430.25C968.094 431.979 969.462 433.337 971.086 433.337ZM977.713 431.437V425.5H979.689V430.953C979.689 432.226 980.724 433.252 981.988 433.252C983.261 433.252 984.277 432.226 984.277 430.953V425.5H986.253L986.263 435H984.287L984.277 433.974C983.622 434.753 982.624 435.247 981.522 435.247C979.413 435.247 977.713 433.546 977.713 431.437ZM993.374 427.476H991.379L991.37 435H989.394L989.403 427.476H987.893V425.5H989.403L989.394 422.517H991.37L991.379 425.5H993.374V427.476ZM999.222 435.247C996.6 435.247 994.472 433.005 994.472 430.25C994.472 427.476 996.6 425.234 999.222 425.234C1001.84 425.234 1003.97 427.476 1003.97 430.25C1003.97 433.005 1001.84 435.247 999.222 435.247ZM999.222 433.271C1000.79 433.271 1002 431.874 1002 430.25C1002 428.597 1000.75 427.21 999.222 427.21C997.655 427.21 996.448 428.616 996.448 430.25C996.448 431.95 997.712 433.271 999.222 433.271ZM1005.7 435V425.5H1007.67V426.507C1008.34 425.728 1009.33 425.234 1010.44 425.234C1011.8 425.234 1012.99 425.946 1013.67 427.02C1014.33 425.946 1015.52 425.234 1016.88 425.234C1018.98 425.234 1020.68 426.934 1020.68 429.034V435H1018.7V429.547C1018.7 428.293 1017.7 427.229 1016.44 427.229C1015.19 427.229 1014.18 428.226 1014.18 429.547V435H1012.2V429.547C1012.2 428.226 1011.19 427.229 1009.93 427.229C1008.69 427.229 1007.67 428.293 1007.67 429.547V435H1005.7ZM1029.98 425.5H1031.95V435H1029.97L1029.89 433.622C1029.33 434.601 1028.38 435.247 1027.08 435.247C1024.28 435.247 1022.02 432.967 1022.02 430.164C1022.02 427.438 1024.2 425.234 1026.92 425.234C1028.3 425.234 1029.36 425.927 1030.06 426.906L1029.98 425.5ZM1027.03 433.337C1028.7 433.337 1029.82 431.96 1029.82 430.25C1029.82 428.521 1028.69 427.153 1027.03 427.153C1025.37 427.153 1024.04 428.54 1024.04 430.25C1024.04 431.979 1025.41 433.337 1027.03 433.337ZM1039.06 427.476H1037.06L1037.05 435H1035.07L1035.08 427.476H1033.57V425.5H1035.08L1035.07 422.517H1037.05L1037.06 425.5H1039.06V427.476ZM1044.9 435.247C1042.28 435.247 1040.15 433.005 1040.15 430.25C1040.15 427.476 1042.28 425.234 1044.9 425.234C1047.81 425.234 1049.93 427.856 1049.6 430.943H1042.27C1042.51 432.264 1043.53 433.261 1044.9 433.271C1045.86 433.271 1046.69 432.758 1047.19 431.912L1049.2 432.378C1048.44 434.069 1046.8 435.247 1044.9 435.247ZM1042.21 429.433H1047.6C1047.4 428.074 1046.27 426.982 1044.9 426.982C1043.54 426.982 1042.43 428.046 1042.21 429.433ZM1058.74 420.75H1060.72V435H1058.74V433.604C1058.11 434.591 1057.11 435.247 1055.77 435.247C1053.01 435.247 1050.77 433.005 1050.77 430.25C1050.77 427.485 1053.01 425.243 1055.77 425.243C1057.11 425.243 1058.11 425.908 1058.74 426.877V420.75ZM1055.79 433.337C1057.46 433.337 1058.57 431.96 1058.57 430.25C1058.57 428.521 1057.44 427.153 1055.79 427.153C1054.12 427.153 1052.79 428.54 1052.79 430.25C1052.79 431.979 1054.16 433.337 1055.79 433.337ZM1073.2 435.247C1070.01 435.247 1067.94 432.663 1067.94 429.452V421.7H1069.91V429.452C1069.91 431.542 1071.1 433.271 1073.2 433.271C1075.34 433.271 1076.49 431.542 1076.49 429.452V421.7H1078.46V429.452C1078.46 432.663 1076.39 435.247 1073.2 435.247ZM1081.05 435V421.7H1083.02V435H1081.05ZM1097.92 425.5H1099.9V435H1097.91L1097.84 433.622C1097.28 434.601 1096.33 435.247 1095.03 435.247C1092.22 435.247 1089.96 432.967 1089.96 430.164C1089.96 427.438 1092.15 425.234 1094.86 425.234C1096.24 425.234 1097.31 425.927 1098.01 426.906L1097.92 425.5ZM1094.98 433.337C1096.65 433.337 1097.76 431.96 1097.76 430.25C1097.76 428.521 1096.63 427.153 1094.98 427.153C1093.32 427.153 1091.99 428.54 1091.99 430.25C1091.99 431.979 1093.35 433.337 1094.98 433.337ZM1110.53 429.034V435H1108.56V429.528C1108.56 428.255 1107.53 427.229 1106.26 427.229C1105 427.229 1103.96 428.255 1103.96 429.528V435H1101.98V425.5H1103.96V426.507C1104.63 425.728 1105.62 425.234 1106.73 425.234C1108.83 425.234 1110.53 426.934 1110.53 429.034ZM1119.84 420.75H1121.81V435H1119.84V433.604C1119.21 434.591 1118.2 435.247 1116.86 435.247C1114.11 435.247 1111.87 433.005 1111.87 430.25C1111.87 427.485 1114.11 425.243 1116.86 425.243C1118.2 425.243 1119.21 425.908 1119.84 426.877V420.75ZM1116.88 433.337C1118.55 433.337 1119.67 431.96 1119.67 430.25C1119.67 428.521 1118.53 427.153 1116.88 427.153C1115.22 427.153 1113.89 428.54 1113.89 430.25C1113.89 431.979 1115.26 433.337 1116.88 433.337ZM932.596 446.7H934.904L939.74 460H937.65L936.728 457.473H930.781L929.86 460H927.76L932.596 446.7ZM931.503 455.497H935.997L933.745 449.322L931.503 455.497ZM941.615 460V446.7H946.194C948.341 446.7 950.042 448.476 950.042 450.661C950.042 452.884 948.275 454.633 946.194 454.633H943.591V460H941.615ZM943.591 452.656H945.995C947.125 452.656 948.066 451.725 948.066 450.538C948.066 449.341 947.125 448.419 945.995 448.419H943.591V452.656ZM952.295 460V446.7H954.271V460H952.295ZM971.839 446.7V448.676H967.602V460H965.626V448.676H961.399V446.7H971.839ZM976.651 460.247C974.029 460.247 971.901 458.005 971.901 455.25C971.901 452.476 974.029 450.234 976.651 450.234C979.558 450.234 981.676 452.856 981.344 455.943H974.019C974.257 457.264 975.273 458.261 976.651 458.271C977.61 458.271 978.437 457.758 978.94 456.912L980.945 457.378C980.185 459.069 978.551 460.247 976.651 460.247ZM973.953 454.433H979.349C979.149 453.074 978.019 451.982 976.651 451.982C975.283 451.982 974.181 453.046 973.953 454.433ZM985.994 460.181C984.484 460.095 983.002 459.335 982.479 458.138L984.161 457.416C984.417 457.938 985.282 458.48 986.194 458.48C987.068 458.48 987.904 458.081 987.904 457.321C987.904 456.485 986.925 456.295 986.089 456.076C984.208 455.649 982.698 454.832 982.698 453.15C982.698 451.326 984.36 450.177 986.203 450.177C987.723 450.177 989.072 450.861 989.747 451.991L988.179 452.922C987.885 452.352 987.125 451.925 986.365 451.887C985.377 451.849 984.55 452.248 984.55 453.103C984.55 453.939 985.557 454.024 986.517 454.328C988.198 454.879 989.775 455.677 989.737 457.292C989.737 459.078 987.913 460.295 985.994 460.181ZM996.57 452.476H994.575L994.565 460H992.589L992.599 452.476H991.088V450.5H992.599L992.589 447.517H994.565L994.575 450.5H996.57V452.476ZM999.328 449.122C998.73 449.122 998.274 448.685 998.274 448.087C998.274 447.498 998.73 447.051 999.328 447.051C999.908 447.051 1000.37 447.498 1000.37 448.087C1000.37 448.685 999.917 449.122 999.328 449.122ZM998.331 450.5H1000.31V460H998.331V450.5ZM1011.26 454.034V460H1009.29V454.528C1009.29 453.255 1008.26 452.229 1006.99 452.229C1005.73 452.229 1004.69 453.255 1004.69 454.528V460H1002.71V450.5H1004.69V451.507C1005.36 450.728 1006.35 450.234 1007.46 450.234C1009.56 450.234 1011.26 451.934 1011.26 454.034ZM1020.39 450.5H1022.37V460.247C1022.37 462.869 1019.98 464.75 1017.34 464.75C1015.34 464.75 1013.44 463.363 1012.76 461.549L1014.57 460.732C1014.94 461.91 1016.14 462.765 1017.34 462.765C1018.89 462.765 1020.39 461.729 1020.39 460.247V458.641C1019.77 459.601 1018.78 460.247 1017.5 460.247C1014.79 460.247 1012.6 458.005 1012.6 455.25C1012.6 452.485 1014.79 450.243 1017.5 450.243C1018.78 450.243 1019.77 450.889 1020.39 451.858V450.5ZM1017.53 458.337C1019.15 458.337 1020.26 456.922 1020.26 455.25C1020.26 453.549 1019.14 452.153 1017.53 452.153C1015.91 452.153 1014.62 453.54 1014.62 455.25C1014.62 456.969 1015.93 458.337 1017.53 458.337Z" fill="#141420"/>
</g>
<circle cx="8.5" cy="8.5" r="8.5" transform="matrix(-1 0 0 1 909 316)" fill="#ECEDFF"/>
<path d="M909 324H983C988.523 324 993 328.477 993 334V365" stroke="#7E99CD" stroke-width="2" stroke-dasharray="11 11"/>
<defs>
<filter id="filter0_d_102_2838" x="0" y="11" width="315" height="163" filterUnits="userSpaceOnUse" color-interpolation-filters="sRGB">
<feFlood flood-opacity="0" result="BackgroundImageFix"/>
<feColorMatrix in="SourceAlpha" type="matrix" values="0 0 0 0 0 0 0 0 0 0 0 0 0 0 0 0 0 0 127 0" result="hardAlpha"/>
<feOffset dy="4"/>
<feGaussianBlur stdDeviation="9.5"/>
<feComposite in2="hardAlpha" operator="out"/>
<feColorMatrix type="matrix" values="0 0 0 0 0 0 0 0 0 0 0 0 0 0 0 0 0 0 0.12 0"/>
<feBlend mode="normal" in2="BackgroundImageFix" result="effect1_dropShadow_102_2838"/>
<feBlend mode="normal" in="SourceGraphic" in2="effect1_dropShadow_102_2838" result="shape"/>
</filter>
<filter id="filter1_d_102_2838" x="797" y="0" width="315" height="138" filterUnits="userSpaceOnUse" color-interpolation-filters="sRGB">
<feFlood flood-opacity="0" result="BackgroundImageFix"/>
<feColorMatrix in="SourceAlpha" type="matrix" values="0 0 0 0 0 0 0 0 0 0 0 0 0 0 0 0 0 0 127 0" result="hardAlpha"/>
<feOffset dy="4"/>
<feGaussianBlur stdDeviation="9.5"/>
<feComposite in2="hardAlpha" operator="out"/>
<feColorMatrix type="matrix" values="0 0 0 0 0 0 0 0 0 0 0 0 0 0 0 0 0 0 0.12 0"/>
<feBlend mode="normal" in2="BackgroundImageFix" result="effect1_dropShadow_102_2838"/>
<feBlend mode="normal" in="SourceGraphic" in2="effect1_dropShadow_102_2838" result="shape"/>
</filter>
<filter id="filter2_d_102_2838" x="479" y="538" width="315" height="138" filterUnits="userSpaceOnUse" color-interpolation-filters="sRGB">
<feFlood flood-opacity="0" result="BackgroundImageFix"/>
<feColorMatrix in="SourceAlpha" type="matrix" values="0 0 0 0 0 0 0 0 0 0 0 0 0 0 0 0 0 0 127 0" result="hardAlpha"/>
<feOffset dy="4"/>
<feGaussianBlur stdDeviation="9.5"/>
<feComposite in2="hardAlpha" operator="out"/>
<feColorMatrix type="matrix" values="0 0 0 0 0 0 0 0 0 0 0 0 0 0 0 0 0 0 0.12 0"/>
<feBlend mode="normal" in2="BackgroundImageFix" result="effect1_dropShadow_102_2838"/>
<feBlend mode="normal" in="SourceGraphic" in2="effect1_dropShadow_102_2838" result="shape"/>
</filter>
<filter id="filter3_d_102_2838" x="53" y="433" width="315" height="138" filterUnits="userSpaceOnUse" color-interpolation-filters="sRGB">
<feFlood flood-opacity="0" result="BackgroundImageFix"/>
<feColorMatrix in="SourceAlpha" type="matrix" values="0 0 0 0 0 0 0 0 0 0 0 0 0 0 0 0 0 0 127 0" result="hardAlpha"/>
<feOffset dy="4"/>
<feGaussianBlur stdDeviation="9.5"/>
<feComposite in2="hardAlpha" operator="out"/>
<feColorMatrix type="matrix" values="0 0 0 0 0 0 0 0 0 0 0 0 0 0 0 0 0 0 0.12 0"/>
<feBlend mode="normal" in2="BackgroundImageFix" result="effect1_dropShadow_102_2838"/>
<feBlend mode="normal" in="SourceGraphic" in2="effect1_dropShadow_102_2838" result="shape"/>
</filter>
<filter id="filter4_d_102_2838" x="883" y="351" width="315" height="163" filterUnits="userSpaceOnUse" color-interpolation-filters="sRGB">
<feFlood flood-opacity="0" result="BackgroundImageFix"/>
<feColorMatrix in="SourceAlpha" type="matrix" values="0 0 0 0 0 0 0 0 0 0 0 0 0 0 0 0 0 0 127 0" result="hardAlpha"/>
<feOffset dy="4"/>
<feGaussianBlur stdDeviation="9.5"/>
<feComposite in2="hardAlpha" operator="out"/>
<feColorMatrix type="matrix" values="0 0 0 0 0 0 0 0 0 0 0 0 0 0 0 0 0 0 0.12 0"/>
<feBlend mode="normal" in2="BackgroundImageFix" result="effect1_dropShadow_102_2838"/>
<feBlend mode="normal" in="SourceGraphic" in2="effect1_dropShadow_102_2838" result="shape"/>
</filter>
<radialGradient id="paint0_radial_102_2838" cx="0" cy="0" r="1" gradientUnits="userSpaceOnUse" gradientTransform="translate(585.984 326.096) rotate(90) scale(26.9042 108.715)">
<stop stop-color="#141420" stop-opacity="0.54"/>
<stop offset="1" stop-color="#7D7D7D" stop-opacity="0"/>
</radialGradient>
<clipPath id="clip0_102_2838">
<rect width="159.057" height="159.057" fill="white" transform="translate(502.624 134.289)"/>
</clipPath>
</defs>
</svg>
