<svg width="111" height="23" viewBox="0 0 111 23" fill="none" xmlns="http://www.w3.org/2000/svg">
<path d="M5.61583 19.7917C4.66799 19.7919 3.74137 19.511 2.95321 18.9845C2.16505 18.458 1.55078 17.7096 1.18813 16.8338C0.825476 15.9581 0.730737 14.9945 0.915899 14.0649C1.10106 13.1353 1.55781 12.2816 2.22833 11.6117L9.29917 4.53999C9.41642 4.42274 9.57544 4.35687 9.74125 4.35687C9.90706 4.35687 10.0661 4.42274 10.1833 4.53999C10.3006 4.65724 10.3665 4.81626 10.3665 4.98207C10.3665 5.14788 10.3006 5.30691 10.1833 5.42415L3.11167 12.495C2.76931 12.8208 2.49562 13.2118 2.30672 13.645C2.11783 14.0782 2.01755 14.5449 2.01179 15.0175C2.00603 15.49 2.09492 15.959 2.27321 16.3967C2.45149 16.8344 2.71558 17.2319 3.0499 17.566C3.38422 17.9 3.78202 18.1638 4.21986 18.3417C4.65769 18.5196 5.12671 18.6081 5.59928 18.602C6.07184 18.5958 6.5384 18.4951 6.97146 18.3059C7.40452 18.1166 7.79532 17.8426 8.12083 17.5L17.2542 8.36665C17.6727 7.93446 17.9046 7.35506 17.8997 6.75344C17.8949 6.15183 17.6538 5.57623 17.2283 5.15081C16.8029 4.72539 16.2273 4.48425 15.6257 4.47942C15.0241 4.47459 14.4447 4.70645 14.0125 5.12499L6.6475 12.495C6.45213 12.6904 6.34236 12.9554 6.34236 13.2317C6.34236 13.508 6.45213 13.7729 6.6475 13.9683C6.84288 14.1637 7.10786 14.2735 7.38417 14.2735C7.66047 14.2735 7.92546 14.1637 8.12083 13.9683L12.8333 9.25499C12.891 9.19527 12.9599 9.14762 13.0361 9.11483C13.1124 9.08204 13.1944 9.06476 13.2774 9.064C13.3604 9.06324 13.4427 9.07901 13.5195 9.1104C13.5963 9.14179 13.6661 9.18817 13.7248 9.24682C13.7835 9.30548 13.83 9.37524 13.8614 9.45203C13.8929 9.52883 13.9088 9.61112 13.9081 9.69411C13.9074 9.77709 13.8902 9.85911 13.8575 9.93538C13.8247 10.0117 13.7772 10.0806 13.7175 10.1383L9.00417 14.8525C8.57441 15.2824 7.99148 15.5239 7.38363 15.524C6.77578 15.5241 6.19279 15.2827 5.76292 14.8529C5.33305 14.4231 5.0915 13.8402 5.09142 13.2324C5.09135 12.6245 5.33274 12.0415 5.7625 11.6117L13.1292 4.24999C13.7933 3.58573 14.6941 3.21251 15.6335 3.21243C16.5728 3.21235 17.4737 3.58542 18.1379 4.24957C18.8022 4.91372 19.1754 5.81454 19.1755 6.75386C19.1756 7.69318 18.8025 8.59406 18.1383 9.25832L9.005 18.3883C8.56089 18.8347 8.03269 19.1885 7.45095 19.4294C6.86921 19.6703 6.24547 19.7934 5.61583 19.7917Z" fill="#66666E"/>
<path d="M35.301 5.4H37.128L41.709 18H40.107L39.171 15.426H33.267L32.331 18H30.72L35.301 5.4ZM33.816 13.914H38.613L36.21 7.335L33.816 13.914ZM47.2381 10.512H45.1951L45.1861 18H43.6741L43.6831 10.512H42.1351V9H43.6831L43.6741 6.174H45.1861L45.1951 9H47.2381V10.512ZM53.5135 10.512H51.4705L51.4615 18H49.9495L49.9585 10.512H48.4105V9H49.9585L49.9495 6.174H51.4615L51.4705 9H53.5135V10.512ZM62.1344 9H63.6464V18H62.1344L62.0714 16.479C61.5134 17.532 60.5054 18.234 59.1374 18.234C56.5004 18.234 54.3584 16.083 54.3584 13.437C54.3584 10.845 56.4464 8.748 59.0294 8.748C60.4514 8.748 61.5314 9.477 62.1884 10.539L62.1344 9ZM59.1104 16.767C60.8924 16.767 62.0174 15.3 62.0174 13.5C62.0174 11.664 60.8654 10.224 59.1104 10.224C57.3284 10.224 55.9064 11.691 55.9064 13.5C55.9064 15.336 57.3734 16.767 59.1104 16.767ZM71.4705 15.624L72.8205 16.353C72.0015 17.496 70.6965 18.234 69.2295 18.234C66.7455 18.234 64.7295 16.11 64.7295 13.5C64.7295 10.872 66.7455 8.748 69.2295 8.748C70.6965 8.748 72.0015 9.486 72.8205 10.638L71.4705 11.367C70.9035 10.656 70.0575 10.26 69.2295 10.26C67.5465 10.26 66.2415 11.763 66.2415 13.5C66.2415 15.255 67.5735 16.722 69.2295 16.722C70.1115 16.722 70.9395 16.272 71.4705 15.624ZM82.243 12.393V18H80.731V12.735C80.731 11.376 79.624 10.278 78.265 10.278C76.906 10.278 75.799 11.376 75.799 12.735V18H74.287V4.5H75.799V10.125C76.429 9.288 77.455 8.748 78.589 8.748C80.605 8.748 82.243 10.377 82.243 12.393ZM90.3925 6.777V9H93.0295V10.512H90.3925V18H88.8805V10.512H87.7195V9H88.8805V6.777C88.8805 5.4 90.0055 4.284 91.3825 4.284C92.0485 4.284 92.7145 4.554 93.2095 5.085L92.1295 6.156C91.9585 5.922 91.6615 5.796 91.3825 5.796C90.8425 5.796 90.3925 6.237 90.3925 6.777ZM95.179 7.533C94.702 7.533 94.342 7.191 94.342 6.714C94.342 6.246 94.702 5.895 95.179 5.895C95.638 5.895 96.007 6.246 96.007 6.714C96.007 7.191 95.647 7.533 95.179 7.533ZM94.414 9H95.926V18H94.414V9ZM98.1405 18V4.5H99.6525V18H98.1405ZM105.686 18.234C103.202 18.234 101.186 16.11 101.186 13.5C101.186 10.872 103.202 8.748 105.686 8.748C108.395 8.748 110.357 11.106 110.141 14.049H102.797C103.013 15.57 104.174 16.713 105.686 16.722C106.766 16.722 107.675 16.137 108.215 15.156L109.754 15.516C109.034 17.118 107.486 18.234 105.686 18.234ZM102.752 12.861H108.62C108.458 11.358 107.207 10.098 105.686 10.098C104.165 10.098 102.95 11.322 102.752 12.861Z" fill="#66666E"/>
</svg>
