<svg width="28" height="28" viewBox="0 0 28 28" fill="none" xmlns="http://www.w3.org/2000/svg">
<path d="M8.19369 6.55859C6.99066 6.55859 6.2041 7.34847 6.2041 8.38666C6.2041 9.40191 6.96723 10.2143 8.14753 10.2143H8.17036C9.39691 10.2143 10.1602 9.40191 10.1602 8.38666C10.1373 7.34847 9.39691 6.55859 8.19369 6.55859Z" fill="white"/>
<path d="M6.41211 11.6562H9.92905V22.2359H6.41211V11.6562Z" fill="white"/>
<path d="M18.5615 11.4062C16.6643 11.4062 15.392 13.1889 15.392 13.1889V11.6546H11.875V22.2342H15.3918V16.3261C15.3918 16.0098 15.4148 15.6941 15.5077 15.4679C15.7619 14.8363 16.3405 14.182 17.3121 14.182C18.5847 14.182 19.0937 15.1522 19.0937 16.5744V22.2342H22.6104V16.168C22.6104 12.9184 20.8752 11.4062 18.5615 11.4062Z" fill="white"/>
</svg>
