<svg width="28" height="28" viewBox="0 0 28 28" fill="none" xmlns="http://www.w3.org/2000/svg">
<g clip-path="url(#clip0_161_2135)">
<path d="M8.85791 14.537L4.04671 12.4318C3.5045 12.1948 3.54119 11.4135 4.10337 11.2285L22.3985 5.19733C22.8771 5.03969 23.3436 5.46698 23.2283 5.95785L19.5723 21.5022C19.4631 21.9666 18.9051 22.156 18.536 21.8538L14.2402 18.3388L8.85791 14.537Z" fill="#EBF0FA"/>
<path d="M18.8264 8.55523L8.85791 14.5382L10.0776 20.1958C10.187 20.7034 10.7853 20.9271 11.2009 20.6159L14.2402 18.3399L11.7395 16.2934L19.1414 8.96045C19.3584 8.74543 19.0884 8.39797 18.8264 8.55523Z" fill="#BEC3D2"/>
<path d="M10.4805 20.6939C10.7046 20.7952 10.9792 20.782 11.2015 20.6154L14.2408 18.3395L12.9905 17.3162L11.7401 16.293L10.4805 20.6939Z" fill="#AFB4C8"/>
</g>
<defs>
<clipPath id="clip0_161_2135">
<rect width="19.5858" height="19.5858" fill="white" transform="translate(3.66016 3.78906)"/>
</clipPath>
</defs>
</svg>
