<svg width="30" height="30" viewBox="0 0 30 30" fill="none" xmlns="http://www.w3.org/2000/svg">
<g clip-path="url(#clip0_102_3330)">
<path d="M15 30C6.7289 30 0 23.2711 0 15C0 6.7289 6.7289 0 15 0C23.2711 0 30 6.7289 30 15C30 23.2711 23.2711 30 15 30Z" fill="#FE0050"/>
<path d="M15 0V30C23.2711 30 30 23.2711 30 15C30 6.7289 23.2711 0 15 0Z" fill="#E10555"/>
<path d="M15 25.0195C9.47525 25.0195 4.98047 20.5247 4.98047 15C4.98047 9.47525 9.47525 4.98047 15 4.98047C20.5247 4.98047 25.0195 9.47525 25.0195 15C25.0195 20.5247 20.5247 25.0195 15 25.0195Z" fill="#D9E7F3"/>
<path d="M15 4.98047V25.0195C20.5247 25.0195 25.0195 20.5247 25.0195 15C25.0195 9.47525 20.5247 4.98047 15 4.98047Z" fill="#C8D4DF"/>
<path d="M15 19.7461C12.383 19.7461 10.2539 17.617 10.2539 15C10.2539 12.383 12.383 10.2539 15 10.2539C17.617 10.2539 19.7461 12.383 19.7461 15C19.7461 17.617 17.617 19.7461 15 19.7461Z" fill="#FE0050"/>
<path d="M15 10.2539V19.7461C17.617 19.7461 19.7461 17.617 19.7461 15C19.7461 12.383 17.617 10.2539 15 10.2539Z" fill="#E10555"/>
<path d="M15 15.8775C14.775 15.8775 14.55 15.7916 14.3786 15.62C14.0353 15.2769 14.0353 14.7202 14.3786 14.3771L20.842 7.91374C21.1851 7.57042 21.7417 7.57042 22.0848 7.91374C22.4281 8.25684 22.4281 8.81325 22.0848 9.15657L15.6214 15.62C15.45 15.7916 15.225 15.8775 15 15.8775Z" fill="#2D2D55"/>
<path d="M22.0846 7.91602L14.3784 15.6222C14.5499 15.7939 14.7748 15.8797 14.9998 15.8797C15.2248 15.8797 15.4498 15.7939 15.6212 15.6222L22.0846 9.15884C22.428 8.81575 22.428 8.25911 22.0846 7.91602Z" fill="#0A0A48"/>
<path d="M24.9024 9.70572C24.8779 9.70572 24.8532 9.70458 24.8285 9.70275L21.3898 9.41276C20.9627 9.37659 20.6237 9.03785 20.5878 8.61075L20.2975 5.1718C20.2758 4.91385 20.369 4.65957 20.5521 4.47646L24.2808 0.747748C24.5227 0.50582 24.883 0.426169 25.2043 0.543814C25.5254 0.661231 25.7493 0.954428 25.7781 1.29523L26.0056 3.99444L28.7051 4.22217C29.0459 4.25101 29.3391 4.47486 29.4567 4.79621C29.5741 5.11733 29.4945 5.47759 29.2525 5.71952L25.5238 9.44823C25.3583 9.61371 25.1345 9.70572 24.9024 9.70572Z" fill="#FFC300"/>
<path d="M28.7048 4.22188L26.0056 3.99414L20.8418 9.15794C20.9844 9.30054 21.1757 9.39438 21.3893 9.41246L24.8282 9.70245C24.853 9.70428 24.8774 9.70543 24.9022 9.70543C25.1342 9.70543 25.3581 9.61342 25.5236 9.44794L29.2523 5.71922C29.4942 5.47729 29.5739 5.11703 29.4565 4.79568C29.3388 4.47456 29.0456 4.25072 28.7048 4.22188Z" fill="#FAB400"/>
</g>
<defs>
<clipPath id="clip0_102_3330">
<rect width="30" height="30" fill="white"/>
</clipPath>
</defs>
</svg>
