<svg width="40" height="40" viewBox="0 0 40 40" fill="none" xmlns="http://www.w3.org/2000/svg">
<path d="M39.3874 19.9976C39.3874 30.7039 30.7073 39.3832 19.9996 39.3832C9.29196 39.3832 0.611814 30.7039 0.611814 19.9976C0.611814 9.29133 9.29196 0.612058 19.9996 0.612058C30.7073 0.612058 39.3874 9.29133 39.3874 19.9976Z" stroke="#6573FF" stroke-width="1.22412"/>
<path d="M19.7341 9C15.4691 9 11.9998 12.5124 11.9998 16.7773C11.9998 20.598 14.9165 24.7001 17.4902 28.2821C18.102 29.1331 18.688 29.9482 19.1978 30.713C19.3174 30.8924 19.5189 31 19.7341 31C19.9493 31 20.1508 30.8924 20.2703 30.713C20.7802 29.9482 21.3662 29.1331 21.978 28.2821C24.5517 24.7001 27.4685 20.598 27.4685 16.7773C27.4685 12.5124 23.9991 9 19.7341 9ZM19.7341 20.6445C17.6016 20.6445 15.8669 18.9098 15.8669 16.7773C15.8669 14.6448 17.6016 12.9102 19.7341 12.9102C21.8666 12.9102 23.6013 14.6448 23.6013 16.7773C23.6013 18.9098 21.8666 20.6445 19.7341 20.6445Z" fill="#6573FF"/>
<path d="M21.978 28.2821C24.5517 24.7001 27.4685 20.598 27.4685 16.7773C27.4685 12.5124 23.9991 9 19.7341 9V12.9102C21.8666 12.9102 23.6013 14.6448 23.6013 16.7773C23.6013 18.9098 21.8666 20.6445 19.7341 20.6445V31C19.9494 31 20.1508 30.8924 20.2704 30.713C20.7802 29.9482 21.3662 29.1331 21.978 28.2821Z" fill="#6573FF"/>
</svg>
