<svg width="60" height="60" viewBox="0 0 60 60" fill="none" xmlns="http://www.w3.org/2000/svg">
<g clip-path="url(#clip0_102_2445)">
<path d="M60 30C60 13.4315 46.5685 0 30 0C13.4315 0 0 13.4315 0 30C0 46.5685 13.4315 60 30 60C46.5685 60 60 46.5685 60 30Z" fill="#7681F3"/>
<path fill-rule="evenodd" clip-rule="evenodd" d="M22.9427 44.9269V36.7516H25.1014V42.4029C31.4719 43.9392 37.7899 40.9216 40.3695 35.2702C41.1066 33.6791 41.4225 31.9782 41.4752 30.2225C41.5102 27.4447 41.4986 24.6914 41.4869 21.9298C41.481 20.5459 41.4752 19.1598 41.4752 17.7678C41.4752 17.658 41.4752 17.5483 41.4225 17.3288H35.3679V15.0244H43.7391V16.0669C43.7391 17.402 43.7332 18.737 43.7274 20.0721C43.7157 22.7424 43.704 25.4125 43.7391 28.0827C43.7917 30.6614 43.6865 33.2401 42.6861 35.6544C40.2116 41.3605 35.9997 44.5427 29.9451 44.9269C28.4451 45.0359 26.9221 45.0005 25.3606 44.9641C24.5654 44.9456 23.76 44.9269 22.9427 44.9269ZM17.204 44.9269H15.098C15.098 44.7547 15.0836 44.5826 15.07 44.4184C15.0574 44.2685 15.0454 44.125 15.0454 43.994C15.0454 42.8215 15.0512 41.6551 15.0571 40.4907C15.0689 38.168 15.0805 35.8535 15.0454 33.5145C15.0412 33.3289 15.0367 33.1435 15.0324 32.9585C14.9801 30.7925 14.9289 28.6695 15.414 26.5465C16.153 23.3092 17.9042 20.4201 20.3921 18.3341C22.8799 16.2481 25.9627 15.0838 29.1554 15.0244C30.1342 14.988 31.1132 14.9999 32.1076 15.012C32.6106 15.0183 33.1176 15.0244 33.6305 15.0244V17.3836C33.2425 17.3836 32.8602 17.3899 32.48 17.396C31.7255 17.4081 30.9786 17.4201 30.2084 17.3836C23.1007 16.9996 16.7301 22.8704 17.2566 31.8136C17.4389 34.7765 17.394 37.7392 17.3492 40.7021C17.3292 42.0189 17.3094 43.3356 17.3094 44.6525C17.2566 44.7074 17.204 44.8171 17.204 44.9269ZM39.8429 19.1944V27.8634C39.8429 29.2899 39.8429 30.7164 39.6324 32.0881C38.8952 36.8066 34.6834 40.6472 30.0502 40.8119C29.3852 40.8484 28.697 40.8364 28.0009 40.8241C27.65 40.8181 27.2969 40.8119 26.944 40.8119V36.8066H29.1025C29.1289 37.0809 29.1421 37.3552 29.1551 37.6296C29.1684 37.904 29.1816 38.1782 29.2079 38.4526C31.2611 38.5624 32.9986 37.904 34.5254 36.642C36.5787 34.9411 37.6317 32.6915 37.6317 29.9482C37.6669 28.2616 37.6551 26.5749 37.6432 24.9045C37.6375 24.0755 37.6317 23.2505 37.6317 22.4315C37.6317 22.1571 37.6317 21.828 37.579 21.4987H35.4731V19.1944H39.8429ZM33.6304 21.4439H29.629C25.891 21.4987 23.3111 23.3643 21.7844 26.8758C21.6455 27.2013 21.5754 27.5267 21.4984 27.8837C21.4586 28.0682 21.417 28.2612 21.3631 28.4667H28.9972V30.8261H18.9412C18.842 29.3795 19.0189 27.9266 19.4616 26.5518C19.9045 25.1768 20.6045 23.9069 21.5211 22.8156C24.7326 18.8651 29.1025 18.8103 33.6304 19.1395V21.4439ZM29.0499 32.6367H19.0466V44.872H21.2579V34.9411H29.0499V32.6367Z" fill="#2E2E2E"/>
<path fill-rule="evenodd" clip-rule="evenodd" d="M22.9427 44.9269V36.7516H25.1014V42.4029C31.4719 43.9392 37.7899 40.9216 40.3695 35.2702C41.1066 33.6791 41.4225 31.9782 41.4752 30.2225C41.5102 27.4447 41.4986 24.6914 41.4869 21.9298C41.481 20.5459 41.4752 19.1598 41.4752 17.7678C41.4752 17.658 41.4752 17.5483 41.4225 17.3288H35.3679V15.0244H43.7391V16.0669C43.7391 17.402 43.7332 18.737 43.7274 20.0721C43.7157 22.7424 43.704 25.4125 43.7391 28.0827C43.7917 30.6614 43.6865 33.2401 42.6861 35.6544C40.2116 41.3605 35.9997 44.5427 29.9451 44.9269C28.4451 45.0359 26.9221 45.0005 25.3606 44.9641C24.5654 44.9456 23.76 44.9269 22.9427 44.9269ZM17.204 44.9269H15.098C15.098 44.7547 15.0836 44.5826 15.07 44.4184C15.0574 44.2685 15.0454 44.125 15.0454 43.994C15.0454 42.8215 15.0512 41.6551 15.0571 40.4907C15.0689 38.168 15.0805 35.8535 15.0454 33.5145C15.0412 33.3289 15.0367 33.1435 15.0324 32.9585C14.9801 30.7925 14.9289 28.6695 15.414 26.5465C16.153 23.3092 17.9042 20.4201 20.3921 18.3341C22.8799 16.2481 25.9627 15.0838 29.1554 15.0244C30.1342 14.988 31.1132 14.9999 32.1076 15.012C32.6106 15.0183 33.1176 15.0244 33.6305 15.0244V17.3836C33.2425 17.3836 32.8602 17.3899 32.48 17.396C31.7255 17.4081 30.9786 17.4201 30.2084 17.3836C23.1007 16.9996 16.7301 22.8704 17.2566 31.8136C17.4389 34.7765 17.394 37.7392 17.3492 40.7021C17.3292 42.0189 17.3094 43.3356 17.3094 44.6525C17.2566 44.7074 17.204 44.8171 17.204 44.9269ZM39.8429 19.1944V27.8634C39.8429 29.2899 39.8429 30.7164 39.6324 32.0881C38.8952 36.8066 34.6834 40.6472 30.0502 40.8119C29.3852 40.8484 28.697 40.8364 28.0009 40.8241C27.65 40.8181 27.2969 40.8119 26.944 40.8119V36.8066H29.1025C29.1289 37.0809 29.1421 37.3552 29.1551 37.6296C29.1684 37.904 29.1816 38.1782 29.2079 38.4526C31.2611 38.5624 32.9986 37.904 34.5254 36.642C36.5787 34.9411 37.6317 32.6915 37.6317 29.9482C37.6669 28.2616 37.6551 26.5749 37.6432 24.9045C37.6375 24.0755 37.6317 23.2505 37.6317 22.4315C37.6317 22.1571 37.6317 21.828 37.579 21.4987H35.4731V19.1944H39.8429ZM33.6304 21.4439H29.629C25.891 21.4987 23.3111 23.3643 21.7844 26.8758C21.6455 27.2013 21.5754 27.5267 21.4984 27.8837C21.4586 28.0682 21.417 28.2612 21.3631 28.4667H28.9972V30.8261H18.9412C18.842 29.3795 19.0189 27.9266 19.4616 26.5518C19.9045 25.1768 20.6045 23.9069 21.5211 22.8156C24.7326 18.8651 29.1025 18.8103 33.6304 19.1395V21.4439ZM29.0499 32.6367H19.0466V44.872H21.2579V34.9411H29.0499V32.6367Z" fill="white"/>
</g>
<defs>
<clipPath id="clip0_102_2445">
<rect width="60" height="60" fill="white"/>
</clipPath>
</defs>
</svg>
