<svg width="68" height="68" viewBox="0 0 68 68" fill="none" xmlns="http://www.w3.org/2000/svg">
<rect width="68" height="68" rx="10" fill="#F4F4F4"/>
<path d="M52.348 15.6522C51.4785 14.7826 50.0687 14.7826 49.1992 15.6522L46.5435 18.3079C47.2005 18.6433 47.8169 19.0851 48.366 19.6342C48.9152 20.1834 49.3569 20.7997 49.6923 21.4568L52.3481 18.801C53.2176 17.9315 53.2176 16.5217 52.348 15.6522Z" fill="#6A73D8"/>
<path d="M46.7914 28.2943C48.7479 26.3379 48.7478 23.1659 46.7914 21.2095C44.835 19.2531 41.663 19.2531 39.7066 21.2095C37.7502 23.1659 37.7502 26.3379 39.7066 28.2943C41.6629 30.2507 44.8349 30.2507 46.7914 28.2943ZM42.4617 23.9647C42.8965 23.5299 43.6013 23.5299 44.0361 23.9647C44.4709 24.3995 44.4709 25.1043 44.0361 25.5391C43.6013 25.9739 42.8965 25.9739 42.4617 25.5391C42.0269 25.1043 42.0269 24.3994 42.4617 23.9647Z" fill="#6A73D8"/>
<path d="M49.4076 36.9601C46.1387 40.2289 41.5467 41.3869 37.3396 40.4357L42.5212 31.8121C41.0227 31.7378 39.5449 31.1626 38.3626 30.0868L33.19 38.6956C32.4278 38.2046 31.7058 37.6266 31.0393 36.9601C30.3727 36.2935 29.7948 35.5715 29.3037 34.8094L37.9124 29.6367C36.8366 28.4545 36.2615 26.9766 36.1871 25.4781L27.5635 30.6597C26.6123 26.4526 27.7704 21.8607 31.0392 18.5918C31.474 18.1571 31.474 17.4522 31.0392 17.0174C30.6045 16.5827 29.8996 16.5827 29.4648 17.0174C25.4525 21.0298 24.1549 26.7436 25.57 31.8575L19.58 35.4567C18.3335 36.2056 17.7525 37.6392 18.0275 38.9872L15.5401 40.4818C15.0131 40.7985 14.8425 41.4825 15.1592 42.0095C15.4759 42.5365 16.1598 42.7071 16.6868 42.3904L27.3943 35.9566C27.9775 36.871 28.6671 37.7366 29.4649 38.5345C30.2628 39.3323 31.1284 40.0218 32.0427 40.605L25.609 51.3126C25.3895 51.678 25.4041 52.1187 25.6093 52.4602C25.7001 52.6113 25.8283 52.7431 25.9899 52.8402C26.517 53.1568 27.201 52.9864 27.5176 52.4593L29.0123 49.9717C30.3602 50.2467 31.7938 49.6657 32.5427 48.4193L36.1419 42.4293C37.4753 42.7982 38.8493 42.9836 40.2235 42.9836C44.1197 42.9836 48.0159 41.5006 50.9821 38.5345C51.4168 38.0998 51.4168 37.3949 50.9821 36.9601C50.5473 36.5252 49.8424 36.5252 49.4076 36.9601Z" fill="#6A73D8"/>
</svg>
