<svg width="68" height="68" viewBox="0 0 68 68" fill="none" xmlns="http://www.w3.org/2000/svg">
<rect width="68" height="68" rx="10" fill="#F4F4F4"/>
<path d="M50.0636 31.9269C48.9696 31.9269 47.9908 32.6754 47.7605 33.7118H30.9484V32.2724H34.2878C34.3454 32.2724 34.403 32.2724 34.4605 32.2148L40.1605 30.1421H44.6514C44.9393 31.1209 45.8605 31.8118 46.8969 31.8118C48.2211 31.8118 49.2575 30.7178 49.2575 29.4512C49.2575 28.1269 48.2211 27.0906 46.8969 27.0906C45.7454 27.0906 44.7666 27.9542 44.5363 29.0481H40.0454C39.9878 29.0481 39.9302 29.0481 39.8727 29.1057L34.1727 31.1784H30.9484V28.933H34.2878C34.3454 28.933 34.4605 28.933 34.5181 28.8754L43.3272 25.2481C43.4424 25.3633 43.5575 25.536 43.6727 25.6512C44.1333 25.9966 44.6514 26.2269 45.1696 26.2269H45.3999C46.0333 26.1694 46.609 25.8815 47.012 25.3633C47.4151 24.9027 47.5878 24.2694 47.5302 23.636C47.4151 22.3118 46.2636 21.3906 44.9393 21.4481C43.6151 21.5633 42.6363 22.7148 42.7514 24.0391C42.7514 24.0966 42.809 24.1542 42.809 24.2118L40.5636 25.133L38.203 22.7724C38.0878 22.6572 37.9727 22.5997 37.7999 22.5997C37.6272 22.5997 37.5121 22.6572 37.3969 22.7724L35.5545 24.6148C34.4605 23.9239 33.2514 23.4057 31.9848 23.1178V20.5269C31.9848 20.1815 31.7545 19.9512 31.409 19.9512H27.7242C27.3787 19.9512 27.1484 20.1815 27.1484 20.5269V23.0603C25.8817 23.3481 24.6727 23.8663 23.5787 24.5572L21.7363 22.7148C21.506 22.4845 21.1605 22.4845 20.9302 22.7148L18.3969 25.3633C18.1666 25.5936 18.1666 25.9391 18.3969 26.1694L20.1817 28.0118C19.4908 29.1057 18.9727 30.3148 18.6848 31.5815H16.1514C15.8636 31.5815 15.5757 31.8118 15.5757 32.1572V35.8421C15.5757 36.1875 15.8636 36.4178 16.1514 36.4178H18.7424C19.0302 37.6845 19.4908 38.8936 20.1817 39.9875L18.3969 41.83C18.1666 42.0603 18.1666 42.4057 18.3969 42.636L20.9878 45.2269C21.2181 45.4572 21.5636 45.4572 21.7939 45.2269L23.6363 43.3845C24.7302 44.0754 25.9393 44.5936 27.206 44.8815V47.4148C27.206 47.7603 27.4363 47.9906 27.7817 47.9906H31.4666C31.812 47.9906 32.0424 47.7603 32.0424 47.4148V44.9391C33.309 44.6512 34.5181 44.133 35.612 43.4421L37.4545 45.2845C37.5696 45.3997 37.7424 45.4572 37.8575 45.4572C38.0302 45.4572 38.1454 45.3997 38.2605 45.2845L40.2757 43.2694L43.212 44.4209H43.3272C43.212 45.5148 43.7878 46.4936 44.8242 46.8966C45.112 47.0118 45.3999 47.0694 45.6302 47.0694C46.609 47.0694 47.5302 46.4936 47.8757 45.5148C48.106 44.9391 48.0484 44.2481 47.8181 43.6724C47.5302 43.0966 47.0696 42.636 46.4939 42.4057C45.9181 42.1754 45.2272 42.233 44.6514 42.4633C44.2484 42.636 43.903 42.9815 43.6151 43.3269C43.6151 43.3269 43.6151 43.3269 43.5575 43.3269L40.3908 42.0603L34.5181 39.6997C34.4605 39.6997 34.403 39.6421 34.2878 39.6421H30.9484V37.5694H34.1727L39.8727 39.6421C39.9302 39.6421 39.9878 39.6997 40.0454 39.6997H44.5939C44.8242 40.736 45.803 41.4845 46.8969 41.4845C48.2211 41.4845 49.2575 40.3906 49.2575 39.1239C49.2575 37.8572 48.2211 36.7633 46.8969 36.7633C45.803 36.7633 44.8242 37.5118 44.5939 38.5481H40.1605L34.4605 36.4754C34.403 36.4754 34.3454 36.4178 34.2878 36.4178H30.9484V34.9209H47.7605C47.9908 35.9572 48.9696 36.7057 50.0636 36.7057C51.3878 36.7057 52.4242 35.6118 52.4242 34.3451C52.4242 33.0209 51.3302 31.9269 50.0636 31.9269ZM28.703 41.1966C25.3636 40.736 22.7727 38.03 22.4272 34.6906C22.2545 32.6178 22.8878 30.6603 24.2696 29.1057C25.6514 27.5512 27.6666 26.6875 29.7969 26.7451V41.1966C29.4514 41.2542 29.0484 41.1966 28.703 41.1966Z" fill="#6A73D8"/>
</svg>
