<svg width="68" height="68" viewBox="0 0 68 68" fill="none" xmlns="http://www.w3.org/2000/svg">
<rect width="68" height="68" rx="10" fill="#F4F4F4"/>
<path fill-rule="evenodd" clip-rule="evenodd" d="M50.2599 38.0497V35.8492H42.6328C42.6328 40.6168 38.7677 44.4819 34.0001 44.4819C29.2324 44.4819 25.3673 40.6168 25.3673 35.8492H17.7402V38.0497L20.4342 39.0867C20.7759 40.5226 21.3449 41.8944 22.119 43.1511L20.9466 45.7907L24.0587 48.9027L26.6991 47.73C27.9557 48.5037 29.3268 49.0729 30.7625 49.4145L31.7996 52.109H36.2007L37.2376 49.4152C38.6736 49.0736 40.0453 48.5044 41.302 47.7303L43.9416 48.9027L47.0536 45.7906L45.8809 43.1502C46.6546 41.8936 47.2238 40.5225 47.5654 39.0868L50.2599 38.0497ZM25.8238 25.3719C25.8238 23.8669 24.6038 22.6469 23.0988 22.6469C21.5938 22.6469 20.3738 23.8669 20.3738 25.3719C20.3738 26.8769 21.5938 28.0969 23.0988 28.0969C24.6038 28.0969 25.8238 26.8769 25.8238 25.3719ZM27.7499 33.6487H18.4477C18.0591 33.6487 17.777 33.2872 17.8719 32.9102C18.4601 30.571 20.5771 28.839 23.0988 28.839C25.6205 28.839 27.7376 30.571 28.3258 32.9102C28.4205 33.2872 28.1385 33.6487 27.7499 33.6487ZM31.0561 23.5269C31.2534 23.7869 31.6241 23.8378 31.8841 23.6405L37.3991 19.453L42.8752 21.8077C43.1049 21.9064 43.3625 21.8488 43.5292 21.6821L47.4318 18.1316L47.3604 18.4929C47.2976 18.8144 47.5074 19.1259 47.8289 19.1887C48.1504 19.2515 48.4619 19.0418 48.5247 18.7202L48.9428 16.5974C49.0133 16.234 48.736 15.8926 48.3622 15.8926L46.1985 15.9004C45.8719 15.9004 45.6071 16.1653 45.6071 16.4919C45.6071 16.8185 45.8719 17.0833 46.1985 17.0833L46.8251 17.081L42.9933 20.5671L37.5523 18.2274L37.5514 18.2294C37.3624 18.1485 37.1364 18.1685 36.9609 18.3016L31.1697 22.6989C30.9098 22.8962 30.8588 23.2669 31.0561 23.5269ZM38.2323 23.8453H36.4039C36.1587 23.8453 35.9586 24.0454 35.9586 24.2906V33.2034C35.9586 33.4487 36.1586 33.6487 36.4039 33.6487H38.2323C38.4775 33.6487 38.6776 33.4487 38.6776 33.2034V24.2906C38.6776 24.0453 38.4775 23.8453 38.2323 23.8453ZM32.4411 28.4326H30.6128C30.3675 28.4326 30.1675 28.6326 30.1675 28.8779V33.2034C30.1675 33.4487 30.3675 33.6487 30.6128 33.6487H32.4411C32.6864 33.6487 32.8864 33.4487 32.8864 33.2034V28.8779C32.8864 28.6326 32.6864 28.4326 32.4411 28.4326ZM47.5409 20.724C47.5409 20.4787 47.7409 20.2787 47.9862 20.2787H49.8146C50.0599 20.2787 50.2599 20.4787 50.2599 20.724V33.2034C50.2599 33.4487 50.0599 33.6487 49.8146 33.6487H47.9862C47.7409 33.6487 47.5409 33.4487 47.5409 33.2034V20.724ZM44.0235 25.6996H42.1951C41.9498 25.6996 41.7498 25.8996 41.7498 26.1449V33.2035C41.7498 33.4488 41.9498 33.6488 42.1951 33.6488H44.0235C44.2688 33.6488 44.4688 33.4488 44.4688 33.2035V26.1449C44.4688 25.8996 44.2688 25.6996 44.0235 25.6996Z" fill="#6A73D8"/>
</svg>
