<svg width="71" height="72" viewBox="0 0 71 72" fill="none" xmlns="http://www.w3.org/2000/svg">
<g clip-path="url(#clip0_102_3240)">
<path d="M57.6875 71.4453H13.3125C5.95964 71.4453 0 65.4857 0 58.1328V13.7578C0 6.40495 5.95964 0.445312 13.3125 0.445312H57.6875C65.0404 0.445312 71 6.40495 71 13.7578V58.1328C71 65.4857 65.0404 71.4453 57.6875 71.4453Z" fill="#0B0B11"/>
<path d="M51.0636 34.3742C49.9696 34.3742 48.9908 35.1227 48.7605 36.159H31.9484V34.7196H35.2878C35.3454 34.7196 35.403 34.7196 35.4605 34.6621L41.1605 32.5893H45.6514C45.9393 33.5681 46.8605 34.259 47.8969 34.259C49.2211 34.259 50.2575 33.1651 50.2575 31.8984C50.2575 30.5742 49.2211 29.5378 47.8969 29.5378C46.7454 29.5378 45.7666 30.4015 45.5363 31.4954H41.0454C40.9878 31.4954 40.9302 31.4954 40.8727 31.553L35.1727 33.6257H31.9484V31.3803H35.2878C35.3454 31.3803 35.4605 31.3803 35.5181 31.3227L44.3272 27.6954C44.4424 27.8106 44.5575 27.9833 44.6727 28.0984C45.1333 28.4439 45.6514 28.6742 46.1696 28.6742H46.3999C47.0333 28.6166 47.609 28.3287 48.012 27.8106C48.4151 27.35 48.5878 26.7166 48.5302 26.0833C48.4151 24.759 47.2636 23.8378 45.9393 23.8954C44.6151 24.0106 43.6363 25.1621 43.7514 26.4863C43.7514 26.5439 43.809 26.6015 43.809 26.659L41.5636 27.5803L39.203 25.2196C39.0878 25.1045 38.9727 25.0469 38.7999 25.0469C38.6272 25.0469 38.5121 25.1045 38.3969 25.2196L36.5545 27.0621C35.4605 26.3712 34.2514 25.853 32.9848 25.5651V22.9742C32.9848 22.6287 32.7545 22.3984 32.409 22.3984H28.7242C28.3787 22.3984 28.1484 22.6287 28.1484 22.9742V25.5075C26.8817 25.7954 25.6727 26.3136 24.5787 27.0045L22.7363 25.1621C22.506 24.9318 22.1605 24.9318 21.9302 25.1621L19.3969 27.8106C19.1666 28.0409 19.1666 28.3863 19.3969 28.6166L21.1817 30.459C20.4908 31.553 19.9727 32.7621 19.6848 34.0287H17.1514C16.8636 34.0287 16.5757 34.259 16.5757 34.6045V38.2893C16.5757 38.6348 16.8636 38.8651 17.1514 38.8651H19.7424C20.0302 40.1318 20.4908 41.3409 21.1817 42.4348L19.3969 44.2772C19.1666 44.5075 19.1666 44.853 19.3969 45.0833L21.9878 47.6742C22.2181 47.9045 22.5636 47.9045 22.7939 47.6742L24.6363 45.8318C25.7302 46.5227 26.9393 47.0409 28.206 47.3287V49.8621C28.206 50.2075 28.4363 50.4378 28.7817 50.4378H32.4666C32.812 50.4378 33.0424 50.2075 33.0424 49.8621V47.3863C34.309 47.0984 35.5181 46.5803 36.612 45.8893L38.4545 47.7318C38.5696 47.8469 38.7424 47.9045 38.8575 47.9045C39.0302 47.9045 39.1454 47.8469 39.2605 47.7318L41.2757 45.7166L44.212 46.8681H44.3272C44.212 47.9621 44.7878 48.9409 45.8242 49.3439C46.112 49.459 46.3999 49.5166 46.6302 49.5166C47.609 49.5166 48.5302 48.9409 48.8757 47.9621C49.106 47.3863 49.0484 46.6954 48.8181 46.1196C48.5302 45.5439 48.0696 45.0833 47.4939 44.853C46.9181 44.6227 46.2272 44.6803 45.6514 44.9106C45.2484 45.0833 44.903 45.4287 44.6151 45.7742C44.6151 45.7742 44.6151 45.7742 44.5575 45.7742L41.3908 44.5075L35.5181 42.1469C35.4605 42.1469 35.403 42.0893 35.2878 42.0893H31.9484V40.0166H35.1727L40.8727 42.0893C40.9302 42.0893 40.9878 42.1469 41.0454 42.1469H45.5939C45.8242 43.1833 46.803 43.9318 47.8969 43.9318C49.2211 43.9318 50.2575 42.8378 50.2575 41.5712C50.2575 40.3045 49.2211 39.2106 47.8969 39.2106C46.803 39.2106 45.8242 39.959 45.5939 40.9954H41.1605L35.4605 38.9227C35.403 38.9227 35.3454 38.8651 35.2878 38.8651H31.9484V37.3681H48.7605C48.9908 38.4045 49.9696 39.153 51.0636 39.153C52.3878 39.153 53.4242 38.059 53.4242 36.7924C53.4242 35.4681 52.3302 34.3742 51.0636 34.3742ZM29.703 43.6439C26.3636 43.1833 23.7727 40.4772 23.4272 37.1378C23.2545 35.0651 23.8878 33.1075 25.2696 31.553C26.6514 29.9984 28.6666 29.1348 30.7969 29.1924V43.6439C30.4514 43.7015 30.0484 43.6439 29.703 43.6439Z" fill="white"/>
</g>
<defs>
<clipPath id="clip0_102_3240">
<rect width="71" height="71" fill="white" transform="translate(0 0.445312)"/>
</clipPath>
</defs>
</svg>
