<svg width="71" height="72" viewBox="0 0 71 72" fill="none" xmlns="http://www.w3.org/2000/svg">
<g clip-path="url(#clip0_102_3286)">
<path d="M57.6875 71.4453H13.3125C5.95964 71.4453 0 65.4857 0 58.1328V13.7578C0 6.40495 5.95964 0.445312 13.3125 0.445312H57.6875C65.0404 0.445312 71 6.40495 71 13.7578V58.1328C71 65.4857 65.0404 71.4453 57.6875 71.4453Z" fill="#0B0B11"/>
<path fill-rule="evenodd" clip-rule="evenodd" d="M51.2599 40.4931V38.2925H43.6328C43.6328 43.0602 39.7677 46.9253 35.0001 46.9253C30.2324 46.9253 26.3673 43.0601 26.3673 38.2925H18.7402V40.4931L21.4342 41.53C21.7759 42.966 22.3449 44.3377 23.119 45.5945L21.9466 48.2341L25.0587 51.3461L27.6991 50.1733C28.9557 50.9471 30.3268 51.5162 31.7625 51.8579L32.7996 54.5524H37.2007L38.2376 51.8585C39.6736 51.5169 41.0453 50.9477 42.302 50.1736L44.9416 51.3461L48.0536 48.234L46.8809 45.5936C47.6546 44.337 48.2238 42.9659 48.5654 41.5302L51.2599 40.4931ZM26.8238 27.8152C26.8238 26.3103 25.6038 25.0902 24.0988 25.0902C22.5938 25.0902 21.3738 26.3102 21.3738 27.8152C21.3738 29.3202 22.5938 30.5402 24.0988 30.5402C25.6038 30.5402 26.8238 29.3202 26.8238 27.8152ZM28.7499 36.0921H19.4477C19.0591 36.0921 18.777 35.7305 18.8719 35.3536C19.4601 33.0143 21.5771 31.2824 24.0988 31.2824C26.6205 31.2824 28.7376 33.0143 29.3258 35.3536C29.4205 35.7305 29.1385 36.0921 28.7499 36.0921ZM32.0561 25.9702C32.2534 26.2302 32.6241 26.2811 32.8841 26.0839L38.3991 21.8964L43.8752 24.2511C44.1049 24.3498 44.3625 24.2921 44.5292 24.1254L48.4318 20.575L48.3604 20.9363C48.2976 21.2578 48.5074 21.5693 48.8289 21.6321C49.1504 21.6949 49.4619 21.4851 49.5247 21.1636L49.9428 19.0407C50.0133 18.6773 49.736 18.3359 49.3622 18.3359L47.1985 18.3438C46.8719 18.3438 46.6071 18.6086 46.6071 18.9353C46.6071 19.2619 46.8719 19.5267 47.1985 19.5267L47.8251 19.5244L43.9933 23.0105L38.5523 20.6708L38.5514 20.6728C38.3624 20.5918 38.1364 20.6119 37.9609 20.745L32.1697 25.1422C31.9098 25.3395 31.8588 25.7102 32.0561 25.9702ZM39.2323 26.2886H37.4039C37.1587 26.2886 36.9586 26.4887 36.9586 26.7339V35.6468C36.9586 35.8921 37.1586 36.0921 37.4039 36.0921H39.2323C39.4775 36.0921 39.6776 35.8921 39.6776 35.6468V26.7339C39.6776 26.4886 39.4775 26.2886 39.2323 26.2886ZM33.4411 30.8759H31.6128C31.3675 30.8759 31.1675 31.076 31.1675 31.3212V35.6468C31.1675 35.8921 31.3675 36.0921 31.6128 36.0921H33.4411C33.6864 36.0921 33.8864 35.8921 33.8864 35.6468V31.3212C33.8864 31.076 33.6864 30.8759 33.4411 30.8759ZM48.5409 23.1674C48.5409 22.9221 48.7409 22.722 48.9862 22.722H50.8146C51.0599 22.722 51.2599 22.9221 51.2599 23.1674V35.6468C51.2599 35.8921 51.0599 36.0921 50.8146 36.0921H48.9862C48.7409 36.0921 48.5409 35.8921 48.5409 35.6468V23.1674ZM45.0235 28.143H43.1951C42.9498 28.143 42.7498 28.343 42.7498 28.5883V35.6469C42.7498 35.8922 42.9498 36.0922 43.1951 36.0922H45.0235C45.2688 36.0922 45.4688 35.8922 45.4688 35.6469V28.5883C45.4688 28.343 45.2688 28.143 45.0235 28.143Z" fill="white"/>
</g>
<defs>
<clipPath id="clip0_102_3286">
<rect width="71" height="71" fill="white" transform="translate(0 0.445312)"/>
</clipPath>
</defs>
</svg>
