<svg width="57" height="51" viewBox="0 0 57 51" fill="none" xmlns="http://www.w3.org/2000/svg">
<path d="M37.7878 0.816406H19.4669C16.3699 0.816406 13.5054 2.45983 11.9424 5.13349L2.85114 20.6843C1.25822 23.409 1.26276 26.782 2.86301 29.5024L12.6857 46.201C14.2517 48.8633 17.1097 50.4979 20.1984 50.4979H37.6754C40.8682 50.4979 43.8055 48.7522 45.3315 45.9476L54.3581 29.3583C55.7997 26.7087 55.769 23.5021 54.2768 20.8806L45.3626 5.22064C43.8128 2.49788 40.9208 0.816406 37.7878 0.816406Z" fill="white"/>
<path d="M19.6953 21.2448V18.1342C19.6953 17.8199 19.8645 17.53 20.138 17.3754L27.8669 13.0069C28.1282 12.8592 28.4471 12.8563 28.711 12.9993L36.7955 17.3784C37.0767 17.5307 37.2519 17.8249 37.2519 18.1448V21.234C37.2519 21.544 37.0873 21.8307 36.8195 21.9869L28.7355 26.7025C28.4591 26.8638 28.1165 26.8606 27.8432 26.6942L20.1137 21.9893C19.8539 21.8311 19.6953 21.549 19.6953 21.2448Z" fill="#141420"/>
<path d="M28.0583 17.0195L24.0747 19.4709C23.7887 19.6469 23.8008 20.0666 24.0965 20.2258L28.0801 22.3708C28.2091 22.4403 28.3644 22.4403 28.4934 22.3708L32.477 20.2258C32.7726 20.0666 32.7848 19.6469 32.4988 19.4709L28.5152 17.0195C28.3751 16.9333 28.1984 16.9333 28.0583 17.0195Z" fill="white"/>
<path d="M19.6953 27.9307V25.4704C19.6953 24.803 20.4148 24.3832 20.9958 24.7116L27.858 28.5902C28.1241 28.7407 28.4496 28.7407 28.7157 28.5902L35.5779 24.7116C36.1589 24.3832 36.8784 24.803 36.8784 25.4704V27.9307C36.8784 28.2555 36.6979 28.5533 36.4099 28.7035L28.69 32.7313C28.4374 32.8631 28.1363 32.8631 27.8837 32.7313L20.1637 28.7035C19.8758 28.5533 19.6953 28.2555 19.6953 27.9307Z" fill="#141420"/>
<path d="M19.6953 33.9073V31.447C19.6953 30.7795 20.4148 30.3598 20.9958 30.6882L27.8746 34.5762C28.1317 34.7215 28.4449 34.7268 28.7067 34.5902L35.6036 30.9918C36.1839 30.689 36.8784 31.11 36.8784 31.7645V33.9073C36.8784 34.232 36.6979 34.5299 36.4099 34.6801L28.69 38.7079C28.4374 38.8397 28.1363 38.8397 27.8837 38.7079L20.1637 34.6801C19.8758 34.5299 19.6953 34.232 19.6953 33.9073Z" fill="#141420"/>
</svg>
