<svg width="40" height="40" viewBox="0 0 40 40" fill="none" xmlns="http://www.w3.org/2000/svg">
<ellipse cx="19.9999" cy="19.9976" rx="19.9999" ry="19.9976" fill="#6573FF"/>
<g clip-path="url(#clip0_701_138)">
<path d="M20.612 23.0601L18.1639 25.5083C18.1639 25.5083 18.1639 25.5083 18.1638 25.5083C18.1638 25.5083 18.1638 25.5084 18.1638 25.5084C17.1514 26.5208 15.5041 26.5208 14.4916 25.5084C14.0012 25.0179 13.7311 24.3658 13.7311 23.6722C13.7311 22.9788 14.0012 22.3268 14.4915 21.8363C14.4915 21.8362 14.4916 21.8362 14.4916 21.8361L16.9397 19.388C17.2777 19.0499 17.2777 18.5019 16.9397 18.1639C16.6017 17.8259 16.0536 17.8259 15.7156 18.1639L13.2675 20.612C13.2673 20.6122 13.2672 20.6124 13.267 20.6126C12.45 21.4299 12 22.5165 12 23.6722C12 24.8282 12.4501 25.915 13.2676 26.7324C14.1113 27.5761 15.2195 27.998 16.3278 27.998C17.436 27.998 18.5443 27.5761 19.3879 26.7324C19.388 26.7324 19.388 26.7323 19.388 26.7323L21.836 24.2842C22.174 23.9462 22.174 23.3981 21.836 23.0601C21.4981 22.7221 20.9501 22.7221 20.612 23.0601Z" fill="white"/>
<path d="M28 16.3278C28 15.1718 27.5498 14.085 26.7324 13.2676C25.045 11.5802 22.2994 11.5803 20.612 13.2676C20.612 13.2677 20.6119 13.2678 20.6118 13.2679L18.1638 15.7158C17.8258 16.0538 17.8258 16.6019 18.1638 16.9399C18.3329 17.109 18.5543 17.1934 18.7759 17.1934C18.9973 17.1934 19.2189 17.1089 19.3879 16.9399L21.8359 14.4919C21.8359 14.4918 21.8361 14.4918 21.8362 14.4916C22.8485 13.4793 24.4958 13.4792 25.5083 14.4916C25.9987 14.9821 26.2689 15.6342 26.2689 16.3278C26.2689 17.0213 25.9989 17.6733 25.5085 18.1637L25.5083 18.1639L23.0602 20.612C22.7223 20.95 22.7223 21.4981 23.0603 21.8361C23.2293 22.0051 23.4508 22.0897 23.6723 22.0897C23.8938 22.0897 24.1153 22.0051 24.2844 21.8361L26.7324 19.388C26.7326 19.3878 26.7328 19.3876 26.733 19.3874C27.55 18.5701 28 17.4835 28 16.3278Z" fill="white"/>
<path d="M16.9398 23.0601C17.1088 23.2291 17.3303 23.3137 17.5518 23.3137C17.7733 23.3137 17.9949 23.2291 18.1639 23.0601L23.0601 18.1638C23.3982 17.8259 23.3982 17.2778 23.0601 16.9398C22.7222 16.6018 22.1741 16.6018 21.8361 16.9398L16.9398 21.836C16.6018 22.1741 16.6018 22.7221 16.9398 23.0601Z" fill="white"/>
</g>
<defs>
<clipPath id="clip0_701_138">
<rect width="16" height="16" fill="white" transform="translate(12 12)"/>
</clipPath>
</defs>
</svg>
