<svg width="80" height="80" viewBox="0 0 80 80" fill="none" xmlns="http://www.w3.org/2000/svg">
<g clip-path="url(#clip0_620_800)">
<path d="M0 0H80V80H0V0Z" fill="white"/>
<path d="M0 0H19.3103V2.75862H0V0ZM27.5862 0H30.3448V2.75862H27.5862V0ZM33.1034 0H35.8621V2.75862H33.1034V0ZM38.6207 0H41.3793V2.75862H38.6207V0ZM44.1379 0H57.931V2.75862H44.1379V0ZM60.6897 0H80V2.75862H60.6897V0ZM0 2.75862H2.75862V5.51724H0V2.75862ZM16.5517 2.75862H19.3103V5.51724H16.5517V2.75862ZM22.069 2.75862H24.8276V5.51724H22.069V2.75862ZM27.5862 2.75862H30.3448V5.51724H27.5862V2.75862ZM35.8621 2.75862H38.6207V5.51724H35.8621V2.75862ZM41.3793 2.75862H46.8966V5.51724H41.3793V2.75862ZM55.1724 2.75862H57.931V5.51724H55.1724V2.75862ZM60.6897 2.75862H63.4483V5.51724H60.6897V2.75862ZM77.2414 2.75862H80V5.51724H77.2414V2.75862ZM0 5.51724H2.75862V8.27586H0V5.51724ZM5.51724 5.51724H13.7931V8.27586H5.51724V5.51724ZM16.5517 5.51724H19.3103V8.27586H16.5517V5.51724ZM33.1034 5.51724H35.8621V8.27586H33.1034V5.51724ZM52.4138 5.51724H57.931V8.27586H52.4138V5.51724ZM60.6897 5.51724H63.4483V8.27586H60.6897V5.51724ZM66.2069 5.51724H74.4828V8.27586H66.2069V5.51724ZM77.2414 5.51724H80V8.27586H77.2414V5.51724ZM0 8.27586H2.75862V11.0345H0V8.27586ZM5.51724 8.27586H13.7931V11.0345H5.51724V8.27586ZM16.5517 8.27586H19.3103V11.0345H16.5517V8.27586ZM22.069 8.27586H30.3448V11.0345H22.069V8.27586ZM33.1034 8.27586H44.1379V11.0345H33.1034V8.27586ZM46.8966 8.27586H55.1724V11.0345H46.8966V8.27586ZM60.6897 8.27586H63.4483V11.0345H60.6897V8.27586ZM66.2069 8.27586H74.4828V11.0345H66.2069V8.27586ZM77.2414 8.27586H80V11.0345H77.2414V8.27586ZM0 11.0345H2.75862V13.7931H0V11.0345ZM5.51724 11.0345H13.7931V13.7931H5.51724V11.0345ZM16.5517 11.0345H19.3103V13.7931H16.5517V11.0345ZM24.8276 11.0345H27.5862V13.7931H24.8276V11.0345ZM35.8621 11.0345H38.6207V13.7931H35.8621V11.0345ZM44.1379 11.0345H57.931V13.7931H44.1379V11.0345ZM60.6897 11.0345H63.4483V13.7931H60.6897V11.0345ZM66.2069 11.0345H74.4828V13.7931H66.2069V11.0345ZM77.2414 11.0345H80V13.7931H77.2414V11.0345ZM0 13.7931H2.75862V16.5517H0V13.7931ZM16.5517 13.7931H19.3103V16.5517H16.5517V13.7931ZM22.069 13.7931H27.5862V16.5517H22.069V13.7931ZM30.3448 13.7931H35.8621V16.5517H30.3448V13.7931ZM41.3793 13.7931H49.6552V16.5517H41.3793V13.7931ZM55.1724 13.7931H57.931V16.5517H55.1724V13.7931ZM60.6897 13.7931H63.4483V16.5517H60.6897V13.7931ZM77.2414 13.7931H80V16.5517H77.2414V13.7931ZM0 16.5517H19.3103V19.3103H0V16.5517ZM22.069 16.5517H24.8276V19.3103H22.069V16.5517ZM27.5862 16.5517H30.3448V19.3103H27.5862V16.5517ZM33.1034 16.5517H35.8621V19.3103H33.1034V16.5517ZM38.6207 16.5517H41.3793V19.3103H38.6207V16.5517ZM44.1379 16.5517H46.8966V19.3103H44.1379V16.5517ZM49.6552 16.5517H52.4138V19.3103H49.6552V16.5517ZM55.1724 16.5517H57.931V19.3103H55.1724V16.5517ZM60.6897 16.5517H80V19.3103H60.6897V16.5517ZM24.8276 19.3103H33.1034V22.069H24.8276V19.3103ZM38.6207 19.3103H41.3793V22.069H38.6207V19.3103ZM52.4138 19.3103H55.1724V22.069H52.4138V19.3103ZM0 22.069H13.7931V24.8276H0V22.069ZM16.5517 22.069H27.5862V24.8276H16.5517V22.069ZM30.3448 22.069H49.6552V24.8276H30.3448V22.069ZM57.931 22.069H60.6897V24.8276H57.931V22.069ZM63.4483 22.069H66.2069V24.8276H63.4483V22.069ZM68.9655 22.069H71.7241V24.8276H68.9655V22.069ZM74.4828 22.069H77.2414V24.8276H74.4828V22.069ZM2.75862 24.8276H16.5517V27.5862H2.75862V24.8276ZM22.069 24.8276H24.8276V27.5862H22.069V24.8276ZM27.5862 24.8276H30.3448V27.5862H27.5862V24.8276ZM33.1034 24.8276H35.8621V27.5862H33.1034V24.8276ZM38.6207 24.8276H41.3793V27.5862H38.6207V24.8276ZM44.1379 24.8276H46.8966V27.5862H44.1379V24.8276ZM49.6552 24.8276H68.9655V27.5862H49.6552V24.8276ZM77.2414 24.8276H80V27.5862H77.2414V24.8276ZM11.0345 27.5862H19.3103V30.3448H11.0345V27.5862ZM27.5862 27.5862H30.3448V30.3448H27.5862V27.5862ZM41.3793 27.5862H52.4138V30.3448H41.3793V27.5862ZM60.6897 27.5862H63.4483V30.3448H60.6897V27.5862ZM0 30.3448H11.0345V33.1034H0V30.3448ZM33.1034 30.3448H35.8621V33.1034H33.1034V30.3448ZM41.3793 30.3448H46.8966V33.1034H41.3793V30.3448ZM49.6552 30.3448H57.931V33.1034H49.6552V30.3448ZM63.4483 30.3448H66.2069V33.1034H63.4483V30.3448ZM68.9655 30.3448H71.7241V33.1034H68.9655V30.3448ZM74.4828 30.3448H77.2414V33.1034H74.4828V30.3448ZM0 33.1034H2.75862V35.8621H0V33.1034ZM5.51724 33.1034H11.0345V35.8621H5.51724V33.1034ZM13.7931 33.1034H19.3103V35.8621H13.7931V33.1034ZM22.069 33.1034H33.1034V35.8621H22.069V33.1034ZM35.8621 33.1034H44.1379V35.8621H35.8621V33.1034ZM46.8966 33.1034H49.6552V35.8621H46.8966V33.1034ZM52.4138 33.1034H55.1724V35.8621H52.4138V33.1034ZM68.9655 33.1034H74.4828V35.8621H68.9655V33.1034ZM2.75862 35.8621H8.27586V38.6207H2.75862V35.8621ZM11.0345 35.8621H16.5517V38.6207H11.0345V35.8621ZM19.3103 35.8621H22.069V38.6207H19.3103V35.8621ZM24.8276 35.8621H27.5862V38.6207H24.8276V35.8621ZM30.3448 35.8621H33.1034V38.6207H30.3448V35.8621ZM38.6207 35.8621H41.3793V38.6207H38.6207V35.8621ZM44.1379 35.8621H55.1724V38.6207H44.1379V35.8621ZM57.931 35.8621H63.4483V38.6207H57.931V35.8621ZM66.2069 35.8621H68.9655V38.6207H66.2069V35.8621ZM77.2414 35.8621H80V38.6207H77.2414V35.8621ZM2.75862 38.6207H8.27586V41.3793H2.75862V38.6207ZM11.0345 38.6207H13.7931V41.3793H11.0345V38.6207ZM16.5517 38.6207H22.069V41.3793H16.5517V38.6207ZM33.1034 38.6207H35.8621V41.3793H33.1034V38.6207ZM38.6207 38.6207H44.1379V41.3793H38.6207V38.6207ZM46.8966 38.6207H49.6552V41.3793H46.8966V38.6207ZM55.1724 38.6207H60.6897V41.3793H55.1724V38.6207ZM63.4483 38.6207H66.2069V41.3793H63.4483V38.6207ZM68.9655 38.6207H74.4828V41.3793H68.9655V38.6207ZM0 41.3793H2.75862V44.1379H0V41.3793ZM8.27586 41.3793H13.7931V44.1379H8.27586V41.3793ZM22.069 41.3793H24.8276V44.1379H22.069V41.3793ZM27.5862 41.3793H30.3448V44.1379H27.5862V41.3793ZM41.3793 41.3793H44.1379V44.1379H41.3793V41.3793ZM52.4138 41.3793H57.931V44.1379H52.4138V41.3793ZM63.4483 41.3793H68.9655V44.1379H63.4483V41.3793ZM74.4828 41.3793H77.2414V44.1379H74.4828V41.3793ZM2.75862 44.1379H5.51724V46.8966H2.75862V44.1379ZM13.7931 44.1379H19.3103V46.8966H13.7931V44.1379ZM22.069 44.1379H24.8276V46.8966H22.069V44.1379ZM27.5862 44.1379H38.6207V46.8966H27.5862V44.1379ZM41.3793 44.1379H49.6552V46.8966H41.3793V44.1379ZM63.4483 44.1379H66.2069V46.8966H63.4483V44.1379ZM68.9655 44.1379H74.4828V46.8966H68.9655V44.1379ZM0 46.8966H2.75862V49.6552H0V46.8966ZM5.51724 46.8966H11.0345V49.6552H5.51724V46.8966ZM13.7931 46.8966H16.5517V49.6552H13.7931V46.8966ZM19.3103 46.8966H24.8276V49.6552H19.3103V46.8966ZM30.3448 46.8966H33.1034V49.6552H30.3448V46.8966ZM35.8621 46.8966H38.6207V49.6552H35.8621V46.8966ZM44.1379 46.8966H68.9655V49.6552H44.1379V46.8966ZM71.7241 46.8966H74.4828V49.6552H71.7241V46.8966ZM77.2414 46.8966H80V49.6552H77.2414V46.8966ZM0 49.6552H2.75862V52.4138H0V49.6552ZM5.51724 49.6552H13.7931V52.4138H5.51724V49.6552ZM16.5517 49.6552H19.3103V52.4138H16.5517V49.6552ZM22.069 49.6552H30.3448V52.4138H22.069V49.6552ZM38.6207 49.6552H49.6552V52.4138H38.6207V49.6552ZM60.6897 49.6552H66.2069V52.4138H60.6897V49.6552ZM71.7241 49.6552H74.4828V52.4138H71.7241V49.6552ZM0 52.4138H2.75862V55.1724H0V52.4138ZM5.51724 52.4138H8.27586V55.1724H5.51724V52.4138ZM11.0345 52.4138H16.5517V55.1724H11.0345V52.4138ZM19.3103 52.4138H27.5862V55.1724H19.3103V52.4138ZM30.3448 52.4138H35.8621V55.1724H30.3448V52.4138ZM38.6207 52.4138H44.1379V55.1724H38.6207V52.4138ZM52.4138 52.4138H68.9655V55.1724H52.4138V52.4138ZM74.4828 52.4138H77.2414V55.1724H74.4828V52.4138ZM0 55.1724H2.75862V57.931H0V55.1724ZM5.51724 55.1724H11.0345V57.931H5.51724V55.1724ZM13.7931 55.1724H19.3103V57.931H13.7931V55.1724ZM22.069 55.1724H24.8276V57.931H22.069V55.1724ZM30.3448 55.1724H41.3793V57.931H30.3448V55.1724ZM44.1379 55.1724H49.6552V57.931H44.1379V55.1724ZM52.4138 55.1724H68.9655V57.931H52.4138V55.1724ZM71.7241 55.1724H80V57.931H71.7241V55.1724ZM22.069 57.931H27.5862V60.6897H22.069V57.931ZM30.3448 57.931H33.1034V60.6897H30.3448V57.931ZM38.6207 57.931H41.3793V60.6897H38.6207V57.931ZM44.1379 57.931H52.4138V60.6897H44.1379V57.931ZM55.1724 57.931H57.931V60.6897H55.1724V57.931ZM66.2069 57.931H80V60.6897H66.2069V57.931ZM0 60.6897H19.3103V63.4483H0V60.6897ZM22.069 60.6897H24.8276V63.4483H22.069V60.6897ZM41.3793 60.6897H44.1379V63.4483H41.3793V60.6897ZM46.8966 60.6897H57.931V63.4483H46.8966V60.6897ZM60.6897 60.6897H63.4483V63.4483H60.6897V60.6897ZM66.2069 60.6897H74.4828V63.4483H66.2069V60.6897ZM0 63.4483H2.75862V66.2069H0V63.4483ZM16.5517 63.4483H19.3103V66.2069H16.5517V63.4483ZM30.3448 63.4483H35.8621V66.2069H30.3448V63.4483ZM38.6207 63.4483H46.8966V66.2069H38.6207V63.4483ZM52.4138 63.4483H57.931V66.2069H52.4138V63.4483ZM66.2069 63.4483H68.9655V66.2069H66.2069V63.4483ZM74.4828 63.4483H77.2414V66.2069H74.4828V63.4483ZM0 66.2069H2.75862V68.9655H0V66.2069ZM5.51724 66.2069H13.7931V68.9655H5.51724V66.2069ZM16.5517 66.2069H19.3103V68.9655H16.5517V66.2069ZM22.069 66.2069H30.3448V68.9655H22.069V66.2069ZM33.1034 66.2069H49.6552V68.9655H33.1034V66.2069ZM55.1724 66.2069H68.9655V68.9655H55.1724V66.2069ZM71.7241 66.2069H77.2414V68.9655H71.7241V66.2069ZM0 68.9655H2.75862V71.7241H0V68.9655ZM5.51724 68.9655H13.7931V71.7241H5.51724V68.9655ZM16.5517 68.9655H19.3103V71.7241H16.5517V68.9655ZM22.069 68.9655H24.8276V71.7241H22.069V68.9655ZM27.5862 68.9655H33.1034V71.7241H27.5862V68.9655ZM38.6207 68.9655H41.3793V71.7241H38.6207V68.9655ZM44.1379 68.9655H46.8966V71.7241H44.1379V68.9655ZM52.4138 68.9655H55.1724V71.7241H52.4138V68.9655ZM63.4483 68.9655H66.2069V71.7241H63.4483V68.9655ZM68.9655 68.9655H74.4828V71.7241H68.9655V68.9655ZM77.2414 68.9655H80V71.7241H77.2414V68.9655ZM0 71.7241H2.75862V74.4828H0V71.7241ZM5.51724 71.7241H13.7931V74.4828H5.51724V71.7241ZM16.5517 71.7241H19.3103V74.4828H16.5517V71.7241ZM22.069 71.7241H27.5862V74.4828H22.069V71.7241ZM38.6207 71.7241H52.4138V74.4828H38.6207V71.7241ZM55.1724 71.7241H77.2414V74.4828H55.1724V71.7241ZM0 74.4828H2.75862V77.2414H0V74.4828ZM16.5517 74.4828H19.3103V77.2414H16.5517V74.4828ZM22.069 74.4828H30.3448V77.2414H22.069V74.4828ZM33.1034 74.4828H35.8621V77.2414H33.1034V74.4828ZM38.6207 74.4828H41.3793V77.2414H38.6207V74.4828ZM44.1379 74.4828H46.8966V77.2414H44.1379V74.4828ZM55.1724 74.4828H57.931V77.2414H55.1724V74.4828ZM60.6897 74.4828H66.2069V77.2414H60.6897V74.4828ZM68.9655 74.4828H71.7241V77.2414H68.9655V74.4828ZM74.4828 74.4828H77.2414V77.2414H74.4828V74.4828ZM0 77.2414H19.3103V80H0V77.2414ZM22.069 77.2414H24.8276V80H22.069V77.2414ZM30.3448 77.2414H41.3793V80H30.3448V77.2414ZM46.8966 77.2414H55.1724V80H46.8966V77.2414ZM57.931 77.2414H74.4828V80H57.931V77.2414Z" fill="black"/>
</g>
<defs>
<clipPath id="clip0_620_800">
<rect width="80" height="80" fill="white"/>
</clipPath>
</defs>
</svg>
