<svg width="50" height="53" viewBox="0 0 50 53" fill="none" xmlns="http://www.w3.org/2000/svg">
<path fill-rule="evenodd" clip-rule="evenodd" d="M13.8134 52.8708V38.4278H17.5676V48.4117C28.6467 51.126 39.6345 45.7948 44.1208 35.8107C45.4028 32.9998 45.9521 29.9949 46.0439 26.8931C46.1047 21.9857 46.0845 17.1214 46.0641 12.2426C46.0539 9.79771 46.0439 7.34889 46.0439 4.88969C46.0439 4.6958 46.0439 4.50191 45.9521 4.11412H35.4224V0.0430634H49.981V1.88481C49.981 4.24353 49.9708 6.60203 49.9606 8.96075C49.9404 13.6782 49.92 18.3954 49.981 23.1128C50.0726 27.6684 49.8895 32.2242 48.1497 36.4894C43.8463 46.5702 36.5213 52.1922 25.9915 52.8708C23.3828 53.0633 20.7341 53.0008 18.0184 52.9366C16.6354 52.9039 15.2347 52.8708 13.8134 52.8708ZM3.83301 52.8708H0.1704C0.1704 52.5667 0.1454 52.2626 0.121704 51.9724C0.0997476 51.7076 0.078878 51.4541 0.078878 51.2227C0.078878 49.1513 0.0890962 47.0907 0.0993135 45.0336C0.119748 40.9301 0.139965 36.8412 0.078878 32.7089C0.071704 32.381 0.0638784 32.0535 0.0562697 31.7267C-0.0345999 27.9001 -0.123731 24.1494 0.719965 20.3988C2.00518 14.6797 5.05083 9.57555 9.37757 5.89029C13.7041 2.20502 19.0656 0.147959 24.618 0.0430634C26.3204 -0.021199 28.023 -0.00022008 29.7524 0.0212007C30.6271 0.0322424 31.5089 0.0430634 32.4008 0.0430634V4.21107C31.726 4.21107 31.0613 4.22211 30.4 4.23293C29.0878 4.25435 27.7889 4.27555 26.4493 4.21107C14.0882 3.53267 3.00888 13.9043 3.92453 29.7041C4.24149 34.9385 4.16344 40.1726 4.08562 45.4071C4.05084 47.7333 4.01627 50.0596 4.01627 52.386C3.92453 52.483 3.83301 52.6769 3.83301 52.8708ZM43.205 7.41006V22.7253C43.205 25.2454 43.205 27.7656 42.8389 30.189C41.5569 38.525 34.2319 45.3101 26.1743 45.601C25.0178 45.6654 23.8208 45.6442 22.6102 45.6226C22 45.612 21.3858 45.601 20.7721 45.601V38.525H24.526C24.5719 39.0095 24.595 39.4943 24.6176 39.979C24.6406 40.4637 24.6637 40.9482 24.7093 41.4329C28.2802 41.6268 31.3019 40.4637 33.9571 38.2342C37.5282 35.2293 39.3595 31.255 39.3595 26.4086C39.4206 23.4289 39.4002 20.4489 39.3795 17.4979C39.3695 16.0334 39.3595 14.5759 39.3595 13.129C39.3595 12.6442 39.3595 12.0628 39.2678 11.4811H35.6054V7.41006H43.205ZM32.4006 11.3842H25.4417C18.9408 11.4811 14.4541 14.7768 11.7989 20.9805C11.5574 21.5555 11.4354 22.1306 11.3015 22.7613C11.2324 23.0872 11.16 23.4282 11.0663 23.7912H24.343V27.9595H6.85431C6.6817 25.4038 6.98931 22.837 7.75931 20.4081C8.52953 17.9789 9.74692 15.7355 11.3411 13.8076C16.9263 6.82839 24.5261 6.73144 32.4006 7.31311V11.3842ZM24.4345 31.1582H7.03757V52.7738H10.8832V35.2293H24.4345V31.1582Z" fill="#6573FF" fill-opacity="0.25"/>
</svg>
