<svg width="331" height="352" viewBox="0 0 331 352" fill="none" xmlns="http://www.w3.org/2000/svg">
<path fill-rule="evenodd" clip-rule="evenodd" d="M91.7213 351.142V255.219H116.649V321.527C190.214 339.554 263.173 304.147 292.962 237.837C301.475 219.168 305.122 199.211 305.731 178.611C306.135 146.018 306.001 113.712 305.866 81.309C305.798 65.0716 305.731 48.8077 305.731 32.4749C305.731 31.1872 305.731 29.8995 305.122 27.324H235.204V0.286006H331.874V12.518C331.874 28.1835 331.806 43.8474 331.738 59.5129C331.604 90.8438 331.469 122.173 331.874 153.504C332.482 183.76 331.266 214.017 319.714 242.345C291.139 309.296 242.501 346.635 172.583 351.142C155.262 352.421 137.674 352.006 119.642 351.579C110.459 351.362 101.159 351.142 91.7213 351.142ZM25.4512 351.142H1.13145C1.13145 349.122 0.965455 347.103 0.808116 345.175C0.662324 343.417 0.52375 341.733 0.52375 340.196C0.52375 326.439 0.591598 312.753 0.659442 299.091C0.795129 271.838 0.929367 244.681 0.52375 217.237C0.476115 215.059 0.424152 212.884 0.373631 210.713C-0.229743 185.299 -0.821573 160.389 4.78057 135.479C13.3144 97.4951 33.5375 63.5961 62.2671 39.1204C90.9952 14.6447 126.596 0.982672 163.464 0.286006C174.767 -0.140794 186.073 -0.00146166 197.556 0.140805C203.364 0.214138 209.219 0.286006 215.141 0.286006V27.9679C210.661 27.9679 206.247 28.0412 201.856 28.1131C193.143 28.2553 184.518 28.3961 175.623 27.9679C93.5458 23.4623 19.9789 92.3457 26.0589 197.28C28.1635 232.044 27.6453 266.807 27.1285 301.571C26.8975 317.021 26.668 332.471 26.668 347.922C26.0589 348.566 25.4512 349.854 25.4512 351.142ZM286.881 49.214V150.93C286.881 167.668 286.881 184.405 284.45 200.501C275.938 255.864 227.3 300.928 173.797 302.859C166.118 303.287 158.17 303.147 150.132 303.003C146.08 302.932 142.002 302.859 137.927 302.859V255.864H162.853C163.158 259.082 163.311 262.301 163.461 265.521C163.614 268.74 163.767 271.958 164.07 275.177C187.78 276.465 207.845 268.74 225.475 253.933C249.187 233.976 261.347 207.58 261.347 175.393C261.753 155.603 261.617 135.812 261.48 116.213C261.414 106.486 261.347 96.8058 261.347 87.1962C261.347 83.9769 261.347 80.1152 260.738 76.252H236.42V49.214H286.881ZM215.14 75.6081H168.933C125.767 76.252 95.9752 98.1405 78.3445 139.342C76.7408 143.161 75.931 146.98 75.0419 151.169C74.5828 153.334 74.1022 155.599 73.48 158.01H161.638V185.693H45.5126C44.3665 168.719 46.409 151.672 51.5218 135.54C56.6361 119.407 64.7196 104.507 75.3046 91.7033C112.39 45.3508 162.853 44.7069 215.14 48.5701V75.6081ZM162.245 206.938H46.7295V350.498H72.2646V233.976H162.245V206.938Z" fill="#141420" fill-opacity="0.1"/>
</svg>
