<svg width="71" height="71" viewBox="0 0 71 71" fill="none" xmlns="http://www.w3.org/2000/svg">
<g clip-path="url(#clip0_102_3126)">
<path d="M57.6875 71H13.3125C5.95964 71 0 65.0404 0 57.6875V13.3125C0 5.95964 5.95964 0 13.3125 0H57.6875C65.0404 0 71 5.95964 71 13.3125V57.6875C71 65.0404 65.0404 71 57.6875 71Z" fill="#0B0B11"/>
<path d="M51.0636 33.9269C49.9696 33.9269 48.9908 34.6754 48.7605 35.7118H31.9484V34.2724H35.2878C35.3454 34.2724 35.403 34.2724 35.4605 34.2148L41.1605 32.1421H45.6514C45.9393 33.1209 46.8605 33.8118 47.8969 33.8118C49.2211 33.8118 50.2575 32.7178 50.2575 31.4512C50.2575 30.1269 49.2211 29.0906 47.8969 29.0906C46.7454 29.0906 45.7666 29.9542 45.5363 31.0481H41.0454C40.9878 31.0481 40.9302 31.0481 40.8727 31.1057L35.1727 33.1784H31.9484V30.933H35.2878C35.3454 30.933 35.4605 30.933 35.5181 30.8754L44.3272 27.2481C44.4424 27.3633 44.5575 27.536 44.6727 27.6512C45.1333 27.9966 45.6514 28.2269 46.1696 28.2269H46.3999C47.0333 28.1694 47.609 27.8815 48.012 27.3633C48.4151 26.9027 48.5878 26.2694 48.5302 25.636C48.4151 24.3118 47.2636 23.3906 45.9393 23.4481C44.6151 23.5633 43.6363 24.7148 43.7514 26.0391C43.7514 26.0966 43.809 26.1542 43.809 26.2118L41.5636 27.133L39.203 24.7724C39.0878 24.6572 38.9727 24.5997 38.7999 24.5997C38.6272 24.5997 38.5121 24.6572 38.3969 24.7724L36.5545 26.6148C35.4605 25.9239 34.2514 25.4057 32.9848 25.1178V22.5269C32.9848 22.1815 32.7545 21.9512 32.409 21.9512H28.7242C28.3787 21.9512 28.1484 22.1815 28.1484 22.5269V25.0603C26.8817 25.3481 25.6727 25.8663 24.5787 26.5572L22.7363 24.7148C22.506 24.4845 22.1605 24.4845 21.9302 24.7148L19.3969 27.3633C19.1666 27.5936 19.1666 27.9391 19.3969 28.1694L21.1817 30.0118C20.4908 31.1057 19.9727 32.3148 19.6848 33.5815H17.1514C16.8636 33.5815 16.5757 33.8118 16.5757 34.1572V37.8421C16.5757 38.1875 16.8636 38.4178 17.1514 38.4178H19.7424C20.0302 39.6845 20.4908 40.8936 21.1817 41.9875L19.3969 43.83C19.1666 44.0603 19.1666 44.4057 19.3969 44.636L21.9878 47.2269C22.2181 47.4572 22.5636 47.4572 22.7939 47.2269L24.6363 45.3845C25.7302 46.0754 26.9393 46.5936 28.206 46.8815V49.4148C28.206 49.7603 28.4363 49.9906 28.7817 49.9906H32.4666C32.812 49.9906 33.0424 49.7603 33.0424 49.4148V46.9391C34.309 46.6512 35.5181 46.133 36.612 45.4421L38.4545 47.2845C38.5696 47.3997 38.7424 47.4572 38.8575 47.4572C39.0302 47.4572 39.1454 47.3997 39.2605 47.2845L41.2757 45.2694L44.212 46.4209H44.3272C44.212 47.5148 44.7878 48.4936 45.8242 48.8966C46.112 49.0118 46.3999 49.0694 46.6302 49.0694C47.609 49.0694 48.5302 48.4936 48.8757 47.5148C49.106 46.9391 49.0484 46.2481 48.8181 45.6724C48.5302 45.0966 48.0696 44.636 47.4939 44.4057C46.9181 44.1754 46.2272 44.233 45.6514 44.4633C45.2484 44.636 44.903 44.9815 44.6151 45.3269C44.6151 45.3269 44.6151 45.3269 44.5575 45.3269L41.3908 44.0603L35.5181 41.6997C35.4605 41.6997 35.403 41.6421 35.2878 41.6421H31.9484V39.5694H35.1727L40.8727 41.6421C40.9302 41.6421 40.9878 41.6997 41.0454 41.6997H45.5939C45.8242 42.736 46.803 43.4845 47.8969 43.4845C49.2211 43.4845 50.2575 42.3906 50.2575 41.1239C50.2575 39.8572 49.2211 38.7633 47.8969 38.7633C46.803 38.7633 45.8242 39.5118 45.5939 40.5481H41.1605L35.4605 38.4754C35.403 38.4754 35.3454 38.4178 35.2878 38.4178H31.9484V36.9209H48.7605C48.9908 37.9572 49.9696 38.7057 51.0636 38.7057C52.3878 38.7057 53.4242 37.6118 53.4242 36.3451C53.4242 35.0209 52.3302 33.9269 51.0636 33.9269ZM29.703 43.1966C26.3636 42.736 23.7727 40.03 23.4272 36.6906C23.2545 34.6178 23.8878 32.6603 25.2696 31.1057C26.6514 29.5512 28.6666 28.6875 30.7969 28.7451V43.1966C30.4514 43.2542 30.0484 43.1966 29.703 43.1966Z" fill="white"/>
</g>
<defs>
<clipPath id="clip0_102_3126">
<rect width="71" height="71" fill="white"/>
</clipPath>
</defs>
</svg>
