<svg width="65" height="66" viewBox="0 0 65 66" fill="none" xmlns="http://www.w3.org/2000/svg">
<rect y="0.5" width="65" height="65" rx="10" fill="#F4F4F4"/>
<g clip-path="url(#clip0_428_1349)">
<path d="M23.1949 37.6942L21.2742 36.5853L20.2419 38.3732L22.1609 39.481C22.0291 40.0343 22.0289 40.6006 22.1609 41.1547L20.2419 42.2625L21.2742 44.0503L23.1949 42.9414C23.6005 43.3249 24.0941 43.6157 24.6425 43.7795V45.995H26.7069V43.7795C27.2553 43.6157 27.749 43.3249 28.1545 42.9414L30.0752 44.0503L31.1074 42.2625L29.1886 41.1547C29.3204 40.6012 29.3205 40.035 29.1886 39.481L31.1074 38.3732L30.0752 36.5853L28.1545 37.6942C27.7489 37.3107 27.2553 37.02 26.7069 36.8561V34.6406H24.6425V36.8561C24.0941 37.02 23.6004 37.3108 23.1949 37.6942ZM27.223 40.3179C27.223 41.1716 26.5285 41.8662 25.6747 41.8662C24.821 41.8662 24.1263 41.1716 24.1263 40.3179C24.1263 39.4641 24.821 38.7695 25.6747 38.7695C26.5285 38.7695 27.223 39.4641 27.223 40.3179Z" fill="#6573FF"/>
<path d="M41.798 29.2989L43.7186 30.4078L44.7508 28.6199L42.8321 27.5121C42.9638 26.9587 42.964 26.3924 42.8321 25.8384L44.7508 24.7305L43.7186 22.9427L41.798 24.0516C41.3925 23.6681 40.8988 23.3773 40.3505 23.2135V20.998H38.286V23.2135C37.7376 23.3774 37.2439 23.6681 36.8384 24.0517L34.9177 22.9428L33.8855 24.7306L35.8044 25.8384C35.6726 26.3917 35.6724 26.9581 35.8044 27.5121L33.8855 28.6199L34.9177 30.4078L36.8384 29.2989C37.2439 29.6824 37.7376 29.9732 38.286 30.137V32.3525H40.3505V30.137C40.8987 29.9732 41.3925 29.6824 41.798 29.2989ZM37.7698 26.6753C37.7698 25.8215 38.4644 25.1269 39.3182 25.1269C40.1719 25.1269 40.8665 25.8215 40.8665 26.6753C40.8665 27.5291 40.1719 28.2236 39.3182 28.2236C38.4644 28.2236 37.7698 27.5291 37.7698 26.6753Z" fill="#6573FF"/>
<path d="M46.8695 19.123C42.7055 14.9591 35.9303 14.9589 31.7662 19.123C27.5926 23.2966 27.5922 30.0522 31.7662 34.2262C35.1252 37.5852 35.1252 43.0509 31.7662 46.4099C28.3994 49.7767 22.9498 49.7772 19.5825 46.4099C16.2235 43.0509 16.2235 37.5853 19.5825 34.2262C20.0582 33.7506 20.5766 33.3393 21.1336 32.9931L20.7245 34.4202L22.709 34.9891L23.9244 30.75L20.4788 27.9977L19.1903 29.6107L20.7386 30.8474C19.7785 31.3492 18.8923 31.9969 18.1228 32.7665C13.9588 36.9305 13.9588 43.7057 18.1228 47.8697C22.2961 52.0432 29.0519 52.0439 33.226 47.8697C37.39 43.7057 37.39 36.9305 33.226 32.7665C29.8592 29.3996 29.8587 23.95 33.226 20.5828C36.585 17.2238 42.0506 17.2238 45.4097 20.5828C48.7765 23.9496 48.7769 29.3992 45.4097 32.7665C44.934 33.2421 44.4154 33.6535 43.8585 33.9996L44.2676 32.5725L42.2831 32.0036L41.0678 36.2427L44.5132 38.995L45.8019 37.382L44.2535 36.1453C45.2136 35.6435 46.0998 34.9958 46.8695 34.2262C51.043 30.0528 51.0436 23.2971 46.8695 19.123Z" fill="#6573FF"/>
</g>
<defs>
<clipPath id="clip0_428_1349">
<rect width="35" height="35" fill="white" transform="translate(15 16)"/>
</clipPath>
</defs>
</svg>
