<svg width="44" height="46" viewBox="0 0 44 46" fill="none" xmlns="http://www.w3.org/2000/svg">
<path d="M21.5636 0H21.7176C24.1749 0.306003 26.4461 1.26146 28.7618 2.04433C33.2467 3.56054 37.7211 5.1074 42.2119 6.60663C42.6868 6.76516 43.2247 6.84867 43.4884 7.37098C43.5147 7.61957 43.5228 7.86975 43.5126 8.11952C43.3858 10.8229 43.1659 13.5162 42.8092 16.2015C42.3889 19.3661 42.0184 22.5376 41.613 25.7042C41.1979 28.9475 40.8263 32.1964 40.3701 35.4346C40.3059 35.8908 40.0289 36.1552 39.6594 36.372C37.9795 37.3578 36.2605 38.2738 34.5578 39.2187C30.9503 41.2206 27.3304 43.2002 23.7224 45.2011C23.0514 45.5732 22.419 46.1499 21.5367 45.964C21.468 45.8999 21.4186 45.8179 21.3941 45.7273C21.3787 45.6317 21.381 45.534 21.401 45.4392C21.4787 44.9089 21.5072 44.3725 21.4862 43.8369C21.487 39.0947 21.4881 34.3524 21.4895 29.6102C21.4898 29.2571 21.4306 28.8944 21.5901 28.5551C21.7669 28.3161 22.0311 28.3284 22.2834 28.3298C24.1398 28.3398 25.9966 28.288 27.8515 28.355C28.2481 28.4441 28.4128 28.7475 28.5651 29.0869C29.2234 30.5549 29.8713 32.0278 30.4681 33.5211C30.7897 34.3257 31.2422 34.775 32.1876 34.6725C32.8768 34.5973 33.5729 34.6126 34.2582 34.7181C34.7723 34.7982 34.8498 34.6057 34.6804 34.164C34.2589 33.0648 33.7106 32.0225 33.2039 30.9649C31.3829 27.1645 29.6282 23.3333 27.8114 19.531C25.7968 15.3144 23.8594 11.0612 21.8263 6.85308C21.6028 6.39046 21.5915 5.85521 21.2964 5.41991C21.1167 3.86464 21.2146 2.30668 21.2289 0.750075C21.2295 0.608659 21.2596 0.468926 21.3172 0.339783C21.3749 0.21064 21.4588 0.0949202 21.5636 0Z" fill="white"/>
<path d="M21.5639 0C21.5614 1.5458 21.5585 3.0916 21.5552 4.6374C21.5398 4.94182 21.5839 5.24633 21.6849 5.53391C21.1779 7.39165 20.2333 9.06794 19.46 10.8135C17.5551 15.1133 15.6174 19.3988 13.6815 23.6849C12.2084 26.9462 10.7592 30.2182 9.26314 33.4692C9.22036 33.5622 9.1706 33.6519 9.12876 33.7453C8.76818 34.5501 8.83154 34.6499 9.72999 34.6543C10.5253 34.6582 11.3209 34.6435 12.1158 34.6567C12.6848 34.6662 13.0056 34.4182 13.2114 33.8931C13.8177 32.3462 14.4364 30.8041 15.0675 29.2667C15.2207 28.892 15.3323 28.4836 15.7454 28.2815C15.8288 28.2549 15.9173 28.2485 16.0036 28.2629C17.4535 28.3984 18.9059 28.2883 20.356 28.328C20.6811 28.3369 21.0224 28.2591 21.3204 28.4671C21.5485 28.7281 21.4832 29.0478 21.4835 29.3474C21.4884 34.4585 21.4893 39.5695 21.4864 44.6805C21.4863 44.8338 21.4891 44.9874 21.4765 45.1403C21.4362 45.6289 21.8274 46.1413 21.3768 45.9396C20.4629 45.5303 18.979 44.6419 18.0881 44.1924C17.1809 43.7347 16.3409 43.4103 15.321 42.915C13.2024 41.8862 11.1863 40.6666 9.11642 39.5456C7.42889 38.6317 5.76801 37.6675 4.07514 36.7632C3.72966 36.6031 3.43404 36.3523 3.21969 36.0376C3.00535 35.7228 2.88029 35.3559 2.85782 34.9757C2.22009 29.3998 1.59486 23.8222 0.911484 18.2514C0.52346 15.0882 0.234701 11.9148 0.077789 8.73081C0.0848782 8.62915 0.0574714 8.52807 0 8.44391V7.52276C0.207598 7.26378 0.481366 7.06575 0.792317 6.94965C6.63265 4.89419 12.4654 2.81741 18.2904 0.719299C19.2582 0.371149 20.2625 0.218658 21.2559 0H21.5639Z" fill="white"/>
<path d="M15.8683 28.3989C15.0639 30.3596 14.243 32.3137 13.4668 34.2854C13.2714 34.7817 13.0399 34.9988 12.4729 34.9802C11.3202 34.9425 10.1644 34.9932 9.00994 35.0105C8.17 35.0231 8.16874 35.0247 8.50337 34.2815C10.2882 30.3179 12.0733 26.3544 13.8589 22.3911C16.3053 16.9586 18.7541 11.5272 21.2055 6.09687C21.303 5.88135 21.2597 5.49222 21.6855 5.53442C23.0092 8.38197 24.3236 11.2343 25.6588 14.0769C28.8411 20.8518 32.0324 27.6224 35.2326 34.3889C35.5356 35.0281 35.3996 35.159 34.7434 35.1233C33.5924 35.0607 32.4382 35.0273 31.2858 35.0371C30.8412 35.0409 30.6668 34.8594 30.5067 34.4883C29.648 32.4974 28.7643 30.5172 27.8892 28.5333C27.8032 28.4898 27.7138 28.4536 27.6219 28.425C23.7041 28.3733 19.7861 28.4248 15.8683 28.3989Z" fill="#141420"/>
<path d="M15.8682 28.3997C15.9966 28.1552 16.2285 28.2575 16.4131 28.2571C20.0383 28.2489 23.6636 28.247 27.2889 28.2513C27.4776 28.2515 27.7063 28.1608 27.8382 28.3973C26.7453 28.5875 25.644 28.4404 24.5471 28.4752C23.7778 28.4997 23.0069 28.4702 22.2371 28.4865C22.0335 28.4908 21.757 28.356 21.6481 28.6796C21.6318 34.0419 21.647 39.404 21.6378 44.766C21.6373 45.042 21.7052 45.3282 21.5678 45.5943L21.5574 45.7527C21.1047 45.6032 21.3475 45.2274 21.3467 44.978C21.3287 39.7024 21.3331 34.4267 21.333 29.1511C21.333 28.9982 21.3348 28.8452 21.3274 28.6928C21.1783 28.3033 20.842 28.4969 20.5983 28.4894C19.0375 28.4418 17.4747 28.5389 15.9141 28.435L15.8682 28.3997Z" fill="white"/>
<path d="M21.4088 28.558C21.4091 33.942 21.4104 39.326 21.4128 44.71C21.4131 45.0612 21.3368 45.429 21.5571 45.7524C21.5597 45.802 21.561 45.8516 21.5608 45.9012C21.0985 45.8898 20.7683 45.5767 20.3979 45.372C18.7224 44.4457 17.0598 43.4962 15.3926 42.5551C15.8005 42.4029 16.0701 42.7145 16.3671 42.8735C17.7651 43.622 19.1615 44.3755 20.5317 45.173C21.148 45.5316 21.269 45.4003 21.2666 44.7281C21.2472 39.3378 21.2557 33.9475 21.2557 28.5571C21.3071 28.4953 21.3581 28.4924 21.4088 28.558Z" fill="white"/>
<path d="M21.5483 15.1349C21.6343 15.0836 21.6819 15.1306 21.7161 15.2028C23.0486 18.0168 24.3808 20.8309 25.7129 23.645C25.669 23.888 25.5708 24.0932 25.2843 24.0873C24.0234 24.0611 22.7574 24.2275 21.5019 23.9903C21.2803 23.7296 21.3371 23.4127 21.3363 23.1136C21.3303 20.9284 21.3367 18.7431 21.3305 16.5579C21.3348 16.0756 21.4081 15.5964 21.5483 15.1349Z" fill="white"/>
<path d="M17.8103 23.9314L21.1197 15.9688C21.3131 15.9671 21.3626 16.1021 21.3935 16.255C21.4306 18.6421 21.4015 21.0293 21.4073 23.4163C21.4409 23.619 21.3958 23.8269 21.2813 23.9975C20.1211 24.1319 18.9615 24.2485 17.8103 23.9314Z" fill="white"/>
<path d="M17.8104 23.9312C18.9589 23.9373 20.1075 23.9434 21.256 23.9495C21.4271 23.3251 21.3201 22.6885 21.3267 22.0586C21.3448 20.3294 21.336 18.5999 21.3295 16.8705C21.3286 16.6215 21.3957 16.3611 21.2567 16.1237L21.1198 15.9686C21.1965 15.6614 21.3432 15.376 21.5484 15.1348C21.5521 18.0732 21.5559 21.0115 21.56 23.9498C21.5824 23.9664 21.6005 23.9883 21.6127 24.0134C21.6249 24.0385 21.631 24.0662 21.6303 24.0942C21.6296 24.1221 21.6222 24.1495 21.6087 24.174C21.5952 24.1984 21.576 24.2193 21.5528 24.2349C20.4064 24.2459 19.2599 24.262 18.1135 24.263C17.9268 24.2632 17.552 24.3648 17.8104 23.9312Z" fill="white"/>
<path d="M21.5527 24.2343C21.5552 24.1393 21.5576 24.0443 21.5599 23.9492C22.6465 23.9492 23.733 23.9444 24.8195 23.9519C25.1592 23.9542 25.4774 23.9278 25.7128 23.6445C25.9968 24.0091 26.1787 24.2961 25.4481 24.2748C24.1503 24.2371 22.8513 24.2453 21.5527 24.2343Z" fill="white"/>
</svg>
