<svg width="42" height="42" viewBox="0 0 42 42" fill="none" xmlns="http://www.w3.org/2000/svg">
<g clip-path="url(#clip0_601_1250)">
<path d="M21 41.9981C14.0314 41.9981 7.06279 41.9987 0.094179 42C0.0172985 42 -1.13579e-05 41.9827 5.58973e-09 41.9058C0.00197617 27.9686 0.00197617 14.0314 5.58973e-09 0.094179C-1.13579e-05 0.0173017 0.0173017 -1.13579e-05 0.094179 5.58868e-09C14.0314 0.00197617 27.9686 0.00197617 41.9058 5.58868e-09C41.9827 -1.13579e-05 42 0.0173017 42 0.094179C41.998 14.0314 41.998 27.9686 42 41.9058C42 41.9827 41.9827 42 41.9058 42C34.9372 41.9979 27.9686 41.9973 21 41.9981Z" fill="#622D7D"/>
<path d="M11.9856 18.0133C11.9967 18.1634 12.0106 18.3091 12.0175 18.455C12.0403 18.9331 12.0387 19.4116 12.0386 19.8901C12.0382 22.1081 12.039 24.3261 12.0409 26.5442C12.041 26.6439 12.0161 26.6674 11.9179 26.6663C11.4224 26.6609 10.9268 26.6618 10.4313 26.6658C10.349 26.6665 10.3305 26.642 10.3305 26.5631C10.3324 22.9916 10.3323 19.4202 10.3303 15.8488C10.3302 15.7656 10.3554 15.7488 10.4332 15.7492C11.0552 15.7523 11.6772 15.7525 12.2992 15.7497C12.3256 15.7467 12.3523 15.7517 12.3758 15.764C12.3993 15.7763 12.4186 15.7953 12.4313 15.8186C14.1227 18.5179 15.8152 21.2166 17.5086 23.9147C17.5734 24.0273 17.6455 24.1356 17.7243 24.2389C17.7152 24.1463 17.7053 24.0538 17.6974 23.9611C17.6629 23.559 17.6575 23.1558 17.6575 22.7525C17.6576 20.4593 17.6569 18.1661 17.6554 15.8729C17.6553 15.7785 17.6711 15.7467 17.7746 15.7481C18.2666 15.7545 18.7587 15.7545 19.2509 15.7483C19.3458 15.7472 19.3604 15.7765 19.3603 15.8625C19.3582 19.4236 19.3582 22.9848 19.3603 26.5459C19.3603 26.6343 19.3451 26.6674 19.246 26.6665C18.6719 26.6611 18.0977 26.6626 17.5236 26.6655C17.4922 26.6679 17.4609 26.6609 17.4335 26.6454C17.4061 26.63 17.384 26.6067 17.3699 26.5786C15.7102 23.9559 14.0492 21.3342 12.3868 18.7133C12.2562 18.5132 12.1439 18.3016 12.0515 18.0812C12.0411 18.0556 12.0405 18.0175 11.9856 18.0133Z" fill="white"/>
<path d="M21.6967 21.2054C21.6967 19.425 21.696 17.6446 21.6945 15.8642C21.6943 15.7694 21.7199 15.7483 21.8118 15.7485C23.6469 15.7512 25.4819 15.7511 27.317 15.748C27.4174 15.7479 27.4402 15.7737 27.4389 15.8715C27.4332 16.3089 27.434 16.7464 27.4385 17.1837C27.4394 17.2694 27.4157 17.2904 27.3312 17.2903C26.0805 17.2875 24.8297 17.2892 23.579 17.2865C23.4898 17.2863 23.4592 17.3032 23.4596 17.4011C23.4638 18.3545 23.4638 19.3079 23.4595 20.2613C23.459 20.3646 23.4903 20.3824 23.5854 20.3822C24.7268 20.3788 25.8682 20.3813 27.0095 20.3777C27.1062 20.3774 27.1275 20.4062 27.1265 20.4978C27.1219 20.9284 27.1219 21.3589 27.1266 21.7895C27.1277 21.8824 27.1043 21.909 27.009 21.9087C25.8676 21.9053 24.7262 21.9077 23.5849 21.9043C23.4889 21.904 23.4591 21.9233 23.4596 22.0257C23.4639 23.0201 23.464 24.0145 23.4599 25.0089C23.4595 25.1083 23.478 25.1403 23.5862 25.1399C24.9087 25.1356 26.2312 25.138 27.5537 25.1352C27.6442 25.135 27.6747 25.1542 27.6734 25.2512C27.6678 25.692 27.6694 26.1329 27.6725 26.5737C27.673 26.6453 27.653 26.6652 27.5811 26.6651C25.6504 26.6633 23.7196 26.6636 21.7888 26.666C21.6953 26.6662 21.6958 26.6252 21.6958 26.5569C21.697 24.7731 21.6973 22.9892 21.6967 21.2054Z" fill="white"/>
<path d="M31.3381 21.9692C31.3381 20.4452 31.3389 18.9211 31.3403 17.3971C31.3405 17.3067 31.3186 17.2851 31.2284 17.2855C30.2853 17.2891 29.3422 17.2864 28.399 17.2899C28.3095 17.2902 28.2846 17.2694 28.2856 17.1781C28.2907 16.7339 28.2896 16.2896 28.2863 15.8454C28.2857 15.7704 28.3037 15.748 28.3823 15.748C30.9451 15.7503 33.508 15.7503 36.0708 15.7482C36.1472 15.7481 36.1689 15.7669 36.1682 15.8442C36.1646 16.2918 36.1646 16.7394 36.1682 17.1871C36.1688 17.2664 36.1488 17.2899 36.0667 17.2896C35.1202 17.2866 34.1737 17.2893 33.2271 17.2854C33.1297 17.285 33.103 17.3067 33.1031 17.4073C33.106 20.4451 33.1067 23.4829 33.1051 26.5208C33.1051 26.686 33.1255 26.6622 32.9653 26.6626C32.4596 26.6637 31.9538 26.6605 31.4481 26.6653C31.3565 26.6662 31.3359 26.6409 31.3361 26.5516C31.339 25.0241 31.3397 23.4967 31.3381 21.9692Z" fill="white"/>
<path d="M7.50356 26.8297C6.69079 26.8293 6.17647 26.0398 6.52567 25.3545C6.63539 25.1459 6.80998 24.9785 7.0231 24.8778C7.23622 24.777 7.47632 24.7482 7.70722 24.7958C7.9278 24.8387 8.12935 24.9498 8.28345 25.1133C8.43755 25.2769 8.53642 25.4847 8.56613 25.7074C8.5872 25.9789 8.50092 26.2478 8.32584 26.4563C8.15076 26.6648 7.90086 26.7964 7.62984 26.8226C7.58226 26.8267 7.53446 26.828 7.50356 26.8297Z" fill="white"/>
</g>
<defs>
<clipPath id="clip0_601_1250">
<rect width="42" height="42" fill="white"/>
</clipPath>
</defs>
</svg>
