<svg width="65" height="65" viewBox="0 0 65 65" fill="none" xmlns="http://www.w3.org/2000/svg">
<rect width="65" height="65" rx="10" fill="#F4F4F4"/>
<g clip-path="url(#clip0_102_2799)">
<path d="M33.5344 42.592V42.5915C31.1414 41.9116 28.7405 43.721 28.7405 46.2182C28.7405 48.2965 30.4313 49.9874 32.5096 49.9874C34.5879 49.9874 36.2787 48.2965 36.2787 46.2182C36.2787 44.4952 35.1161 43.0396 33.5344 42.592Z" fill="#6573FF"/>
<path d="M46.231 42.4494C44.5081 42.4494 43.0525 43.6119 42.6048 45.1934H40.6694V40.2264C40.6694 39.0308 39.6972 38.0586 38.5016 38.0586H35.5842V40.1082H38.5016C38.5672 40.1082 38.6198 40.1615 38.6198 40.2264V45.3424C38.6198 46.3904 39.4724 47.2431 40.5205 47.2431H42.6046C43.0522 48.8248 44.5079 49.9876 46.231 49.9876C48.3093 49.9876 50 48.2967 50 46.2185C50 44.1402 48.3093 42.4494 46.231 42.4494Z" fill="#6573FF"/>
<path d="M22.1697 35.2342C22.1933 35.2342 21.9415 35.2348 31.4848 35.2145V40.4906C32.1408 40.3734 32.8439 40.3672 33.5345 40.4906C33.5345 40.2274 33.5345 36.0491 33.5345 35.2101L42.8926 35.1902C46.7404 35.1822 50 32.112 50 28.1068C50 23.3652 45.8492 19.7703 41.3457 20.6183C40.3314 19.1537 38.6657 18.2769 36.8369 18.3007C33.6082 13.1625 25.7738 14.2607 24.0821 20.0899C17.8295 18.8385 13.069 25.6075 15.7762 31.2537C16.9384 33.6731 19.4467 35.2344 22.1697 35.2342Z" fill="#6573FF"/>
<path d="M29.4352 38.0586H26.5178C25.3222 38.0586 24.35 39.0308 24.35 40.2264V45.1934H22.4146C21.9669 43.6119 20.5113 42.4494 18.7884 42.4494C16.7101 42.4494 15.0193 44.1402 15.0193 46.2185C15.0193 48.2967 16.7101 49.9876 18.7884 49.9876C20.5115 49.9876 21.9672 48.8248 22.4148 47.2431H24.4989C25.547 47.2431 26.3996 46.3904 26.3996 45.3424V40.2264C26.3996 40.1615 26.4522 40.1082 26.5178 40.1082H29.4352V38.0586Z" fill="#6573FF"/>
</g>
<defs>
<clipPath id="clip0_102_2799">
<rect width="35" height="35" fill="white" transform="translate(15 15)"/>
</clipPath>
</defs>
</svg>
