<svg width="42" height="42" viewBox="0 0 42 42" fill="none" xmlns="http://www.w3.org/2000/svg">
<g clip-path="url(#clip0_428_1180)">
<path d="M21 41.9981C14.0314 41.9981 7.06279 41.9987 0.094179 42C0.0172985 42 -1.13579e-05 41.9827 5.58973e-09 41.9058C0.00197617 27.9686 0.00197617 14.0314 5.58973e-09 0.094179C-1.13579e-05 0.0173017 0.0173017 -1.13579e-05 0.094179 5.58868e-09C14.0314 0.00197617 27.9686 0.00197617 41.9058 5.58868e-09C41.9827 -1.13579e-05 42 0.0173017 42 0.094179C41.998 14.0314 41.998 27.9686 42 41.9058C42 41.9827 41.9827 42 41.9058 42C34.9372 41.9979 27.9686 41.9973 21 41.9981Z" fill="white"/>
<path d="M11.9855 18.0133C11.9965 18.1634 12.0104 18.3091 12.0174 18.455C12.0401 18.9331 12.0385 19.4116 12.0384 19.8901C12.0381 22.1081 12.0388 24.3261 12.0407 26.5442C12.0408 26.6439 12.0159 26.6674 11.9177 26.6663C11.4222 26.6609 10.9266 26.6618 10.4311 26.6658C10.3488 26.6665 10.3303 26.642 10.3304 26.5631C10.3323 22.9916 10.3322 19.4202 10.3301 15.8488C10.33 15.7656 10.3552 15.7488 10.433 15.7492C11.055 15.7523 11.677 15.7525 12.2991 15.7497C12.3254 15.7467 12.3521 15.7517 12.3756 15.764C12.3991 15.7763 12.4184 15.7953 12.4311 15.8186C14.1225 18.5179 15.815 21.2166 17.5084 23.9147C17.5733 24.0273 17.6453 24.1356 17.7241 24.2389C17.7151 24.1463 17.7051 24.0538 17.6972 23.9611C17.6627 23.559 17.6573 23.1558 17.6574 22.7525C17.6574 20.4593 17.6567 18.1661 17.6552 15.8729C17.6551 15.7785 17.6709 15.7467 17.7744 15.7481C18.2664 15.7545 18.7585 15.7545 19.2507 15.7483C19.3456 15.7472 19.3602 15.7765 19.3602 15.8625C19.358 19.4236 19.358 22.9848 19.3601 26.5459C19.3601 26.6343 19.3449 26.6674 19.2458 26.6665C18.6717 26.6611 18.0975 26.6626 17.5234 26.6655C17.492 26.6679 17.4607 26.6609 17.4333 26.6454C17.4059 26.63 17.3838 26.6067 17.3697 26.5786C15.7101 23.9559 14.049 21.3342 12.3866 18.7133C12.256 18.5132 12.1438 18.3016 12.0513 18.0812C12.0409 18.0556 12.0403 18.0175 11.9855 18.0133Z" fill="#141420"/>
<path d="M21.6966 21.2054C21.6966 19.425 21.6959 17.6446 21.6943 15.8642C21.6942 15.7694 21.7198 15.7483 21.8117 15.7485C23.6467 15.7512 25.4818 15.7511 27.3169 15.748C27.4173 15.7479 27.44 15.7737 27.4388 15.8715C27.433 16.3089 27.4338 16.7464 27.4384 17.1837C27.4392 17.2694 27.4156 17.2904 27.3311 17.2903C26.0803 17.2875 24.8296 17.2892 23.5789 17.2865C23.4897 17.2863 23.4591 17.3032 23.4595 17.4011C23.4637 18.3545 23.4637 19.3079 23.4594 20.2613C23.4589 20.3646 23.4902 20.3824 23.5853 20.3822C24.7267 20.3788 25.8681 20.3813 27.0094 20.3777C27.1061 20.3774 27.1274 20.4062 27.1264 20.4978C27.1217 20.9284 27.1218 21.3589 27.1265 21.7895C27.1276 21.8824 27.1042 21.909 27.0089 21.9087C25.8675 21.9053 24.7261 21.9077 23.5847 21.9043C23.4888 21.904 23.459 21.9233 23.4594 22.0257C23.4638 23.0201 23.4639 24.0145 23.4598 25.0089C23.4594 25.1083 23.4779 25.1403 23.5861 25.1399C24.9085 25.1356 26.231 25.138 27.5535 25.1352C27.6441 25.135 27.6746 25.1542 27.6733 25.2512C27.6677 25.692 27.6693 26.1329 27.6724 26.5737C27.6729 26.6453 27.6529 26.6652 27.581 26.6651C25.6502 26.6633 23.7195 26.6636 21.7887 26.666C21.6952 26.6662 21.6956 26.6252 21.6957 26.5569C21.6969 24.7731 21.6972 22.9892 21.6966 21.2054Z" fill="#141420"/>
<path d="M31.3377 21.9692C31.3377 20.4452 31.3385 18.9211 31.3399 17.3971C31.3401 17.3067 31.3182 17.2851 31.228 17.2855C30.2849 17.2891 29.3417 17.2864 28.3986 17.2899C28.3091 17.2902 28.2841 17.2694 28.2852 17.1781C28.2903 16.7339 28.2892 16.2896 28.2858 15.8454C28.2853 15.7704 28.3032 15.748 28.3818 15.748C30.9447 15.7503 33.5075 15.7503 36.0704 15.7482C36.1468 15.7481 36.1684 15.7669 36.1678 15.8442C36.1642 16.2918 36.1641 16.7394 36.1678 17.1871C36.1684 17.2664 36.1484 17.2899 36.0663 17.2896C35.1198 17.2866 34.1732 17.2893 33.2267 17.2854C33.1293 17.285 33.1025 17.3067 33.1026 17.4073C33.1056 20.4451 33.1063 23.4829 33.1047 26.5208C33.1047 26.686 33.125 26.6622 32.9649 26.6626C32.4591 26.6637 31.9534 26.6605 31.4477 26.6653C31.3561 26.6662 31.3355 26.6409 31.3356 26.5516C31.3385 25.0241 31.3392 23.4967 31.3377 21.9692Z" fill="#141420"/>
<path d="M7.50307 26.8297C6.6903 26.8293 6.17598 26.0398 6.52518 25.3545C6.6349 25.1459 6.80949 24.9785 7.02261 24.8778C7.23573 24.777 7.47584 24.7482 7.70673 24.7958C7.92731 24.8387 8.12886 24.9498 8.28296 25.1133C8.43706 25.2769 8.53594 25.4847 8.56564 25.7074C8.58671 25.9789 8.50043 26.2478 8.32535 26.4563C8.15027 26.6648 7.90037 26.7964 7.62935 26.8226C7.58178 26.8267 7.53397 26.828 7.50307 26.8297Z" fill="#141420"/>
</g>
<defs>
<clipPath id="clip0_428_1180">
<rect width="42" height="42" fill="white"/>
</clipPath>
</defs>
</svg>
