<svg width="65" height="65" viewBox="0 0 65 65" fill="none" xmlns="http://www.w3.org/2000/svg">
<rect width="65" height="65" rx="10" fill="#F4F4F4"/>
<g clip-path="url(#clip0_102_2640)">
<path d="M47 24.5898V20.1953C47 18.7414 45.8172 17.5586 44.3633 17.5586H19.6367C18.1828 17.5586 17 18.7414 17 20.1953V24.5898H47ZM37.2734 21.0742H42.5469C43.0323 21.0742 43.4258 21.4677 43.4258 21.9531C43.4258 22.4385 43.0323 22.832 42.5469 22.832H37.2734C36.788 22.832 36.3945 22.4385 36.3945 21.9531C36.3945 21.4677 36.788 21.0742 37.2734 21.0742ZM28.4844 21.0742C28.9698 21.0742 29.3633 21.4677 29.3633 21.9531C29.3633 22.4385 28.9698 22.832 28.4844 22.832C27.999 22.832 27.6055 22.4385 27.6055 21.9531C27.6055 21.4677 27.999 21.0742 28.4844 21.0742ZM24.9688 21.0742C25.4541 21.0742 25.8477 21.4677 25.8477 21.9531C25.8477 22.4385 25.4541 22.832 24.9688 22.832C24.4834 22.832 24.0898 22.4385 24.0898 21.9531C24.0898 21.4677 24.4834 21.0742 24.9688 21.0742ZM21.4531 21.0742C21.9385 21.0742 22.332 21.4677 22.332 21.9531C22.332 22.4385 21.9385 22.832 21.4531 22.832C20.9677 22.832 20.5742 22.4385 20.5742 21.9531C20.5742 21.4677 20.9677 21.0742 21.4531 21.0742Z" fill="#6573FF"/>
<path d="M17 26.3477V44.8047C17 46.2586 18.1828 47.4414 19.6367 47.4414H44.3633C45.8172 47.4414 47 46.2586 47 44.8047V26.3477H17ZM27.2756 38.8449C27.6547 39.1482 27.7161 39.7012 27.4129 40.0803C27.1097 40.4593 26.5565 40.5208 26.1775 40.2175L21.783 36.7019C21.3436 36.3505 21.3433 35.6809 21.783 35.3293L26.1775 31.8136C26.5564 31.5104 27.1096 31.5718 27.4129 31.9509C27.7161 32.3299 27.6547 32.883 27.2756 33.1862L23.739 36.0156L27.2756 38.8449ZM35.4445 30.2095L30.1711 42.5142C29.9799 42.9603 29.4634 43.1671 29.0171 42.9758C28.5709 42.7846 28.3642 42.2679 28.5554 41.8217L33.8289 29.5171C34.0201 29.0709 34.5368 28.8643 34.9829 29.0554C35.4291 29.2466 35.6358 29.7633 35.4445 30.2095ZM42.217 36.7019L37.8225 40.2176C37.4441 40.5204 36.8908 40.4599 36.5871 40.0803C36.2839 39.7013 36.3453 39.1482 36.7244 38.845L40.261 36.0156L36.7244 33.1863C36.3453 32.8831 36.2839 32.33 36.5871 31.951C36.8903 31.5719 37.4434 31.5105 37.8225 31.8137L42.217 35.3294C42.6564 35.6808 42.6567 36.3503 42.217 36.7019Z" fill="#6573FF"/>
</g>
<defs>
<clipPath id="clip0_102_2640">
<rect width="30" height="30" fill="white" transform="translate(17 17.5)"/>
</clipPath>
</defs>
</svg>
