<svg width="45" height="45" viewBox="0 0 45 45" fill="none" xmlns="http://www.w3.org/2000/svg">
<g clip-path="url(#clip0_601_1275)">
<path d="M0.00283813 44.9292V0.070329C0.100008 0.0354791 0.204534 0.0263281 0.306282 0.0437632C15.0792 0.0424371 29.852 0.0422988 44.6249 0.0433482C44.7273 0.0315325 44.8311 0.037737 44.9314 0.0616809C44.9637 0.159689 44.9722 0.263991 44.9561 0.365928C44.9573 15.1188 44.9574 29.8718 44.9564 44.6247C44.9682 44.7271 44.962 44.8308 44.9381 44.9311C44.8401 44.9635 44.7357 44.972 44.6338 44.9559C29.8581 44.9571 15.0824 44.9571 0.306726 44.9558C0.20483 44.9732 0.100168 44.964 0.00283813 44.9292Z" fill="#EED93C"/>
<path d="M44.9212 0.0749909C44.7807 0.0735533 44.6402 0.0708621 44.4996 0.0708603C29.6674 0.0706292 14.8351 0.0705288 0.00284333 0.0705592C0.0151001 0.0532666 -0.0255907 0.0119401 0.0309762 0.0137559C0.105871 0.0161599 0.1809 0.0143529 0.255871 0.0143529C15.0815 0.0143529 29.907 0.0155098 44.7326 0.0178234C44.8149 0.0178426 44.9233 -0.0470046 44.9856 0.0705662C44.9662 0.10229 44.9447 0.103765 44.9212 0.0749909Z" fill="#FAF4CC"/>
<path d="M44.9212 0.0747442L44.9857 0.0703125C44.9857 14.9577 44.9845 29.8451 44.9822 44.7324C44.9822 44.8147 45.047 44.923 44.9294 44.9854C44.9105 44.9744 44.9031 44.962 44.9074 44.9482C44.9118 44.9337 44.9168 44.9265 44.9225 44.9265C44.9248 44.8141 44.929 44.7018 44.929 44.5895C44.9293 29.8635 44.9293 15.1376 44.929 0.4116C44.929 0.299315 44.9239 0.187029 44.9212 0.0747442Z" fill="#F8F0B8"/>
<path d="M44.9225 44.9258L44.9294 44.9847C30.0383 44.9847 15.1471 44.9835 0.255898 44.9812C0.173613 44.9812 0.0652418 45.0461 0.00286865 44.9285C14.8355 44.9285 29.6682 44.9285 44.5009 44.9284C44.6414 44.9284 44.7819 44.9267 44.9225 44.9258Z" fill="#F1E06C"/>
<path d="M34.4677 41.4234C32.5129 41.4061 30.7453 41.0086 29.175 39.9291C28.2149 39.2659 27.422 38.3888 26.8588 37.3669C26.7605 37.1919 26.7391 37.0955 26.9502 36.977C27.9545 36.4127 28.9516 35.8358 29.9415 35.2461C30.1303 35.134 30.2013 35.1777 30.3078 35.344C30.9732 36.3827 31.8144 37.2132 33.0536 37.526C34.0108 37.7676 34.9683 37.776 35.8944 37.3881C36.922 36.9576 37.3869 36.0373 37.1114 35.0282C36.9754 34.575 36.6858 34.1834 36.2922 33.9208C35.8375 33.6058 35.3506 33.3402 34.8396 33.1284C33.9081 32.7112 32.967 32.3149 32.0431 31.8815C31.2114 31.4896 30.4412 30.9787 29.7566 30.365C27.453 28.3134 27.2472 23.8091 30.0373 21.7086C30.9197 21.0487 31.9594 20.631 33.0532 20.4972C34.1422 20.3439 35.2506 20.403 36.3172 20.671C38.0063 21.1013 39.2018 22.1622 40.0753 23.6317C40.1488 23.7552 40.1392 23.819 40.0147 23.8982C39.0266 24.5263 38.0414 25.1589 37.0591 25.7961C36.9241 25.8837 36.8576 25.8721 36.7783 25.7309C36.5952 25.3923 36.3597 25.0847 36.0806 24.8195C35.2816 24.0819 34.3408 23.9144 33.3369 24.2465C32.0892 24.6592 31.7348 26.2794 32.6494 27.2458C33.0032 27.5967 33.4217 27.8757 33.8817 28.0673C34.7162 28.4489 35.5613 28.8073 36.3978 29.1846C37.434 29.6236 38.4094 30.1944 39.2996 30.883C40.6422 31.9691 41.3128 33.3839 41.3911 35.0978C41.4443 36.2619 41.2849 37.381 40.6957 38.4053C39.8151 39.9361 38.4174 40.7377 36.7563 41.1549C36.0063 41.3321 35.2384 41.4222 34.4677 41.4234Z" fill="#141420"/>
<path d="M24.4371 28.8869C24.4162 30.8424 24.4743 33.2688 24.4102 35.6946C24.3889 36.3982 24.2591 37.0944 24.0254 37.7584C23.5087 39.2512 22.5437 40.3484 21.0583 40.898C18.9267 41.6866 16.7928 41.6522 14.7254 40.6562C13.4383 40.0361 12.54 39.0078 11.894 37.7469C11.8227 37.6076 11.8447 37.5389 11.9774 37.4595C13.0061 36.8436 14.0319 36.2228 15.0548 35.5972C15.2018 35.5071 15.2701 35.5164 15.3543 35.6722C15.5616 36.0718 15.8119 36.4475 16.1008 36.7926C16.4735 37.2128 16.9712 37.5023 17.5206 37.6186C18.0701 37.7349 18.6424 37.6717 19.1533 37.4385C19.3854 37.3239 19.5885 37.1584 19.7476 36.9542C19.9067 36.75 20.0175 36.5125 20.0718 36.2595C20.1858 35.7948 20.2356 35.3168 20.2197 34.8386C20.2204 30.2296 20.2186 25.6207 20.2141 21.0117C20.2136 20.7356 20.2701 20.6459 20.5654 20.6506C21.7551 20.6696 22.9454 20.6667 24.1352 20.6519C24.3921 20.6487 24.4431 20.7291 24.4422 20.9689C24.4338 23.4513 24.4371 25.9338 24.4371 28.8869Z" fill="#141420"/>
</g>
<defs>
<clipPath id="clip0_601_1275">
<rect width="45" height="45" fill="white"/>
</clipPath>
</defs>
</svg>
