<svg width="44" height="46" viewBox="0 0 44 46" fill="none" xmlns="http://www.w3.org/2000/svg">
<path d="M21.5641 0H21.7181C24.1754 0.306003 26.4466 1.26146 28.7623 2.04433C33.2471 3.56054 37.7216 5.1074 42.2124 6.60663C42.6872 6.76516 43.2252 6.84867 43.4889 7.37098C43.5152 7.61957 43.5233 7.86975 43.5131 8.11952C43.3863 10.8229 43.1663 13.5162 42.8097 16.2015C42.3894 19.3661 42.0189 22.5376 41.6135 25.7042C41.1984 28.9475 40.8268 32.1964 40.3706 35.4346C40.3064 35.8908 40.0294 36.1552 39.6599 36.372C37.98 37.3578 36.261 38.2738 34.5582 39.2187C30.9508 41.2206 27.3309 43.2002 23.7229 45.2011C23.0518 45.5732 22.4195 46.1499 21.5372 45.964C21.4685 45.8999 21.4191 45.8179 21.3946 45.7273C21.3792 45.6317 21.3815 45.534 21.4014 45.4392C21.4792 44.9089 21.5077 44.3725 21.4867 43.8369C21.4875 39.0947 21.4886 34.3524 21.49 29.6102C21.4903 29.2571 21.4311 28.8944 21.5906 28.5551C21.7674 28.3161 22.0315 28.3284 22.2839 28.3298C24.1403 28.3398 25.9971 28.288 27.852 28.355C28.2486 28.4441 28.4133 28.7475 28.5656 29.0869C29.2239 30.5549 29.8718 32.0278 30.4686 33.5211C30.7902 34.3257 31.2427 34.775 32.1881 34.6725C32.8773 34.5973 33.5734 34.6126 34.2586 34.7181C34.7728 34.7982 34.8503 34.6057 34.6809 34.164C34.2594 33.0648 33.7111 32.0225 33.2044 30.9649C31.3834 27.1645 29.6287 23.3333 27.8119 19.531C25.7973 15.3144 23.8599 11.0612 21.8268 6.85308C21.6033 6.39046 21.5919 5.85521 21.2969 5.41991C21.1172 3.86464 21.2151 2.30668 21.2294 0.750075C21.23 0.608659 21.2601 0.468926 21.3177 0.339783C21.3753 0.21064 21.4593 0.0949202 21.5641 0Z" fill="#B9002C"/>
<path d="M21.5639 0C21.5614 1.5458 21.5585 3.0916 21.5552 4.6374C21.5398 4.94182 21.5839 5.24633 21.6849 5.53391C21.1779 7.39165 20.2333 9.06794 19.46 10.8135C17.5551 15.1133 15.6174 19.3988 13.6815 23.6849C12.2084 26.9462 10.7592 30.2182 9.26314 33.4692C9.22036 33.5622 9.1706 33.6519 9.12876 33.7453C8.76818 34.5501 8.83154 34.6499 9.72999 34.6543C10.5253 34.6582 11.3209 34.6435 12.1158 34.6567C12.6848 34.6662 13.0056 34.4182 13.2114 33.8931C13.8177 32.3462 14.4364 30.8041 15.0675 29.2667C15.2207 28.892 15.3323 28.4836 15.7454 28.2815C15.8288 28.2549 15.9173 28.2485 16.0036 28.2629C17.4535 28.3984 18.9059 28.2883 20.356 28.328C20.6811 28.3369 21.0224 28.2591 21.3204 28.4671C21.5485 28.7281 21.4832 29.0478 21.4835 29.3474C21.4884 34.4585 21.4893 39.5695 21.4864 44.6805C21.4863 44.8338 21.4891 44.9874 21.4765 45.1403C21.4362 45.6289 21.8274 46.1413 21.3768 45.9396C20.4629 45.5303 18.979 44.6419 18.0881 44.1924C17.1809 43.7347 16.3409 43.4103 15.321 42.915C13.2024 41.8862 11.1863 40.6666 9.11642 39.5456C7.42889 38.6317 5.76801 37.6675 4.07514 36.7632C3.72966 36.6031 3.43404 36.3523 3.21969 36.0376C3.00535 35.7228 2.88029 35.3559 2.85782 34.9757C2.22009 29.3998 1.59486 23.8222 0.911484 18.2514C0.52346 15.0882 0.234701 11.9148 0.077789 8.73081C0.0848782 8.62915 0.0574714 8.52807 0 8.44391V7.52276C0.207598 7.26378 0.481366 7.06575 0.792317 6.94965C6.63265 4.89419 12.4654 2.81741 18.2904 0.719299C19.2582 0.371149 20.2625 0.218658 21.2559 0H21.5639Z" fill="#D0002D"/>
<path d="M15.8678 28.3989C15.0635 30.3596 14.2425 32.3137 13.4663 34.2854C13.2709 34.7817 13.0394 34.9988 12.4724 34.9802C11.3197 34.9425 10.1639 34.9932 9.00945 35.0105C8.16951 35.0231 8.16825 35.0247 8.50288 34.2815C10.2877 30.3179 12.0729 26.3544 13.8584 22.3911C16.3048 16.9586 18.7536 11.5272 21.205 6.09687C21.3026 5.88135 21.2592 5.49222 21.685 5.53442C23.0087 8.38197 24.3231 11.2343 25.6583 14.0769C28.8406 20.8518 32.0319 27.6224 35.2321 34.3889C35.5351 35.0281 35.3991 35.159 34.7429 35.1233C33.592 35.0607 32.4377 35.0273 31.2853 35.0371C30.8407 35.0409 30.6663 34.8594 30.5063 34.4883C29.6475 32.4974 28.7638 30.5172 27.8887 28.5333C27.8027 28.4898 27.7133 28.4536 27.6214 28.425C23.7036 28.3733 19.7856 28.4248 15.8678 28.3989Z" fill="white"/>
<path d="M15.8677 28.3997C15.9961 28.1552 16.228 28.2575 16.4126 28.2571C20.0378 28.2489 23.6631 28.247 27.2884 28.2513C27.4771 28.2515 27.7058 28.1608 27.8377 28.3973C26.7448 28.5875 25.6435 28.4404 24.5466 28.4752C23.7773 28.4997 23.0064 28.4702 22.2367 28.4865C22.033 28.4908 21.7565 28.356 21.6476 28.6796C21.6313 34.0419 21.6465 39.404 21.6373 44.766C21.6368 45.042 21.7047 45.3282 21.5673 45.5943L21.5569 45.7527C21.1042 45.6032 21.347 45.2274 21.3462 44.978C21.3282 39.7024 21.3326 34.4267 21.3325 29.1511C21.3325 28.9982 21.3343 28.8452 21.3269 28.6928C21.1778 28.3033 20.8415 28.4969 20.5978 28.4894C19.037 28.4418 17.4743 28.5389 15.9136 28.435L15.8677 28.3997Z" fill="#D0002D"/>
<path d="M21.4088 28.558C21.4091 33.942 21.4104 39.326 21.4128 44.71C21.4131 45.0612 21.3368 45.429 21.5571 45.7524C21.5597 45.802 21.561 45.8516 21.5608 45.9012C21.0985 45.8898 20.7683 45.5767 20.3979 45.372C18.7224 44.4457 17.0598 43.4962 15.3926 42.5551C15.8005 42.4029 16.0701 42.7145 16.3671 42.8735C17.7651 43.622 19.1615 44.3755 20.5317 45.173C21.148 45.5316 21.269 45.4003 21.2666 44.7281C21.2472 39.3378 21.2557 33.9475 21.2557 28.5571C21.3071 28.4953 21.3581 28.4924 21.4088 28.558Z" fill="#D0002D"/>
<path d="M21.548 15.1349C21.6341 15.0836 21.6816 15.1306 21.7158 15.2028C23.0483 18.0168 24.3806 20.8309 25.7127 23.645C25.6687 23.888 25.5706 24.0932 25.2841 24.0873C24.0232 24.0611 22.7572 24.2275 21.5017 23.9903C21.2801 23.7296 21.3368 23.4127 21.336 23.1136C21.3301 20.9284 21.3364 18.7431 21.3302 16.5579C21.3346 16.0756 21.4079 15.5964 21.548 15.1349Z" fill="#B9002C"/>
<path d="M17.8105 23.9314L21.12 15.9688C21.3133 15.9671 21.3629 16.1021 21.3938 16.255C21.4308 18.6421 21.4017 21.0293 21.4076 23.4163C21.4411 23.619 21.396 23.8269 21.2815 23.9975C20.1214 24.1319 18.9618 24.2485 17.8105 23.9314Z" fill="#D0002D"/>
<path d="M17.8106 23.9312C18.9591 23.9373 20.1077 23.9434 21.2562 23.9495C21.4273 23.3251 21.3204 22.6885 21.327 22.0586C21.345 20.3294 21.3362 18.5999 21.3298 16.8705C21.3288 16.6215 21.396 16.3611 21.2569 16.1237L21.12 15.9686C21.1968 15.6614 21.3434 15.376 21.5486 15.1348C21.5523 18.0732 21.5562 21.0115 21.5602 23.9498C21.5826 23.9664 21.6007 23.9883 21.613 24.0134C21.6252 24.0385 21.6312 24.0662 21.6305 24.0942C21.6298 24.1221 21.6224 24.1495 21.6089 24.174C21.5954 24.1984 21.5763 24.2193 21.553 24.2349C20.4066 24.2459 19.2602 24.262 18.1137 24.263C17.9271 24.2632 17.5523 24.3648 17.8106 23.9312Z" fill="#D0002D"/>
<path d="M21.5527 24.2343C21.5552 24.1393 21.5576 24.0443 21.5599 23.9492C22.6465 23.9492 23.733 23.9444 24.8195 23.9519C25.1592 23.9542 25.4774 23.9278 25.7128 23.6445C25.9968 24.0091 26.1787 24.2961 25.4481 24.2748C24.1503 24.2371 22.8513 24.2453 21.5527 24.2343Z" fill="#B9002C"/>
</svg>
