<svg width="65" height="65" viewBox="0 0 65 65" fill="none" xmlns="http://www.w3.org/2000/svg">
<rect width="65" height="65" rx="10" fill="#F4F4F4"/>
<path d="M42.55 17.125H17.9125C16.025 17.125 14.5 18.65 14.5 20.5375V23.8625H45.9625V20.5375C45.9625 18.65 44.4375 17.125 42.55 17.125ZM19.3225 21.465C18.7862 21.465 18.3512 21.03 18.3512 20.4937C18.3512 19.9575 18.7862 19.5225 19.3225 19.5225C19.8587 19.5225 20.2938 19.9575 20.2938 20.4937C20.2938 21.03 19.8587 21.465 19.3225 21.465ZM22.745 21.465C22.2087 21.465 21.7737 21.03 21.7737 20.4937C21.7737 19.9575 22.2087 19.5225 22.745 19.5225C23.2812 19.5225 23.7163 19.9575 23.7163 20.4937C23.7163 21.03 23.2812 21.465 22.745 21.465ZM26.1675 21.465C25.6312 21.465 25.1962 21.03 25.1962 20.4937C25.1962 19.9575 25.6312 19.5225 26.1675 19.5225C26.7037 19.5225 27.1388 19.9575 27.1388 20.4937C27.1388 21.03 26.7037 21.465 26.1675 21.465Z" fill="#6573FF"/>
<path d="M34.0513 43.5545L34.1388 43.4033L33.97 43.3583C32.9825 43.0933 32.2938 42.1958 32.2938 41.1745V39.2558C32.2938 38.2345 32.9825 37.337 33.9688 37.072L34.1388 37.027L34.0513 36.877C33.5438 35.9958 33.6888 34.877 34.4025 34.1545L35.7675 32.7908C36.1938 32.3633 36.7612 32.1295 37.365 32.1295C37.7575 32.1295 38.1475 32.2333 38.4888 32.4283L38.6462 32.5183L38.6912 32.3483C38.9563 31.3633 39.8538 30.6745 40.8738 30.6745H42.7938C43.8138 30.6745 44.7113 31.3633 44.9762 32.3483L45.0212 32.5183L45.1737 32.4308C45.4187 32.2908 45.6875 32.217 45.9613 32.1745V25.7383H14.5V40.6758C14.5 42.5633 16.025 44.0883 17.9125 44.0883H33.8513C33.9013 43.9058 33.9538 43.7233 34.0513 43.5545Z" fill="#6573FF"/>
<path d="M49.2152 38.8819L48.0139 38.5594C47.8714 38.0206 47.6602 37.5019 47.3752 37.0094L47.9952 35.9356C48.0827 35.7844 48.0577 35.5944 47.9339 35.4706L46.5764 34.1131C46.4539 33.9906 46.2627 33.9644 46.1114 34.0519L45.0377 34.6719C44.5452 34.3881 44.0252 34.1769 43.4877 34.0331L43.1652 32.8319C43.1202 32.6631 42.9677 32.5469 42.7939 32.5469H40.8752C40.7014 32.5469 40.5489 32.6644 40.5039 32.8319L40.1814 34.0331C39.6439 34.1756 39.1239 34.3869 38.6314 34.6706L37.5577 34.0506C37.4064 33.9631 37.2164 33.9894 37.0927 34.1119L35.7352 35.4694C35.6114 35.5931 35.5864 35.7831 35.6739 35.9344L36.2927 37.0069C36.0077 37.5006 35.7964 38.0194 35.6539 38.5581L34.4539 38.8806C34.2852 38.9256 34.1689 39.0781 34.1689 39.2519V41.1706C34.1689 41.3444 34.2864 41.4969 34.4539 41.5419L35.6552 41.8644C35.7977 42.4031 36.0089 42.9219 36.2939 43.4156L35.6739 44.4894C35.5864 44.6406 35.6114 44.8306 35.7352 44.9544L37.0927 46.3119C37.2164 46.4356 37.4064 46.4606 37.5577 46.3731L38.6314 45.7531C39.1239 46.0381 39.6439 46.2481 40.1814 46.3919L40.5039 47.5931C40.5489 47.7619 40.7014 47.8781 40.8752 47.8781H42.7939C42.9677 47.8781 43.1202 47.7606 43.1652 47.5931L43.4877 46.3919C44.0252 46.2494 44.5452 46.0381 45.0377 45.7531L46.1114 46.3731C46.2627 46.4606 46.4527 46.4356 46.5764 46.3119L47.9339 44.9544C48.0577 44.8306 48.0827 44.6406 47.9952 44.4894L47.3752 43.4169C47.6602 42.9231 47.8714 42.4044 48.0139 41.8656L49.2152 41.5431C49.3827 41.4994 49.5002 41.3469 49.5002 41.1731V39.2544C49.5002 39.0794 49.3827 38.9269 49.2152 38.8819ZM44.7877 43.1656C43.1614 44.7919 40.5102 44.7969 38.8814 43.1656C37.2527 41.5369 37.2527 38.8881 38.8802 37.2594C39.6939 36.4456 40.7639 36.0381 41.8339 36.0381C42.9014 36.0381 43.9727 36.4444 44.7852 37.2594C46.4152 38.8881 46.4152 41.5369 44.7877 43.1656Z" fill="#6573FF"/>
</svg>
