<svg width="45" height="45" viewBox="0 0 45 45" fill="none" xmlns="http://www.w3.org/2000/svg">
<g clip-path="url(#clip0_211_516)">
<path d="M0.00292969 44.9292V0.070329C0.1001 0.0354791 0.204626 0.0263281 0.306373 0.0437632C15.0792 0.0424371 29.8521 0.0422988 44.625 0.0433482C44.7274 0.0315325 44.8312 0.037737 44.9315 0.0616809C44.9638 0.159689 44.9723 0.263991 44.9562 0.365928C44.9574 15.1188 44.9575 29.8718 44.9565 44.6247C44.9683 44.7271 44.9621 44.8308 44.9382 44.9311C44.8402 44.9635 44.7358 44.972 44.6339 44.9559C29.8582 44.9571 15.0825 44.9571 0.306818 44.9558C0.204921 44.9732 0.10026 44.964 0.00292969 44.9292Z" fill="#EED93C"/>
<path d="M44.9212 0.0749909C44.7807 0.0735533 44.6402 0.0708621 44.4996 0.0708603C29.6674 0.0706292 14.8351 0.0705288 0.00284333 0.0705592C0.0151001 0.0532666 -0.0255907 0.0119401 0.0309762 0.0137559C0.105871 0.0161599 0.1809 0.0143529 0.255871 0.0143529C15.0815 0.0143529 29.907 0.0155098 44.7326 0.0178234C44.8149 0.0178426 44.9233 -0.0470046 44.9856 0.0705662C44.9662 0.10229 44.9447 0.103765 44.9212 0.0749909Z" fill="#FAF4CC"/>
<path d="M44.9213 0.0747442L44.9857 0.0703125C44.9857 14.9577 44.9846 29.8451 44.9822 44.7324C44.9822 44.8147 45.0471 44.923 44.9295 44.9854C44.9105 44.9744 44.9032 44.962 44.9074 44.9482C44.9119 44.9337 44.9169 44.9265 44.9225 44.9265C44.9248 44.8141 44.9291 44.7018 44.9291 44.5895C44.9294 29.8635 44.9294 15.1376 44.9291 0.4116C44.929 0.299315 44.924 0.187029 44.9213 0.0747442Z" fill="#F8F0B8"/>
<path d="M44.9225 44.9258L44.9295 44.9847C30.0383 44.9847 15.1471 44.9835 0.255959 44.9812C0.173674 44.9812 0.0653028 45.0461 0.00292969 44.9285C14.8356 44.9285 29.6683 44.9285 44.5009 44.9284C44.6415 44.9284 44.782 44.9267 44.9225 44.9258Z" fill="#F1E06C"/>
<path d="M34.4677 41.4234C32.5128 41.4061 30.7452 41.0086 29.1749 39.9291C28.2148 39.2659 27.4219 38.3888 26.8587 37.3669C26.7604 37.1919 26.739 37.0955 26.9501 36.977C27.9544 36.4127 28.9515 35.8358 29.9414 35.2461C30.1302 35.134 30.2012 35.1777 30.3077 35.344C30.9731 36.3827 31.8144 37.2132 33.0536 37.526C34.0107 37.7676 34.9683 37.776 35.8944 37.3881C36.9219 36.9576 37.3868 36.0373 37.1113 35.0282C36.9753 34.575 36.6857 34.1834 36.2921 33.9208C35.8375 33.6058 35.3505 33.3402 34.8395 33.1284C33.908 32.7112 32.9669 32.3149 32.0431 31.8815C31.2114 31.4896 30.4411 30.9787 29.7565 30.365C27.4529 28.3134 27.2471 23.8091 30.0372 21.7086C30.9196 21.0487 31.9593 20.631 33.0531 20.4972C34.1421 20.3439 35.2505 20.403 36.3171 20.671C38.0062 21.1013 39.2018 22.1622 40.0752 23.6317C40.1487 23.7552 40.1391 23.819 40.0146 23.8982C39.0265 24.5263 38.0413 25.1589 37.059 25.7961C36.9241 25.8837 36.8575 25.8721 36.7783 25.7309C36.5951 25.3923 36.3596 25.0847 36.0805 24.8195C35.2815 24.0819 34.3407 23.9144 33.3369 24.2465C32.0892 24.6592 31.7347 26.2794 32.6494 27.2458C33.0032 27.5967 33.4217 27.8757 33.8817 28.0673C34.7161 28.4489 35.5612 28.8073 36.3977 29.1846C37.434 29.6236 38.4093 30.1944 39.2995 30.883C40.6421 31.9691 41.3128 33.3839 41.391 35.0978C41.4442 36.2619 41.2849 37.381 40.6956 38.4053C39.815 39.9361 38.4173 40.7377 36.7562 41.1549C36.0062 41.3321 35.2383 41.4222 34.4677 41.4234Z" fill="#141420"/>
<path d="M24.437 28.8869C24.4162 30.8424 24.4742 33.2688 24.4102 35.6946C24.3889 36.3982 24.259 37.0944 24.0254 37.7584C23.5086 39.2512 22.5436 40.3484 21.0582 40.898C18.9266 41.6866 16.7927 41.6522 14.7253 40.6562C13.4383 40.0361 12.5399 39.0078 11.894 37.7469C11.8226 37.6076 11.8446 37.5389 11.9773 37.4595C13.0061 36.8436 14.0319 36.2228 15.0548 35.5972C15.2018 35.5071 15.27 35.5164 15.3542 35.6722C15.5615 36.0718 15.8118 36.4475 16.1008 36.7926C16.4734 37.2128 16.9711 37.5023 17.5206 37.6186C18.07 37.7349 18.6423 37.6717 19.1532 37.4385C19.3853 37.3239 19.5885 37.1584 19.7475 36.9542C19.9066 36.75 20.0174 36.5125 20.0717 36.2595C20.1858 35.7948 20.2356 35.3168 20.2197 34.8386C20.2204 30.2296 20.2185 25.6207 20.2141 21.0117C20.2136 20.7356 20.2701 20.6459 20.5653 20.6506C21.755 20.6696 22.9453 20.6667 24.1352 20.6519C24.3921 20.6487 24.443 20.7291 24.4422 20.9689C24.4338 23.4513 24.437 25.9338 24.437 28.8869Z" fill="#141420"/>
</g>
<defs>
<clipPath id="clip0_211_516">
<rect width="45" height="45" fill="white"/>
</clipPath>
</defs>
</svg>
