<svg width="45" height="45" viewBox="0 0 45 45" fill="none" xmlns="http://www.w3.org/2000/svg">
<g clip-path="url(#clip0_428_1205)">
<path d="M0.00280762 44.9292V0.070329C0.0999776 0.0354791 0.204504 0.0263281 0.306251 0.0437632C15.0791 0.0424371 29.852 0.0422988 44.6249 0.0433482C44.7273 0.0315325 44.831 0.037737 44.9314 0.0616809C44.9637 0.159689 44.9721 0.263991 44.9561 0.365928C44.9573 15.1188 44.9574 29.8718 44.9564 44.6247C44.9682 44.7271 44.962 44.8308 44.9381 44.9311C44.84 44.9635 44.7357 44.972 44.6337 44.9559C29.8581 44.9571 15.0824 44.9571 0.306696 44.9558C0.204799 44.9732 0.100138 44.964 0.00280762 44.9292Z" fill="white"/>
<path d="M44.9212 0.0749909C44.7807 0.0735533 44.6402 0.0708621 44.4996 0.0708603C29.6674 0.0706292 14.8351 0.0705288 0.00284333 0.0705592C0.0151001 0.0532666 -0.0255907 0.0119401 0.0309762 0.0137559C0.105871 0.0161599 0.1809 0.0143529 0.255871 0.0143529C15.0815 0.0143529 29.907 0.0155098 44.7326 0.0178234C44.8149 0.0178426 44.9233 -0.0470046 44.9856 0.0705662C44.9662 0.10229 44.9447 0.103765 44.9212 0.0749909Z" fill="#FAF4CC"/>
<path d="M44.9213 0.0747442L44.9857 0.0703125C44.9857 14.9577 44.9846 29.8451 44.9822 44.7324C44.9822 44.8147 45.0471 44.923 44.9295 44.9854C44.9105 44.9744 44.9032 44.962 44.9074 44.9482C44.9119 44.9337 44.9169 44.9265 44.9225 44.9265C44.9248 44.8141 44.9291 44.7018 44.9291 44.5895C44.9294 29.8635 44.9294 15.1376 44.9291 0.4116C44.929 0.299315 44.924 0.187029 44.9213 0.0747442Z" fill="#F8F0B8"/>
<path d="M44.9225 44.9258L44.9295 44.9847C30.0383 44.9847 15.1471 44.9835 0.255959 44.9812C0.173674 44.9812 0.0653028 45.0461 0.00292969 44.9285C14.8356 44.9285 29.6683 44.9285 44.5009 44.9284C44.6415 44.9284 44.782 44.9267 44.9225 44.9258Z" fill="#F1E06C"/>
<path d="M34.4678 41.4234C32.513 41.4061 30.7453 41.0086 29.1751 39.9291C28.215 39.2659 27.422 38.3888 26.8588 37.3669C26.7605 37.1919 26.7392 37.0955 26.9502 36.977C27.9545 36.4127 28.9516 35.8358 29.9416 35.2461C30.1303 35.134 30.2013 35.1777 30.3078 35.344C30.9733 36.3827 31.8145 37.2132 33.0537 37.526C34.0108 37.7676 34.9684 37.776 35.8945 37.3881C36.922 36.9576 37.3869 36.0373 37.1114 35.0282C36.9755 34.575 36.6858 34.1834 36.2923 33.9208C35.8376 33.6058 35.3506 33.3402 34.8396 33.1284C33.9082 32.7112 32.967 32.3149 32.0432 31.8815C31.2115 31.4896 30.4412 30.9787 29.7566 30.365C27.453 28.3134 27.2472 23.8091 30.0373 21.7086C30.9198 21.0487 31.9595 20.631 33.0532 20.4972C34.1422 20.3439 35.2507 20.403 36.3173 20.671C38.0064 21.1013 39.2019 22.1622 40.0754 23.6317C40.1488 23.7552 40.1393 23.819 40.0147 23.8982C39.0266 24.5263 38.0414 25.1589 37.0591 25.7961C36.9242 25.8837 36.8576 25.8721 36.7784 25.7309C36.5952 25.3923 36.3597 25.0847 36.0806 24.8195C35.2817 24.0819 34.3409 23.9144 33.337 24.2465C32.0893 24.6592 31.7348 26.2794 32.6495 27.2458C33.0033 27.5967 33.4218 27.8757 33.8818 28.0673C34.7162 28.4489 35.5613 28.8073 36.3978 29.1846C37.4341 29.6236 38.4094 30.1944 39.2996 30.883C40.6422 31.9691 41.3129 33.3839 41.3912 35.0978C41.4443 36.2619 41.285 37.381 40.6957 38.4053C39.8151 39.9361 38.4175 40.7377 36.7564 41.1549C36.0064 41.3321 35.2384 41.4222 34.4678 41.4234Z" fill="#141420"/>
<path d="M24.4375 28.8869C24.4166 30.8424 24.4747 33.2688 24.4107 35.6946C24.3893 36.3982 24.2595 37.0944 24.0258 37.7584C23.5091 39.2512 22.5441 40.3484 21.0587 40.898C18.9271 41.6866 16.7932 41.6522 14.7258 40.6562C13.4388 40.0361 12.5404 39.0078 11.8945 37.7469C11.8231 37.6076 11.8451 37.5389 11.9778 37.4595C13.0065 36.8436 14.0324 36.2228 15.0553 35.5972C15.2023 35.5071 15.2705 35.5164 15.3547 35.6722C15.562 36.0718 15.8123 36.4475 16.1013 36.7926C16.4739 37.2128 16.9716 37.5023 17.5211 37.6186C18.0705 37.7349 18.6428 37.6717 19.1537 37.4385C19.3858 37.3239 19.589 37.1584 19.748 36.9542C19.9071 36.75 20.0179 36.5125 20.0722 36.2595C20.1863 35.7948 20.236 35.3168 20.2202 34.8386C20.2209 30.2296 20.219 25.6207 20.2146 21.0117C20.2141 20.7356 20.2706 20.6459 20.5658 20.6506C21.7555 20.6696 22.9458 20.6667 24.1357 20.6519C24.3926 20.6487 24.4435 20.7291 24.4427 20.9689C24.4342 23.4513 24.4375 25.9338 24.4375 28.8869Z" fill="#141420"/>
</g>
<defs>
<clipPath id="clip0_428_1205">
<rect width="45" height="45" fill="white"/>
</clipPath>
</defs>
</svg>
