<svg width="120" height="56" viewBox="0 0 120 56" fill="none" xmlns="http://www.w3.org/2000/svg">
<g clip-path="url(#clip0_102_2996)">
<path d="M99.4091 14.0792V41.9345C99.2966 41.9743 99.1755 41.9848 99.0576 41.9649C73.2422 41.9664 47.4267 41.9666 21.6113 41.9654C21.4925 41.9788 21.3723 41.9718 21.256 41.9445C21.2184 41.8329 21.2085 41.7141 21.2272 41.598C21.2257 32.5394 21.2255 23.4808 21.2264 14.4221C21.2264 14.0054 21.1819 14.0478 21.6121 14.0478C47.4277 14.0473 73.2432 14.0476 99.0588 14.0488C99.1762 14.029 99.2969 14.0395 99.4091 14.0792Z" fill="white"/>
<path d="M99.4085 14.0798C73.502 14.0798 47.5956 14.0799 21.6891 14.0799C21.2577 14.0799 21.2577 14.0799 21.2577 14.4957C21.2577 23.5237 21.2578 32.5518 21.2581 41.5798C21.2581 41.697 21.2643 41.8142 21.2677 41.9313C21.3041 41.9596 21.3007 41.9823 21.2576 41.9993C21.123 41.9416 21.1966 41.8261 21.1965 41.7431C21.1917 38.7975 21.1904 35.8519 21.1925 32.9062C21.1925 26.6948 21.1904 20.4834 21.1863 14.272C21.186 14.0527 21.2301 14.0097 21.453 14.0098C47.3513 14.0162 73.2497 14.0195 99.148 14.0196C99.2324 14.0196 99.3499 13.9475 99.4085 14.0798Z" fill="#0B0B11"/>
<path d="M21.2581 41.9996L21.2681 41.9316C21.42 41.9329 21.5719 41.9353 21.7238 41.9353C47.6189 41.9355 73.5139 41.9356 99.4089 41.9355C99.3947 41.9552 99.4419 42.0023 99.3763 42.0003C99.2896 41.9975 99.2027 41.9996 99.1159 41.9996H21.2581Z" fill="#5F80BC"/>
<path d="M92.4419 28.08C92.4419 30.3424 92.4363 32.6048 92.4488 34.8672C92.4504 35.1512 92.3738 35.2204 92.0883 35.2198C87.4756 35.2108 82.8629 35.2109 78.2502 35.2203C77.9525 35.221 77.8945 35.1287 77.8949 34.8582C77.9027 30.3334 77.9024 25.8086 77.894 21.2838C77.8934 20.9883 77.9795 20.9109 78.2757 20.9114C82.8775 20.9201 87.4794 20.9197 92.0812 20.9102C92.3977 20.9094 92.4486 21.0173 92.4474 21.2928C92.4376 23.5552 92.4419 25.8176 92.4419 28.08Z" fill="#0B0B11"/>
<path d="M44.1558 30.7303C44.1558 31.776 44.1476 32.8218 44.1619 33.8673C44.1798 33.969 44.1576 34.0737 44.0999 34.1599C44.0421 34.2461 43.9532 34.3074 43.8512 34.3313C41.0581 35.3723 38.1854 35.8562 35.2074 35.4583C32.7042 35.1238 30.6706 34.0061 29.3693 31.7993C28.675 30.5706 28.3512 29.1721 28.4361 27.7684C28.5019 25.6964 29.2099 23.8946 30.8003 22.4782C31.9228 21.5044 33.3159 20.8841 34.7997 20.6975C36.7126 20.3907 38.6701 20.495 40.5382 21.0033C41.2754 21.1896 41.9658 21.5232 42.5666 21.9833C43.3141 22.598 43.8116 23.4576 43.9679 24.4044C43.9988 24.557 43.9457 24.585 43.8066 24.5839C43.1773 24.579 42.5478 24.5813 41.9184 24.5822C41.8273 24.5824 41.7486 24.5771 41.7145 24.4699C41.3042 23.1769 40.2767 22.6171 39.0359 22.3806C37.3049 22.0505 35.5733 22.0334 33.9335 22.7825C31.9625 23.6829 30.9219 25.2597 30.7103 27.3615C30.5213 28.7505 30.8398 30.1606 31.6088 31.3397C32.6307 32.8547 34.1086 33.6377 35.9052 33.8577C37.8845 34.0942 39.8925 33.8545 41.7572 33.1593C41.8495 33.1395 41.9307 33.0857 41.984 33.0088C42.0374 32.932 42.0589 32.8379 42.0441 32.746C42.0321 31.5937 42.0296 30.4412 42.0454 29.289C42.049 29.0268 41.9625 28.977 41.7174 28.979C40.3827 28.99 39.0476 28.9721 37.7132 28.9929C37.385 28.998 37.3099 28.8983 37.3313 28.5998C37.3531 28.2269 37.3537 27.8531 37.3333 27.4801C37.3248 27.2767 37.4022 27.2313 37.5945 27.2319C39.6889 27.2374 41.7833 27.2369 43.8777 27.2302C44.1204 27.2291 44.1614 27.32 44.1598 27.5293C44.1513 28.5963 44.1558 29.6633 44.1558 30.7303Z" fill="#0B0B11"/>
<path d="M47.8933 28.0506C47.8933 25.7881 47.9004 23.5255 47.885 21.2631C47.883 20.9561 47.982 20.9047 48.2641 20.9055C51.4769 20.9146 54.6896 20.9142 57.9024 20.9043C58.1898 20.9033 58.2769 20.9718 58.2562 21.2547C58.2307 21.6276 58.2305 22.0016 58.2557 22.3745C58.2713 22.6216 58.187 22.6706 57.9491 22.6696C55.7457 22.6603 53.5423 22.6641 51.339 22.6641C50.9808 22.6641 50.6219 22.678 50.2647 22.6591C50.0406 22.6472 49.9941 22.7305 49.9952 22.9322C50.0027 24.2555 50.0067 25.579 49.9926 26.9022C49.9898 27.1717 50.0705 27.2394 50.3383 27.2383C52.6936 27.2284 55.049 27.2383 57.4042 27.2256C57.7078 27.2239 57.829 27.2804 57.8 27.6033C57.7725 27.9653 57.7719 28.3288 57.7981 28.6909C57.8121 28.9304 57.7404 28.9962 57.4938 28.9941C56.072 28.9821 54.6501 28.9883 53.2282 28.9883C52.2513 28.9883 51.2743 28.9972 50.2977 28.9822C50.0454 28.9783 49.9928 29.0577 49.9939 29.2905C50.0031 31.1581 49.993 33.0258 50.0057 34.8934C50.0075 35.1624 49.9349 35.2374 49.6646 35.2249C49.1772 35.2025 48.6871 35.2009 48.2 35.2255C47.9274 35.2393 47.8876 35.1384 47.8884 34.9023C47.8966 32.6184 47.8933 30.3345 47.8933 28.0506Z" fill="#0B0B11"/>
<path d="M67.7578 20.9103C70.0479 20.9103 72.338 20.9145 74.628 20.9046C74.894 20.9034 74.9921 20.9658 74.9738 21.239C74.9467 21.601 74.9471 21.9645 74.9752 22.3265C75.0011 22.6283 74.8798 22.6703 74.6093 22.6686C72.8077 22.6574 71.0059 22.6708 69.2044 22.6554C68.8793 22.6527 68.7727 22.7158 68.774 23.0627C68.7881 26.9898 68.7787 30.9171 68.7909 34.8443C68.7919 35.1594 68.7065 35.2427 68.3959 35.2246C67.9298 35.2 67.4627 35.1997 66.9965 35.2235C66.73 35.2357 66.6521 35.1641 66.6532 34.8931C66.6641 32.2251 66.6598 29.5572 66.6598 26.8892C66.6598 25.5873 66.6509 24.2852 66.6669 22.9834C66.6703 22.7084 66.5854 22.655 66.3224 22.6566C64.4774 22.6682 62.6322 22.6572 60.7872 22.6691C60.5247 22.6707 60.4546 22.5959 60.4685 22.3481C60.4891 21.975 60.4892 21.6011 60.4686 21.2281C60.455 20.9795 60.5281 20.9026 60.7899 20.9043C62.5481 20.9157 64.3064 20.9103 66.0647 20.9102C66.629 20.9103 67.1934 20.9103 67.7578 20.9103Z" fill="#0B0B11"/>
</g>
<defs>
<clipPath id="clip0_102_2996">
<rect width="78.2353" height="28" fill="white" transform="translate(21.1765 14)"/>
</clipPath>
</defs>
</svg>
