<svg width="120" height="56" viewBox="0 0 120 56" fill="none" xmlns="http://www.w3.org/2000/svg">
<path d="M24.0002 36.387C23.6756 36.0671 23.351 35.7473 23.0264 35.4275C22.8184 35.0863 22.6802 34.7073 22.6196 34.3124C22.5727 33.9937 22.5486 33.672 22.5476 33.3498C22.5436 28.8705 22.5427 24.3912 22.5451 19.9119C22.5407 19.8355 22.5452 19.7589 22.5585 19.6836C22.5638 19.6647 22.5728 19.647 22.585 19.6315C22.5961 19.6235 22.6095 19.6192 22.6231 19.6191C22.6368 19.6191 22.6502 19.6233 22.6613 19.6313C22.7091 19.6672 22.753 19.7081 22.7922 19.7532C23.9255 20.8851 25.0585 22.0172 26.1913 23.1496C26.7905 23.7534 27.3922 24.355 27.9961 24.9541C30.0157 26.9776 32.0374 28.999 34.0612 31.0182C34.6492 31.611 35.2396 32.2014 35.8324 32.7893C36.9601 33.9215 38.0902 35.0514 39.2225 36.179C39.2341 36.1893 39.2448 36.2003 39.2554 36.2116C39.2921 36.2666 39.3721 36.2968 39.3548 36.383L39.3556 36.3887C39.2744 36.4509 39.1786 36.4366 39.087 36.4367C38.1419 36.4379 37.1968 36.4381 36.2516 36.4374C32.2854 36.4374 28.3191 36.4374 24.3528 36.4373C24.233 36.4373 24.1115 36.4476 24.0002 36.387Z" fill="white"/>
<path d="M26.1644 23.1743C26.1087 23.1223 26.0514 23.0719 25.9975 23.0181C24.9236 21.945 23.85 20.8716 22.7767 19.7978C22.7344 19.7556 22.696 19.7095 22.6558 19.6653C22.7337 19.5914 22.8316 19.6179 22.9214 19.6179C25.2043 19.6163 27.4872 19.6159 29.7702 19.6167C32.0859 19.6167 34.4015 19.6166 36.717 19.6165C37.2469 19.6469 37.7551 19.7519 38.2041 20.0567C39.4468 21.2245 40.6228 22.4596 41.8374 23.6558C41.8798 23.6976 41.9181 23.7436 41.9583 23.7876C41.9511 23.8893 41.9927 23.9804 42.0254 24.072C42.3335 24.9258 42.5373 25.8137 42.6323 26.7164C42.6957 27.3398 42.73 27.9639 42.6884 28.5945C42.649 29.2703 42.5572 29.942 42.4139 30.6036C42.2393 31.3824 41.9848 32.141 41.6544 32.8675C41.2077 33.8419 40.6305 34.7511 39.9388 35.57C39.7707 35.7709 39.584 35.9556 39.4238 36.1633C39.368 36.2358 39.2912 36.2276 39.2148 36.2251C38.6453 35.6589 38.076 35.0925 37.5069 34.526C36.9392 33.9581 36.373 33.3886 35.8085 32.8176C35.7827 32.728 35.8435 32.6721 35.8935 32.6172C36.2515 32.2334 36.5645 31.81 36.8267 31.3554C37.2851 30.5417 37.5818 29.674 37.6734 28.7407C37.7673 27.7835 37.6922 26.8428 37.3876 25.927C37.1046 25.0569 36.6454 24.2543 36.0386 23.5694C35.5208 22.9829 34.9072 22.4887 34.2238 22.1079C33.5249 21.7191 32.7606 21.462 31.9688 21.3493C30.4587 21.1309 29.0312 21.3954 27.6978 22.134C27.2376 22.387 26.811 22.697 26.4282 23.0565C26.356 23.1247 26.2913 23.223 26.1644 23.1743Z" fill="#D8D8D8"/>
<path d="M57.1548 27.4701C57.1548 24.6402 57.1549 21.8103 57.1552 18.9804C57.1553 18.7378 57.1246 18.7655 57.3766 18.7659C59.2507 18.7687 61.1259 18.7354 62.9987 18.7866C65.0625 18.8431 66.9324 19.4874 68.5029 20.8731C69.7414 21.966 70.5304 23.3393 70.9127 24.935C71.4285 27.088 71.3572 29.2226 70.4875 31.2774C69.4439 33.7433 67.5478 35.2317 64.9762 35.8899C64.1093 36.1118 63.2234 36.1852 62.3305 36.1853C60.664 36.1855 58.9975 36.1833 57.331 36.1889C57.186 36.1894 57.1511 36.153 57.1514 36.009C57.1559 33.1627 57.157 30.3164 57.1548 27.4701Z" fill="white"/>
<path d="M80.9485 29.0407C80.9354 28.5003 80.9859 27.9806 80.8497 27.4707C80.5995 26.5342 79.9937 25.8892 79.1162 25.5494C77.6218 24.9708 76.2024 25.1506 74.9147 26.1399C74.6716 26.3274 74.4632 26.556 74.2988 26.8153C74.2259 26.9297 74.1785 26.9232 74.0794 26.8469C73.6467 26.5136 73.2096 26.186 72.7681 25.8642C72.6668 25.7905 72.6664 25.7418 72.7349 25.6453C73.4263 24.6725 74.3604 24.0305 75.491 23.6933C77.1383 23.2021 78.7808 23.2434 80.3511 23.9707C81.7694 24.6275 82.5859 25.7779 82.8411 27.3231C82.9004 27.7064 82.9283 28.0939 82.9245 28.4817C82.9261 30.9843 82.9275 33.487 82.9287 35.9896C82.929 36.1408 82.9028 36.195 82.7364 36.1913C82.1902 36.1794 81.6434 36.1825 81.097 36.1901C80.9699 36.1918 80.9427 36.152 80.9442 36.0329C80.9505 35.5412 80.9478 35.0494 80.9453 34.5576C80.945 34.5096 80.9782 34.4376 80.901 34.4192C80.831 34.4025 80.8157 34.4737 80.7861 34.5159C79.9349 35.7266 78.7746 36.414 77.3001 36.5507C76.2437 36.6486 75.2262 36.4863 74.2885 35.975C72.8715 35.2024 72.1651 33.9976 72.1704 32.3807C72.1746 31.1386 72.6401 30.1204 73.6429 29.3663C74.3011 28.8727 75.0662 28.5407 75.8763 28.3971C77.442 28.1091 78.9746 28.2381 80.4633 28.8149C80.6197 28.8755 80.7684 28.9562 80.9485 29.0407Z" fill="white"/>
<path d="M24 36.3862C24.0601 36.3851 24.1201 36.3829 24.1802 36.3829C29.1786 36.3828 34.1769 36.3828 39.1753 36.383C39.2353 36.383 39.2953 36.3862 39.3554 36.388C39.355 37.8626 39.3523 39.3373 39.3581 40.8119C39.3587 40.9653 39.3147 40.9994 39.1674 40.9992C35.6987 40.9952 32.23 40.9946 28.7613 40.9974C28.6583 40.9975 28.5769 40.9796 28.4985 40.9009C27.0219 39.419 25.5435 37.9389 24.0634 36.4605C24.0405 36.4375 24.0211 36.4111 24 36.3862Z" fill="white"/>
<path d="M101.029 34.2752C101.061 34.3303 101.044 34.3909 101.044 34.4484C101.046 35.0111 101.044 35.5737 101.047 36.1364C101.047 36.2225 101.032 36.2816 100.942 36.3114C99.4905 36.7906 98.117 36.711 96.9083 35.6868C96.2833 35.1572 95.9991 34.4351 95.9193 33.6278C95.8886 33.3173 95.8893 33.0063 95.8894 32.695C95.8897 30.4497 95.8898 28.2045 95.8895 25.9593C95.8895 25.656 95.8895 25.656 95.5779 25.656C95.0152 25.656 94.4524 25.653 93.8897 25.6583C93.7692 25.6595 93.7183 25.6394 93.7208 25.5003C93.73 24.976 93.7277 24.4515 93.722 23.9271C93.7207 23.8123 93.7547 23.7796 93.8689 23.7805C94.4917 23.7856 95.1146 23.7796 95.7374 23.7858C95.8604 23.787 95.893 23.7533 95.8924 23.6302C95.8874 22.5704 95.8919 21.5106 95.8866 20.4509C95.8859 20.319 95.9136 20.2735 96.055 20.2755C96.634 20.2838 97.2131 20.2838 97.7923 20.2755C97.9346 20.2734 97.9606 20.3202 97.96 20.4512C97.9548 21.5055 97.9597 22.5598 97.9539 23.6141C97.9531 23.7536 97.9959 23.7866 98.1293 23.7858C99.0199 23.7803 99.9105 23.7856 100.801 23.7801C100.932 23.7792 100.98 23.8052 100.977 23.9481C100.968 24.4669 100.97 24.986 100.977 25.5049C100.979 25.6305 100.94 25.6593 100.82 25.6586C99.9238 25.6537 99.0277 25.6598 98.1317 25.6522C97.9827 25.6509 97.9536 25.6953 97.9539 25.8357C97.9584 28.0645 97.9596 30.2934 97.9575 32.5222C97.9577 32.8613 97.9817 33.1982 98.0746 33.5269C98.2679 34.2114 98.7659 34.6049 99.4771 34.6481C99.9871 34.6851 100.496 34.5666 100.938 34.3084C100.956 34.2971 100.976 34.2871 100.995 34.2782C101.006 34.2756 101.018 34.2746 101.029 34.2752Z" fill="white"/>
<path d="M22.4619 19.4615C22.8458 19.2664 23.2287 19.0693 23.6137 18.8766C25.995 17.6842 28.3658 16.4701 30.7633 15.3112C31.8643 14.7791 32.9685 14.9231 33.9575 15.7911C34.3221 16.1112 34.6506 16.4725 34.9945 16.8161C35.9875 17.8083 36.9799 18.8011 37.9717 19.7945C38.0122 19.835 38.073 19.8632 38.0774 19.9325C37.9865 19.9561 37.9196 19.8938 37.852 19.8575C37.3971 19.6134 36.9078 19.5193 36.3985 19.5191C31.8788 19.5176 27.3591 19.5171 22.8394 19.5177C22.7306 19.5177 22.6206 19.5297 22.5132 19.4997C22.4927 19.4923 22.4749 19.479 22.4619 19.4615Z" fill="white"/>
<path d="M22.8589 35.2535C22.5137 34.9111 22.1686 34.5687 21.8236 34.2263C20.8492 33.2531 19.8756 32.2793 18.9027 31.3047C18.3494 30.7489 18.0317 30.0826 18.0013 29.2926C17.9829 28.8141 18.1598 28.3826 18.3601 27.9628C19.1515 26.3047 19.9457 24.648 20.7428 22.9927C21.297 21.8376 21.8512 20.6824 22.4055 19.5273C22.482 19.5492 22.4763 19.6165 22.4823 19.6738C22.4879 19.7555 22.4892 19.8375 22.4862 19.9193C22.4863 24.4557 22.4859 28.9921 22.4851 33.5286C22.485 33.7587 22.5112 33.9862 22.5331 34.2139C22.5616 34.5088 22.6576 34.7931 22.8135 35.045C22.8511 35.1064 22.9131 35.1692 22.8589 35.2535Z" fill="#D8D8D8"/>
<path d="M85.1017 30.1712C85.1017 28.1659 85.1005 26.1606 85.0981 24.1552C85.0977 24.0025 85.1405 23.9634 85.2892 23.9657C85.8301 23.9742 86.3713 23.9733 86.9122 23.966C87.044 23.9642 87.0763 24.0051 87.0747 24.132C87.0681 24.6783 87.0705 25.2248 87.074 25.7712C87.0744 25.828 87.0294 25.9187 87.1237 25.9368C87.2037 25.9521 87.2049 25.8617 87.2275 25.812C87.7196 24.7257 88.6032 24.1185 89.7117 23.7968C90.3659 23.6069 91.0347 23.589 91.7084 23.6803C91.813 23.6945 91.8531 23.7275 91.852 23.8417C91.8457 24.4536 91.8457 25.0656 91.8521 25.6776C91.8535 25.8043 91.8147 25.8128 91.7046 25.7966C90.9294 25.6829 90.1533 25.6585 89.4091 25.9452C88.2145 26.4055 87.5323 27.3061 87.2643 28.5388C87.1898 28.8814 87.1694 29.2305 87.1694 29.5807C87.1696 31.7882 87.1706 33.9957 87.1725 36.2032C87.1727 36.3407 87.1485 36.3897 86.9965 36.387C86.4174 36.3766 85.8379 36.3781 85.2588 36.3862C85.1236 36.3881 85.099 36.3437 85.0992 36.22C85.1028 34.2037 85.1036 32.1875 85.1017 30.1712Z" fill="white"/>
<path d="M39.2148 36.2246C39.3371 36.1982 39.4 36.1038 39.4804 36.0178C40.2028 35.2468 40.8197 34.3833 41.3149 33.4499C41.848 32.4439 42.227 31.3636 42.4393 30.2451C42.5465 29.6969 42.6138 29.1416 42.6405 28.5836C42.6514 28.3502 42.6699 28.1164 42.6642 27.8831C42.6481 27.0419 42.547 26.2046 42.3625 25.3838C42.2528 24.9057 42.1024 24.4406 41.9466 23.9766C41.926 23.9152 41.8705 23.8447 41.9584 23.7871C42.5854 24.4131 43.2124 25.039 43.8394 25.665C43.8635 25.7377 43.8731 25.8145 43.8676 25.8909C43.8675 29.2286 43.8675 32.5664 43.8675 35.9041C43.8675 35.9532 43.8686 36.0025 43.864 36.0515C43.8492 36.2103 43.7989 36.2588 43.6364 36.2712C43.5873 36.2749 43.5381 36.2737 43.4889 36.2737C42.1667 36.2737 40.8445 36.2738 39.5223 36.2738C39.4183 36.2738 39.314 36.2781 39.2196 36.2224L39.2148 36.2246Z" fill="#D8D8D8"/>
<path d="M22.8588 35.2519C22.8673 35.1835 22.816 35.1415 22.7838 35.0933C22.5909 34.8044 22.5048 34.4808 22.468 34.1407C22.4333 33.82 22.4347 33.4982 22.4347 33.1762C22.4346 28.6943 22.4338 24.2124 22.4322 19.7304C22.4322 19.6624 22.4573 19.5882 22.4053 19.5259C22.4076 19.4896 22.4355 19.4759 22.462 19.4609L22.4723 19.4672C22.5279 19.5114 22.6175 19.5298 22.5973 19.6316C22.5974 24.1902 22.5989 28.7488 22.6018 33.3074C22.6031 34.0087 22.641 34.7138 23.0375 35.3356C23.06 35.3709 23.0375 35.3975 23.0261 35.427C22.9604 35.379 22.9038 35.3197 22.8588 35.2519Z" fill="white"/>
<path d="M22.5972 19.6319C22.5555 19.577 22.5138 19.5222 22.4722 19.4674C22.647 19.4665 22.8218 19.4647 22.9966 19.4647C27.3233 19.4646 31.6501 19.4633 35.9768 19.461C36.7177 19.4597 37.4369 19.508 38.0774 19.9321C38.1248 19.9679 38.1904 19.985 38.2039 20.0555C37.9841 19.9977 37.7963 19.8625 37.5756 19.8032C37.3105 19.7293 37.0388 19.6819 36.7644 19.6614C36.7022 19.6297 36.6354 19.6459 36.5711 19.6459C31.9876 19.645 27.4041 19.6445 22.8206 19.6443C22.7559 19.6443 22.6895 19.6582 22.6264 19.6311C22.6167 19.6315 22.6069 19.6318 22.5972 19.6319Z" fill="white"/>
<path d="M39.2197 36.2215C40.6732 36.2206 42.1267 36.2198 43.5801 36.2189C43.8135 36.2187 43.8137 36.2187 43.8137 35.9829C43.8138 32.612 43.8142 29.2411 43.8149 25.8702C43.8149 25.8016 43.7912 25.7278 43.8396 25.6641C43.9454 25.7253 43.9745 25.8161 43.9744 25.9375C43.9716 29.3608 43.9721 32.7841 43.9759 36.2074C43.9761 36.3564 43.9349 36.3848 43.7945 36.3844C42.3146 36.3796 40.8348 36.3821 39.3549 36.3826C39.3099 36.3289 39.2648 36.2752 39.2197 36.2215Z" fill="white"/>
<path d="M26.1646 23.1729C26.3822 23.1222 26.4903 22.9256 26.6497 22.7992C27.1563 22.3974 27.6942 22.0522 28.287 21.7918C28.8104 21.5621 29.3615 21.4014 29.9263 21.3138C30.475 21.2296 31.0319 21.2123 31.5848 21.2622C33.0388 21.3863 34.4122 21.9828 35.4955 22.9605C35.9755 23.3879 36.3926 23.8811 36.7343 24.4255C37.196 25.1625 37.4924 25.9618 37.6554 26.8175C37.7597 27.3918 37.7876 27.9773 37.7382 28.5588C37.6484 29.7469 37.2531 30.8387 36.5809 31.8285C36.3812 32.1225 36.1439 32.3835 35.9166 32.6537C35.8736 32.7028 35.8373 32.7575 35.8086 32.8162C35.2187 32.2262 34.6287 31.6361 34.0388 31.0461C33.9949 30.9333 34.0863 30.8726 34.1414 30.8065C34.3519 30.5622 34.5371 30.2971 34.694 30.0153C34.9908 29.4636 35.1742 28.8813 35.1793 28.2489C35.1832 27.7787 35.1818 27.3115 35.046 26.8527C34.8852 26.2944 34.6113 25.7752 34.2414 25.3273C33.4968 24.4306 32.5384 23.9152 31.3805 23.8116C30.1559 23.702 29.0709 24.0608 28.1461 24.8814C28.0954 24.9264 28.0551 24.9964 27.9685 24.9771C27.3672 24.3757 26.7659 23.7743 26.1646 23.1729Z" fill="#D8D8D8"/>
<path d="M27.9683 24.9766C28.2976 24.6917 28.6343 24.4173 29.0254 24.2178C29.6582 23.8948 30.3263 23.7514 31.0393 23.7539C31.8916 23.7569 32.6607 24.0028 33.3598 24.4694C34.3557 25.1341 34.9758 26.0707 35.1746 27.2437C35.3277 28.1472 35.2419 29.0459 34.8158 29.8854C34.6224 30.2666 34.3695 30.6059 34.0971 30.9322C34.0685 30.9664 34.0401 30.9984 34.0385 31.0455C34.006 31.0167 33.9719 30.9893 33.9411 30.9586C31.979 28.9973 30.0171 27.0356 28.0555 25.0738C28.0248 25.043 27.9973 25.0091 27.9683 24.9766Z" fill="#D8D8D8"/>
<path d="M22.627 19.6308C25.3919 19.6302 28.1568 19.6297 30.9218 19.6293C32.8015 19.629 34.6812 19.6295 36.5609 19.6306C36.6291 19.6306 36.7039 19.6056 36.7649 19.6611C32.1385 19.6613 27.512 19.6615 22.8856 19.6617C22.8091 19.6617 22.7327 19.663 22.6562 19.6637C22.6464 19.6527 22.6367 19.6418 22.627 19.6308Z" fill="white"/>
<path d="M59.1953 27.4801C59.1953 25.2946 59.1942 23.1091 59.1919 20.9236C59.1916 20.7745 59.2285 20.7333 59.3796 20.7344C60.5052 20.7426 61.6313 20.7256 62.7566 20.747C64.0385 20.7712 65.2573 21.0563 66.353 21.7528C67.6597 22.5834 68.4883 23.7683 68.8605 25.2615C69.2356 26.7662 69.2461 28.2834 68.8314 29.7805C68.2071 32.0346 66.7075 33.4072 64.4608 33.9867C63.802 34.1566 63.1274 34.2152 62.4485 34.2174C61.4211 34.2206 60.3937 34.2141 59.3665 34.2225C59.2108 34.2237 59.1924 34.1707 59.1926 34.0367C59.1964 31.8512 59.1973 29.6657 59.1953 27.4801Z" fill="#0B0B11"/>
<path d="M76.9488 34.7481C76.2483 34.7438 75.5538 34.5568 74.9787 34.0444C74.0104 33.1816 74.0566 31.5771 75.0607 30.7101C75.546 30.291 76.1203 30.086 76.7394 30.0003C78.0107 29.8243 79.2415 29.9709 80.4152 30.5116C80.4696 30.5367 80.5249 30.5609 80.5767 30.5909C81.0369 30.8568 80.9697 30.7089 80.9239 31.2385C80.7726 32.9866 79.2506 34.524 77.5097 34.7185C77.3408 34.7374 77.1725 34.7441 76.9488 34.7481Z" fill="#0B0B11"/>
</svg>
