<svg width="120" height="56" viewBox="0 0 120 56" fill="none" xmlns="http://www.w3.org/2000/svg">
<path d="M94.8262 26.3727C94.84 26.5781 94.8656 26.7836 94.8657 26.989C94.8679 32.5837 94.8597 38.1785 94.8796 43.7731C94.8816 44.3279 94.7791 44.5011 94.214 44.5006C70.9935 44.4835 47.773 44.4798 24.5525 44.4894C24.1647 44.4894 23.8794 44.5397 23.8823 43.9163C23.9094 38.1836 23.8982 32.4507 23.8997 26.7178C23.8998 26.6038 23.9194 26.4898 23.9299 26.3757C24.1582 26.1839 24.4297 26.2401 24.6866 26.2401C47.8134 26.2375 70.9402 26.2373 94.067 26.2396C94.3251 26.2396 94.5948 26.1918 94.8262 26.3727Z" fill="white"/>
<path d="M63.5334 19.0026V12.8801C63.5334 11.5551 63.5337 11.5806 64.8139 11.5622C65.2687 11.5557 65.3389 11.7237 65.337 12.1478C65.3223 15.4161 65.3231 18.6846 65.3395 21.953C65.3424 22.4169 65.1954 22.4695 64.7955 22.5241C63.7979 22.6605 63.2589 22.264 62.7861 21.3119C61.6681 19.0601 60.4076 16.8869 59.2001 14.6736C58.9375 14.8329 59.0501 15.0643 59.0493 15.2442C59.0402 17.4539 59.0261 19.6638 59.056 21.873C59.0632 22.3993 58.9223 22.5289 58.4374 22.516C57.2728 22.4849 57.2722 22.5121 57.2722 21.2906C57.2722 18.2523 57.2823 15.214 57.2618 12.1758C57.2585 11.6942 57.394 11.6062 57.8374 11.5533C58.8907 11.4276 59.5157 11.7876 60.0243 12.8287C61.0582 14.9451 62.2538 16.9736 63.3827 19.0383L63.5334 19.0026Z" fill="white"/>
<path d="M31.6721 22.4687C29.5928 22.5978 29.5939 22.5973 28.8047 20.728C28.5127 20.0362 28.1829 19.3599 27.9293 18.653C27.7367 18.1164 27.4391 17.9464 26.9016 17.9683C25.7886 18.0135 25.7874 17.981 25.7874 19.1279C25.7874 20.0712 25.7707 21.0151 25.7953 21.9578C25.8057 22.3607 25.723 22.5127 25.2988 22.5149C23.8976 22.5221 23.8977 22.5431 23.8977 21.0629C23.8977 18.1178 23.9141 15.1724 23.8834 12.2276C23.8775 11.6596 24.0483 11.5494 24.5399 11.5637C25.7604 11.599 26.9824 11.5652 28.2037 11.5776C30.4728 11.6006 31.7384 13.2806 31.2469 15.6271C31.0722 16.4607 30.6238 17.1036 29.847 17.4052C29.4631 17.5542 29.4223 17.695 29.6088 18.0771C30.3044 19.5018 30.9615 20.9475 31.6721 22.4687Z" fill="white"/>
<path d="M33.8617 16.9766C33.8617 15.365 33.8771 13.7531 33.8519 12.142C33.8448 11.6891 33.9671 11.5608 34.3967 11.5662C36.2951 11.5901 38.1942 11.5969 40.0922 11.5629C40.5944 11.5539 40.771 11.7096 40.688 12.2166C40.6774 12.285 40.6774 12.3548 40.6878 12.4233C40.7768 13.022 40.6025 13.2637 39.9669 13.2319C38.7476 13.1708 37.5232 13.232 36.3017 13.2044C35.8807 13.1948 35.712 13.3056 35.742 13.7757C35.7757 14.3504 35.7761 14.9266 35.7432 15.5014C35.7219 15.9088 35.8706 16.0082 36.2324 15.9979C37.0828 15.9737 37.9352 16.0141 38.7851 15.9803C39.2213 15.9629 39.3931 16.0619 39.3789 16.5718C39.349 17.649 39.3782 17.6499 38.3348 17.6499C37.6583 17.6499 36.9809 17.6714 36.3056 17.6418C35.9028 17.6242 35.7112 17.7073 35.74 18.1973C35.7779 18.9101 35.7786 19.6245 35.7419 20.3373C35.7216 20.78 35.8844 20.8748 36.2699 20.8686C37.6008 20.8472 38.9329 20.8857 40.2631 20.8473C40.7555 20.8331 40.9472 20.972 40.871 21.4943C40.8476 21.7004 40.847 21.9086 40.869 22.1148C40.8918 22.413 40.781 22.5104 40.4959 22.509C38.4227 22.4986 36.3494 22.4908 34.2764 22.5134C33.8283 22.5183 33.8585 22.2636 33.8594 21.9495C33.8643 20.2919 33.8617 18.6342 33.8617 16.9766Z" fill="white"/>
<path d="M94.905 11.5753C94.2776 13.7473 93.673 15.8543 93.0599 17.9586C92.6827 19.2535 92.2729 20.5382 91.9188 21.84C91.7856 22.3294 91.5978 22.531 91.0784 22.5179C89.5332 22.4791 89.5382 22.5053 89.0918 20.9644C88.2396 18.0226 87.3909 15.0795 86.513 12.1463C86.3735 11.6801 86.4135 11.56 86.8983 11.5638C88.1888 11.574 88.1893 11.5516 88.5571 12.8845C89.2243 15.3027 89.891 17.721 90.5642 20.1619C90.8208 20.0736 90.8046 19.8343 90.8526 19.6596C91.5372 17.1683 92.2335 14.6801 92.8749 12.1764C93.0098 11.6497 93.2389 11.5318 93.689 11.5687C94.0749 11.6004 94.465 11.5753 94.905 11.5753Z" fill="white"/>
<path d="M43.3856 17.0404C43.3856 15.4055 43.4017 13.7702 43.3753 12.1357C43.3678 11.6746 43.5018 11.5598 43.9252 11.5652C45.7585 11.5886 47.5925 11.5936 49.4255 11.5628C49.9048 11.5547 50.0512 11.723 49.9837 12.189C49.9671 12.3032 49.9672 12.4194 49.9837 12.5336C50.0635 13.0654 49.8844 13.2477 49.3512 13.227C48.1741 13.1813 46.9938 13.2335 45.8158 13.2022C45.3723 13.1905 45.2479 13.3501 45.2721 13.7937C45.3035 14.3675 45.296 14.9453 45.2739 15.52C45.26 15.8811 45.3788 16.004 45.723 15.9956C46.5739 15.9748 47.426 16.0066 48.2765 15.9808C48.6557 15.9693 48.81 16.0496 48.8069 16.5024C48.7991 17.6484 48.8238 17.6486 47.758 17.6486C47.125 17.6486 46.4887 17.6904 45.8599 17.6358C45.3295 17.5898 45.2578 17.8228 45.2697 18.3046C45.2999 19.5242 45.2635 20.7456 45.2886 21.9655C45.2972 22.3848 45.1915 22.5122 44.7805 22.514C43.3855 22.5203 43.3856 22.5394 43.3856 21.0473C43.3856 19.7116 43.3856 18.376 43.3856 17.0404Z" fill="white"/>
<path d="M77.2889 17.8743C77.2889 19.2324 77.2783 20.5906 77.2956 21.9485C77.3005 22.3323 77.2554 22.5145 76.8128 22.5159C75.4006 22.5202 75.4007 22.5438 75.4007 21.0662C75.4007 18.6492 75.3884 16.2321 75.4109 13.8154C75.4154 13.3244 75.2707 13.1727 74.8182 13.2038C74.275 13.2411 73.7267 13.1903 73.1827 13.2202C72.8059 13.241 72.6471 13.1627 72.6509 12.7049C72.6604 11.5752 72.6346 11.575 73.6972 11.575C75.5954 11.575 77.4939 11.589 79.3919 11.5648C79.8448 11.559 80.0518 11.6237 80.0289 12.1854C79.9871 13.2109 80.0238 13.2021 79.0603 13.2166C78.4965 13.2251 77.7574 12.9629 77.4151 13.3186C77.0403 13.7079 77.3089 14.4979 77.2945 15.1122C77.2729 16.0324 77.2889 16.9535 77.2889 17.8743Z" fill="white"/>
<path d="M54.0827 17.0505C54.0827 18.6617 54.0586 20.2736 54.0963 21.8838C54.1088 22.4201 53.9508 22.5274 53.476 22.5158C52.2302 22.4853 52.2296 22.51 52.2296 21.1721C52.2296 18.2029 52.2398 15.2336 52.2198 12.2646C52.2165 11.76 52.2869 11.5399 52.8431 11.5598C54.0816 11.6042 54.0827 11.5682 54.0827 12.9074L54.0827 17.0505Z" fill="white"/>
<path d="M68.4754 16.9759C68.4755 15.3675 68.4889 13.7589 68.4666 12.1509C68.4605 11.7147 68.5568 11.5622 69.0005 11.5645C70.3449 11.5715 70.345 11.5494 70.345 12.9352C70.345 15.8992 70.3338 18.8633 70.3556 21.8271C70.3594 22.3431 70.2651 22.5377 69.7261 22.5195C68.4764 22.4774 68.4754 22.5104 68.4754 21.1806C68.4754 19.7791 68.4754 18.3775 68.4754 16.9759Z" fill="white"/>
<path d="M84.1962 17.0651C84.1962 18.6753 84.1801 20.2858 84.2064 21.8955C84.2139 22.3564 84.1301 22.5259 83.6487 22.5164C82.32 22.4903 82.3196 22.5167 82.3196 21.1188C82.3196 18.1514 82.3313 15.184 82.3082 12.2168C82.3043 11.7111 82.41 11.5487 82.9141 11.5612C84.1956 11.593 84.1962 11.5643 84.1962 12.9246V17.0651Z" fill="white"/>
<path d="M23.9292 26.2398C24.1176 25.9993 24.3768 26.1053 24.6027 26.1053C47.7788 26.1001 70.9549 26.0999 94.131 26.1047C94.3595 26.1048 94.6151 26.0091 94.8125 26.2285C94.6127 26.3704 94.3876 26.3024 94.1752 26.3024C70.974 26.3059 47.7727 26.3061 24.5715 26.303C24.3574 26.3029 24.1343 26.3597 23.9292 26.2398Z" fill="#B6BFFE"/>
<path d="M23.9292 26.2379C47.2734 26.2375 70.6177 26.237 93.9619 26.2363C94.2454 26.2363 94.529 26.23 94.8125 26.2266C94.8172 26.2751 94.8219 26.3236 94.8266 26.3721C71.1945 26.3731 47.5624 26.3741 23.9303 26.3751L23.9292 26.2379Z" fill="#1430FE"/>
<path d="M40.2472 36.5845C39.3982 37.8303 38.5704 38.9853 37.8104 40.188C37.4791 40.7123 37.1098 40.934 36.5247 40.8676C36.1105 40.8414 35.6953 40.8384 35.2809 40.8587C35.1887 40.5274 35.436 40.3794 35.5637 40.1929C36.5983 38.6819 37.6331 37.1706 38.6964 35.6822C38.9493 35.3283 38.9636 35.0956 38.708 34.733C37.6035 33.166 36.5311 31.5739 35.3509 29.8506C36.1352 29.8506 36.7945 29.8434 37.4534 29.8544C37.6891 29.8583 37.7505 30.1037 37.859 30.2645C38.5295 31.2578 39.2107 32.2442 39.8483 33.2608C40.1403 33.7264 40.3027 33.8319 40.6341 33.2852C41.233 32.2973 41.9166 31.3669 42.5245 30.3848C42.7813 29.97 43.0658 29.7887 43.537 29.8326C44.0104 29.8767 44.4904 29.8423 44.9712 29.8423C45.0446 30.1789 44.8112 30.3328 44.6826 30.5228C43.7444 31.9085 42.8128 33.3 41.8389 34.6576C41.5429 35.0702 41.5768 35.3405 41.8543 35.7312C42.9267 37.2413 43.9695 38.7747 45.017 40.3043C45.1125 40.4438 45.3171 40.5808 45.223 40.77C45.1286 40.96 44.9053 40.8237 44.7423 40.858C43.5976 41.0989 42.8369 40.6333 42.248 39.5647C41.683 38.5394 40.9504 37.617 40.2472 36.5845Z" fill="#0B0B11"/>
<path d="M27.3823 35.2968C27.3823 33.6617 27.3926 32.0264 27.3751 30.3914C27.3707 29.98 27.4778 29.8301 27.8895 29.8341C29.9414 29.8538 31.9935 29.8543 34.0456 29.8354C34.4315 29.8324 34.6272 29.9327 34.5746 30.3722C34.554 30.5324 34.5542 30.6948 34.575 30.8549C34.6511 31.3909 34.465 31.5658 33.9367 31.5502C32.5624 31.5097 31.1862 31.5509 29.8112 31.5279C29.3962 31.521 29.2175 31.6238 29.2505 32.1008C29.2901 32.6753 29.2901 33.2521 29.2505 33.8266C29.2174 34.3051 29.4015 34.3967 29.8107 34.3896C31.1638 34.3661 32.5179 34.3998 33.8708 34.37C34.3178 34.3601 34.4721 34.4726 34.4612 34.9722C34.4367 36.0997 34.4636 36.1004 33.3826 36.1004C32.2037 36.1004 31.0245 36.1194 29.8463 36.0907C29.4029 36.0799 29.2352 36.197 29.2491 36.6974C29.2823 37.894 29.2408 39.0927 29.2692 40.2896C29.2803 40.7565 29.1232 40.8683 28.7047 40.8698C27.3822 40.8746 27.3822 40.8919 27.3822 39.5114C27.3823 38.1065 27.3823 36.7017 27.3823 35.2968Z" fill="#0B0B11"/>
<path d="M51.0165 36.6129C51.237 34.5518 49.975 33.6124 48.1571 34.4284C47.9777 34.509 47.8185 34.639 47.6403 34.7233C47.4341 34.8207 47.2674 35.2232 47.0606 35.0325C46.7956 34.7882 46.6362 34.4014 46.474 34.0539C46.3916 33.8773 46.5926 33.7852 46.7035 33.6839C47.8348 32.6499 50.0631 32.3537 51.4081 33.0503C52.337 33.5315 52.728 34.3679 52.7452 35.4019C52.7729 37.0578 52.7429 38.7147 52.7624 40.3708C52.7673 40.7854 52.6074 40.8959 52.2584 40.8614C52.0843 40.8474 51.9095 40.847 51.7354 40.8601C51.3092 40.8846 50.8925 40.9057 51.1185 40.0846C50.1171 40.8969 49.1382 41.1996 48.053 40.9779C47.4434 40.8676 46.8944 40.5221 46.5128 40.0085C45.8227 39.0729 45.8612 37.5323 46.5909 36.6839C47.5758 35.5387 49.2709 35.4971 51.0165 36.6129Z" fill="#0B0B11"/>
<path d="M56.538 35.3661C56.5379 36.9982 56.5264 38.6304 56.5458 40.2622C56.5508 40.6852 56.4772 40.8726 56.0182 40.8712C54.8524 40.8678 54.8524 40.8931 54.8524 39.6426C54.8524 36.5854 54.8654 33.528 54.8399 30.471C54.8355 29.9423 54.9808 29.8154 55.4619 29.8291C56.5373 29.8598 56.538 29.8323 56.538 30.9526C56.538 32.4238 56.538 33.8949 56.538 35.3661Z" fill="#0B0B11"/>
<path d="M60.2715 35.3598C60.2715 36.9721 60.2549 38.5847 60.2814 40.1965C60.2896 40.69 60.1909 40.8878 59.6748 40.8726C58.6163 40.8416 58.6154 40.8739 58.6154 39.7264C58.6154 36.686 58.6366 33.6454 58.5989 30.6055C58.5906 29.9412 58.796 29.7477 59.3681 29.84C59.4764 29.8569 59.5865 29.8569 59.6949 29.84C60.1559 29.7682 60.2885 29.9742 60.2811 30.4539C60.256 32.0888 60.2715 33.7244 60.2715 35.3598Z" fill="#0B0B11"/>
<path d="M25.7873 14.7304C25.7872 13.1213 25.7872 13.1217 27.3056 13.1215C27.6744 13.1214 28.0416 13.1091 28.4018 13.2315C29.129 13.4786 29.4793 14.0387 29.4409 14.9209C29.4083 15.6725 29.0404 16.1163 28.3118 16.3017C27.5824 16.4874 26.8412 16.3975 26.1048 16.4239C25.8314 16.4338 25.7814 16.2765 25.7854 16.0369C25.7925 15.6015 25.7874 15.1659 25.7873 14.7304Z" fill="#0B0B11"/>
<path d="M51.0701 38.4031C51.071 39.3187 50.443 39.8268 49.3156 39.8226C48.3596 39.819 47.6775 39.2238 47.6926 38.4064C47.7078 37.5886 48.4043 37.0011 49.3459 37.0119C50.4277 37.0242 51.0693 37.5419 51.0701 38.4031Z" fill="white"/>
</svg>
