<svg width="66" height="69" viewBox="0 0 66 69" fill="none" xmlns="http://www.w3.org/2000/svg">
<path fill-rule="evenodd" clip-rule="evenodd" d="M18.2337 68.8318V50.0287H23.1892V63.0266C37.8136 66.5602 52.3176 59.6197 58.2395 46.6215C59.9317 42.962 60.6568 39.0499 60.7779 35.0117C60.8583 28.6229 60.8316 22.2901 60.8046 15.9384C60.7911 12.7555 60.7779 9.56742 60.7779 6.36582C60.7779 6.1134 60.7779 5.86097 60.6568 5.35612H46.7575V0.0560637H65.975V2.45381C65.975 5.5246 65.9615 8.59509 65.948 11.6659C65.9213 17.8074 65.8943 23.9487 65.975 30.0903C66.0958 36.0211 65.8542 41.9523 63.5577 47.505C57.8771 60.6291 48.2081 67.9483 34.3088 68.8318C30.8653 69.0825 27.369 69.0011 23.7843 68.9174C21.9587 68.8749 20.1099 68.8318 18.2337 68.8318ZM5.05957 68.8318H0.224927C0.224927 68.4359 0.191928 68.04 0.160649 67.6622C0.131667 67.3175 0.104119 66.9875 0.104119 66.6862C0.104119 63.9894 0.117607 61.3068 0.131094 58.6287C0.158068 53.2864 0.184754 47.963 0.104119 42.5833C0.0946493 42.1564 0.0843194 41.73 0.0742759 41.3045C-0.0456719 36.3227 -0.163325 31.4398 0.950353 26.5569C2.64684 19.1113 6.6671 12.4663 12.3784 7.66849C18.0894 2.87069 25.1666 0.192626 32.4958 0.0560637C34.7429 -0.0275987 36.9904 -0.000286519 39.2731 0.027601C40.4278 0.041976 41.5917 0.0560637 42.7691 0.0560637V5.48234C41.8784 5.48234 41.0009 5.49671 40.1279 5.5108C38.3959 5.53868 36.6813 5.56629 34.9131 5.48234C18.5965 4.59914 3.97172 18.1019 5.18038 38.6713C5.59876 45.4859 5.49575 52.3002 5.39302 59.1148C5.3471 62.1434 5.30148 65.1719 5.30148 68.2007C5.18038 68.3269 5.05957 68.5793 5.05957 68.8318ZM57.0305 9.64706V29.5857C57.0305 32.8667 57.0305 36.1476 56.5473 39.3027C54.8551 50.1552 45.1861 58.9886 34.5501 59.3673C33.0235 59.4512 31.4435 59.4236 29.8454 59.3955C29.0399 59.3817 28.2293 59.3673 27.4192 59.3673V50.1552H32.3744C32.4349 50.786 32.4654 51.417 32.4952 52.0481C32.5256 52.6792 32.556 53.3099 32.6163 53.941C37.3298 54.1934 41.3185 52.6792 44.8234 49.7766C49.5373 45.8646 51.9546 40.6904 51.9546 34.381C52.0352 30.5017 52.0082 26.6222 51.981 22.7803C51.9678 20.8736 51.9546 18.9761 51.9546 17.0924C51.9546 16.4614 51.9546 15.7044 51.8335 14.9471H46.9991V9.64706H57.0305ZM42.7688 14.8209H33.583C25.0019 14.9471 19.0794 19.2378 15.5745 27.3142C15.2557 28.0629 15.0947 28.8115 14.918 29.6326C14.8267 30.057 14.7312 30.5009 14.6075 30.9735H32.1328V36.4001H9.04769C8.81985 33.0728 9.22589 29.7312 10.2423 26.569C11.259 23.4065 12.8659 20.4858 14.9702 17.9759C22.3427 8.88978 32.3744 8.76357 42.7688 9.52085V14.8209ZM32.2536 40.5645H9.2896V68.7056H14.3659V45.8646H32.2536V40.5645Z" fill="#ECEDFF" fill-opacity="0.1"/>
</svg>
