<svg width="120" height="56" viewBox="0 0 120 56" fill="none" xmlns="http://www.w3.org/2000/svg">
<path d="M34.9753 15.054C34.9252 15.0893 34.8772 15.1276 34.8315 15.1685C29.9536 20.0422 25.0761 24.9163 20.1989 29.7907C19.4934 30.4955 18.781 31.1933 18.0765 31.8991C17.9886 31.9873 17.944 31.9967 17.8504 31.9026C16.5957 30.6394 15.3375 29.3797 14.076 28.1233C13.9826 28.0303 13.969 27.9809 14.0707 27.8793C18.3303 23.6248 22.5875 19.3679 26.8423 15.1087C26.872 15.0748 26.9086 15.0477 26.9498 15.0294C26.9909 15.0111 27.0356 15.0019 27.0806 15.0026C29.6689 15.0037 32.2572 15.0029 34.8455 15C34.8802 15 34.9149 15.0037 34.9496 15.0057L34.9753 15.054Z" fill="white"/>
<path d="M94.2065 30.7574C92.8299 30.7574 91.4533 30.7574 90.0767 30.7573C89.9918 30.7573 89.9044 30.7364 89.9207 30.8809C89.9777 31.6027 90.2086 32.3001 90.5938 32.9132C91.881 34.8475 94.9362 35.1425 96.4793 32.975C96.5218 32.9153 96.5644 32.8555 96.6049 32.7944C96.7789 32.5314 96.7795 32.5295 97.0582 32.6622C97.4388 32.8433 97.8157 33.0324 98.1992 33.2073C98.309 33.2574 98.3109 33.2997 98.2555 33.3936C97.3976 34.8484 96.1827 35.7909 94.4807 36.0483C93.607 36.1805 92.7346 36.2097 91.8817 35.955C90.3882 35.5091 89.3382 34.5365 88.6733 33.1425C88.1649 32.0764 88.0473 30.9425 88.1455 29.7786C88.2217 28.6742 88.6073 27.6136 89.258 26.718C89.6843 26.1052 90.2471 25.5998 90.902 25.2416C91.557 24.8834 92.2862 24.6822 93.0321 24.6538C94.2704 24.5849 95.4321 24.8267 96.4485 25.5712C97.5762 26.3972 98.2015 27.5334 98.44 28.8971C98.5115 29.449 98.5355 30.0061 98.5117 30.5621C98.5121 30.7116 98.4727 30.7569 98.3178 30.7562C96.9474 30.7499 95.5769 30.7525 94.2065 30.7525L94.2065 30.7574Z" fill="white"/>
<path d="M46.3025 28.3042C46.3025 25.9 46.3025 23.4958 46.3025 21.0916C46.3025 20.646 46.3026 20.6459 46.7501 20.646C49.4668 20.6468 52.1834 20.6463 54.9001 20.6445C55.071 20.6442 55.1131 20.6921 55.1088 20.8572C55.0972 21.3035 55.0986 21.7504 55.108 22.1968C55.111 22.342 55.0698 22.3798 54.925 22.3795C52.808 22.3755 50.6909 22.3752 48.5739 22.3787C48.0675 22.379 48.0938 22.3239 48.0945 22.8492C48.0966 24.3296 48.0983 25.8101 48.0996 27.2905C48.0999 27.5165 48.1411 27.5564 48.3674 27.5563C50.3131 27.5559 52.2588 27.5576 54.2045 27.5511C54.3721 27.5505 54.42 27.5931 54.4153 27.7617C54.403 28.2018 54.4038 28.6427 54.415 29.0828C54.4191 29.2421 54.38 29.287 54.2149 29.2863C52.3427 29.2793 50.4704 29.2812 48.5981 29.2804C48.0967 29.2801 48.0965 29.2795 48.0955 29.7831C48.0917 31.7346 48.088 33.686 48.0843 35.6375C48.0839 35.8698 48.0836 35.8675 47.8432 35.8657C47.4027 35.8624 46.962 35.8536 46.5218 35.8646C46.3483 35.8689 46.2983 35.8261 46.2988 35.6452C46.3055 33.1982 46.307 30.7512 46.3033 28.3042L46.3025 28.3042Z" fill="white"/>
<path d="M69.2059 34.3013C68.9972 34.5386 68.8309 34.7425 68.6492 34.9315C67.986 35.6128 67.1068 36.0426 66.1619 36.1474C65.5413 36.2297 64.9107 36.1887 64.306 36.027C63.0227 35.6929 62.2521 34.8322 61.8632 33.5985C61.6814 32.988 61.5945 32.3533 61.6054 31.7164C61.6056 29.5751 61.6101 27.4338 61.6188 25.2925C61.6195 24.9882 61.6209 24.9886 61.9187 24.9895C62.3532 24.9908 62.7876 24.9883 63.222 24.9937C63.4649 24.9967 63.4651 25.0024 63.4645 25.2397C63.459 27.3075 63.4536 29.3753 63.4485 31.4431C63.4316 31.9451 63.4972 32.4465 63.6429 32.9272C63.7891 33.3648 64.0626 33.7488 64.4286 34.0299C64.7945 34.3109 65.2361 34.4762 65.6966 34.5045C67.8297 34.6965 69.11 32.7859 69.1062 31.3081C69.1011 29.271 69.1224 27.2338 69.1233 25.1966C69.1234 25.0126 69.1777 24.9764 69.3485 24.9808C69.8377 24.9936 70.3275 24.9909 70.8169 24.9855C70.9372 24.9842 70.9704 25.019 70.9702 25.139C70.9648 28.6508 70.9626 32.1625 70.9635 35.6742C70.9635 35.8108 70.9263 35.8543 70.7881 35.8508C70.3111 35.8388 69.834 35.8342 69.3568 35.8368C69.235 35.8373 69.2018 35.7984 69.2035 35.6801C69.2096 35.2358 69.2059 34.7913 69.2059 34.3013Z" fill="white"/>
<path d="M23.9268 30.0196C24.6989 29.244 25.471 28.4685 26.2431 27.693C26.4417 27.4936 26.6426 27.2966 26.8391 27.0952C26.874 27.0569 26.9167 27.0265 26.9643 27.0061C27.0119 26.9856 27.0634 26.9756 27.1152 26.9766C29.7089 26.9782 32.3026 26.979 34.8964 26.9791C34.913 26.9791 34.9296 26.9846 34.9965 27.04C34.9336 27.0738 34.8742 27.1136 34.8192 27.159C32.5896 29.3844 30.3613 31.6111 28.1344 33.8391C28.0848 33.8887 28.0105 33.9238 28.0077 34.0096C28.0046 34.0176 27.9988 34.0242 27.9912 34.0281C27.9836 34.0321 27.9749 34.0331 27.9666 34.031C27.6846 33.7436 27.4003 33.4584 27.1137 33.1754C26.0621 32.1379 25.001 31.1103 23.9581 30.0641C23.9449 30.0514 23.9343 30.0362 23.9268 30.0196Z" fill="white"/>
<path d="M27.9679 34.025C27.9813 34.0199 27.9946 34.0148 28.008 34.0098C28.4163 34.4143 28.8264 34.8171 29.2327 35.2236C31.0971 37.0889 32.9612 38.9545 34.825 40.8204C34.8756 40.8643 34.9295 40.9044 34.9862 40.9403L34.9581 40.9956C34.8949 40.9956 34.8317 40.9956 34.7684 40.9956C32.2227 40.9962 29.677 40.9974 27.1313 40.9994C27.0798 41.0024 27.0283 40.9945 26.9801 40.9761C26.932 40.9576 26.8883 40.9292 26.852 40.8926C25.8971 39.9353 24.9417 38.9784 23.9858 38.0221C23.9787 38.0124 23.9732 38.0018 23.9692 37.9904C23.9794 37.9095 24.0447 37.8672 24.0953 37.8164C24.5265 37.3833 24.9465 36.938 25.3941 36.5225C26.2231 35.7529 26.9982 34.9296 27.8078 34.1409C27.8552 34.0948 27.8952 34.0368 27.9679 34.025Z" fill="white"/>
<path d="M87.0553 34.1221C87.0553 34.6982 87.0531 35.2481 87.0574 35.7979C87.0581 35.8973 86.9976 35.9183 86.9274 35.9453C86.387 36.1469 85.8084 36.2251 85.2339 36.1743C84.7626 36.1433 84.3041 36.0076 83.8918 35.777C83.0412 35.2991 82.6356 34.5416 82.5373 33.5974C82.518 33.3843 82.5097 33.1703 82.5123 32.9564C82.5106 30.9317 82.5117 28.907 82.5156 26.8822C82.5162 26.7008 82.4641 26.6586 82.2904 26.6627C81.7951 26.6746 81.2993 26.6637 80.8038 26.6692C80.6845 26.6705 80.6446 26.6349 80.6466 26.5132C80.6538 26.0545 80.655 25.5958 80.6501 25.137C80.6489 25.0185 80.6824 24.9801 80.8044 24.9821C81.3121 24.9906 81.8201 24.9833 82.3276 24.9945C82.4679 24.9976 82.4984 24.9552 82.5029 24.8216C82.5249 24.1734 82.5254 23.5255 82.512 22.8772C82.5064 22.6084 82.5255 22.3392 82.5237 22.0703C82.523 21.9544 82.5536 21.911 82.6787 21.9142C83.1858 21.9271 83.693 21.9331 84.2004 21.9322C84.341 21.9317 84.3753 21.9821 84.3745 22.1143C84.37 22.8972 84.3728 23.6802 84.3739 24.4632C84.3741 24.5671 84.386 24.6715 84.3795 24.7749C84.3689 24.9453 84.4309 24.9987 84.6093 24.9955C85.331 24.9825 86.0531 24.9938 86.7749 24.9822C86.9433 24.9795 86.9776 25.0321 86.974 25.1885C86.9644 25.6103 86.9655 26.0323 86.9774 26.4545C86.9814 26.6034 86.9444 26.6478 86.7892 26.6533C86.0491 26.6797 85.3092 26.6709 84.5695 26.65C84.4176 26.6458 84.3741 26.6892 84.3743 26.8429C84.3774 28.8432 84.3765 30.8434 84.3715 32.8437C84.3739 33.0331 84.395 33.2218 84.4344 33.407C84.5965 34.2285 85.2674 34.5217 85.9526 34.4783C86.1415 34.4637 86.328 34.4257 86.5076 34.3652C86.6949 34.2953 86.8778 34.2141 87.0553 34.1221Z" fill="white"/>
<path d="M79.373 34.1503C79.373 34.7088 79.3695 35.2471 79.3759 35.7853C79.3772 35.8995 79.3142 35.931 79.2308 35.9624C78.7524 36.1366 78.2435 36.2117 77.7352 36.1832C77.0126 36.1746 76.3163 35.9115 75.7686 35.4402C75.5128 35.2156 75.3041 34.9424 75.1547 34.6365C75.0053 34.3307 74.9181 33.9982 74.8982 33.6583C74.8679 33.3169 74.8817 32.9741 74.8818 32.6315C74.8822 30.7164 74.8734 28.8013 74.8755 26.8862C74.8757 26.7142 74.8227 26.6672 74.6579 26.6684C74.1444 26.672 73.6308 26.6581 73.1173 26.6588C72.994 26.659 72.947 26.6284 72.9498 26.4958C72.9595 26.0432 72.9595 25.5903 72.9569 25.1376C72.9561 25.0182 72.9966 24.9823 73.1169 24.9836C73.6186 24.9889 74.1204 24.988 74.6222 24.9809C74.8725 24.9776 74.8719 24.9703 74.8731 24.7257C74.8775 23.8508 74.8856 22.9759 74.8835 22.101C74.8832 21.9565 74.9227 21.9127 75.0681 21.9162C75.5573 21.9281 76.0467 21.9319 76.5363 21.9276C76.6702 21.9264 76.6972 21.974 76.6966 22.0969C76.6925 22.978 76.6951 23.8591 76.6956 24.7402C76.6958 24.9881 76.6957 24.9884 76.9521 24.9893C77.6681 24.9916 78.3841 24.9909 79.1 24.9973C79.3474 24.9995 79.3454 25.0075 79.3438 25.2544C79.3411 25.6582 79.3295 26.0625 79.3455 26.4656C79.3525 26.6421 79.2783 26.6687 79.1365 26.6675C78.3901 26.6614 77.6435 26.6641 76.8973 26.6501C76.7334 26.6471 76.6945 26.6891 76.6949 26.8509C76.6996 28.7905 76.6996 30.7302 76.6949 32.6698C76.6912 32.9452 76.726 33.2197 76.7983 33.4855C76.8794 33.8031 77.0743 34.08 77.346 34.2634C77.6177 34.4469 77.9474 34.5243 78.2723 34.4808C78.4616 34.4683 78.6484 34.4315 78.8283 34.3713C79.0045 34.3059 79.177 34.2303 79.373 34.1503Z" fill="white"/>
<path d="M27.9683 34.0248C27.9197 34.0791 27.8737 34.1361 27.822 34.1873C26.5749 35.4234 25.3273 36.659 24.0792 37.8941C24.0448 37.9282 24.0063 37.9583 23.9696 37.9903C23.9282 37.9552 23.8841 37.9227 23.8458 37.8845C22.5882 36.6274 21.3309 35.37 20.0739 34.1123C20.0053 34.0437 19.9285 33.9992 20.0431 33.8854C21.3314 32.6071 22.6162 31.3255 23.8977 30.0404C23.9069 30.0326 23.9169 30.0256 23.9274 30.0195C24.012 30.0216 24.0524 30.09 24.1029 30.1403C24.6435 30.6787 25.1743 31.2273 25.7248 31.7553C26.4426 32.4435 27.145 33.1469 27.8482 33.8497C27.8984 33.8998 27.9685 33.9391 27.9683 34.0248Z" fill="white"/>
<path d="M102.418 26.7168C102.656 26.1659 103.042 25.6921 103.533 25.3484C104.5 24.6798 105.547 24.4722 106.686 24.8221C106.717 24.826 106.747 24.8361 106.774 24.8518C106.8 24.8674 106.824 24.8882 106.842 24.9131C106.861 24.9379 106.874 24.9662 106.881 24.9962C106.889 25.0263 106.89 25.0576 106.885 25.0881C106.872 25.614 106.875 26.1405 106.883 26.6666C106.885 26.8134 106.858 26.8452 106.713 26.79C106.236 26.5948 105.723 26.5052 105.208 26.5274C104.295 26.5841 103.623 27.0555 103.106 27.7727C102.696 28.3294 102.476 29.0025 102.476 29.6936C102.472 31.6941 102.474 33.6946 102.481 35.6952C102.481 35.8038 102.474 35.8615 102.34 35.8602C101.82 35.8554 101.3 35.8565 100.78 35.8677C100.611 35.8713 100.647 35.7656 100.646 35.6747C100.643 34.1205 100.64 32.5664 100.639 31.0123C100.639 29.0788 100.645 27.1453 100.642 25.2119C100.642 25.0479 100.678 24.9906 100.853 24.9977C101.299 25.0157 101.746 25.0196 102.192 25.0137C102.349 25.0116 102.398 25.0702 102.393 25.2126C102.383 25.5304 102.375 25.8483 102.369 26.1662C102.36 26.3511 102.377 26.5363 102.418 26.7168Z" fill="white"/>
<path d="M59.0238 28.2385C59.0238 30.7037 59.0251 33.169 59.0276 35.6342C59.028 35.8141 58.9754 35.8608 58.8005 35.853C58.3486 35.8262 57.8956 35.8262 57.4437 35.8529C57.2746 35.8653 57.2295 35.7982 57.2334 35.6468C57.2389 35.4329 57.2335 35.2187 57.2335 35.0046C57.2337 30.2943 57.2326 25.584 57.23 20.8737C57.2298 20.6896 57.2714 20.6368 57.4588 20.6431C57.911 20.6581 58.3643 20.6562 58.8168 20.6437C58.9896 20.6389 59.0409 20.679 59.0403 20.8611C59.0331 22.8492 59.036 24.8373 59.0361 26.8254C59.0361 27.2964 59.0361 27.7675 59.0361 28.2385H59.0238Z" fill="white"/>
<path d="M93.3433 29.2829C92.297 29.2829 91.2507 29.283 90.2044 29.2831C90.1225 29.2832 90.0384 29.2966 90.0705 29.1633C90.3084 28.176 90.7793 27.3371 91.6583 26.787C93.2241 25.807 95.9901 26.2556 96.5581 28.8523C96.6467 29.2573 96.6508 29.2564 96.2431 29.2564H93.3433L93.3433 29.2829Z" fill="#0B0B11"/>
</svg>
