<svg width="120" height="56" viewBox="0 0 120 56" fill="none" xmlns="http://www.w3.org/2000/svg">
<path d="M78.5465 25.1485C78.5465 32.6573 78.5469 40.166 78.5477 47.6748C78.5534 48.099 78.4977 48.5217 78.3821 48.9299C78.2596 49.3594 78.0371 49.7538 77.7329 50.0808C77.4287 50.4078 77.0514 50.6582 76.6319 50.8115C75.3608 51.3173 74.0626 51.752 72.7432 52.1136C71.0418 52.5895 69.3159 52.9733 67.5732 53.2634C66.4401 53.4537 65.3026 53.6081 64.1605 53.7267C63.4556 53.7999 62.7483 53.8504 62.0407 53.8979C60.3548 54.0109 58.6677 54.022 56.9803 53.9707C55.889 53.9376 54.7997 53.8617 53.7124 53.7556C52.5448 53.6416 51.3821 53.4915 50.2244 53.3051C49.0591 53.1159 47.9019 52.8858 46.7528 52.6146C44.8097 52.1639 42.9005 51.5779 41.0392 50.8608C40.4511 50.6528 39.9399 50.2713 39.5732 49.7667C39.2764 49.3256 39.0946 48.8172 39.0443 48.2879C39.0134 48.0209 38.9986 47.7523 39.0001 47.4835C39.0018 32.4415 39.0023 17.3996 39.0016 2.35762C39.0016 2.00132 39.0016 2.00126 39.3452 2.00126C52.3053 2.00126 65.2654 2.00148 78.2255 2.0019C78.596 2.00192 78.5458 1.95475 78.5458 2.32877C78.5468 9.93536 78.547 17.5419 78.5465 25.1485Z" fill="white"/>
<path d="M50.5028 25.2332C50.5028 25.8949 50.5028 26.4969 50.5028 27.0988C50.5066 27.1639 50.5059 27.2292 50.5009 27.2943C50.4914 27.3632 50.5518 27.4654 50.4162 27.4834C50.2628 27.5037 50.2025 27.48 50.1498 27.3477C49.5064 25.8361 48.5723 24.4657 47.4004 23.3144C46.6133 22.4973 45.7589 21.752 44.9326 20.9766C44.0896 20.2179 43.3257 19.3757 42.6526 18.4629C41.9938 17.5661 41.5542 16.5274 41.369 15.43C41.1826 14.2294 41.1997 13.0418 41.7292 11.9105C41.9987 11.2859 42.4292 10.7441 42.9767 10.3404C43.0511 10.2748 43.1411 10.2297 43.2381 10.2092C43.2381 10.4672 43.2377 10.7154 43.2384 10.9636C43.2333 11.0207 43.2102 11.0747 43.1723 11.1178C42.3845 12.2592 42.2693 13.5148 42.5374 14.8369C42.7798 15.8907 43.2961 16.8617 44.0344 17.6517C44.9445 18.6655 45.9439 19.5954 47.0206 20.4302C48.772 21.8333 50.632 23.0845 52.4934 24.3339C54.6386 25.7737 56.7997 27.1901 58.9027 28.6917C59.882 29.3689 60.8144 30.1114 61.6938 30.914C62.8103 31.9497 63.6588 33.2408 64.1665 34.6766C64.2349 34.8683 64.293 35.0634 64.3406 35.2613C64.3683 35.378 64.4213 35.3986 64.5299 35.3814C65.1736 35.279 65.8181 35.1823 66.4623 35.0832C67.4765 34.9272 68.4901 34.7675 69.505 34.6156C70.2703 34.501 71.0325 34.3642 71.802 34.2788C71.8664 34.2703 71.9276 34.246 71.9803 34.2082C72.7013 33.727 73.3206 33.1086 73.8028 32.3883C73.8119 32.367 73.8186 32.3449 73.8228 32.3222C73.7198 32.3108 73.6195 32.2967 73.5188 32.2889C72.5679 32.215 71.6165 32.1463 70.6662 32.0649C70.6005 32.0482 70.5308 32.058 70.4722 32.0922C70.4135 32.1265 70.3707 32.1824 70.353 32.2478C70.2559 32.4799 70.1223 32.6965 70.0104 32.9227C69.9919 32.9632 69.9607 32.9965 69.9215 33.0176C69.8824 33.0388 69.8374 33.0465 69.7934 33.0398C69.6864 33.0383 69.6702 32.9942 69.6937 32.9023C69.7563 32.6581 69.8129 32.4123 69.8749 32.1679C69.9021 32.0603 69.8867 32.0006 69.7545 31.9973C69.5592 31.9924 69.3643 31.9702 69.1692 31.9556C69.1016 31.9505 69.0387 31.9447 69.0388 31.8506C69.0389 31.7627 69.0916 31.743 69.1634 31.7353C69.3822 31.7118 69.6007 31.6859 69.8194 31.6619C69.8676 31.664 69.9148 31.6472 69.9509 31.6151C69.987 31.583 70.0092 31.5381 70.0129 31.4899C70.143 30.7104 70.2263 29.9237 70.2622 29.1342C70.2637 29.1017 70.2593 29.0686 70.2629 29.0364C70.2751 28.9283 70.2223 28.8969 70.1209 28.8931C69.844 28.8829 69.5673 28.8638 69.2905 28.8486C68.2728 28.7928 67.2551 28.737 66.2375 28.6814C66.1886 28.6788 66.1395 28.679 66.0909 28.6738C65.9944 28.6633 65.9621 28.7086 65.9621 28.8007C65.9623 29.1104 65.951 29.4203 65.9579 29.7298C65.9618 29.9003 65.9479 29.9152 65.7591 29.9092C65.6846 29.9068 65.6681 29.8591 65.6572 29.7976C65.6132 29.5491 65.5591 29.3022 65.5221 29.0527C65.4605 28.6374 65.4649 28.6359 65.0496 28.6083C64.9113 28.5992 64.7727 28.5921 64.6341 28.5908C64.511 28.5897 64.5181 28.5074 64.514 28.4233C64.5095 28.3325 64.5422 28.2899 64.638 28.2864C64.8498 28.2787 65.0611 28.2605 65.2729 28.2518C65.3739 28.2476 65.4112 28.2196 65.3994 28.1045C65.3063 27.2125 65.2788 26.3149 65.3171 25.4189C65.3182 25.3944 65.3188 25.37 65.319 25.3455C65.321 25.1318 65.3209 25.1324 65.117 25.1231C64.9134 25.1137 64.7099 25.1019 64.5062 25.0927C63.9607 25.068 63.4152 25.0441 62.8789 25.0203C62.8299 25.0708 62.8643 25.1067 62.8816 25.1375C63.1881 25.7147 63.3814 26.3452 63.4511 26.9949C63.5703 27.8684 63.5581 28.7548 63.415 29.6247C63.3972 29.7327 63.388 29.8276 63.2314 29.8232C63.1054 29.8197 63.0707 29.7831 63.0597 29.6589C62.9955 29.0103 62.8667 28.3698 62.6753 27.7467C62.3466 26.6743 61.7584 25.6996 60.9627 24.9091C60.1359 24.086 59.2273 23.3493 58.2512 22.7104C58.0302 22.5603 57.806 22.4149 57.5692 22.258C57.54 22.321 57.53 22.3912 57.5404 22.4599C57.5391 23.0225 57.5408 23.5851 57.538 24.1477C57.5377 24.2195 57.5775 24.3289 57.444 24.3295C57.3469 24.33 57.2392 24.3721 57.1889 24.2178C56.598 22.405 55.3647 21.1081 53.8302 20.0539C52.901 19.4348 51.9346 18.8734 50.9365 18.3729C50.249 18.0323 49.6143 17.5941 49.0521 17.0718C48.2119 16.2683 47.7106 15.1741 47.6507 14.0131C47.6251 13.7371 47.6152 13.4599 47.621 13.1828C47.618 13.0718 47.6335 12.961 47.6668 12.855C47.9354 13.0143 48.1923 13.1703 48.4533 13.3192C48.4839 13.3385 48.5092 13.3654 48.5266 13.3971C48.5441 13.4289 48.5532 13.4646 48.5531 13.5008C48.5876 13.7179 48.6265 13.9339 48.6816 14.1472C48.8746 14.9202 49.2992 15.6156 49.8986 16.1405C50.4979 16.6653 51.2433 16.9945 52.0349 17.0838C52.4823 17.1214 52.9321 17.1184 53.3789 17.0751C54.4414 16.9764 55.497 16.8132 56.5398 16.5862C57.2341 16.439 57.9437 16.3767 58.653 16.4007C58.9836 16.4239 59.3109 16.4812 59.6297 16.5717C59.648 16.5526 59.6677 16.5417 59.6678 16.5306C59.6725 16.1233 59.6747 15.7161 59.6792 15.3088C59.6801 15.2257 59.6435 15.1935 59.5617 15.1944C59.3333 15.1967 59.1048 15.199 58.8766 15.1933C58.7735 15.1908 58.7143 15.2603 58.6423 15.3092C58.0217 15.685 57.2982 15.8548 56.5752 15.7942C55.8523 15.7336 55.1671 15.4457 54.6178 14.9718C54.3233 14.6817 54.1005 14.327 53.967 13.9357C53.8335 13.5444 53.7931 13.1275 53.8488 12.7178C53.8585 12.6042 53.8765 12.4915 53.9025 12.3805C53.9634 12.0918 54.0941 11.8224 54.2831 11.5959C54.4722 11.3695 54.7139 11.1928 54.9871 11.0813C55.4065 10.8978 55.8579 10.7987 56.3156 10.7897C57.147 10.7636 57.9789 10.7528 58.8106 10.7372C58.99 10.7354 59.169 10.7206 59.3462 10.693C59.4937 10.6786 59.6323 10.6162 59.7409 10.5154C59.8494 10.4146 59.9219 10.281 59.9472 10.135C60.0005 9.85459 60.0212 9.56896 60.009 9.28378C60.0181 8.82736 60.0131 8.37062 60.0113 7.91403C60.0106 7.72385 60.0074 7.72258 59.8239 7.71941C59.6935 7.71715 59.5629 7.71893 59.4324 7.71893C57.6705 7.71893 55.9086 7.71898 54.1467 7.71908C53.8375 7.71914 53.8729 7.69737 53.8723 7.99571C53.8713 8.62354 53.8711 9.25137 53.872 9.8792V10.1242C53.7874 10.1274 53.7038 10.1061 53.6311 10.0627C52.9991 9.82387 52.3673 9.58455 51.7356 9.3447C51.5379 9.26938 51.5388 9.26703 51.536 9.07021C51.5306 8.68609 51.5306 8.6861 51.9217 8.68609C52.1175 8.68609 52.3133 8.68261 52.509 8.68746C52.6068 8.6899 52.6596 8.6678 52.6567 8.55479C52.6506 8.31852 52.6521 8.08194 52.6558 7.84556C52.6572 7.74969 52.6174 7.71258 52.5247 7.71854C52.4678 7.72219 52.4105 7.71895 52.3534 7.71895C51.1788 7.71894 50.0042 7.71894 48.8296 7.71895C48.7807 7.71895 48.7317 7.72012 48.6828 7.71871C48.5104 7.71372 48.5066 7.7134 48.506 7.54066C48.504 7.01884 48.5063 6.497 48.5048 5.97518C48.5039 5.66548 48.5358 5.70316 48.2303 5.70159C47.8714 5.69974 47.5125 5.69969 47.1536 5.70142C46.8993 5.68962 46.6457 5.73556 46.4118 5.83582C46.1779 5.93607 45.9697 6.08802 45.8029 6.28026C45.6361 6.4725 45.5151 6.70003 45.4488 6.94576C45.3825 7.19149 45.3728 7.44904 45.4204 7.69906C45.4392 7.84448 45.4701 7.98807 45.5129 8.12833C45.5875 8.39829 45.7485 8.63634 45.9714 8.80599C46.1943 8.97564 46.4666 9.06753 46.7467 9.06757C46.9868 9.07756 46.9871 9.07756 46.9874 9.32575C46.9877 9.58666 46.9843 9.84763 46.9888 10.1085C46.9906 10.2107 46.959 10.2509 46.8505 10.2517C46.1508 10.2777 45.4638 10.0609 44.9057 9.63813C44.3477 9.21534 43.9531 8.61257 43.7888 7.93203C43.3416 6.09195 44.4989 4.41686 46.3185 3.99172C46.6126 3.92379 46.9137 3.89055 47.2155 3.89267C48.1209 3.89616 49.0263 3.89363 49.9317 3.89413C50.1609 3.89426 50.1606 3.86221 50.1603 4.11419C50.1598 4.63602 50.1598 5.15785 50.1604 5.67968C50.1607 5.91236 50.1617 5.91328 50.4039 5.91355C50.9423 5.91415 51.4806 5.91421 52.019 5.91374C55.1839 5.91374 58.3487 5.91387 61.5136 5.91415C61.8463 5.91422 61.8179 5.87472 61.8165 6.21244C61.8115 7.44348 61.837 8.6748 61.7909 9.90543C61.7842 10.1579 61.7595 10.4096 61.7172 10.6586C61.6628 11.0504 61.4769 11.4121 61.19 11.6845C60.9032 11.9569 60.5323 12.1237 60.1382 12.1578C59.3747 12.2289 58.6066 12.2361 57.8418 12.1795C57.4029 12.1447 56.9622 12.1362 56.5222 12.1542C56.3678 12.1671 56.2157 12.1995 56.0693 12.2504C55.8497 12.3081 55.6594 12.4454 55.5354 12.6357C55.4114 12.8259 55.3627 13.0555 55.3987 13.2797C55.4762 13.3046 55.5161 13.2383 55.5657 13.205C55.9642 12.9319 56.4247 12.7628 56.9053 12.7134C57.223 12.6869 57.5428 12.7225 57.8469 12.8182C58.2998 12.951 58.7496 13.0928 59.2124 13.1916C59.5144 13.2664 59.8297 13.2695 60.1331 13.2004C60.4365 13.1314 60.7195 12.9922 60.9594 12.794C60.9845 12.7739 61.0129 12.7579 61.0395 12.7401C61.1759 12.9109 61.1758 12.9109 61.0564 13.0656C60.9324 13.2184 60.7932 13.3581 60.641 13.4828C60.8937 13.4828 61.0855 13.4816 61.2773 13.4831C61.4712 13.4846 61.4736 13.4858 61.474 13.6876C61.4752 14.3073 61.4753 14.927 61.4744 15.5467C61.4744 16.2968 61.4744 17.0469 61.4744 17.797V18.0466C61.5688 18.0353 61.6576 17.9961 61.7296 17.934C62.464 17.4961 63.1971 17.0561 63.9289 16.6139C64.0448 16.5399 64.1796 16.5011 64.3171 16.5023C66.6579 16.5061 68.9987 16.5062 71.3395 16.5025C71.4853 16.5023 71.6288 16.5392 71.7563 16.6099C72.8656 17.1953 73.9765 17.7776 75.089 18.3569C75.2821 18.4414 75.4541 18.5676 75.5926 18.7266C75.7312 18.8855 75.8327 19.0731 75.89 19.276C75.9473 19.4789 75.9589 19.6919 75.924 19.8998C75.889 20.1077 75.8084 20.3053 75.688 20.4783C75.2696 21.1867 74.8353 21.8857 74.4084 22.5891C74.2899 22.7843 74.2901 22.7849 74.4363 22.9541C75.4561 24.1018 76.1101 25.5279 76.3144 27.0495C76.4955 28.227 76.4062 29.4303 76.0532 30.5682C75.7002 31.706 75.0927 32.7485 74.2769 33.6167C74.002 33.907 73.7105 34.1812 73.404 34.4379C73.4846 34.4974 73.5761 34.5404 73.6734 34.5645C74.3829 34.8448 74.9996 35.3187 75.4532 35.9321C75.4895 35.9741 75.5139 36.0252 75.5237 36.0799C75.5334 36.1347 75.5283 36.191 75.5087 36.2431C75.2953 36.9439 75.092 37.6479 74.8838 38.3503C74.866 38.4101 74.8741 38.4941 74.7993 38.515C74.7041 38.5392 74.6045 38.5398 74.5091 38.5167C74.4506 38.5039 74.464 38.4392 74.4592 38.3923C74.4458 38.1808 74.4123 37.9711 74.3592 37.766C74.2785 37.4913 74.1436 37.2356 73.9623 37.014C73.781 36.7924 73.5572 36.6094 73.3039 36.4759C72.79 36.2067 72.2287 36.0399 71.6512 35.9849C71.2702 35.9425 70.8869 35.9242 70.5035 35.9301C68.5948 35.9318 66.6861 35.9323 64.7774 35.9318C64.6858 35.9186 64.5924 35.9272 64.5047 35.9567C64.6234 36.5803 64.6891 37.2128 64.7012 37.8475C64.7144 38.2468 64.697 38.6465 64.6491 39.0431C64.6222 39.2251 64.6222 39.2161 64.4672 39.2252C64.3294 39.2332 64.3109 39.1595 64.2967 39.0496C64.2139 38.4034 64.0761 37.7655 63.8847 37.1427C63.3855 35.5491 62.5055 34.1011 61.3207 32.9242C60.3551 31.9749 59.3027 31.118 58.1774 30.3649C57.9795 30.2273 57.7783 30.0944 57.5395 29.933V30.2129C57.5395 30.751 57.5411 31.2892 57.5375 31.8273C57.5371 31.8916 57.5783 31.9803 57.4739 32.013C57.4216 32.0329 57.3639 32.0342 57.3108 32.0165C57.2576 31.9988 57.2122 31.9633 57.1822 31.916C56.4467 30.4652 55.4419 29.1675 54.2214 28.0922C53.323 27.2741 52.3667 26.522 51.3601 25.8416C51.0881 25.6514 50.8187 25.4576 50.5028 25.2332Z" fill="#0B0B11"/>
<path d="M61.3625 43.8204C61.7734 43.8813 62.1731 44.0027 62.5485 44.1806C62.9181 44.3584 63.2315 44.6348 63.4541 44.9794C63.6767 45.3239 63.7998 45.7232 63.8099 46.1333C63.85 46.5076 63.8103 46.8861 63.6935 47.244C63.5767 47.6019 63.3853 47.9309 63.1321 48.2095C62.7069 48.6427 62.1697 48.9492 61.5804 49.095C60.9984 49.2561 60.397 49.3361 59.7932 49.3325C58.3903 49.3367 56.9874 49.3339 55.5844 49.3338C55.5437 49.3338 55.5028 49.3319 55.4621 49.3337C55.3829 49.3374 55.3383 49.3084 55.342 49.2219C55.3449 49.1568 55.342 49.0914 55.342 49.0262C55.342 46.5476 55.3419 44.0691 55.3419 41.5905C55.3501 41.2317 55.3056 40.8737 55.2099 40.5279C55.1557 40.3264 55.0562 40.1399 54.919 39.9826C54.7818 39.8254 54.6105 39.7016 54.4181 39.6207C54.3809 39.6047 54.3447 39.5863 54.3099 39.5655C54.2982 39.5583 54.2935 39.5393 54.2852 39.5249C54.3191 39.4593 54.3821 39.4789 54.4344 39.4792C56.3754 39.4922 58.3169 39.4398 60.2573 39.5108C60.8873 39.5176 61.5081 39.6626 62.0759 39.9355C62.3794 40.0801 62.6354 40.3082 62.8139 40.5931C62.9924 40.878 63.0861 41.2078 63.0839 41.544C63.1106 42.012 62.9812 42.4755 62.716 42.862C62.4509 43.2485 62.0649 43.536 61.6188 43.6796C61.5344 43.7097 61.4498 43.7393 61.3654 43.7691C61.353 43.7801 61.3281 43.7811 61.3308 43.8034C61.3321 43.8154 61.3479 43.8204 61.3625 43.8204Z" fill="#0B0B11"/>
<path d="M49.6147 44.7045C50.816 46.2414 52.0068 47.7648 53.2025 49.2946C53.136 49.3317 53.0586 49.3448 52.9836 49.3317C52.1924 49.3334 51.4011 49.3279 50.61 49.337C50.5425 49.3418 50.475 49.328 50.4148 49.2969C50.3547 49.2659 50.3042 49.219 50.269 49.1612C49.288 47.819 48.2991 46.4826 47.318 45.1404C47.2874 45.0842 47.2411 45.0381 47.1847 45.0078C47.1284 44.9774 47.0645 44.964 47.0007 44.9693C46.8302 44.9813 46.6582 44.9754 46.487 44.971C46.3862 44.9684 46.334 45.0001 46.342 45.1097C46.348 45.1909 46.343 45.2727 46.343 45.3543C46.343 46.5691 46.343 47.784 46.343 48.9989C46.343 49.0478 46.3439 49.0967 46.3428 49.1456C46.3387 49.3291 46.3384 49.3319 46.1517 49.3323C45.54 49.3337 44.9282 49.3339 44.3165 49.3328C44.0751 49.3327 44.0751 49.359 44.0752 49.0959C44.0758 47.9218 44.0759 46.7477 44.0755 45.5737C44.0755 44.2283 44.0757 42.883 44.0761 41.5377C44.0779 41.2525 44.0476 40.968 43.9857 40.6896C43.943 40.4559 43.8439 40.2361 43.697 40.0493C43.5501 39.8626 43.3599 39.7145 43.1428 39.618C43.0998 39.5985 43.0456 39.5964 43.0224 39.5445C43.0197 39.5361 43.0177 39.5274 43.0166 39.5186C43.0725 39.4499 43.1513 39.4787 43.2196 39.4786C44.9407 39.4769 46.6617 39.4735 48.3828 39.4793C48.9864 39.4649 49.5896 39.5215 50.1799 39.648C50.5146 39.7215 50.8358 39.8466 51.1321 40.0187C51.379 40.1638 51.5915 40.3607 51.7548 40.5958C51.9182 40.8309 52.0287 41.0987 52.0785 41.3807C52.18 41.76 52.1899 42.1581 52.1076 42.5421C52.0252 42.926 51.8529 43.285 51.6048 43.5894C51.3003 43.932 50.9236 44.2028 50.5018 44.3822C50.212 44.5052 49.9159 44.6128 49.6147 44.7045Z" fill="#0B0B11"/>
<path d="M57.524 38.5C57.2403 38.5378 57.2398 38.5381 57.1361 38.3257C56.5634 37.1855 55.7605 36.1764 54.7782 35.362C53.7646 34.5275 52.6785 33.785 51.533 33.1434C51.2046 32.9509 50.8732 32.7636 50.5029 32.5507V32.7728C50.5029 33.3761 50.5046 33.9795 50.5006 34.5829C50.5001 34.6537 50.5505 34.7545 50.4314 34.7878C50.4033 34.799 50.3731 34.8041 50.3429 34.803C50.3127 34.8019 50.2831 34.7945 50.2558 34.7814C50.2286 34.7683 50.2044 34.7496 50.1847 34.7266C50.1651 34.7036 50.1504 34.6768 50.1416 34.6479C49.8076 33.9042 49.4 33.1957 48.9249 32.5331C48.0774 31.3619 47.0606 30.323 45.9078 29.4506C45.1443 28.8655 44.3689 28.2954 43.6581 27.6452C42.7979 26.9002 42.1151 25.9723 41.6597 24.9295C41.3782 24.3024 41.2352 23.6221 41.2404 22.9348C41.2456 22.2476 41.3989 21.5695 41.6898 20.9468C41.7412 20.8362 41.8021 20.7299 41.8606 20.6227C41.8828 20.5888 41.907 20.5563 41.9332 20.5254C42.0481 20.6015 42.1613 20.6753 42.2734 20.7508C42.4343 20.8592 42.4345 20.8599 42.3842 21.0392C42.2768 21.4156 42.2088 21.802 42.1811 22.1924C42.153 22.7065 42.2267 23.2212 42.398 23.7067C42.5693 24.1923 42.8348 24.6393 43.1793 25.0219C43.7789 25.7119 44.4569 26.3296 45.1996 26.8625C46.5807 27.9041 48.043 28.8251 49.507 29.743C50.9417 30.6161 52.3211 31.5771 53.6372 32.6204C54.5828 33.3595 55.4273 34.2195 56.1489 35.1786C56.8682 36.1587 57.34 37.2983 57.524 38.5Z" fill="#0B0B11"/>
<path d="M74.4357 47.5958C74.4357 47.9616 74.4282 48.2714 74.4391 48.5806C74.444 48.6368 74.4306 48.6931 74.401 48.7412C74.3713 48.7893 74.327 48.8265 74.2746 48.8474C73.9892 49.0055 73.6852 49.1275 73.3698 49.2106C71.899 49.6146 70.3435 49.5904 68.8861 49.1409C68.1182 48.9258 67.4293 48.4923 66.9032 47.893C66.3771 47.2938 66.0364 46.5546 65.9225 45.7653C65.6882 44.6334 65.7693 43.4589 66.1568 42.3699C66.353 41.8231 66.6593 41.3224 67.0567 40.8987C67.4541 40.4751 67.9342 40.1374 68.4673 39.9067C69.4972 39.463 70.617 39.2682 71.7361 39.3381C72.4543 39.3466 73.1665 39.4694 73.846 39.7021C73.9907 39.7548 74.1278 39.8282 74.2705 39.887C74.2922 39.8922 74.3126 39.9021 74.3301 39.9161C74.3476 39.93 74.3617 39.9477 74.3716 39.9678C74.3815 39.9878 74.3869 40.0098 74.3873 40.0322C74.3877 40.0546 74.3832 40.0768 74.374 40.0972C74.2268 40.5883 74.0833 41.0804 73.9348 41.5711C73.9084 41.6583 73.8487 41.6677 73.8012 41.5893C73.5958 41.2688 73.3189 41.0003 72.9923 40.8049C72.6656 40.6096 72.298 40.4926 71.9185 40.4633C71.3781 40.3749 70.8255 40.3942 70.2925 40.52C69.9018 40.6116 69.5392 40.797 69.2362 41.0602C68.9333 41.3235 68.6991 41.6566 68.5539 42.0308C68.2946 42.6923 68.1652 43.3976 68.1729 44.1081C68.1444 44.7606 68.2278 45.4132 68.4194 46.0376C68.5783 46.5944 68.889 47.0959 69.3169 47.486C69.7448 47.8761 70.2728 48.1393 70.8419 48.2462C71.8357 48.473 72.8761 48.3753 73.8103 47.9674C74.0329 47.869 74.2428 47.7442 74.4357 47.5958Z" fill="#0B0B11"/>
<path d="M61.3626 43.8194C61.3182 43.8464 61.2642 43.8192 61.2677 43.7906C61.2733 43.7457 61.329 43.766 61.3654 43.7681L61.3626 43.8194Z" fill="white"/>
<path d="M59.272 21.3949C59.7846 21.0851 60.2643 20.7943 60.7449 20.5051C61.959 19.7745 63.1728 19.0436 64.3866 18.3124C64.5165 18.2298 64.6675 18.1864 64.8214 18.1875C66.8517 18.1917 68.882 18.1922 70.9122 18.1891C71.0422 18.1835 71.1714 18.2109 71.2879 18.2688C72.1954 18.7472 73.1043 19.2231 74.0145 19.6965C74.036 19.71 74.0564 19.725 74.0757 19.7415C74.0867 19.8145 74.0319 19.8599 74.0003 19.9121C73.6886 20.4278 73.3757 20.9428 73.0615 21.457C72.9624 21.6199 72.9851 21.6384 72.7897 21.5127C72.5981 21.3893 72.405 21.2671 72.2055 21.1574C72.1022 21.1006 72.0681 21.0531 72.1143 20.9305C72.2203 20.649 72.2994 20.3574 72.4017 20.0743C72.4144 20.0517 72.4218 20.0265 72.4234 20.0006C72.425 19.9747 72.4208 19.9488 72.411 19.9248C72.4012 19.9007 72.3861 19.8792 72.3668 19.8619C72.3475 19.8445 72.3246 19.8317 72.2997 19.8244C71.8027 19.5625 71.3103 19.292 70.8143 19.0283C70.7663 19.0028 70.7137 18.9253 70.6474 19.0084C70.6311 19.0232 70.618 19.0412 70.6089 19.0613C70.5998 19.0814 70.5949 19.1031 70.5944 19.1252C70.594 19.1472 70.598 19.1691 70.6063 19.1895C70.6146 19.21 70.627 19.2285 70.6427 19.244C70.8015 19.4402 70.9412 19.6519 71.1017 19.8466C71.1213 19.8634 71.1371 19.8842 71.148 19.9077C71.1589 19.9311 71.1647 19.9566 71.1649 19.9824C71.1651 20.0083 71.1598 20.0339 71.1493 20.0575C71.1387 20.0811 71.1233 20.1021 71.1039 20.1193C70.9933 20.2483 70.9396 20.4495 70.7885 20.512C70.6446 20.5714 70.4792 20.4504 70.3221 20.414C68.7923 20.0373 67.1854 20.119 65.7017 20.6489C64.218 21.1787 62.9229 22.1334 61.9778 23.3939C61.9348 23.451 61.9078 23.524 61.8196 23.5651C61.055 22.7479 60.2004 22.0198 59.272 21.3949Z" fill="white"/>
<path d="M67.1186 25.2155C67.9809 25.253 68.8432 25.2906 69.7055 25.3283C69.8815 25.3362 69.9328 25.2987 69.9851 25.5702C70.1214 26.3062 70.2114 27.0499 70.2546 27.7971C70.267 27.9861 70.2636 27.9884 70.0775 27.9979C68.9962 28.0533 67.9149 28.1081 66.8335 28.1625C66.6059 28.1741 66.378 28.1839 66.1512 28.2054C66.0238 28.2174 65.9966 28.1687 66.0115 28.0535C66.0633 27.6503 66.1034 27.2455 66.1594 26.843C66.2301 26.3358 66.3278 25.8332 66.4351 25.3322C66.4621 25.2062 66.511 25.1746 66.6309 25.1886C66.7924 25.2074 66.9558 25.2092 67.1184 25.2182L67.1186 25.2155Z" fill="white"/>
<path d="M70.6685 31.5503C70.8352 31.0965 70.9803 30.6825 71.096 30.2591C71.1947 29.8978 71.275 29.5325 71.3424 29.1643C71.3764 28.9789 71.3752 28.9738 71.5501 28.9832C72.2822 29.0221 73.0145 29.0596 73.7461 29.1071C74.1355 29.1324 74.5272 29.1277 74.9325 29.1876C74.9322 29.4119 74.9101 29.6357 74.8666 29.8558C74.797 30.2236 74.6936 30.5843 74.5577 30.9331C74.5479 30.9761 74.5245 31.0147 74.4909 31.0432C74.4574 31.0717 74.4155 31.0885 74.3715 31.0912C73.4421 31.2016 72.5135 31.3196 71.5847 31.4354C71.295 31.4716 71.0053 31.5081 70.6685 31.5503Z" fill="white"/>
<path d="M71.4589 25.4228C71.7835 25.4035 72.0905 25.4476 72.3984 25.4589C72.9759 25.4799 73.5531 25.5115 74.1305 25.5337C74.1784 25.5288 74.2265 25.5397 74.2677 25.5647C74.3088 25.5896 74.3406 25.6274 74.3584 25.6721C74.6331 26.2715 74.8198 26.9075 74.9125 27.5603C74.9371 27.7363 74.9294 27.7425 74.7584 27.7512C73.9862 27.7908 73.2139 27.828 72.4418 27.8671C72.1735 27.8807 71.9055 27.8973 71.6373 27.9123C71.5597 27.9166 71.4885 27.9186 71.4995 27.8033C71.557 27.0321 71.5386 26.2572 71.4448 25.4896C71.447 25.4669 71.4517 25.4444 71.4589 25.4228Z" fill="white"/>
<path d="M55.1509 18.7309C55.2467 18.6735 55.3559 18.6423 55.4676 18.6406C56.2327 18.487 56.9937 18.3131 57.7659 18.1947C58.6209 18.0472 59.5002 18.1416 60.3044 18.4672C60.393 18.5039 60.4793 18.5459 60.5665 18.5853C60.5436 18.667 60.4745 18.6837 60.4208 18.716C59.5708 19.2269 58.7178 19.7329 57.8721 20.2509C57.8165 20.2947 57.7475 20.318 57.6767 20.317C57.606 20.3159 57.5377 20.2905 57.4835 20.2451C56.7773 19.7796 56.0627 19.3269 55.3514 18.8691C55.285 18.8263 55.2212 18.7795 55.1509 18.7309Z" fill="white"/>
<path d="M69.6452 24.2814L66.6626 24.4466C66.7207 24.1394 66.8007 23.8366 66.902 23.5408C67.0592 23.0189 67.2419 22.5053 67.433 21.9945C67.4488 21.9328 67.4857 21.8786 67.5372 21.8412C67.5887 21.8037 67.6517 21.7854 67.7152 21.7895C67.9755 21.7755 68.2346 21.7475 68.4963 21.7582C68.5447 21.7551 68.5931 21.7666 68.635 21.7912C68.6768 21.8158 68.7104 21.8525 68.7312 21.8964C69.114 22.6336 69.4201 23.4082 69.6447 24.208C69.6472 24.2324 69.6473 24.257 69.6452 24.2814Z" fill="white"/>
<path d="M62.9492 24.6162C63.6229 23.6192 64.5645 22.8329 65.6655 22.3477C65.6152 22.6351 65.5619 22.8947 65.5257 23.1567C65.4701 23.5588 65.4224 23.962 65.3799 24.3657C65.3688 24.4707 65.3468 24.5255 65.2261 24.5307C64.495 24.5622 63.7643 24.6009 63.0335 24.6365C63.0048 24.6323 62.9766 24.6255 62.9492 24.6162Z" fill="white"/>
<path d="M70.6892 22.2227C71.6834 22.6108 72.5709 23.23 73.2784 24.0291C73.2594 24.0858 73.2256 24.0839 73.194 24.0856C72.6012 24.1187 72.0082 24.1491 71.4156 24.1861C71.2198 24.1984 71.2155 24.1707 71.1787 24.0017C71.0514 23.4474 70.8906 22.9014 70.6971 22.3667C70.6834 22.3454 70.6754 22.321 70.674 22.2957C70.6727 22.2705 70.6779 22.2453 70.6892 22.2227Z" fill="white"/>
<path d="M58.2387 13.7357C57.7835 14.5077 56.6674 14.5358 56.0835 14.1916C56.7042 13.5676 57.4455 13.5416 58.2387 13.7357Z" fill="white"/>
<path d="M57.5996 46.3717C57.5996 45.7684 57.5986 45.1651 57.6003 44.5618C57.6008 44.3902 57.6045 44.3857 57.7776 44.3857C58.3241 44.3856 58.8707 44.3808 59.4168 44.3942C59.8254 44.3962 60.2294 44.4809 60.6044 44.6433C60.7969 44.7242 60.9684 44.8478 61.106 45.0049C61.2436 45.1619 61.3437 45.3483 61.3986 45.5497C61.5412 46.0467 61.5396 46.5738 61.3941 47.0699C61.3112 47.3621 61.1513 47.6267 60.9312 47.8359C60.711 48.0452 60.4387 48.1915 60.1427 48.2594C59.797 48.3564 59.4395 48.4044 59.0805 48.4019C58.6564 48.4054 58.2323 48.4037 57.8082 48.4023C57.602 48.4017 57.6003 48.3997 57.5999 48.1816C57.599 47.5783 57.5989 46.975 57.5996 46.3717Z" fill="white"/>
<path d="M57.5994 41.9307C57.5994 41.4829 57.6037 41.0351 57.5967 40.5875C57.5947 40.4582 57.638 40.4182 57.764 40.42C58.277 40.4272 58.7901 40.4232 59.303 40.431C59.4982 40.4373 59.6918 40.4689 59.8788 40.5252C60.1029 40.5758 60.3059 40.6946 60.4599 40.8652C60.6138 41.0358 60.7111 41.2499 60.7384 41.4781C60.7764 41.6947 60.7801 41.916 60.7494 42.1338C60.7204 42.3946 60.6168 42.6414 60.451 42.8448C60.2852 43.0482 60.0643 43.1994 59.8147 43.2804C59.4767 43.4006 59.1208 43.463 58.762 43.4648C58.4364 43.4731 58.1105 43.4682 57.7847 43.4661C57.6031 43.465 57.6006 43.4623 57.5999 43.2739C57.5983 42.8262 57.5994 42.3784 57.5994 41.9307Z" fill="white"/>
<path d="M46.3426 42.2511C46.3426 41.7053 46.3416 41.1595 46.3432 40.6137C46.3437 40.4279 46.3467 40.4239 46.5311 40.4238C47.0853 40.4237 47.6394 40.4255 48.1935 40.4293C48.4053 40.4339 48.6156 40.4654 48.8195 40.5231C49.0601 40.576 49.2791 40.7005 49.4477 40.8801C49.6162 41.0598 49.7266 41.2862 49.7641 41.5297C49.8568 41.9282 49.8507 42.3432 49.7465 42.7388C49.6619 43.03 49.503 43.2943 49.2854 43.5055C49.0679 43.7168 48.7991 43.8679 48.5055 43.9439C48.2087 44.0335 47.9001 44.0778 47.5901 44.0753C47.2398 44.0809 46.8893 44.0785 46.5389 44.0761C46.3461 44.0749 46.3437 44.0717 46.3431 43.864C46.3416 43.3264 46.3426 42.7887 46.3426 42.2511Z" fill="white"/>
</svg>
