<svg width="45" height="46" viewBox="0 0 45 46" fill="none" xmlns="http://www.w3.org/2000/svg">
<g clip-path="url(#clip0_102_2488)">
<path d="M0.00292969 45.4292V0.570329C0.1001 0.535479 0.204626 0.526328 0.306373 0.543763C15.0792 0.542437 29.8521 0.542299 44.625 0.543348C44.7274 0.531533 44.8312 0.537737 44.9315 0.561681C44.9638 0.659689 44.9723 0.763991 44.9562 0.865928C44.9574 15.6188 44.9575 30.3717 44.9565 45.1247C44.9683 45.2271 44.9621 45.3308 44.9382 45.4311C44.8401 45.4635 44.7358 45.472 44.6339 45.4559C29.8582 45.4571 15.0825 45.457 0.306818 45.4558C0.204921 45.4732 0.10026 45.464 0.00292969 45.4292Z" fill="#6573FF"/>
<path d="M44.9212 0.574991C44.7807 0.573553 44.6402 0.570862 44.4996 0.57086C29.6674 0.570629 14.8351 0.570529 0.00284333 0.570559C0.0151001 0.553267 -0.0255907 0.51194 0.0309762 0.513756C0.105871 0.51616 0.1809 0.514353 0.255871 0.514353C15.0815 0.514353 29.907 0.51551 44.7326 0.517823C44.8149 0.517843 44.9233 0.452995 44.9856 0.570566C44.9662 0.60229 44.9448 0.603765 44.9212 0.574991Z" fill="#FAF4CC"/>
<path d="M44.9213 0.574744L44.9857 0.570312C44.9857 15.4577 44.9846 30.3451 44.9822 45.2324C44.9822 45.3147 45.0471 45.423 44.9295 45.4854C44.9105 45.4744 44.9032 45.462 44.9074 45.4482C44.9119 45.4337 44.9169 45.4265 44.9225 45.4265C44.9248 45.3141 44.9291 45.2018 44.9291 45.0895C44.9294 30.3635 44.9294 15.6376 44.9291 0.9116C44.929 0.799315 44.924 0.687029 44.9213 0.574744Z" fill="#F8F0B8"/>
<path d="M44.9225 45.4258L44.9295 45.4847C30.0383 45.4847 15.1471 45.4835 0.255959 45.4812C0.173674 45.4812 0.0653028 45.5461 0.00292969 45.4285C14.8356 45.4285 29.6683 45.4285 44.5009 45.4284C44.6415 45.4284 44.782 45.4267 44.9225 45.4258Z" fill="#F1E06C"/>
<path d="M34.4679 41.9234C32.5131 41.9061 30.7455 41.5086 29.1752 40.429C28.2151 39.7659 27.4222 38.8888 26.8589 37.8669C26.7606 37.6919 26.7393 37.5955 26.9504 37.477C27.9547 36.9127 28.9518 36.3358 29.9417 35.7461C30.1304 35.634 30.2014 35.6777 30.308 35.844C30.9734 36.8827 31.8146 37.7132 33.0538 38.026C34.011 38.2676 34.9685 38.276 35.8946 37.8881C36.9222 37.4576 37.387 36.5373 37.1115 35.5282C36.9756 35.075 36.6859 34.6834 36.2924 34.4208C35.8377 34.1058 35.3507 33.8402 34.8397 33.6284C33.9083 33.2112 32.9671 32.8149 32.0433 32.3815C31.2116 31.9896 30.4413 31.4787 29.7567 30.865C27.4532 28.8134 27.2474 24.3091 30.0374 22.2086C30.9199 21.5487 31.9596 21.131 33.0533 20.9972C34.1424 20.8439 35.2508 20.903 36.3174 21.171C38.0065 21.6013 39.202 22.6622 40.0755 24.1317C40.1489 24.2552 40.1394 24.319 40.0148 24.3982C39.0267 25.0263 38.0415 25.6589 37.0592 26.2961C36.9243 26.3837 36.8577 26.3721 36.7785 26.2309C36.5953 25.8923 36.3598 25.5847 36.0807 25.3195C35.2818 24.5819 34.341 24.4144 33.3371 24.7465C32.0894 25.1592 31.7349 26.7794 32.6496 27.7458C33.0034 28.0967 33.4219 28.3757 33.8819 28.5673C34.7164 28.9489 35.5614 29.3073 36.3979 29.6846C37.4342 30.1236 38.4095 30.6944 39.2997 31.383C40.6424 32.4691 41.313 33.8839 41.3913 35.5978C41.4444 36.7619 41.2851 37.881 40.6959 38.9053C39.8152 40.4361 38.4176 41.2377 36.7565 41.6549C36.0065 41.8321 35.2386 41.9222 34.4679 41.9234Z" fill="white"/>
<path d="M24.437 29.3869C24.4162 31.3424 24.4742 33.7688 24.4102 36.1946C24.3889 36.8982 24.259 37.5944 24.0254 38.2584C23.5086 39.7512 22.5436 40.8484 21.0582 41.398C18.9266 42.1866 16.7927 42.1522 14.7253 41.1562C13.4383 40.5361 12.5399 39.5078 11.894 38.2469C11.8226 38.1076 11.8446 38.0389 11.9773 37.9595C13.0061 37.3436 14.0319 36.7228 15.0548 36.0972C15.2018 36.0071 15.27 36.0164 15.3542 36.1722C15.5615 36.5718 15.8118 36.9475 16.1008 37.2926C16.4734 37.7128 16.9711 38.0023 17.5206 38.1186C18.07 38.2349 18.6423 38.1717 19.1532 37.9385C19.3853 37.8239 19.5885 37.6584 19.7475 37.4542C19.9066 37.25 20.0174 37.0125 20.0717 36.7595C20.1858 36.2948 20.2356 35.8168 20.2197 35.3386C20.2204 30.7296 20.2185 26.1207 20.2141 21.5117C20.2136 21.2356 20.2701 21.1459 20.5653 21.1506C21.755 21.1696 22.9453 21.1667 24.1352 21.1519C24.3921 21.1487 24.443 21.2291 24.4422 21.4689C24.4338 23.9513 24.437 26.4338 24.437 29.3869Z" fill="white"/>
</g>
<defs>
<clipPath id="clip0_102_2488">
<rect width="45" height="45" fill="white" transform="translate(0 0.5)"/>
</clipPath>
</defs>
</svg>
