<svg width="65" height="65" viewBox="0 0 65 65" fill="none" xmlns="http://www.w3.org/2000/svg">
<g clip-path="url(#clip0_102_2467)">
<path d="M52.8125 65H12.1875C5.45601 65 0 59.544 0 52.8125V12.1875C0 5.45601 5.45601 0 12.1875 0H52.8125C59.544 0 65 5.45601 65 12.1875V52.8125C65 59.544 59.544 65 52.8125 65Z" fill="#F3F3F3"/>
<path d="M32.5 16.25C23.5404 16.25 16.25 23.5404 16.25 32.5C16.25 41.4596 23.5404 48.75 32.5 48.75C41.4596 48.75 48.75 41.4596 48.75 32.5C48.75 23.5404 41.4596 16.25 32.5 16.25ZM40.7366 29.0569L31.9352 37.8583C31.6713 38.1226 31.3237 38.2545 30.9785 38.2545C30.6314 38.2545 30.2858 38.1226 30.0219 37.8583L25.6202 33.4566C25.0921 32.9285 25.0921 32.0715 25.6202 31.5414C26.1484 31.0113 27.0053 31.0133 27.5354 31.5414L30.9785 34.984L38.8234 27.1397C39.3515 26.6116 40.2084 26.6116 40.7386 27.1397C41.2687 27.6678 41.2647 28.5268 40.7366 29.0569Z" fill="#6573FF"/>
</g>
<defs>
<clipPath id="clip0_102_2467">
<rect width="65" height="65" fill="white"/>
</clipPath>
</defs>
</svg>
