<svg width="45" height="46" viewBox="0 0 45 46" fill="none" xmlns="http://www.w3.org/2000/svg">
<g clip-path="url(#clip0_102_2512)">
<path d="M22.5 45.498C15.0336 45.498 7.56727 45.4986 0.100906 45.5C0.0185341 45.5 -1.21692e-05 45.4815 5.98899e-09 45.3991C0.00211733 30.4664 0.00211733 15.5336 5.98899e-09 0.600906C-1.21692e-05 0.518538 0.0185376 0.499988 0.100906 0.5C15.0336 0.502117 29.9664 0.502117 44.8991 0.5C44.9815 0.499988 45 0.518538 45 0.600906C44.9979 15.5336 44.9979 30.4664 45 45.3991C45 45.4815 44.9815 45.5 44.8991 45.5C37.4327 45.4978 29.9664 45.4971 22.5 45.498Z" fill="#6573FF"/>
<path d="M12.842 19.8001C12.8538 19.961 12.8687 20.117 12.8762 20.2734C12.9006 20.7856 12.8988 21.2983 12.8987 21.8109C12.8983 24.1874 12.8992 26.5639 12.9012 28.9403C12.9013 29.0472 12.8746 29.0724 12.7694 29.0712C12.2385 29.0654 11.7075 29.0664 11.1766 29.0707C11.0884 29.0714 11.0686 29.0452 11.0687 28.9606C11.0707 25.134 11.0706 21.3075 11.0684 17.481C11.0683 17.3919 11.0953 17.3739 11.1787 17.3743C11.8451 17.3776 12.5115 17.3778 13.178 17.3748C13.2062 17.3716 13.2348 17.377 13.26 17.3901C13.2852 17.4033 13.3059 17.4237 13.3194 17.4487C15.1317 20.3408 16.9451 23.2322 18.7595 26.123C18.8289 26.2437 18.9061 26.3597 18.9905 26.4704C18.9808 26.3712 18.9702 26.2721 18.9617 26.1728C18.9248 25.7419 18.919 25.31 18.919 24.8778C18.919 22.4208 18.9183 19.9638 18.9167 17.5068C18.9166 17.4056 18.9335 17.3717 19.0444 17.3731C19.5716 17.3799 20.0989 17.38 20.6262 17.3733C20.7279 17.3721 20.7435 17.4035 20.7434 17.4956C20.7411 21.3112 20.7411 25.1267 20.7434 28.9422C20.7434 29.0369 20.7271 29.0723 20.621 29.0713C20.0058 29.0657 19.3906 29.0672 18.7755 29.0703C18.7419 29.0729 18.7083 29.0654 18.679 29.0488C18.6496 29.0322 18.6259 29.0073 18.6108 28.9772C16.8326 26.1672 15.0529 23.3582 13.2717 20.5501C13.1318 20.3357 13.0116 20.109 12.9125 19.8728C12.9014 19.8454 12.9008 19.8046 12.842 19.8001Z" fill="white"/>
<path d="M23.2466 23.2202C23.2466 21.3126 23.2458 19.4051 23.2441 17.4975C23.244 17.3959 23.2714 17.3733 23.3698 17.3735C25.336 17.3765 27.3022 17.3763 29.2683 17.373C29.3759 17.3728 29.4003 17.4005 29.3989 17.5053C29.3927 17.9739 29.3936 18.4427 29.3984 18.9113C29.3994 19.0031 29.3741 19.0256 29.2835 19.0254C27.9434 19.0224 26.6034 19.0243 25.2633 19.0214C25.1677 19.0211 25.1349 19.0392 25.1354 19.1442C25.1399 20.1657 25.1398 21.1872 25.1353 22.2087C25.1347 22.3193 25.1683 22.3385 25.2702 22.3382C26.4931 22.3346 27.716 22.3372 28.9389 22.3334C29.0424 22.3331 29.0653 22.3639 29.0642 22.4621C29.0592 22.9234 29.0593 23.3847 29.0643 23.846C29.0654 23.9455 29.0404 23.9741 28.9383 23.9738C27.7154 23.9701 26.4925 23.9727 25.2696 23.9691C25.1668 23.9687 25.1348 23.9894 25.1353 24.0991C25.14 25.1645 25.1401 26.23 25.1357 27.2954C25.1353 27.4019 25.1551 27.4362 25.271 27.4358C26.6879 27.4311 28.1049 27.4337 29.5218 27.4307C29.6189 27.4305 29.6515 27.451 29.6502 27.555C29.6442 28.0273 29.6459 28.4996 29.6492 28.9719C29.6498 29.0487 29.6283 29.07 29.5513 29.0699C27.4826 29.0679 25.4139 29.0682 23.3452 29.0709C23.245 29.071 23.2455 29.0272 23.2456 28.9539C23.2468 27.0427 23.2472 25.1315 23.2466 23.2202Z" fill="white"/>
<path d="M33.5768 24.0386C33.5768 22.4057 33.5775 20.7728 33.5791 19.1399C33.5793 19.043 33.5558 19.0199 33.4592 19.0203C32.4487 19.0242 31.4382 19.0213 30.4277 19.025C30.3318 19.0254 30.3051 19.0031 30.3062 18.9052C30.3116 18.4293 30.3104 17.9533 30.3069 17.4774C30.3063 17.397 30.3255 17.373 30.4097 17.373C33.1557 17.3755 35.9016 17.3755 38.6475 17.3732C38.7294 17.3731 38.7525 17.3932 38.7518 17.476C38.7479 17.9556 38.7479 18.4352 38.7518 18.9149C38.7525 18.9999 38.731 19.025 38.6431 19.0248C37.629 19.0215 36.6148 19.0244 35.6007 19.0202C35.4963 19.0197 35.4676 19.0431 35.4677 19.1508C35.4709 22.4056 35.4716 25.6604 35.47 28.9152C35.4699 29.0923 35.4918 29.0668 35.3201 29.0672C34.7783 29.0684 34.2364 29.065 33.6946 29.0701C33.5964 29.0711 33.5743 29.044 33.5745 28.9483C33.5776 27.3117 33.5784 25.6752 33.5768 24.0386Z" fill="white"/>
<path d="M8.03935 29.2481C7.16853 29.2477 6.61747 28.4018 6.99161 27.6675C7.10917 27.4439 7.29623 27.2647 7.52457 27.1567C7.75292 27.0487 8.01017 27.0179 8.25756 27.0689C8.49389 27.1149 8.70984 27.2339 8.87495 27.4091C9.04006 27.5843 9.14599 27.807 9.17783 28.0456C9.2004 28.3365 9.10795 28.6246 8.92037 28.848C8.73278 29.0714 8.46503 29.2124 8.17466 29.2405C8.12368 29.2448 8.07246 29.2463 8.03935 29.2481Z" fill="white"/>
</g>
<defs>
<clipPath id="clip0_102_2512">
<rect width="45" height="45" fill="white" transform="translate(0 0.5)"/>
</clipPath>
</defs>
</svg>
