<svg width="45" height="46" viewBox="0 0 45 46" fill="none" xmlns="http://www.w3.org/2000/svg">
<g clip-path="url(#clip0_102_2523)">
<path d="M22.5 45.498C15.0336 45.498 7.56727 45.4986 0.100906 45.5C0.0185341 45.5 -1.21692e-05 45.4815 5.98899e-09 45.3991C0.00211733 30.4664 0.00211733 15.5336 5.98899e-09 0.600906C-1.21692e-05 0.518538 0.0185376 0.499988 0.100906 0.5C15.0336 0.502117 29.9664 0.502117 44.8991 0.5C44.9815 0.499988 45 0.518538 45 0.600906C44.9979 15.5336 44.9979 30.4664 45 45.3991C45 45.4815 44.9815 45.5 44.8991 45.5C37.4327 45.4978 29.9664 45.4971 22.5 45.498Z" fill="#6573FF"/>
<g clip-path="url(#clip1_102_2523)">
<path d="M27.2953 14.4764C26.8409 14.6122 26.4319 14.8531 26.0958 15.1709L24.5043 14.252L23.6489 15.7335L25.239 16.6515C25.1298 17.11 25.1296 17.5793 25.239 18.0383L23.6489 18.9563L24.5043 20.4378L26.0958 19.5189C26.4319 19.8367 26.8409 20.0777 27.2953 20.2134V22.0492H28.1506L28.4995 20.3788L28.1506 18.6279C27.4432 18.6279 26.8676 18.0524 26.8676 17.3449C26.8676 16.6375 27.4432 16.062 28.1506 16.0619L28.4995 14.5911L28.1506 12.6406H27.2953V14.4764Z" fill="white"/>
<path d="M28.1507 16.0619C28.8581 16.0619 29.4337 16.6375 29.4337 17.3449C29.4337 18.0524 28.8581 18.6279 28.1507 18.6279H28.1506V22.0492H29.006V20.2134C29.4604 20.0777 29.8695 19.8367 30.2055 19.519L31.797 20.4379L32.6523 18.9564L31.0623 18.0384C31.1715 17.5799 31.1717 17.1106 31.0623 16.6515L32.6523 15.7335L31.797 14.252L30.2055 15.1709C29.8694 14.8531 29.4604 14.6122 29.006 14.4764V12.6406H28.1506L28.1507 16.0619Z" fill="white"/>
<path d="M11.7974 33.6983C9.01405 30.915 9.01405 26.386 11.7974 23.6026C12.1915 23.2084 12.6212 22.8676 13.0827 22.5808L12.7437 23.7632L14.3881 24.2347L15.3952 20.7221L12.5401 18.4414L11.4724 19.7779L12.7554 20.8027C11.9598 21.2185 11.2255 21.7552 10.5878 22.3929C7.1374 25.8433 7.1374 31.4575 10.5878 34.9079C12.2592 36.5793 14.4815 37.4998 16.8453 37.4998L17.3564 36.6255L16.8453 35.7891C14.9384 35.7892 13.1457 35.0467 11.7974 33.6983Z" fill="white"/>
<path d="M19.3012 17.3452C19.3012 19.709 20.2217 21.9313 21.8931 23.6027C24.6764 26.3861 24.6764 30.915 21.8931 33.6985C20.5447 35.0467 18.752 35.7893 16.8452 35.7893V37.5C19.2089 37.5 21.4313 36.5795 23.1026 34.9081C26.553 31.4577 26.553 25.8435 23.1026 22.3931C21.7543 21.0448 21.0118 19.2521 21.0118 17.3452C21.0118 13.3827 24.2203 10.2099 28.1504 10.2099L28.4994 9.32157L28.1505 8.5C23.2776 8.5 19.3012 12.4342 19.3012 17.3452Z" fill="white"/>
<path d="M37.0001 17.3452C37.0001 12.4232 33.0131 8.5 28.1506 8.5V10.2099C32.0816 10.2099 35.2894 13.3835 35.2894 17.3452C35.2894 19.9206 33.9331 22.1596 31.9132 23.4149L32.2522 22.2325L30.6078 21.761L29.6007 25.2736L32.4557 27.5543L33.5235 26.2177L32.2405 25.1929C35.0847 23.7066 37.0001 20.755 37.0001 17.3452Z" fill="white"/>
<path d="M15.5622 28.6496C15.5622 27.9422 16.1377 27.3666 16.8452 27.3666L17.2804 25.9805L16.8452 23.9453H15.9899V25.7811C15.5355 25.9168 15.1263 26.1578 14.7904 26.4756L13.1988 25.5567L12.3435 27.0381L13.9335 27.9561C13.8243 28.4146 13.8242 28.8839 13.9335 29.343L12.3435 30.261L13.1988 31.7424L14.7904 30.8235C15.1264 31.1413 15.5355 31.3823 15.9899 31.518V33.3538H16.8452L17.1164 31.8038L16.8452 29.9325C16.1377 29.9326 15.5622 29.357 15.5622 28.6496Z" fill="white"/>
<path d="M19.7569 27.9581L21.3469 27.0401L20.4915 25.5586L18.9 26.4776C18.564 26.1598 18.1549 25.9188 17.7005 25.7831V23.9473H16.8452V27.3686C17.5526 27.3686 18.1282 27.9442 18.1282 28.6516C18.1282 29.359 17.5526 29.9346 16.8452 29.9346V33.3559H17.7005V31.5201C18.1549 31.3844 18.564 31.1434 18.9 30.8256L20.4915 31.7445L21.3469 30.2631L19.7569 29.3451C19.8661 28.8865 19.8662 28.4172 19.7569 27.9581Z" fill="white"/>
</g>
</g>
<defs>
<clipPath id="clip0_102_2523">
<rect width="45" height="45" fill="white" transform="translate(0 0.5)"/>
</clipPath>
<clipPath id="clip1_102_2523">
<rect width="29" height="29" fill="white" transform="translate(8 8.5)"/>
</clipPath>
</defs>
</svg>
