<svg width="161" height="23" viewBox="0 0 161 23" fill="none" xmlns="http://www.w3.org/2000/svg">
<path d="M5.61583 19.7917C4.66799 19.7919 3.74137 19.511 2.95321 18.9845C2.16505 18.458 1.55078 17.7096 1.18813 16.8338C0.825476 15.9581 0.730737 14.9945 0.915899 14.0649C1.10106 13.1353 1.55781 12.2816 2.22833 11.6117L9.29917 4.53999C9.41642 4.42274 9.57544 4.35687 9.74125 4.35687C9.90706 4.35687 10.0661 4.42274 10.1833 4.53999C10.3006 4.65724 10.3665 4.81626 10.3665 4.98207C10.3665 5.14788 10.3006 5.30691 10.1833 5.42415L3.11167 12.495C2.76931 12.8208 2.49562 13.2118 2.30672 13.645C2.11783 14.0782 2.01755 14.5449 2.01179 15.0175C2.00603 15.49 2.09492 15.959 2.27321 16.3967C2.45149 16.8344 2.71558 17.2319 3.0499 17.566C3.38422 17.9 3.78202 18.1638 4.21986 18.3417C4.65769 18.5196 5.12671 18.6081 5.59928 18.602C6.07184 18.5958 6.5384 18.4951 6.97146 18.3059C7.40452 18.1166 7.79532 17.8426 8.12083 17.5L17.2542 8.36665C17.6727 7.93446 17.9046 7.35506 17.8997 6.75344C17.8949 6.15183 17.6538 5.57623 17.2283 5.15081C16.8029 4.72539 16.2273 4.48425 15.6257 4.47942C15.0241 4.47459 14.4447 4.70645 14.0125 5.12499L6.6475 12.495C6.45213 12.6904 6.34236 12.9554 6.34236 13.2317C6.34236 13.508 6.45213 13.7729 6.6475 13.9683C6.84288 14.1637 7.10786 14.2735 7.38417 14.2735C7.66047 14.2735 7.92546 14.1637 8.12083 13.9683L12.8333 9.25499C12.891 9.19527 12.9599 9.14762 13.0361 9.11483C13.1124 9.08204 13.1944 9.06476 13.2774 9.064C13.3604 9.06324 13.4427 9.07901 13.5195 9.1104C13.5963 9.14179 13.6661 9.18817 13.7248 9.24682C13.7835 9.30548 13.83 9.37524 13.8614 9.45203C13.8929 9.52883 13.9088 9.61112 13.9081 9.69411C13.9074 9.77709 13.8902 9.85911 13.8575 9.93538C13.8247 10.0117 13.7772 10.0806 13.7175 10.1383L9.00417 14.8525C8.57441 15.2824 7.99148 15.5239 7.38363 15.524C6.77578 15.5241 6.19279 15.2827 5.76292 14.8529C5.33305 14.4231 5.0915 13.8402 5.09142 13.2324C5.09135 12.6245 5.33274 12.0415 5.7625 11.6117L13.1292 4.24999C13.7933 3.58573 14.6941 3.21251 15.6335 3.21243C16.5728 3.21235 17.4737 3.58542 18.1379 4.24957C18.8022 4.91372 19.1754 5.81454 19.1755 6.75386C19.1756 7.69318 18.8025 8.59406 18.1383 9.25832L9.005 18.3883C8.56089 18.8347 8.03269 19.1885 7.45095 19.4294C6.86921 19.6703 6.24547 19.7934 5.61583 19.7917Z" fill="#66666E"/>
<path d="M40.611 5.4V6.912H36.417V18H34.905V6.912H30.72V5.4H40.611ZM50.3739 12.402V18H48.8619V12.735C48.8619 12.279 48.7509 11.865 48.5289 11.493C48.3069 11.121 48.0099 10.827 47.6379 10.611C47.2659 10.389 46.8519 10.278 46.3959 10.278C45.9459 10.278 45.5319 10.389 45.1539 10.611C44.7819 10.827 44.4849 11.121 44.2629 11.493C44.0409 11.865 43.9299 12.279 43.9299 12.735V18H42.4179V4.5H43.9299V10.125C44.2479 9.705 44.6499 9.372 45.1359 9.126C45.6219 8.874 46.1499 8.748 46.7199 8.748C47.3919 8.748 48.0039 8.913 48.5559 9.243C49.1139 9.567 49.5549 10.005 49.8789 10.557C50.2089 11.109 50.3739 11.724 50.3739 12.402ZM55.958 18.234C55.13 18.234 54.374 18.021 53.69 17.595C53.012 17.169 52.469 16.599 52.061 15.885C51.659 15.165 51.458 14.37 51.458 13.5C51.458 12.84 51.575 12.225 51.809 11.655C52.043 11.079 52.364 10.575 52.772 10.143C53.186 9.705 53.666 9.363 54.212 9.117C54.758 8.871 55.34 8.748 55.958 8.748C56.636 8.748 57.257 8.886 57.821 9.162C58.391 9.432 58.877 9.81 59.279 10.296C59.687 10.782 59.99 11.346 60.188 11.988C60.392 12.63 60.467 13.317 60.413 14.049H53.069C53.141 14.559 53.309 15.015 53.573 15.417C53.837 15.813 54.173 16.128 54.581 16.362C54.995 16.596 55.454 16.716 55.958 16.722C56.498 16.722 56.987 16.584 57.425 16.308C57.863 16.026 58.217 15.642 58.487 15.156L60.026 15.516C59.666 16.314 59.123 16.968 58.397 17.478C57.671 17.982 56.858 18.234 55.958 18.234ZM53.024 12.861H58.892C58.844 12.357 58.682 11.898 58.406 11.484C58.13 11.064 57.779 10.728 57.353 10.476C56.927 10.224 56.462 10.098 55.958 10.098C55.454 10.098 54.992 10.221 54.572 10.467C54.152 10.713 53.804 11.046 53.528 11.466C53.258 11.88 53.09 12.345 53.024 12.861ZM68.4199 6.777V9H71.0569V10.512H68.4199V18H66.9079V10.512H65.7469V9H66.9079V6.777C66.9079 6.315 67.0189 5.898 67.2409 5.526C67.4689 5.148 67.7719 4.848 68.1499 4.626C68.5339 4.398 68.9539 4.284 69.4099 4.284C69.7459 4.284 70.0729 4.353 70.3909 4.491C70.7089 4.623 70.9909 4.821 71.2369 5.085L70.1569 6.156C70.0729 6.042 69.9619 5.955 69.8239 5.895C69.6919 5.829 69.5539 5.796 69.4099 5.796C69.1399 5.796 68.9059 5.892 68.7079 6.084C68.5159 6.276 68.4199 6.507 68.4199 6.777ZM72.4413 9H73.9533V18H72.4413V9ZM73.2153 7.533C72.9753 7.533 72.7743 7.455 72.6123 7.299C72.4503 7.143 72.3693 6.948 72.3693 6.714C72.3693 6.48 72.4503 6.285 72.6123 6.129C72.7743 5.973 72.9723 5.895 73.2063 5.895C73.4403 5.895 73.6383 5.973 73.8003 6.129C73.9623 6.285 74.0433 6.48 74.0433 6.714C74.0433 6.948 73.9623 7.143 73.8003 7.299C73.6443 7.455 73.4493 7.533 73.2153 7.533ZM76.1679 18V4.5H77.6799V18H76.1679ZM83.7138 18.234C82.8858 18.234 82.1298 18.021 81.4458 17.595C80.7678 17.169 80.2248 16.599 79.8168 15.885C79.4148 15.165 79.2138 14.37 79.2138 13.5C79.2138 12.84 79.3308 12.225 79.5648 11.655C79.7988 11.079 80.1198 10.575 80.5278 10.143C80.9418 9.705 81.4218 9.363 81.9678 9.117C82.5138 8.871 83.0958 8.748 83.7138 8.748C84.3918 8.748 85.0128 8.886 85.5768 9.162C86.1468 9.432 86.6328 9.81 87.0348 10.296C87.4428 10.782 87.7458 11.346 87.9438 11.988C88.1478 12.63 88.2228 13.317 88.1688 14.049H80.8248C80.8968 14.559 81.0648 15.015 81.3288 15.417C81.5928 15.813 81.9288 16.128 82.3368 16.362C82.7508 16.596 83.2098 16.716 83.7138 16.722C84.2538 16.722 84.7428 16.584 85.1808 16.308C85.6188 16.026 85.9728 15.642 86.2428 15.156L87.7818 15.516C87.4218 16.314 86.8788 16.968 86.1528 17.478C85.4268 17.982 84.6138 18.234 83.7138 18.234ZM80.7798 12.861H86.6478C86.5998 12.357 86.4378 11.898 86.1618 11.484C85.8858 11.064 85.5348 10.728 85.1088 10.476C84.6828 10.224 84.2178 10.098 83.7138 10.098C83.2098 10.098 82.7478 10.221 82.3278 10.467C81.9078 10.713 81.5598 11.046 81.2838 11.466C81.0138 11.88 80.8458 12.345 80.7798 12.861ZM94.1327 9H95.6447V18H94.1327V9ZM94.9067 7.533C94.6667 7.533 94.4657 7.455 94.3037 7.299C94.1417 7.143 94.0607 6.948 94.0607 6.714C94.0607 6.48 94.1417 6.285 94.3037 6.129C94.4657 5.973 94.6637 5.895 94.8977 5.895C95.1317 5.895 95.3297 5.973 95.4917 6.129C95.6537 6.285 95.7347 6.48 95.7347 6.714C95.7347 6.948 95.6537 7.143 95.4917 7.299C95.3357 7.455 95.1407 7.533 94.9067 7.533ZM100.464 18.171C99.9777 18.153 99.5037 18.063 99.0417 17.901C98.5857 17.733 98.1837 17.508 97.8357 17.226C97.4937 16.938 97.2447 16.608 97.0887 16.236L98.3847 15.678C98.4747 15.882 98.6367 16.074 98.8707 16.254C99.1047 16.434 99.3747 16.578 99.6807 16.686C99.9867 16.794 100.296 16.848 100.608 16.848C100.938 16.848 101.247 16.797 101.535 16.695C101.823 16.593 102.057 16.443 102.237 16.245C102.423 16.041 102.516 15.798 102.516 15.516C102.516 15.216 102.414 14.982 102.21 14.814C102.012 14.64 101.76 14.505 101.454 14.409C101.154 14.307 100.848 14.211 100.536 14.121C99.9177 13.965 99.3657 13.779 98.8797 13.563C98.3937 13.341 98.0097 13.062 97.7277 12.726C97.4517 12.384 97.3137 11.949 97.3137 11.421C97.3137 10.863 97.4667 10.38 97.7727 9.972C98.0847 9.564 98.4927 9.249 98.9967 9.027C99.5007 8.805 100.041 8.694 100.617 8.694C101.343 8.694 102.006 8.85 102.606 9.162C103.206 9.474 103.653 9.897 103.947 10.431L102.732 11.142C102.63 10.926 102.474 10.737 102.264 10.575C102.054 10.407 101.814 10.275 101.544 10.179C101.274 10.083 100.998 10.032 100.716 10.026C100.368 10.014 100.041 10.059 99.7347 10.161C99.4347 10.263 99.1917 10.419 99.0057 10.629C98.8257 10.833 98.7357 11.088 98.7357 11.394C98.7357 11.694 98.8317 11.922 99.0237 12.078C99.2217 12.234 99.4767 12.36 99.7887 12.456C100.107 12.546 100.452 12.651 100.824 12.771C101.37 12.945 101.88 13.146 102.354 13.374C102.828 13.602 103.209 13.887 103.497 14.229C103.791 14.571 103.935 14.994 103.929 15.498C103.929 16.05 103.764 16.533 103.434 16.947C103.104 17.355 102.675 17.667 102.147 17.883C101.625 18.099 101.064 18.195 100.464 18.171ZM117.031 9H118.543V18H117.031L116.968 16.479C116.686 17.001 116.296 17.424 115.798 17.748C115.306 18.072 114.718 18.234 114.034 18.234C113.374 18.234 112.756 18.111 112.18 17.865C111.604 17.613 111.094 17.268 110.65 16.83C110.212 16.386 109.87 15.876 109.624 15.3C109.378 14.724 109.255 14.103 109.255 13.437C109.255 12.795 109.375 12.189 109.615 11.619C109.855 11.049 110.188 10.551 110.614 10.125C111.046 9.693 111.544 9.357 112.108 9.117C112.672 8.871 113.278 8.748 113.926 8.748C114.634 8.748 115.255 8.916 115.789 9.252C116.323 9.582 116.755 10.011 117.085 10.539L117.031 9ZM114.007 16.767C114.601 16.767 115.114 16.623 115.546 16.335C115.984 16.041 116.32 15.645 116.554 15.147C116.794 14.649 116.914 14.1 116.914 13.5C116.914 12.888 116.794 12.336 116.554 11.844C116.314 11.346 115.975 10.953 115.537 10.665C115.105 10.371 114.595 10.224 114.007 10.224C113.413 10.224 112.873 10.371 112.387 10.665C111.901 10.959 111.514 11.355 111.226 11.853C110.944 12.345 110.803 12.894 110.803 13.5C110.803 14.106 110.95 14.658 111.244 15.156C111.538 15.648 111.928 16.041 112.414 16.335C112.9 16.623 113.431 16.767 114.007 16.767ZM125.004 10.512H122.961L122.952 18H121.44L121.449 10.512H119.901V9H121.449L121.44 6.174H122.952L122.961 9H125.004V10.512ZM131.279 10.512H129.236L129.227 18H127.715L127.724 10.512H126.176V9H127.724L127.715 6.174H129.227L129.236 9H131.279V10.512ZM139.9 9H141.412V18H139.9L139.837 16.479C139.555 17.001 139.165 17.424 138.667 17.748C138.175 18.072 137.587 18.234 136.903 18.234C136.243 18.234 135.625 18.111 135.049 17.865C134.473 17.613 133.963 17.268 133.519 16.83C133.081 16.386 132.739 15.876 132.493 15.3C132.247 14.724 132.124 14.103 132.124 13.437C132.124 12.795 132.244 12.189 132.484 11.619C132.724 11.049 133.057 10.551 133.483 10.125C133.915 9.693 134.413 9.357 134.977 9.117C135.541 8.871 136.147 8.748 136.795 8.748C137.503 8.748 138.124 8.916 138.658 9.252C139.192 9.582 139.624 10.011 139.954 10.539L139.9 9ZM136.876 16.767C137.47 16.767 137.983 16.623 138.415 16.335C138.853 16.041 139.189 15.645 139.423 15.147C139.663 14.649 139.783 14.1 139.783 13.5C139.783 12.888 139.663 12.336 139.423 11.844C139.183 11.346 138.844 10.953 138.406 10.665C137.974 10.371 137.464 10.224 136.876 10.224C136.282 10.224 135.742 10.371 135.256 10.665C134.77 10.959 134.383 11.355 134.095 11.853C133.813 12.345 133.672 12.894 133.672 13.5C133.672 14.106 133.819 14.658 134.113 15.156C134.407 15.648 134.797 16.041 135.283 16.335C135.769 16.623 136.3 16.767 136.876 16.767ZM149.236 15.624L150.586 16.353C150.178 16.923 149.659 17.379 149.029 17.721C148.405 18.063 147.727 18.234 146.995 18.234C146.167 18.234 145.411 18.021 144.727 17.595C144.049 17.169 143.506 16.599 143.098 15.885C142.696 15.165 142.495 14.37 142.495 13.5C142.495 12.84 142.612 12.225 142.846 11.655C143.08 11.079 143.401 10.575 143.809 10.143C144.223 9.705 144.703 9.363 145.249 9.117C145.795 8.871 146.377 8.748 146.995 8.748C147.727 8.748 148.405 8.919 149.029 9.261C149.659 9.603 150.178 10.062 150.586 10.638L149.236 11.367C148.948 11.013 148.606 10.74 148.21 10.548C147.814 10.356 147.409 10.26 146.995 10.26C146.437 10.26 145.93 10.41 145.474 10.71C145.024 11.004 144.667 11.397 144.403 11.889C144.139 12.381 144.007 12.918 144.007 13.5C144.007 14.082 144.139 14.619 144.403 15.111C144.673 15.597 145.033 15.987 145.483 16.281C145.939 16.575 146.443 16.722 146.995 16.722C147.439 16.722 147.856 16.62 148.246 16.416C148.636 16.212 148.966 15.948 149.236 15.624ZM160.009 12.402V18H158.497V12.735C158.497 12.279 158.386 11.865 158.164 11.493C157.942 11.121 157.645 10.827 157.273 10.611C156.901 10.389 156.487 10.278 156.031 10.278C155.581 10.278 155.167 10.389 154.789 10.611C154.417 10.827 154.12 11.121 153.898 11.493C153.676 11.865 153.565 12.279 153.565 12.735V18H152.053V4.5H153.565V10.125C153.883 9.705 154.285 9.372 154.771 9.126C155.257 8.874 155.785 8.748 156.355 8.748C157.027 8.748 157.639 8.913 158.191 9.243C158.749 9.567 159.19 10.005 159.514 10.557C159.844 11.109 160.009 11.724 160.009 12.402Z" fill="#66666E"/>
</svg>
