<svg width="60" height="60" viewBox="0 0 60 60" fill="none" xmlns="http://www.w3.org/2000/svg">
<path d="M30 0C13.4592 0 0 13.4592 0 30C0 46.5408 13.4592 60 30 60C46.5408 60 60 46.5408 60 30C60 13.4592 46.5408 0 30 0ZM45.206 23.6435L28.9572 39.8923C28.4702 40.3802 27.8284 40.6238 27.1912 40.6238C26.5503 40.6238 25.9122 40.3802 25.4251 39.8923L17.2989 31.7661C16.3239 30.791 16.3239 29.209 17.2989 28.2303C18.2739 27.2516 19.856 27.2552 20.8347 28.2303L27.1912 34.5859L41.6739 20.1041C42.6489 19.129 44.231 19.129 45.2097 20.1041C46.1884 21.0791 46.181 22.6648 45.206 23.6435Z" fill="#6573FF"/>
</svg>
