<svg width="75" height="75" viewBox="0 0 75 75" fill="none" xmlns="http://www.w3.org/2000/svg">
<g clip-path="url(#clip0_201_765)">
<path d="M60.9375 75H14.0625C6.29539 75 0 68.7046 0 60.9375V14.0625C0 6.29539 6.29539 0 14.0625 0H60.9375C68.7046 0 75 6.29539 75 14.0625V60.9375C75 68.7046 68.7046 75 60.9375 75Z" fill="#F3F3F3"/>
<path d="M37.5 18.75C27.162 18.75 18.75 27.162 18.75 37.5C18.75 47.838 27.162 56.25 37.5 56.25C47.838 56.25 56.25 47.838 56.25 37.5C56.25 27.162 47.838 18.75 37.5 18.75ZM47.0037 33.5272L36.8483 43.6827C36.5438 43.9877 36.1427 44.1399 35.7445 44.1399C35.3439 44.1399 34.9451 43.9877 34.6407 43.6827L29.5618 38.6038C28.9524 37.9944 28.9524 37.0056 29.5618 36.3939C30.1712 35.7822 31.16 35.7845 31.7717 36.3939L35.7445 40.3662L44.7962 31.315C45.4056 30.7056 46.3943 30.7056 47.006 31.315C47.6177 31.9244 47.6131 32.9155 47.0037 33.5272Z" fill="#6573FF"/>
</g>
<defs>
<clipPath id="clip0_201_765">
<rect width="75" height="75" fill="white"/>
</clipPath>
</defs>
</svg>
