<svg width="20" height="20" viewBox="0 0 20 20" fill="none" xmlns="http://www.w3.org/2000/svg">
<g clip-path="url(#clip0_201_475)">
<path d="M10.0805 18.0933L10.7967 17.1783C11.3739 16.4327 16.4715 9.81038 16.4715 6.51627C16.4715 2.55871 13.9327 0.000854492 10.0002 0.000854492C6.0676 0.000854492 3.52881 2.55871 3.52881 6.51627C3.52881 9.81507 8.62608 16.4374 9.20858 17.1783L9.92047 18.0933C6.93855 18.1011 4.53382 18.5246 4.53382 19.0468C4.53382 19.5737 6.98261 20.0009 10.0033 20.0009C13.024 20.0009 15.4727 19.5737 15.4727 19.0468C15.4727 18.5243 13.0652 18.1005 10.0805 18.0933ZM10.0002 8.5513C8.84264 8.5513 7.9045 7.63816 7.9045 6.51189C7.9045 5.38563 8.84264 4.47249 10.0002 4.47249C11.1577 4.47249 12.0958 5.38563 12.0958 6.51189C12.0958 7.63816 11.1577 8.5513 10.0002 8.5513Z" fill="#6573FF"/>
</g>
<defs>
<clipPath id="clip0_201_475">
<rect width="20" height="20" fill="white"/>
</clipPath>
</defs>
</svg>
