<svg width="310" height="329" viewBox="0 0 310 329" fill="none" xmlns="http://www.w3.org/2000/svg">
<path fill-rule="evenodd" clip-rule="evenodd" d="M85.6433 328.198V238.543H108.919V300.518C177.61 317.367 245.734 284.274 273.549 222.297C281.497 204.848 284.903 186.195 285.472 166.94C285.849 136.477 285.724 106.282 285.597 75.9962C285.534 60.8197 285.472 45.6186 285.472 30.353C285.472 29.1494 285.472 27.9458 284.903 25.5386H219.619V0.267318H309.882V11.7001C309.882 26.3419 309.819 40.9824 309.756 55.6243C309.63 84.908 309.504 114.19 309.882 143.474C310.45 171.753 309.315 200.033 298.528 226.51C271.847 289.087 226.432 323.985 161.147 328.198C144.973 329.393 128.551 329.005 111.714 328.606C103.139 328.403 94.4554 328.198 85.6433 328.198ZM23.7647 328.198H1.05648C1.05648 326.31 0.901479 324.423 0.754566 322.621C0.618435 320.978 0.489043 319.404 0.489043 317.967C0.489043 305.109 0.552396 292.318 0.615744 279.548C0.74244 254.076 0.867782 228.693 0.489043 203.042C0.444565 201.007 0.396046 198.974 0.348872 196.945C-0.214519 173.191 -0.767131 149.909 4.46378 126.627C12.4321 91.1247 31.3152 59.4407 58.1409 36.5642C84.9654 13.6878 118.207 0.918464 152.632 0.267318C163.186 -0.131594 173.743 -0.00136616 184.465 0.131605C189.888 0.200146 195.355 0.267318 200.885 0.267318V26.1404C196.701 26.1404 192.58 26.2089 188.48 26.2761C180.344 26.4091 172.291 26.5407 163.986 26.1404C87.347 21.9292 18.655 86.3117 24.3321 184.389C26.2972 216.882 25.8134 249.374 25.3308 281.866C25.1152 296.307 24.9009 310.747 24.9009 325.189C24.3321 325.791 23.7647 326.994 23.7647 328.198ZM267.871 45.9983V141.068C267.871 156.712 267.871 172.356 265.601 187.4C257.653 239.146 212.238 281.265 162.281 283.07C155.11 283.47 147.689 283.339 140.183 283.204C136.4 283.139 132.592 283.07 128.787 283.07V239.146H152.061C152.346 242.153 152.489 245.162 152.629 248.171C152.772 251.18 152.915 254.188 153.198 257.197C175.337 258.401 194.072 251.18 210.534 237.34C232.675 218.688 244.029 194.017 244.029 163.932C244.408 145.436 244.281 126.938 244.153 108.619C244.091 99.5279 244.029 90.4804 244.029 81.4987C244.029 78.4898 244.029 74.8803 243.46 71.2696H220.753V45.9983H267.871ZM200.884 70.6678H157.739C117.433 71.2696 89.6154 91.7279 73.153 130.237C71.6556 133.807 70.8995 137.377 70.0692 141.292C69.6406 143.315 69.1918 145.432 68.6109 147.685H150.927V173.56H42.4967C41.4266 157.695 43.3337 141.762 48.1077 126.684C52.8831 111.605 60.4309 97.6787 70.3145 85.7113C104.943 42.3875 152.062 41.7857 200.884 45.3965V70.6678ZM151.494 193.416H43.633V327.596H67.476V218.688H151.494V193.416Z" fill="#6573FF" fill-opacity="0.1"/>
</svg>
