<svg width="45" height="46" viewBox="0 0 45 46" fill="none" xmlns="http://www.w3.org/2000/svg">
<path d="M22.064 0H22.2181C24.6753 0.306003 26.9466 1.26146 29.2622 2.04433C33.7471 3.56054 38.2216 5.1074 42.7123 6.60663C43.1872 6.76516 43.7252 6.84867 43.9888 7.37098C44.0152 7.61957 44.0232 7.86975 44.013 8.11952C43.8862 10.8229 43.6663 13.5162 43.3096 16.2015C42.8893 19.3661 42.5188 22.5376 42.1135 25.7042C41.6983 28.9475 41.3267 32.1964 40.8706 35.4346C40.8063 35.8908 40.5294 36.1552 40.1599 36.372C38.48 37.3578 36.7609 38.2738 35.0582 39.2187C31.4508 41.2206 27.8309 43.2002 24.2228 45.2011C23.5518 45.5732 22.9194 46.1499 22.0371 45.964C21.9684 45.8999 21.9191 45.8179 21.8945 45.7273C21.8791 45.6317 21.8815 45.534 21.9014 45.4392C21.9791 44.9089 22.0076 44.3725 21.9866 43.8369C21.9874 39.0947 21.9885 34.3524 21.9899 29.6102C21.9903 29.2571 21.931 28.8944 22.0906 28.5551C22.2673 28.3161 22.5315 28.3284 22.7838 28.3298C24.6403 28.3398 26.497 28.288 28.352 28.355C28.7486 28.4441 28.9133 28.7475 29.0655 29.0869C29.7238 30.5549 30.3717 32.0278 30.9685 33.5211C31.2901 34.3257 31.7426 34.775 32.688 34.6725C33.3772 34.5973 34.0733 34.6126 34.7586 34.7181C35.2727 34.7982 35.3502 34.6057 35.1808 34.164C34.7594 33.0648 34.211 32.0225 33.7043 30.9649C31.8834 27.1645 30.1286 23.3333 28.3119 19.531C26.2972 15.3144 24.3599 11.0612 22.3268 6.85308C22.1032 6.39046 22.0919 5.85521 21.7968 5.41991C21.6171 3.86464 21.715 2.30668 21.7293 0.750075C21.73 0.608659 21.76 0.468926 21.8177 0.339783C21.8753 0.21064 21.9592 0.0949202 22.064 0Z" fill="#141420"/>
<path d="M22.0639 0C22.0614 1.5458 22.0585 3.0916 22.0552 4.6374C22.0398 4.94182 22.0839 5.24633 22.1849 5.53391C21.6779 7.39165 20.7333 9.06794 19.96 10.8135C18.0551 15.1133 16.1174 19.3988 14.1815 23.6849C12.7084 26.9462 11.2592 30.2182 9.76314 33.4692C9.72036 33.5622 9.6706 33.6519 9.62876 33.7453C9.26818 34.5501 9.33154 34.6499 10.23 34.6543C11.0253 34.6582 11.8209 34.6435 12.6158 34.6567C13.1848 34.6662 13.5056 34.4182 13.7114 33.8931C14.3177 32.3462 14.9364 30.8041 15.5675 29.2667C15.7207 28.892 15.8323 28.4836 16.2454 28.2815C16.3288 28.2549 16.4173 28.2485 16.5036 28.2629C17.9535 28.3984 19.4059 28.2883 20.856 28.328C21.1811 28.3369 21.5224 28.2591 21.8204 28.4671C22.0485 28.7281 21.9832 29.0478 21.9835 29.3474C21.9884 34.4585 21.9893 39.5695 21.9864 44.6805C21.9863 44.8338 21.9891 44.9874 21.9765 45.1403C21.9362 45.6289 22.3274 46.1413 21.8768 45.9396C20.9629 45.5303 19.479 44.6419 18.5881 44.1924C17.6809 43.7347 16.8409 43.4103 15.821 42.915C13.7024 41.8862 11.6863 40.6666 9.61642 39.5456C7.92889 38.6317 6.26801 37.6675 4.57514 36.7632C4.22966 36.6031 3.93404 36.3523 3.71969 36.0376C3.50535 35.7228 3.38029 35.3559 3.35782 34.9757C2.72009 29.3998 2.09486 23.8222 1.41148 18.2514C1.02346 15.0882 0.734701 11.9148 0.577789 8.73081C0.584878 8.62915 0.557471 8.52807 0.5 8.44391V7.52276C0.707598 7.26378 0.981366 7.06575 1.29232 6.94965C7.13265 4.89419 12.9654 2.81741 18.7904 0.719299C19.7582 0.371149 20.7625 0.218658 21.7559 0H22.0639Z" fill="#141420"/>
<path d="M16.3678 28.3989C15.5635 30.3596 14.7425 32.3137 13.9663 34.2854C13.7709 34.7817 13.5394 34.9988 12.9724 34.9802C11.8197 34.9425 10.6639 34.9932 9.50945 35.0105C8.66951 35.0231 8.66825 35.0247 9.00288 34.2815C10.7877 30.3179 12.5729 26.3544 14.3584 22.3911C16.8048 16.9586 19.2536 11.5272 21.705 6.09687C21.8026 5.88135 21.7592 5.49222 22.185 5.53442C23.5087 8.38197 24.8231 11.2343 26.1583 14.0769C29.3406 20.8518 32.5319 27.6224 35.7321 34.3889C36.0351 35.0281 35.8991 35.159 35.2429 35.1233C34.092 35.0607 32.9377 35.0273 31.7853 35.0371C31.3407 35.0409 31.1663 34.8594 31.0063 34.4883C30.1475 32.4974 29.2638 30.5172 28.3887 28.5333C28.3027 28.4898 28.2133 28.4536 28.1214 28.425C24.2036 28.3733 20.2856 28.4248 16.3678 28.3989Z" fill="white"/>
<path d="M16.3679 28.3987C16.4963 28.1542 16.7281 28.2565 16.9128 28.2561C20.538 28.248 24.1633 28.246 27.7886 28.2503C27.9773 28.2505 28.206 28.1598 28.3379 28.3963C27.245 28.5865 26.1437 28.4394 25.0467 28.4742C24.2775 28.4987 23.5066 28.4692 22.7368 28.4855C22.5332 28.4898 22.2566 28.3551 22.1478 28.6786C22.1315 34.041 22.1467 39.403 22.1374 44.7651C22.137 45.041 22.2049 45.3272 22.0675 45.5933L22.0571 45.7517C21.6043 45.6022 21.8472 45.2264 21.8464 44.977C21.8284 39.7014 21.8328 34.4258 21.8327 29.1501C21.8327 28.9972 21.8345 28.8443 21.8271 28.6918C21.678 28.3024 21.3417 28.4959 21.098 28.4885C19.5372 28.4409 17.9744 28.5379 16.4138 28.4341L16.3679 28.3987Z" fill="#141420"/>
<path d="M21.9087 28.5572C21.9091 33.9412 21.9104 39.3252 21.9127 44.7092C21.913 45.0603 21.8367 45.4282 22.0571 45.7516C22.0597 45.8012 22.0609 45.8508 22.0608 45.9004C21.5985 45.8889 21.2683 45.5759 20.8979 45.3711C19.2224 44.4449 17.5598 43.4954 15.8926 42.5542C16.3005 42.402 16.5701 42.7137 16.8671 42.8727C18.2651 43.6212 19.6615 44.3746 21.0317 45.1721C21.648 45.5308 21.769 45.3994 21.7666 44.7273C21.7472 39.337 21.7557 33.9466 21.7557 28.5563C21.807 28.4945 21.8581 28.4915 21.9087 28.5572Z" fill="#141420"/>
<path d="M22.0482 15.135C22.1343 15.0837 22.1818 15.1307 22.216 15.203C23.5485 18.0169 24.8808 20.831 26.2129 23.6452C26.1689 23.8881 26.0707 24.0933 25.7843 24.0874C24.5234 24.0612 23.2573 24.2276 22.0019 23.9905C21.7803 23.7297 21.837 23.4128 21.8362 23.1137C21.8303 20.9285 21.8366 18.7432 21.8304 16.558C21.8347 16.0757 21.9081 15.5965 22.0482 15.135Z" fill="#141420"/>
<path d="M18.3103 23.9312L21.6197 15.9686C21.8131 15.9669 21.8627 16.1019 21.8936 16.2548C21.9306 18.6419 21.9015 21.0291 21.9074 23.4161C21.9409 23.6188 21.8958 23.8267 21.7813 23.9973C20.6211 24.1317 19.4616 24.2483 18.3103 23.9312Z" fill="#141420"/>
<path d="M18.3104 23.9312C19.459 23.9372 20.6075 23.9433 21.7561 23.9494C21.9272 23.325 21.8202 22.6884 21.8268 22.0585C21.8448 20.3293 21.836 18.5998 21.8296 16.8704C21.8287 16.6214 21.8958 16.361 21.7568 16.1236L21.6198 15.9685C21.6966 15.6613 21.8433 15.3759 22.0485 15.1347C22.0522 18.0731 22.056 21.0115 22.06 23.9497C22.0825 23.9664 22.1005 23.9882 22.1128 24.0133C22.125 24.0384 22.131 24.0661 22.1303 24.0941C22.1296 24.122 22.1222 24.1494 22.1087 24.1739C22.0953 24.1983 22.0761 24.2192 22.0529 24.2348C20.9064 24.2458 19.76 24.2619 18.6135 24.2629C18.4269 24.2631 18.0521 24.3647 18.3104 23.9312Z" fill="#141420"/>
<path d="M22.0529 24.2348C22.0553 24.1397 22.0577 24.0447 22.0601 23.9497C23.1466 23.9496 24.2332 23.9448 25.3197 23.9523C25.6593 23.9546 25.9775 23.9282 26.2129 23.645C26.497 24.0096 26.6788 24.2965 25.9482 24.2753C24.6505 24.2375 23.3514 24.2458 22.0529 24.2348Z" fill="#141420"/>
</svg>
