<svg width="26" height="28" viewBox="0 0 26 28" fill="none" xmlns="http://www.w3.org/2000/svg">
<path d="M12.8856 0.5H12.9761C14.4184 0.67961 15.7515 1.24042 17.1107 1.69993C19.7431 2.58988 22.3694 3.49782 25.0053 4.3778C25.284 4.47085 25.5998 4.51987 25.7546 4.82644C25.77 4.97236 25.7747 5.1192 25.7687 5.26581C25.6943 6.85255 25.5652 8.43341 25.3559 10.0096C25.1092 11.867 24.8917 13.7286 24.6538 15.5873C24.4101 17.4909 24.192 19.3979 23.9243 21.2986C23.8865 21.5663 23.724 21.7215 23.5071 21.8488C22.5211 22.4274 21.5121 22.9651 20.5127 23.5197C18.3952 24.6947 16.2705 25.8566 14.1528 27.0311C13.7589 27.2495 13.3877 27.588 12.8699 27.4789C12.8295 27.4413 12.8006 27.3931 12.7861 27.3399C12.7771 27.2838 12.7785 27.2265 12.7902 27.1709C12.8358 26.8596 12.8526 26.5447 12.8402 26.2304C12.8407 23.4469 12.8413 20.6634 12.8422 17.8799C12.8424 17.6727 12.8076 17.4597 12.9012 17.2606C13.005 17.1203 13.16 17.1276 13.3081 17.1284C14.3978 17.1342 15.4876 17.1038 16.5764 17.1431C16.8092 17.1954 16.9059 17.3735 16.9952 17.5727C17.3816 18.4344 17.7619 19.2989 18.1122 20.1754C18.301 20.6477 18.5666 20.9114 19.1215 20.8512C19.526 20.8071 19.9346 20.8161 20.3368 20.878C20.6386 20.925 20.6841 20.8121 20.5846 20.5528C20.3373 19.9076 20.0154 19.2958 19.718 18.675C18.6492 16.4444 17.6192 14.1957 16.5529 11.9638C15.3703 9.48891 14.2332 6.99245 13.0399 4.52246C12.9087 4.25092 12.902 3.93675 12.7288 3.68125C12.6233 2.76837 12.6808 1.85392 12.6892 0.940261C12.6896 0.857257 12.7072 0.775239 12.741 0.699438C12.7749 0.623637 12.8241 0.555714 12.8856 0.5Z" fill="#545454"/>
<path d="M12.8858 0.5C12.8843 1.40732 12.8826 2.31463 12.8807 3.22195C12.8717 3.40064 12.8976 3.57937 12.9569 3.74817C12.6592 4.83857 12.1048 5.82248 11.6509 6.84706C10.5328 9.37087 9.39548 11.8863 8.25918 14.402C7.39455 16.3162 6.54392 18.2368 5.66582 20.145C5.64071 20.1995 5.6115 20.2522 5.58695 20.307C5.3753 20.7794 5.41249 20.838 5.93984 20.8406C6.40663 20.8428 6.87362 20.8343 7.3402 20.842C7.6742 20.8475 7.86247 20.702 7.98327 20.3938C8.33917 19.4858 8.70231 18.5807 9.0727 17.6783C9.16263 17.4584 9.22818 17.2186 9.47062 17.1C9.51957 17.0844 9.57152 17.0807 9.6222 17.0891C10.4732 17.1686 11.3257 17.104 12.1769 17.1273C12.3676 17.1325 12.568 17.0869 12.7429 17.2089C12.8768 17.3621 12.8385 17.5498 12.8387 17.7257C12.8415 20.7256 12.8421 23.7256 12.8403 26.7255C12.8403 26.8155 12.8419 26.9056 12.8345 26.9954C12.8109 27.2822 13.0405 27.583 12.776 27.4645C12.2396 27.2243 11.3686 26.7029 10.8457 26.439C10.3132 26.1704 9.82017 25.9799 9.22152 25.6893C7.97797 25.0854 6.79463 24.3695 5.5797 23.7116C4.58919 23.1751 3.61433 22.6092 2.62069 22.0784C2.41791 21.9844 2.24439 21.8372 2.11858 21.6525C1.99277 21.4677 1.91936 21.2524 1.90617 21.0292C1.53186 17.7564 1.16487 14.4826 0.763761 11.2128C0.536008 9.35611 0.366519 7.4935 0.274419 5.62461C0.27858 5.56494 0.262493 5.50561 0.22876 5.45621V4.91553C0.350611 4.76352 0.511301 4.64729 0.693815 4.57914C4.12184 3.37268 7.54538 2.15369 10.9644 0.922197C11.5325 0.717848 12.1219 0.628343 12.705 0.5H12.8858Z" fill="#545454"/>
<path d="M9.54279 17.1689C9.07066 18.3197 8.58878 19.4667 8.13321 20.624C8.01853 20.9153 7.88262 21.0427 7.54985 21.0318C6.87323 21.0097 6.19485 21.0394 5.51722 21.0496C5.02421 21.057 5.02347 21.0579 5.21988 20.6217C6.26749 18.2952 7.3153 15.9689 8.36333 13.6426C9.79925 10.4539 11.2366 7.26589 12.6755 4.07854C12.7327 3.95205 12.7073 3.72364 12.9572 3.74841C13.7341 5.4198 14.5057 7.09398 15.2894 8.76246C17.1573 12.739 19.0304 16.7131 20.9088 20.6848C21.0866 21.0599 21.0068 21.1367 20.6216 21.1158C19.9461 21.0791 19.2686 21.0594 18.5922 21.0652C18.3312 21.0674 18.2289 20.9609 18.1349 20.7431C17.6309 19.5745 17.1122 18.4122 16.5985 17.2477C16.5481 17.2222 16.4956 17.201 16.4416 17.1842C14.142 17.1538 11.8424 17.1841 9.54279 17.1689Z" fill="white"/>
<path d="M9.54266 17.1694C9.61804 17.0259 9.75414 17.086 9.86251 17.0857C11.9904 17.0809 14.1182 17.0798 16.2461 17.0823C16.3569 17.0824 16.4911 17.0292 16.5685 17.168C15.9271 17.2797 15.2806 17.1933 14.6368 17.2138C14.1853 17.2281 13.7328 17.2108 13.281 17.2204C13.1614 17.2229 12.9991 17.1438 12.9353 17.3337C12.9256 20.4812 12.9346 23.6285 12.9292 26.7757C12.9289 26.9377 12.9688 27.1057 12.8881 27.2619L12.882 27.3549C12.6163 27.2671 12.7588 27.0465 12.7583 26.9002C12.7478 23.8036 12.7504 20.707 12.7503 17.6105C12.7503 17.5207 12.7513 17.4309 12.747 17.3414C12.6595 17.1129 12.4621 17.2265 12.3191 17.2221C11.4029 17.1942 10.4857 17.2511 9.56963 17.1902L9.54266 17.1694Z" fill="#545454"/>
<path d="M12.7948 17.2623C12.795 20.4225 12.7958 23.5827 12.7971 26.7428C12.7973 26.949 12.7525 27.1649 12.8819 27.3547C12.8834 27.3838 12.8841 27.4129 12.884 27.442C12.6127 27.4353 12.4189 27.2516 12.2015 27.1314C11.218 26.5877 10.2422 26.0304 9.26355 25.478C9.50301 25.3887 9.66124 25.5716 9.83554 25.6649C10.6561 26.1042 11.4758 26.5465 12.28 27.0146C12.6417 27.2251 12.7127 27.148 12.7113 26.7535C12.6999 23.5896 12.7049 20.4257 12.7049 17.2618C12.7351 17.2255 12.7651 17.2238 12.7948 17.2623Z" fill="#545454"/>
<path d="M12.8767 9.38361C12.9272 9.35348 12.9551 9.38106 12.9752 9.42347C13.7573 11.0752 14.5393 12.7269 15.3211 14.3787C15.2953 14.5213 15.2377 14.6417 15.0696 14.6383C14.3295 14.6229 13.5864 14.7205 12.8495 14.5814C12.7194 14.4283 12.7527 14.2423 12.7522 14.0668C12.7488 12.7841 12.7525 11.5015 12.7488 10.2188C12.7514 9.93576 12.7944 9.6545 12.8767 9.38361Z" fill="#545454"/>
<path d="M10.6826 14.5465L12.6251 9.87281C12.7386 9.87182 12.7677 9.95108 12.7858 10.0408C12.8076 11.442 12.7905 12.8431 12.7939 14.2442C12.8136 14.3632 12.7871 14.4852 12.7199 14.5853C12.039 14.6642 11.3583 14.7326 10.6826 14.5465Z" fill="#545454"/>
<path d="M10.6828 14.5465C11.3569 14.5501 12.031 14.5537 12.7052 14.5572C12.8056 14.1907 12.7428 13.8171 12.7467 13.4473C12.7573 12.4324 12.7521 11.4172 12.7484 10.4022C12.7478 10.256 12.7872 10.1032 12.7056 9.96384L12.6252 9.8728C12.6703 9.69246 12.7564 9.52495 12.8768 9.38336C12.879 11.1081 12.8813 12.8328 12.8836 14.5574C12.8968 14.5672 12.9074 14.58 12.9146 14.5947C12.9218 14.6095 12.9253 14.6257 12.9249 14.6421C12.9245 14.6585 12.9201 14.6746 12.9122 14.689C12.9043 14.7033 12.893 14.7156 12.8794 14.7247C12.2065 14.7312 11.5336 14.7407 10.8607 14.7412C10.7511 14.7413 10.5311 14.801 10.6828 14.5465Z" fill="#545454"/>
<path d="M12.8792 14.7245C12.8807 14.6687 12.8821 14.6129 12.8835 14.5572C13.5212 14.5571 14.159 14.5543 14.7967 14.5587C14.9961 14.5601 15.1828 14.5446 15.321 14.3783C15.4877 14.5923 15.5945 14.7607 15.1656 14.7483C14.4039 14.7261 13.6414 14.7309 12.8792 14.7245Z" fill="#545454"/>
</svg>
