<svg width="36" height="24" viewBox="0 0 36 24" fill="none" xmlns="http://www.w3.org/2000/svg">
<g clip-path="url(#clip0_653_1167)">
<path d="M6.01874 14.5517C10.8 11.4812 16.2281 13.6965 18.9422 15.1687C15.1875 13.6825 9.70311 13.346 6.01874 14.5517Z" fill="#5FB0E2"/>
<path d="M14.4281 0.503143C16.7344 0.503143 18.7031 1.84912 19.5891 3.79797H17.7891C17.0016 2.81654 15.7781 2.19963 14.4 2.19963C13.05 2.19963 11.8547 2.80252 11.0531 3.75591C11.0953 3.72787 11.1375 3.68581 11.1797 3.65777C13.0641 2.32582 15.5672 3.79797 15.5672 3.79797C15.5672 3.79797 13.1906 3.11097 11.5734 4.23261C9.95624 5.35426 10.2234 7.61157 10.2234 7.61157C10.2234 7.61157 10.2094 7.58353 10.1953 7.52744C10.1953 7.55548 10.2094 7.58353 10.2094 7.61157C9.82968 7.33116 9.35156 7.14889 8.84531 7.09281C8.78906 6.77033 8.74687 6.43384 8.74687 6.08333C8.76093 2.9988 11.2922 0.503143 14.4281 0.503143ZM7.18593 13.2478V12.7711C8.67656 11.6635 11.4328 10.2334 14.7516 11.2709C19.7859 12.8412 22.9781 14.9864 26.8734 14.019C30.7547 13.0515 31.1062 10.9344 31.1062 10.9344C31.1062 10.9344 30.4172 13.9208 26.5922 14.5798C22.7672 15.2388 19.2375 14.4957 14.7375 12.8272C11.7 11.7056 8.77499 12.5748 7.18593 13.2478ZM7.18593 12.2804C7.46718 12.0981 7.74843 11.9159 8.00156 11.7757C7.87499 11.6915 7.76249 11.6074 7.64999 11.4953C7.45312 11.299 7.29843 11.0746 7.18593 10.8503V11.8878L7.21406 11.9159C7.27031 11.9579 7.31249 12 7.36874 12.0421C7.29843 12.014 7.24218 11.986 7.18593 11.9439V12.2804ZM7.18593 7.44332V5.67673C7.55156 5.55054 7.94531 5.48044 8.33906 5.4524C8.32499 5.64869 8.31093 5.859 8.31093 6.06931C8.31093 6.41982 8.33906 6.75631 8.39531 7.09281C7.95937 7.12085 7.55156 7.24703 7.18593 7.44332ZM7.18593 5.67673V7.44332C6.39843 7.89198 5.86406 8.73321 5.86406 9.70063C5.86406 10.668 6.39843 11.5093 7.18593 11.9579V12.2804C6.86249 12.4907 6.55312 12.7291 6.29999 12.9254C5.16093 12.1963 4.41562 10.9485 4.41562 9.51836C4.41562 7.73775 5.56874 6.22353 7.18593 5.67673ZM7.18593 10.8643C6.67968 9.89692 6.84843 8.78929 6.84843 8.78929C6.84843 8.78929 6.00468 10.7382 7.18593 11.9019V10.8643ZM7.18593 12.7571C6.41249 13.332 5.97656 13.8087 5.97656 13.8087C5.97656 13.8227 6.42656 13.5563 7.18593 13.2338V12.7571Z" fill="url(#paint0_radial_653_1167)"/>
<path d="M19.8422 12C19.8422 12 22.2469 13.2198 24.4969 13.0235C26.7609 12.8272 27.4359 12.028 27.4359 12.028C27.4359 12.028 26.6063 13.5563 24.4406 13.6404C22.275 13.7245 19.8422 12.0561 19.8422 12ZM18 4.26065H20.025V6.27961H18V4.26065Z" fill="#5FB0E2"/>
<path d="M26.0156 9.82681H27.5766V11.3831H26.0156V9.82681Z" fill="#0088CF"/>
<path d="M20.4328 2.40994H23.1187V5.08787H20.4328V2.40994Z" fill="#5FB0E2"/>
<path d="M28.2516 7.05074H30.9375V9.72866H28.2516V7.05074Z" fill="#0088CF"/>
<path d="M23.3859 5.29817H24.8906V6.79837H23.3859V5.29817ZM24.3844 8.24249H25.8891V9.74269H24.3844V8.24249Z" fill="#5FB0E2"/>
<path d="M21.2203 8.39671H22.725V9.89691H21.2203V8.39671ZM26.4937 5.35425H27.9984V6.85445H26.4937V5.35425Z" fill="#0088CF"/>
<path d="M4.42969 19.7534C4.42969 20.1179 4.37344 20.4544 4.24688 20.7629C4.12031 21.0713 3.95156 21.3377 3.72656 21.548C3.50156 21.7723 3.23438 21.9406 2.925 22.0668C2.61562 22.193 2.26406 22.249 1.89844 22.249H0V17.2717H1.9125C2.29219 17.2717 2.62969 17.3278 2.93906 17.454C3.24844 17.5802 3.51562 17.7484 3.74063 17.9728C3.96563 18.1971 4.13438 18.4495 4.26094 18.7579C4.37344 19.0664 4.42969 19.3888 4.42969 19.7534ZM3.4875 19.7534C3.4875 19.487 3.44531 19.2346 3.375 19.0243C3.30469 18.814 3.19219 18.6177 3.06562 18.4775C2.925 18.3233 2.77031 18.2111 2.57344 18.127C2.37656 18.0429 2.16563 18.0008 1.9125 18.0008H0.942187V21.5059H1.9125C2.15156 21.5059 2.37656 21.4639 2.57344 21.3798C2.77031 21.2956 2.93906 21.1835 3.06562 21.0292C3.20625 20.875 3.30469 20.6928 3.375 20.4824C3.44531 20.2721 3.4875 20.0338 3.4875 19.7534ZM5.80781 17.6924C5.80781 17.7625 5.79375 17.8326 5.76562 17.9027C5.7375 17.9728 5.69531 18.0288 5.65313 18.0709C5.59688 18.113 5.54063 18.155 5.48438 18.1831C5.41406 18.2111 5.34375 18.2251 5.27344 18.2251C5.20312 18.2251 5.13281 18.2111 5.0625 18.1831C4.99219 18.155 4.93594 18.113 4.89375 18.0709C4.85156 18.0288 4.80937 17.9728 4.78125 17.9027C4.75313 17.8326 4.73906 17.7765 4.73906 17.6924C4.73906 17.6223 4.75313 17.5521 4.78125 17.482C4.80937 17.4119 4.85156 17.3559 4.89375 17.3138C4.93594 17.2717 4.99219 17.2297 5.0625 17.2016C5.13281 17.1736 5.20312 17.1596 5.27344 17.1596C5.34375 17.1596 5.41406 17.1736 5.48438 17.2016C5.55469 17.2297 5.61094 17.2717 5.65313 17.3138C5.70937 17.3559 5.7375 17.426 5.76562 17.482C5.79375 17.5381 5.80781 17.6082 5.80781 17.6924ZM5.68125 18.7159V22.249H4.82344V18.7159H5.68125ZM7.52344 18.6598C7.67812 18.6598 7.81875 18.6738 7.94531 18.7018C8.07187 18.7299 8.19844 18.7719 8.31094 18.842H9.32344V19.1645C9.32344 19.2206 9.30937 19.2627 9.28125 19.2907C9.25313 19.3187 9.21094 19.3468 9.14062 19.3468L8.81719 19.4029C8.84531 19.4589 8.85938 19.529 8.87344 19.5851C8.8875 19.6552 8.8875 19.7253 8.8875 19.7954C8.8875 19.9637 8.85938 20.1319 8.78906 20.2721C8.71875 20.4123 8.62031 20.5385 8.49375 20.6367C8.36719 20.7348 8.22656 20.8049 8.05781 20.861C7.88906 20.9171 7.70625 20.9451 7.50938 20.9451C7.38281 20.9451 7.24219 20.9311 7.11562 20.9031C7.00312 20.9732 6.94688 21.0433 6.94688 21.1274C6.94688 21.1975 6.975 21.2536 7.04531 21.2816C7.11562 21.3097 7.2 21.3377 7.29844 21.3517C7.41094 21.3657 7.52344 21.3657 7.66406 21.3657C7.80469 21.3657 7.94531 21.3657 8.08594 21.3798C8.22656 21.3938 8.36719 21.4078 8.50781 21.4358C8.64844 21.4639 8.76094 21.5059 8.87344 21.576C8.98594 21.6321 9.07031 21.7163 9.12656 21.8284C9.19688 21.9406 9.225 22.0668 9.225 22.235C9.225 22.3892 9.18281 22.5435 9.1125 22.6977C9.04219 22.8519 8.92969 22.9781 8.775 23.0903C8.63438 23.2024 8.45156 23.3006 8.24062 23.3707C8.02969 23.4408 7.79063 23.4828 7.50938 23.4828C7.24219 23.4828 7.00313 23.4548 6.80625 23.3987C6.60938 23.3426 6.44063 23.2725 6.31406 23.1884C6.1875 23.1043 6.08906 23.0061 6.01875 22.894C5.94844 22.7818 5.92031 22.6697 5.92031 22.5435C5.92031 22.3752 5.97656 22.235 6.075 22.1228C6.17344 22.0107 6.31406 21.9266 6.49688 21.8565C6.4125 21.8144 6.34219 21.7443 6.28594 21.6602C6.22969 21.576 6.20156 21.4779 6.20156 21.3517C6.20156 21.2956 6.21562 21.2396 6.22969 21.1835C6.24375 21.1274 6.27188 21.0713 6.31406 21.0152C6.35625 20.9591 6.39844 20.9031 6.45469 20.861C6.51094 20.8049 6.58125 20.7629 6.65156 20.7348C6.46875 20.6367 6.32812 20.5105 6.22969 20.3422C6.13125 20.188 6.075 19.9917 6.075 19.7814C6.075 19.6132 6.10313 19.4449 6.17344 19.3047C6.24375 19.1645 6.34219 19.0383 6.46875 18.9402C6.59531 18.842 6.73594 18.7579 6.91875 18.7159C7.12969 18.6878 7.3125 18.6598 7.52344 18.6598ZM8.45156 22.4033C8.45156 22.3332 8.4375 22.2771 8.39531 22.235C8.35313 22.193 8.29688 22.1509 8.22656 22.1369C8.15625 22.1088 8.07188 22.0948 7.97344 22.0808C7.875 22.0668 7.77656 22.0668 7.66406 22.0668H7.32656C7.21406 22.0668 7.10156 22.0527 7.00312 22.0247C6.90469 22.0808 6.83437 22.1369 6.76406 22.207C6.70781 22.2771 6.67969 22.3612 6.67969 22.4593C6.67969 22.5154 6.69375 22.5855 6.72187 22.6276C6.75 22.6837 6.80625 22.7257 6.87656 22.7678C6.94688 22.8099 7.03125 22.8379 7.14375 22.8659C7.25625 22.894 7.38281 22.894 7.5375 22.894C7.69219 22.894 7.83281 22.88 7.94531 22.8519C8.05781 22.8239 8.15625 22.7958 8.22656 22.7538C8.29688 22.7117 8.35313 22.6556 8.39531 22.5996C8.4375 22.5294 8.45156 22.4734 8.45156 22.4033ZM7.52344 20.3983C7.63594 20.3983 7.72031 20.3843 7.80469 20.3563C7.88906 20.3282 7.94531 20.2862 8.00156 20.2441C8.05781 20.188 8.08594 20.1319 8.11406 20.0618C8.14219 19.9917 8.15625 19.9076 8.15625 19.8235C8.15625 19.6552 8.1 19.515 8.00156 19.4029C7.90313 19.3047 7.73438 19.2486 7.52344 19.2486C7.3125 19.2486 7.15781 19.3047 7.04531 19.4029C6.94687 19.501 6.89062 19.6412 6.89062 19.8235C6.89062 19.9076 6.90469 19.9777 6.93281 20.0478C6.96094 20.1179 7.00312 20.174 7.04531 20.2301C7.10156 20.2862 7.15781 20.3282 7.24219 20.3563C7.32656 20.3843 7.41094 20.3983 7.52344 20.3983ZM10.5609 17.6924C10.5609 17.7625 10.5469 17.8326 10.5188 17.9027C10.4906 17.9728 10.4484 18.0288 10.4062 18.0709C10.35 18.113 10.2938 18.155 10.2375 18.1831C10.1672 18.2111 10.0969 18.2251 10.0266 18.2251C9.95625 18.2251 9.88594 18.2111 9.81563 18.1831C9.74531 18.155 9.68906 18.113 9.64687 18.0709C9.60469 18.0288 9.5625 17.9728 9.53438 17.9027C9.50625 17.8326 9.49219 17.7765 9.49219 17.6924C9.49219 17.6223 9.50625 17.5521 9.53438 17.482C9.5625 17.4119 9.60469 17.3559 9.64687 17.3138C9.68906 17.2717 9.74531 17.2297 9.81563 17.2016C9.88594 17.1736 9.95625 17.1596 10.0266 17.1596C10.0969 17.1596 10.1672 17.1736 10.2375 17.2016C10.3078 17.2297 10.3641 17.2717 10.4062 17.3138C10.4625 17.3559 10.4906 17.426 10.5188 17.482C10.5469 17.5381 10.5609 17.6082 10.5609 17.6924ZM10.4344 18.7159V22.249H9.57656V18.7159H10.4344ZM12.2063 22.3051C11.8969 22.3051 11.6578 22.221 11.5031 22.0387C11.3344 21.8705 11.25 21.6321 11.25 21.3237V19.3468H10.8844C10.8422 19.3468 10.8 19.3328 10.7719 19.3047C10.7437 19.2767 10.7156 19.2346 10.7156 19.1645V18.828L11.2922 18.7299L11.475 17.7625C11.4891 17.7204 11.5031 17.6783 11.5453 17.6503C11.5734 17.6223 11.6156 17.6082 11.6719 17.6082H12.1078V18.7159H13.0359V19.3187H12.1078V21.2396C12.1078 21.3517 12.1359 21.4358 12.1922 21.4919C12.2484 21.548 12.3188 21.5901 12.4172 21.5901C12.4734 21.5901 12.5156 21.5901 12.5437 21.576C12.5859 21.562 12.6141 21.548 12.6422 21.534C12.6703 21.52 12.6984 21.5059 12.7125 21.4919C12.7266 21.4779 12.7547 21.4779 12.7688 21.4779C12.7969 21.4779 12.8109 21.4779 12.825 21.4919L12.8812 21.548L13.1344 21.9546C13.0078 22.0527 12.8672 22.1369 12.7125 22.193C12.5578 22.2771 12.3891 22.3051 12.2063 22.3051ZM16.1578 22.249H15.7781C15.6937 22.249 15.6375 22.235 15.5813 22.207C15.5391 22.1789 15.4969 22.1369 15.4828 22.0668L15.4125 21.8144C15.3281 21.8985 15.2297 21.9686 15.1453 22.0247C15.0609 22.0808 14.9766 22.1369 14.8781 22.1789C14.7797 22.221 14.6812 22.249 14.5828 22.2771C14.4844 22.2911 14.3578 22.3051 14.2312 22.3051C14.0766 22.3051 13.95 22.2911 13.8234 22.249C13.6969 22.207 13.5844 22.1509 13.5 22.0668C13.4156 21.9826 13.3313 21.8845 13.2891 21.7723C13.2328 21.6462 13.2188 21.52 13.2188 21.3517C13.2188 21.2115 13.2469 21.0853 13.3172 20.9591C13.3875 20.833 13.5 20.7068 13.6687 20.6086C13.8375 20.5105 14.0484 20.4123 14.3156 20.3422C14.5828 20.2721 14.9203 20.2441 15.3281 20.2441V20.0338C15.3281 19.7954 15.2719 19.6132 15.1734 19.501C15.075 19.3888 14.9344 19.3328 14.7375 19.3328C14.5969 19.3328 14.4844 19.3468 14.3859 19.3748C14.2875 19.4029 14.2172 19.4449 14.1469 19.487C14.0766 19.529 14.0203 19.5571 13.9641 19.5991C13.9078 19.6272 13.8375 19.6412 13.7672 19.6412C13.7109 19.6412 13.6547 19.6272 13.6125 19.5991C13.5703 19.5711 13.5422 19.529 13.5141 19.487L13.3594 19.2206C13.7672 18.842 14.2594 18.6598 14.8359 18.6598C15.0469 18.6598 15.2297 18.6878 15.3844 18.7579C15.5531 18.828 15.6797 18.9262 15.7922 19.0383C15.9047 19.1645 15.9891 19.3047 16.0453 19.473C16.1016 19.6412 16.1297 19.8235 16.1297 20.0198V22.249H16.1578ZM14.4984 21.7163C14.5828 21.7163 14.6672 21.7022 14.7375 21.6882C14.8078 21.6742 14.8781 21.6462 14.9484 21.6181C15.0188 21.5901 15.075 21.548 15.1453 21.5059C15.2016 21.4639 15.2719 21.4078 15.3281 21.3377V20.7488C15.075 20.7488 14.8781 20.7629 14.7094 20.7909C14.5406 20.8189 14.4141 20.861 14.3016 20.9171C14.2031 20.9591 14.1328 21.0292 14.0906 21.0853C14.0484 21.1554 14.0203 21.2255 14.0203 21.2956C14.0203 21.4499 14.0625 21.548 14.1469 21.6181C14.2312 21.6882 14.3578 21.7163 14.4984 21.7163ZM17.55 17.1315V22.249H16.6922V17.1315H17.55ZM23.0063 19.7534C23.0063 20.1179 22.95 20.4544 22.8234 20.7629C22.6969 21.0713 22.5281 21.3377 22.3031 21.576C22.0781 21.8004 21.8109 21.9826 21.5016 22.1088C21.1922 22.235 20.8406 22.3051 20.475 22.3051C20.1094 22.3051 19.7578 22.235 19.4344 22.1088C19.125 21.9826 18.8578 21.8004 18.6328 21.576C18.4078 21.3517 18.2391 21.0853 18.1125 20.7629C17.9859 20.4544 17.9297 20.1179 17.9297 19.7534C17.9297 19.3888 17.9859 19.0523 18.1125 18.7439C18.2391 18.4354 18.4078 18.1691 18.6328 17.9307C18.8578 17.7064 19.125 17.5241 19.4344 17.3979C19.7437 17.2717 20.0953 17.2016 20.475 17.2016C20.8547 17.2016 21.1922 17.2717 21.5016 17.3979C21.8109 17.5241 22.0781 17.7064 22.3031 17.9307C22.5281 18.155 22.6969 18.4214 22.8234 18.7299C22.95 19.0523 23.0063 19.3888 23.0063 19.7534ZM22.0641 19.7534C22.0641 19.487 22.0219 19.2346 21.9516 19.0243C21.8813 18.814 21.7687 18.6177 21.6422 18.4775C21.5016 18.3233 21.3469 18.2111 21.15 18.127C20.9531 18.0429 20.7422 18.0008 20.4891 18.0008C20.2359 18.0008 20.025 18.0429 19.8281 18.127C19.6313 18.2111 19.4625 18.3233 19.3359 18.4775C19.1953 18.6317 19.0969 18.814 19.0266 19.0243C18.9563 19.2346 18.9141 19.487 18.9141 19.7534C18.9141 20.0198 18.9563 20.2721 19.0266 20.4824C19.0969 20.6928 19.2094 20.889 19.3359 21.0292C19.4766 21.1835 19.6453 21.2956 19.8281 21.3798C20.025 21.4639 20.25 21.5059 20.4891 21.5059C20.7281 21.5059 20.9531 21.4639 21.15 21.3798C21.3469 21.2956 21.5156 21.1835 21.6422 21.0292C21.7828 20.875 21.8813 20.6928 21.9516 20.4824C22.0219 20.2721 22.0641 20.0338 22.0641 19.7534ZM25.8328 19.4589L25.7625 19.529C25.7344 19.5431 25.7062 19.5571 25.6641 19.5571C25.6219 19.5571 25.5797 19.5431 25.5375 19.515C25.4953 19.487 25.4531 19.4589 25.3828 19.4309C25.3266 19.4029 25.2563 19.3608 25.1719 19.3468C25.0875 19.3187 24.9891 19.3047 24.8766 19.3047C24.7219 19.3047 24.5953 19.3328 24.4828 19.3888C24.3703 19.4449 24.2719 19.515 24.2016 19.6272C24.1313 19.7253 24.075 19.8515 24.0328 19.9917C23.9906 20.1319 23.9766 20.3002 23.9766 20.4824C23.9766 20.6647 23.9906 20.833 24.0328 20.9872C24.075 21.1274 24.1313 21.2536 24.2016 21.3517C24.2719 21.4499 24.3703 21.534 24.4828 21.576C24.5953 21.6321 24.7078 21.6602 24.8484 21.6602C24.9891 21.6602 25.0875 21.6462 25.1719 21.6041C25.2563 21.576 25.3266 21.534 25.3828 21.4919C25.4391 21.4499 25.4953 21.4218 25.5375 21.3798C25.5797 21.3517 25.6219 21.3237 25.6781 21.3237C25.7484 21.3237 25.8047 21.3517 25.8328 21.4078L26.0719 21.7163C25.9734 21.8284 25.875 21.9125 25.7625 21.9967C25.65 22.0668 25.5375 22.1369 25.425 22.1789C25.3125 22.221 25.1859 22.249 25.0594 22.2771C24.9328 22.2911 24.8062 22.3051 24.6797 22.3051C24.4547 22.3051 24.2578 22.2631 24.0609 22.1789C23.8641 22.0948 23.6953 21.9826 23.5547 21.8284C23.4141 21.6742 23.3016 21.4779 23.2172 21.2536C23.1328 21.0292 23.0906 20.7769 23.0906 20.4824C23.0906 20.2301 23.1328 19.9777 23.2031 19.7674C23.2734 19.5431 23.3859 19.3608 23.5266 19.1926C23.6672 19.0243 23.85 18.8981 24.0609 18.814C24.2719 18.7159 24.525 18.6738 24.8062 18.6738C25.0734 18.6738 25.2984 18.7159 25.4953 18.8C25.6922 18.8841 25.875 19.0103 26.0297 19.1645L25.8328 19.4589ZM27.7594 18.6598C27.9844 18.6598 28.1812 18.7018 28.3781 18.7719C28.5609 18.842 28.7297 18.9402 28.8703 19.0804C29.0109 19.2206 29.1094 19.3888 29.1938 19.5851C29.2641 19.7814 29.3062 20.0057 29.3062 20.2581C29.3062 20.3282 29.3062 20.3703 29.2922 20.4123C29.2922 20.4544 29.2781 20.4824 29.2641 20.5105C29.25 20.5385 29.2359 20.5525 29.2078 20.5666C29.1797 20.5806 29.1516 20.5806 29.1094 20.5806H26.9156C26.9437 20.9451 27.0422 21.2115 27.2109 21.3798C27.3797 21.548 27.6047 21.6321 27.8859 21.6321C28.0266 21.6321 28.1391 21.6181 28.2375 21.5901C28.3359 21.562 28.4203 21.52 28.5047 21.4779C28.575 21.4358 28.6453 21.4078 28.7016 21.3657C28.7578 21.3377 28.8141 21.3237 28.8703 21.3237C28.8984 21.3237 28.9406 21.3237 28.9547 21.3377C28.9828 21.3517 28.9969 21.3657 29.025 21.3938L29.2781 21.7022C29.1797 21.8144 29.0812 21.8985 28.9547 21.9826C28.8422 22.0527 28.7156 22.1229 28.5891 22.1649C28.4625 22.207 28.3359 22.235 28.1953 22.2631C28.0688 22.2771 27.9281 22.2911 27.8156 22.2911C27.5625 22.2911 27.3375 22.249 27.1266 22.1649C26.9156 22.0808 26.7328 21.9686 26.5781 21.8004C26.4234 21.6462 26.2969 21.4499 26.2125 21.2115C26.1281 20.9732 26.0719 20.7068 26.0719 20.3983C26.0719 20.16 26.1141 19.9356 26.1844 19.7253C26.2687 19.515 26.3813 19.3328 26.5219 19.1645C26.6625 19.0103 26.8453 18.8841 27.0562 18.786C27.2531 18.7018 27.4922 18.6598 27.7594 18.6598ZM27.7734 19.2767C27.5203 19.2767 27.3234 19.3468 27.1969 19.487C27.0562 19.6272 26.9719 19.8235 26.9297 20.0758H28.5328C28.5328 19.9637 28.5188 19.8655 28.4906 19.7674C28.4625 19.6693 28.4203 19.5851 28.35 19.515C28.2938 19.4449 28.2094 19.3888 28.1109 19.3468C28.0125 19.2907 27.9 19.2767 27.7734 19.2767ZM32.4141 22.249H32.0344C31.95 22.249 31.8937 22.235 31.8375 22.207C31.7953 22.1789 31.7531 22.1369 31.7391 22.0668L31.6687 21.8144C31.5844 21.8985 31.4859 21.9686 31.4016 22.0247C31.3172 22.0808 31.2328 22.1369 31.1344 22.1789C31.0359 22.221 30.9375 22.249 30.8391 22.2771C30.7406 22.2911 30.6141 22.3051 30.4875 22.3051C30.3328 22.3051 30.2062 22.2911 30.0797 22.249C29.9531 22.207 29.8406 22.1509 29.7563 22.0668C29.6719 21.9826 29.5875 21.8845 29.5453 21.7723C29.4891 21.6462 29.475 21.52 29.475 21.3517C29.475 21.2115 29.5031 21.0853 29.5734 20.9591C29.6438 20.833 29.7563 20.7068 29.925 20.6086C30.0938 20.5105 30.3047 20.4123 30.5719 20.3422C30.8391 20.2721 31.1766 20.2441 31.5844 20.2441V20.0338C31.5844 19.7954 31.5281 19.6132 31.4297 19.501C31.3312 19.3888 31.1906 19.3328 30.9937 19.3328C30.8531 19.3328 30.7406 19.3468 30.6422 19.3748C30.5437 19.4029 30.4734 19.4449 30.4031 19.487C30.3328 19.529 30.2766 19.5571 30.2203 19.5991C30.1641 19.6272 30.0938 19.6412 30.0375 19.6412C29.9813 19.6412 29.925 19.6272 29.8828 19.5991C29.8406 19.5711 29.8125 19.529 29.7844 19.487L29.6297 19.2206C30.0375 18.842 30.5297 18.6598 31.1062 18.6598C31.3172 18.6598 31.5 18.6878 31.6547 18.7579C31.8234 18.828 31.95 18.9262 32.0625 19.0383C32.175 19.1645 32.2594 19.3047 32.3156 19.473C32.3719 19.6412 32.4 19.8235 32.4 20.0198V22.249H32.4141ZM30.7688 21.7163C30.8531 21.7163 30.9375 21.7022 31.0078 21.6882C31.0781 21.6742 31.1484 21.6462 31.2188 21.6181C31.2891 21.5901 31.3453 21.548 31.4156 21.5059C31.4719 21.4639 31.5422 21.4078 31.5984 21.3377V20.7488C31.3453 20.7488 31.1484 20.7629 30.9797 20.7909C30.8109 20.8189 30.6844 20.861 30.5719 20.9171C30.4734 20.9591 30.4031 21.0292 30.3609 21.0853C30.3187 21.1554 30.2906 21.2255 30.2906 21.2956C30.2906 21.4499 30.3328 21.548 30.4172 21.6181C30.5016 21.6882 30.6141 21.7163 30.7688 21.7163ZM32.9062 22.249V18.7159H33.4266C33.5391 18.7159 33.6094 18.7719 33.6375 18.8701L33.6938 19.1505C33.7641 19.0804 33.8344 19.0103 33.9188 18.9542C34.0031 18.8981 34.0875 18.842 34.1719 18.8C34.2562 18.7579 34.3547 18.7299 34.4531 18.7018C34.5516 18.6738 34.6641 18.6738 34.7906 18.6738C34.9875 18.6738 35.1562 18.7018 35.3109 18.7719C35.4656 18.842 35.5922 18.9262 35.6906 19.0523C35.7891 19.1645 35.8734 19.3047 35.9156 19.473C35.9719 19.6412 36 19.8235 36 20.0198V22.2631H35.1422V20.0198C35.1422 19.8095 35.0859 19.6412 34.9875 19.515C34.8891 19.4029 34.7344 19.3328 34.5375 19.3328C34.3969 19.3328 34.2562 19.3608 34.1297 19.4309C34.0031 19.501 33.8766 19.5851 33.7641 19.6973V22.249H32.9062Z" fill="#0A8CCC"/>
</g>
<defs>
<radialGradient id="paint0_radial_653_1167" cx="0" cy="0" r="1" gradientUnits="userSpaceOnUse" gradientTransform="translate(484.767 372.649) scale(1744.71 935.777)">
<stop stop-color="#5FB0E2"/>
<stop offset="0.09123" stop-color="#45A1D7"/>
<stop offset="0.208" stop-color="#2C93CD"/>
<stop offset="0.3383" stop-color="#1888C4"/>
<stop offset="0.4876" stop-color="#0B80BE"/>
<stop offset="0.6724" stop-color="#027BBB"/>
<stop offset="1" stop-color="#007ABA"/>
</radialGradient>
<clipPath id="clip0_653_1167">
<rect width="36" height="23" fill="white" transform="translate(0 0.5)"/>
</clipPath>
</defs>
</svg>
