<svg width="26" height="26" viewBox="0 0 26 26" fill="none" xmlns="http://www.w3.org/2000/svg">
<g clip-path="url(#clip0_654_2613)">
<path d="M22.1 0H3.9C1.74609 0 0 1.74609 0 3.9V22.1C0 24.2539 1.74609 26 3.9 26H22.1C24.2539 26 26 24.2539 26 22.1V3.9C26 1.74609 24.2539 0 22.1 0Z" fill="#D1D1D1"/>
<path d="M15.0312 11.4766H17.1641H15.0312ZM12.4922 11.4766H14.625H12.4922ZM10.0039 11.4766H12.1367H10.0039ZM7.51562 11.4766H9.59766H7.51562ZM4.97656 11.4766H7.10938H4.97656ZM7.51562 9.14062H9.59766H7.51562ZM10.0039 9.14062H12.1367H10.0039ZM12.4922 9.14062H14.625H12.4922ZM12.4922 6.80469H14.625H12.4922Z" fill="black"/>
<path d="M15.0312 11.4766H17.1641M12.4922 11.4766H14.625M10.0039 11.4766H12.1367M7.51562 11.4766H9.59766M4.97656 11.4766H7.10938M7.51562 9.14062H9.59766M10.0039 9.14062H12.1367M12.4922 9.14062H14.625M12.4922 6.80469H14.625" stroke="#066DA5" stroke-width="1.92969"/>
<path d="M23.9688 11.5781C23.9688 11.5781 23.0547 10.7148 21.1758 11.0195C20.9727 9.54688 19.3984 8.68359 19.3984 8.68359C19.3984 8.68359 17.9258 10.4609 18.9922 12.4414C18.6875 12.5938 18.1797 12.7969 17.418 12.7969H3.45313C3.19922 13.7617 3.19922 20.1602 10.207 20.1602C15.2344 20.1602 18.9922 17.8242 20.7695 13.5586C23.4102 13.7617 23.9688 11.5781 23.9688 11.5781Z" fill="#066DA5"/>
</g>
<defs>
<clipPath id="clip0_654_2613">
<rect width="26" height="26" fill="white"/>
</clipPath>
</defs>
</svg>
