<svg width="28" height="28" viewBox="0 0 28 28" fill="none" xmlns="http://www.w3.org/2000/svg">
<g clip-path="url(#clip0_653_1384)">
<path d="M14 27.4988C9.52018 27.4988 5.04036 27.4992 0.560544 27.5C0.51112 27.5 0.499993 27.4889 0.5 27.4395C0.50127 18.4798 0.50127 9.52018 0.5 0.560544C0.499993 0.511123 0.511123 0.499993 0.560544 0.5C9.52018 0.50127 18.4798 0.50127 27.4395 0.5C27.4889 0.499993 27.5 0.511123 27.5 0.560544C27.4987 9.52018 27.4987 18.4798 27.5 27.4395C27.5 27.4889 27.4889 27.5 27.4395 27.5C22.9596 27.4987 18.4798 27.4983 14 27.4988Z" fill="#4B33D9"/>
<path d="M8.20493 12.08C8.21202 12.1765 8.22097 12.2701 8.22543 12.364C8.24006 12.6713 8.239 12.9789 8.23895 13.2865C8.23873 14.7124 8.23922 16.1383 8.24043 17.5641C8.24052 17.6283 8.22449 17.6434 8.16137 17.6427C7.84284 17.6392 7.52424 17.6398 7.20569 17.6424C7.15278 17.6428 7.1409 17.6271 7.14092 17.5763C7.14214 15.2804 7.14208 12.9845 7.14075 10.6886C7.14071 10.6351 7.15689 10.6243 7.20694 10.6245C7.60679 10.6265 8.00665 10.6266 8.40652 10.6249C8.42347 10.6229 8.44061 10.6261 8.45573 10.634C8.47085 10.6419 8.48327 10.6542 8.49138 10.6692C9.57876 12.4044 10.6668 14.1393 11.7554 15.8737C11.7971 15.9461 11.8434 16.0158 11.894 16.0822C11.8882 16.0227 11.8818 15.9632 11.8767 15.9036C11.8546 15.6451 11.8511 15.3859 11.8511 15.1267C11.8512 13.6524 11.8507 12.1782 11.8498 10.704C11.8497 10.6433 11.8599 10.6229 11.9264 10.6238C12.2427 10.6279 12.559 10.628 12.8754 10.6239C12.9365 10.6232 12.9458 10.6421 12.9458 10.6973C12.9444 12.9866 12.9444 15.276 12.9457 17.5653C12.9458 17.6221 12.936 17.6434 12.8723 17.6428C12.5032 17.6393 12.1341 17.6403 11.765 17.6421C11.7449 17.6437 11.7247 17.6392 11.7071 17.6292C11.6895 17.6193 11.6753 17.6043 11.6662 17.5863C10.5993 15.9003 9.53149 14.2149 8.46278 12.53C8.37882 12.4014 8.30668 12.2653 8.24724 12.1236C8.24058 12.1072 8.24019 12.0827 8.20493 12.08Z" fill="white"/>
<path d="M14.4479 14.132C14.4479 12.9874 14.4474 11.8429 14.4464 10.6983C14.4463 10.6374 14.4628 10.6238 14.5218 10.6239C15.7015 10.6257 16.8812 10.6256 18.0609 10.6237C18.1254 10.6235 18.1401 10.6402 18.1393 10.703C18.1356 10.9842 18.1361 11.2654 18.139 11.5466C18.1396 11.6017 18.1244 11.6152 18.07 11.6151C17.266 11.6133 16.4619 11.6144 15.6579 11.6126C15.6005 11.6125 15.5809 11.6234 15.5812 11.6863C15.5839 12.2992 15.5838 12.9121 15.5811 13.5251C15.5808 13.5914 15.6009 13.6029 15.662 13.6027C16.3958 13.6006 17.1295 13.6022 17.8632 13.5999C17.9254 13.5997 17.9391 13.6182 17.9385 13.6771C17.9355 13.9539 17.9355 14.2306 17.9385 14.5075C17.9392 14.5671 17.9242 14.5843 17.8629 14.5841C17.1292 14.5819 16.3954 14.5835 15.6617 14.5813C15.6 14.5811 15.5808 14.5935 15.5811 14.6593C15.5839 15.2985 15.584 15.9378 15.5813 16.5771C15.5811 16.641 15.593 16.6615 15.6625 16.6613C16.5127 16.6585 17.3629 16.66 18.213 16.6583C18.2713 16.6581 18.2908 16.6705 18.29 16.7328C18.2864 17.0162 18.2874 17.2996 18.2895 17.583C18.2898 17.629 18.2769 17.6418 18.2307 17.6418C16.9895 17.6406 15.7483 17.6408 14.5071 17.6424C14.447 17.6424 14.4473 17.6161 14.4473 17.5722C14.448 16.4254 14.4482 15.2787 14.4479 14.132Z" fill="white"/>
<path d="M20.6457 14.6231C20.6457 13.6434 20.6461 12.6636 20.6471 11.6839C20.6472 11.6258 20.6331 11.6119 20.5751 11.6121C19.9688 11.6145 19.3625 11.6127 18.7562 11.615C18.6987 11.6152 18.6826 11.6018 18.6833 11.5431C18.6866 11.2575 18.6859 10.9719 18.6837 10.6864C18.6834 10.6381 18.6949 10.6237 18.7454 10.6238C20.393 10.6252 22.0405 10.6253 23.6881 10.6239C23.7372 10.6238 23.7511 10.6359 23.7507 10.6856C23.7484 10.9733 23.7484 11.2611 23.7507 11.5489C23.7511 11.5999 23.7382 11.615 23.6855 11.6148C23.077 11.6129 22.4685 11.6146 21.86 11.6121C21.7974 11.6118 21.7802 11.6258 21.7802 11.6904C21.7821 13.6433 21.7826 15.5962 21.7816 17.5491C21.7816 17.6553 21.7946 17.6401 21.6917 17.6403C21.3666 17.641 21.0414 17.639 20.7163 17.642C20.6575 17.6426 20.6442 17.6263 20.6443 17.5689C20.6462 16.587 20.6466 15.605 20.6457 14.6231Z" fill="white"/>
<path d="M5.32343 17.7477C4.80094 17.7474 4.4703 17.2399 4.69478 16.7993C4.76532 16.6652 4.87755 16.5576 5.01456 16.4928C5.15157 16.4281 5.30592 16.4096 5.45435 16.4402C5.59615 16.4677 5.72572 16.5391 5.82479 16.6443C5.92385 16.7494 5.98741 16.883 6.00651 17.0262C6.02005 17.2007 5.96459 17.3736 5.85204 17.5076C5.73949 17.6417 5.57884 17.7262 5.40461 17.7431C5.37402 17.7457 5.34329 17.7466 5.32343 17.7477Z" fill="white"/>
</g>
<defs>
<clipPath id="clip0_653_1384">
<rect width="27" height="27" fill="white" transform="translate(0.5 0.5)"/>
</clipPath>
</defs>
</svg>
