<svg width="26" height="26" viewBox="0 0 26 26" fill="none" xmlns="http://www.w3.org/2000/svg">
<g clip-path="url(#clip0_653_1244)">
<path d="M8.83335 25.5C11.1334 25.5 13 23.6334 13 21.3334V17.1667H8.83335C6.53335 17.1667 4.66669 19.0334 4.66669 21.3334C4.66669 23.6334 6.53335 25.5 8.83335 25.5Z" fill="#545454"/>
<path d="M4.66669 13C4.66669 10.7 6.53335 8.83331 8.83335 8.83331H13V17.1666H8.83335C6.53335 17.1666 4.66669 15.3 4.66669 13Z" fill="#545454"/>
<path d="M4.66669 4.66667C4.66669 2.36667 6.53335 0.5 8.83335 0.5H13V8.83333H8.83335C6.53335 8.83333 4.66669 6.96667 4.66669 4.66667Z" fill="#545454"/>
<path d="M13 0.5H17.1667C19.4667 0.5 21.3333 2.36667 21.3333 4.66667C21.3333 6.96667 19.4667 8.83333 17.1667 8.83333H13V0.5Z" fill="#545454"/>
<path d="M21.3333 13C21.3333 15.3 19.4667 17.1666 17.1667 17.1666C14.8667 17.1666 13 15.3 13 13C13 10.7 14.8667 8.83331 17.1667 8.83331C19.4667 8.83331 21.3333 10.7 21.3333 13Z" fill="#545454"/>
</g>
<defs>
<clipPath id="clip0_653_1244">
<rect width="25" height="25" fill="white" transform="translate(0.5 0.5)"/>
</clipPath>
</defs>
</svg>
