<svg width="26" height="30" viewBox="0 0 26 30" fill="none" xmlns="http://www.w3.org/2000/svg">
<g clip-path="url(#clip0_653_1085)">
<path d="M25.1587 22.25C24.4701 23.4867 22.935 23.909 21.7371 23.1981C21.4986 23.0566 21.2913 22.88 21.1181 22.679L15.3769 26.1011C15.4591 26.357 15.5035 26.6309 15.5035 26.9156C15.5035 28.3374 14.3845 29.5 13.0002 29.5C11.6159 29.5 10.4969 28.3448 10.4969 26.9156C10.4969 26.6615 10.532 26.4164 10.5984 26.1843L4.82369 22.7424C4.6625 22.9168 4.47555 23.0707 4.26338 23.1981C3.05834 23.909 1.53038 23.4867 0.841779 22.25C0.153183 21.0133 0.562174 19.4358 1.76009 18.7175C1.97171 18.5919 2.19375 18.5019 2.41963 18.4453V11.5564C2.19101 11.4998 1.96678 11.4092 1.75296 11.2825C0.555047 10.5716 0.146055 8.98673 0.834652 7.75C1.52325 6.51327 3.05834 6.09103 4.25625 6.80194C4.47062 6.93042 4.65921 7.08664 4.82149 7.26323L10.5995 3.81964C10.5311 3.58094 10.4966 3.3333 10.4969 3.08439C10.4969 1.65522 11.6159 0.5 13.0002 0.5C14.3845 0.5 15.5035 1.65522 15.5035 3.08439C15.5035 3.34136 15.4673 3.58927 15.3999 3.82303L21.1762 7.26663C21.339 7.08834 21.5287 6.93155 21.7442 6.80194C22.9421 6.09103 24.4701 6.51327 25.1658 7.75C25.8544 8.98673 25.4454 10.5642 24.2475 11.2825C24.0337 11.4092 23.8094 11.4998 23.5808 11.5564V18.4453C23.8067 18.5019 24.0287 18.5919 24.2404 18.7175C25.4454 19.4358 25.8544 21.0133 25.1587 22.25ZM3.61042 18.4481C3.64386 18.4566 3.67621 18.4657 3.7091 18.4759L11.2711 4.95448C11.2464 4.93015 11.2228 4.90637 11.1992 4.8809L5.41141 8.33129C5.59123 8.98163 5.52599 9.70216 5.17456 10.3344C4.82204 10.9678 4.24748 11.3872 3.61042 11.5507V18.4481ZM4.74145 19.0883C4.90976 19.2541 5.05888 19.4471 5.18169 19.6656C5.3034 19.8841 5.39057 20.1133 5.4454 20.3471H20.555C20.6099 20.1133 20.697 19.8841 20.8188 19.6656C20.938 19.4514 21.0864 19.256 21.2595 19.0854L13.6998 5.56691C13.4777 5.63369 13.2431 5.66879 13.0002 5.66879C12.7579 5.66879 12.5243 5.6337 12.3029 5.56804L4.74145 19.0883ZM22.293 18.4747C22.3253 18.4651 22.3571 18.456 22.39 18.4476V11.5507C21.753 11.3872 21.1784 10.9678 20.8259 10.3344C20.475 9.70386 20.4092 8.98446 20.5885 8.33525L14.7985 4.8843C14.7765 4.90751 14.7541 4.93015 14.731 4.95279L22.293 18.4747ZM20.6038 21.7457C20.5863 21.6897 20.5709 21.6331 20.5578 21.5765H5.44211C5.43443 21.6098 5.42566 21.6432 5.41634 21.6761L11.1965 25.1219C11.6521 24.634 12.2913 24.3312 13.0002 24.3312C13.7343 24.3312 14.3939 24.6561 14.8516 25.1746L20.6038 21.7457Z" fill="#E535AB"/>
</g>
<defs>
<clipPath id="clip0_653_1085">
<rect width="25" height="29" fill="white" transform="translate(0.5 0.5)"/>
</clipPath>
</defs>
</svg>
