<svg width="26" height="26" viewBox="0 0 26 26" fill="none" xmlns="http://www.w3.org/2000/svg">
<g clip-path="url(#clip0_653_1356)">
<path d="M21.8335 5.40063L20.224 23.4311L12.9892 25.4368L5.77439 23.4339L4.16656 5.40063H21.8335Z" fill="#545454"/>
<path d="M13 23.9037L18.8461 22.283L20.2214 6.87512H13V23.9037Z" fill="#545454"/>
<path d="M9.87121 11.2986H13V9.08691H7.4541L7.50701 9.68027L8.05064 15.7751H13V13.5634H10.0734L9.87121 11.2986ZM10.3697 16.881H8.14946L8.4593 20.3537L12.9898 21.6114L13 21.6086V19.3075L12.9903 19.31L10.5272 18.6449L10.3697 16.881Z" fill="#EBEBEB"/>
<path d="M5.81024 0.5H6.9342V1.61046H7.96239V0.5H9.08642V3.86274H7.96246V2.7367H6.93427V3.86274H5.81031L5.81024 0.5ZM10.5644 1.61517H9.57506V0.5H12.6785V1.61517H11.6886V3.86274H10.5646V1.61517H10.5644ZM13.171 0.5H14.343L15.0639 1.68158L15.7841 0.5H16.9566V3.86274H15.8372V2.19598L15.0639 3.39162H15.0445L14.2708 2.19598V3.86274H13.171V0.5ZM17.5159 0.5H18.6402V2.75125H20.2208V3.86274H17.5159V0.5H17.5159Z" fill="#545454"/>
<path d="M12.9924 15.7751H15.7159L15.4591 18.6436L12.9923 19.3094V21.6103L17.5265 20.3537L17.5597 19.9801L18.0795 14.1573L18.1334 13.5634H12.9924V15.7751ZM12.9924 11.2932V11.2986H18.3347L18.379 10.8015L18.4798 9.68027L18.5327 9.08691H12.9924V11.2932Z" fill="white"/>
</g>
<defs>
<clipPath id="clip0_653_1356">
<rect width="25" height="25" fill="white" transform="translate(0.5 0.5)"/>
</clipPath>
</defs>
</svg>
