<svg width="26" height="26" viewBox="0 0 26 26" fill="none" xmlns="http://www.w3.org/2000/svg">
<g clip-path="url(#clip0_654_1448)">
<path d="M0.00164795 25.9592V0.0407688C0.0577906 0.0206333 0.118184 0.0153461 0.176971 0.0254197C8.71241 0.0246535 17.2478 0.0245736 25.7833 0.0251799C25.8425 0.0183531 25.9024 0.0219379 25.9604 0.0357721C25.979 0.0923989 25.9839 0.152662 25.9746 0.211559C25.9753 8.73546 25.9754 17.2594 25.9748 25.7833C25.9816 25.8425 25.9781 25.9024 25.9642 25.9604C25.9076 25.979 25.8473 25.9839 25.7884 25.9746C17.2514 25.9753 8.71429 25.9753 0.177228 25.9746C0.118354 25.9846 0.0578832 25.9793 0.00164795 25.9592Z" fill="#F0DB4F"/>
<path d="M25.9545 0.0433281C25.8733 0.0424975 25.7921 0.0409425 25.7109 0.0409415C17.1411 0.040808 8.5714 0.04075 0.00164281 0.0407675C0.00872453 0.0307762 -0.0147857 0.00689873 0.0178974 0.00794783C0.0611697 0.00933686 0.10452 0.00829281 0.147837 0.00829281C8.71373 0.00829281 17.2796 0.00896119 25.8455 0.0102979C25.8931 0.0103091 25.9557 -0.0271582 25.9917 0.0407716C25.9805 0.0591011 25.9681 0.0599532 25.9545 0.0433281Z" fill="#FAF4CC"/>
<path d="M25.9545 0.04321L25.9918 0.0406494C25.9918 8.64224 25.9911 17.2438 25.9898 25.8454C25.9898 25.893 26.0272 25.9556 25.9593 25.9916C25.9483 25.9852 25.9441 25.978 25.9465 25.9701C25.9491 25.9617 25.952 25.9575 25.9553 25.9575C25.9566 25.8926 25.9591 25.8277 25.9591 25.7628C25.9592 17.2545 25.9592 8.74617 25.959 0.237838C25.959 0.172962 25.9561 0.108086 25.9545 0.04321Z" fill="#F8F0B8"/>
<path d="M25.9553 25.9571L25.9593 25.9911C17.3555 25.9911 8.7517 25.9905 0.147904 25.9891C0.100361 25.9891 0.0377468 26.0266 0.00170898 25.9587C8.57169 25.9587 17.1417 25.9586 25.7117 25.9586C25.7929 25.9586 25.8741 25.9576 25.9553 25.9571Z" fill="#F1E06C"/>
<path d="M19.9147 23.9335C18.7853 23.9235 17.764 23.6938 16.8567 23.0701C16.302 22.6869 15.8438 22.1801 15.5184 21.5897C15.4616 21.4886 15.4493 21.4329 15.5712 21.3644C16.1515 21.0384 16.7276 20.7051 17.2996 20.3644C17.4086 20.2996 17.4496 20.3249 17.5112 20.4209C17.8957 21.0211 18.3817 21.5009 19.0977 21.6816C19.6507 21.8212 20.204 21.8261 20.739 21.6019C21.3327 21.3532 21.6013 20.8215 21.4421 20.2385C21.3636 19.9766 21.1962 19.7504 20.9689 19.5986C20.7062 19.4166 20.4248 19.2632 20.1296 19.1408C19.5914 18.8997 19.0476 18.6708 18.5138 18.4204C18.0333 18.1939 17.5883 17.8988 17.1927 17.5442C15.8618 16.3588 15.7428 13.7563 17.3549 12.5427C17.8647 12.1614 18.4655 11.9201 19.0974 11.8427C19.7266 11.7542 20.367 11.7883 20.9833 11.9432C21.9592 12.1918 22.65 12.8048 23.1547 13.6538C23.1971 13.7252 23.1916 13.762 23.1196 13.8078C22.5487 14.1707 21.9795 14.5362 21.4119 14.9044C21.334 14.955 21.2955 14.9483 21.2497 14.8667C21.1439 14.6711 21.0078 14.4933 20.8466 14.3401C20.385 13.9139 19.8414 13.8171 19.2614 14.009C18.5405 14.2475 18.3357 15.1836 18.8641 15.7419C19.0686 15.9447 19.3104 16.1059 19.5761 16.2166C20.0583 16.4371 20.5465 16.6441 21.0298 16.8621C21.6286 17.1158 22.1921 17.4456 22.7064 17.8434C23.4822 18.471 23.8697 19.2884 23.9149 20.2787C23.9456 20.9513 23.8535 21.5978 23.5131 22.1897C23.0043 23.0741 22.1968 23.5373 21.237 23.7783C20.8037 23.8807 20.36 23.9328 19.9147 23.9335Z" fill="white"/>
<path d="M14.1194 16.6902C14.1074 17.82 14.1409 19.222 14.1039 20.6235C14.0916 21.0301 14.0166 21.4323 13.8816 21.816C13.583 22.6785 13.0255 23.3124 12.1672 23.6299C10.9356 24.0856 9.70271 24.0657 8.50822 23.4902C7.76459 23.132 7.24554 22.5379 6.87234 21.8093C6.83112 21.7288 6.84383 21.6891 6.92048 21.6432C7.51487 21.2874 8.10757 20.9287 8.69858 20.5673C8.7835 20.5152 8.82295 20.5206 8.87161 20.6106C8.99135 20.8415 9.13599 21.0586 9.30294 21.258C9.51825 21.5007 9.80579 21.668 10.1233 21.7352C10.4407 21.8024 10.7714 21.7659 11.0666 21.6311C11.2007 21.5649 11.3181 21.4693 11.41 21.3513C11.5019 21.2333 11.5659 21.0961 11.5973 20.9499C11.6632 20.6815 11.6919 20.4052 11.6827 20.129C11.6831 17.466 11.6821 14.803 11.6795 12.1401C11.6792 11.9806 11.7119 11.9287 11.8824 11.9314C12.5698 11.9424 13.2576 11.9407 13.945 11.9322C14.0935 11.9304 14.1229 11.9768 14.1224 12.1153C14.1175 13.5496 14.1194 14.984 14.1194 16.6902Z" fill="white"/>
</g>
<defs>
<clipPath id="clip0_654_1448">
<rect width="26" height="26" fill="white"/>
</clipPath>
</defs>
</svg>
