<svg width="28" height="28" viewBox="0 0 28 28" fill="none" xmlns="http://www.w3.org/2000/svg">
<g clip-path="url(#clip0_653_1039)">
<path d="M9.15743 27.0572C8.53031 27.0572 7.9381 26.7707 7.53743 26.2514L1.44081 18.4622C1.04013 17.9428 0.883404 17.2804 1.04013 16.6356L3.21753 6.91252C3.35686 6.26787 3.77494 5.74855 4.34985 5.46211L13.164 1.12865C13.4427 0.985544 13.7563 0.913879 14.0698 0.913879C14.3834 0.913879 14.6969 0.985435 14.9756 1.12876L23.7898 5.44422C24.3647 5.73066 24.7827 6.24998 24.9221 6.89463L27.0995 16.6178C27.2389 17.2624 27.0995 17.9249 26.6989 18.4443L20.6021 26.2335C20.2014 26.7349 19.6092 27.0393 18.9821 27.0393L9.15764 27.0572H9.15743Z" fill="#545454"/>
<path d="M14.0522 1.36154C14.2962 1.36154 14.54 1.41521 14.7665 1.52265L23.5807 5.83811C24.0336 6.07088 24.3819 6.50065 24.4865 7.00208L26.6639 16.7252C26.7858 17.2445 26.6639 17.7817 26.3329 18.1935L20.2362 25.9829C19.9226 26.3946 19.4348 26.6274 18.9297 26.6274H9.15742C8.65223 26.6274 8.16454 26.3946 7.85098 25.9829L1.75425 18.1935C1.44069 17.7817 1.31867 17.2445 1.42329 16.7252L3.60069 7.00208C3.72262 6.48276 4.05358 6.05299 4.50646 5.83811L13.3208 1.50487C13.5472 1.41532 13.8085 1.36165 14.0523 1.36165L14.0522 1.36154ZM14.0522 0.519897C13.6865 0.519897 13.3207 0.60945 12.9722 0.770559L4.1581 5.10401C3.46126 5.44423 2.97358 6.07088 2.79934 6.84087L0.621941 16.5641C0.447812 17.3341 0.621941 18.1219 1.10973 18.7487L7.20646 26.538C7.67685 27.1467 8.39098 27.487 9.14002 27.487H18.9122C19.6613 27.487 20.3755 27.1467 20.8458 26.538L26.9426 18.7486C27.4303 18.1398 27.6045 17.3341 27.4303 16.564L25.2529 6.84087C25.0788 6.07088 24.591 5.44423 23.8943 5.10401L15.1148 0.770451C14.7839 0.60945 14.4181 0.519897 14.0522 0.519897Z" fill="white"/>
<path d="M22.8839 15.9552C22.8665 15.9552 22.8665 15.9552 22.8839 15.9552H22.8665C22.8491 15.9552 22.8317 15.9552 22.8317 15.9373C22.7969 15.9373 22.7621 15.9194 22.7271 15.9194C22.6052 15.9015 22.5007 15.8836 22.3962 15.8836C22.3439 15.8836 22.2917 15.8836 22.2219 15.8656H22.2045C21.8388 15.8299 21.5426 15.7941 21.2639 15.7045C21.1419 15.6508 21.1071 15.5792 21.0722 15.5075C21.0722 15.4897 21.0548 15.4897 21.0548 15.4718L20.8284 15.4002C20.9354 14.5579 20.8941 13.7026 20.7065 12.8753C20.5163 12.0411 20.1862 11.2473 19.731 10.5295L19.9052 10.3684V10.3327C19.9052 10.2431 19.9226 10.1536 19.9922 10.064C20.2013 9.86701 20.4626 9.7059 20.7762 9.5089C20.8284 9.47312 20.8806 9.45524 20.9329 9.41935C21.0374 9.36568 21.1245 9.31202 21.2291 9.24035C21.2465 9.22246 21.2813 9.20457 21.3162 9.1688C21.3336 9.1508 21.351 9.1508 21.351 9.13291C21.5948 8.91803 21.6471 8.55992 21.4729 8.32704C21.3858 8.20171 21.2291 8.13015 21.0722 8.13015C20.933 8.13015 20.811 8.18382 20.6891 8.27337L20.6543 8.30915C20.6195 8.32704 20.6019 8.36293 20.5671 8.38082C20.48 8.47037 20.4103 8.54192 20.3407 8.63148C20.3059 8.66726 20.2711 8.72103 20.2188 8.75681C19.9748 9.02547 19.7484 9.24035 19.5219 9.40146C19.4697 9.43724 19.4175 9.45524 19.3652 9.45524C19.3304 9.45524 19.2955 9.45524 19.2607 9.43724H19.2259L19.0167 9.58057C18.7903 9.3299 18.5465 9.11502 18.3026 8.90014C17.2526 8.05644 15.9889 7.54055 14.6619 7.41384L14.6445 7.18107L14.6097 7.14529C14.5574 7.09151 14.4878 7.03785 14.4703 6.91251C14.4529 6.62597 14.4878 6.30364 14.5226 5.94554V5.92765C14.5226 5.87387 14.54 5.80232 14.5574 5.74854C14.5748 5.64121 14.5922 5.53366 14.6097 5.40833V5.24722C14.6097 4.92489 14.3658 4.65634 14.0697 4.65634C13.9303 4.65634 13.791 4.7279 13.6865 4.83534C13.5821 4.94278 13.5297 5.086 13.5297 5.24722V5.39044C13.5297 5.51577 13.5471 5.62321 13.5819 5.73065C13.5993 5.78443 13.5993 5.83809 13.6168 5.90976V5.92765C13.6516 6.28575 13.7039 6.60808 13.6691 6.89463C13.6517 7.01996 13.5819 7.07362 13.5297 7.1274L13.4949 7.16318L13.4774 7.39595C13.1639 7.43173 12.8503 7.4675 12.5368 7.53917C11.1955 7.84361 10.011 8.54203 9.08782 9.54468L8.91358 9.41935H8.87878C8.84397 9.41935 8.80906 9.43724 8.77426 9.43724C8.72195 9.43724 8.66974 9.41935 8.61743 9.38357C8.39099 9.22246 8.16454 8.98958 7.9207 8.72103C7.8859 8.68525 7.85109 8.63148 7.79878 8.5957C7.72906 8.50615 7.65935 8.43448 7.57223 8.34504C7.55483 8.32704 7.52003 8.30926 7.48522 8.27337C7.46782 8.25548 7.45042 8.25548 7.45042 8.2376C7.34249 8.14594 7.20713 8.09532 7.06714 8.09427C6.91031 8.09427 6.75358 8.16593 6.66647 8.29126C6.49223 8.52404 6.54454 8.88214 6.78839 9.09702C6.80579 9.09702 6.80579 9.11502 6.82319 9.11502C6.858 9.13291 6.87551 9.16869 6.91031 9.18658C7.01483 9.25813 7.10195 9.31191 7.20647 9.36568C7.25878 9.38357 7.31099 9.41935 7.3633 9.45524C7.67675 9.65212 7.9381 9.81334 8.14714 10.0103C8.23426 10.0998 8.23426 10.1893 8.23426 10.2789V10.3147L8.40839 10.4759C8.37358 10.5295 8.33878 10.5654 8.32127 10.6191C7.45031 12.0337 7.11935 13.699 7.34579 15.3464L7.11935 15.418C7.11935 15.436 7.10195 15.436 7.10195 15.4538C7.06714 15.5254 7.01483 15.5971 6.91031 15.6508C6.64906 15.7403 6.33551 15.7762 5.96974 15.812H5.95223C5.90003 15.812 5.83031 15.812 5.7781 15.8299C5.67358 15.8299 5.56906 15.8478 5.44714 15.8656C5.41234 15.8656 5.37753 15.8836 5.34262 15.8836C5.32522 15.8836 5.30782 15.8836 5.29031 15.9015C4.97675 15.9731 4.78512 16.2775 4.83743 16.564C4.88974 16.8147 5.11618 16.976 5.39483 16.976C5.44714 16.976 5.48195 16.976 5.53426 16.958C5.55166 16.958 5.56906 16.958 5.56906 16.9401C5.60387 16.9401 5.63867 16.9222 5.67348 16.9222C5.79551 16.8864 5.88262 16.8506 5.98714 16.7969C6.03935 16.779 6.09156 16.7431 6.14387 16.7253H6.16127C6.49223 16.5999 6.78839 16.4924 7.06714 16.4566H7.10195C7.20647 16.4566 7.27618 16.5103 7.32839 16.5462C7.34579 16.5462 7.34579 16.5641 7.36319 16.5641L7.60714 16.5283C8.02522 17.8533 8.82647 19.0351 9.88906 19.8947C10.1329 20.0916 10.3768 20.2528 10.6381 20.414L10.5336 20.6467C10.5336 20.6647 10.551 20.6647 10.551 20.6824C10.5858 20.7541 10.6206 20.8437 10.5858 20.969C10.4814 21.2376 10.3245 21.5062 10.1329 21.8106V21.8285C10.0981 21.8823 10.0633 21.9181 10.0285 21.9717C9.95878 22.0613 9.90647 22.1508 9.83675 22.2583C9.81935 22.2762 9.80195 22.312 9.78454 22.3478C9.78454 22.3657 9.76714 22.3836 9.76714 22.3836C9.62782 22.6881 9.73234 23.0283 9.99358 23.1536C10.0632 23.1894 10.1329 23.2074 10.2026 23.2074C10.4117 23.2074 10.6207 23.064 10.7252 22.867C10.7252 22.8492 10.7426 22.8313 10.7426 22.8313C10.76 22.7955 10.7774 22.7597 10.7948 22.7417C10.8471 22.6164 10.8645 22.5268 10.8993 22.4194L10.9517 22.2583C11.0736 21.9002 11.1607 21.6136 11.3174 21.363C11.387 21.2555 11.4743 21.2376 11.5439 21.2018C11.5613 21.2018 11.5613 21.2018 11.5787 21.1839L11.7007 20.9511C12.4671 21.2555 13.3033 21.4166 14.1393 21.4166C14.6445 21.4166 15.1671 21.363 15.6549 21.2376C15.9619 21.1671 16.2644 21.0774 16.5607 20.969L16.6651 21.166C16.6826 21.166 16.6826 21.166 16.7 21.1839C16.7871 21.2018 16.8568 21.2376 16.9265 21.3451C17.0658 21.5957 17.1703 21.9002 17.2922 22.2404V22.2583L17.3445 22.4194C17.3793 22.5268 17.3968 22.6343 17.449 22.7417C17.4665 22.7775 17.4839 22.7955 17.5013 22.8313C17.5013 22.8492 17.5188 22.867 17.5188 22.867C17.6232 23.0819 17.8322 23.2074 18.0413 23.2074C18.111 23.2074 18.1807 23.1894 18.2503 23.1536C18.3722 23.082 18.4767 22.9745 18.5117 22.8313C18.5465 22.6881 18.5465 22.5268 18.4769 22.3836C18.4769 22.3657 18.4593 22.3657 18.4593 22.3478C18.4419 22.3121 18.4245 22.2763 18.4071 22.2583C18.3548 22.1508 18.2852 22.0613 18.2155 21.9717C18.1807 21.9181 18.1459 21.8823 18.1111 21.8286V21.8106C17.9193 21.5062 17.7451 21.2376 17.6581 20.969C17.6233 20.8437 17.6581 20.7721 17.6755 20.6825C17.6755 20.6647 17.6929 20.6647 17.6929 20.6468L17.6058 20.4319C18.5291 19.8768 19.3129 19.0888 19.9052 18.1219C20.2188 17.6205 20.4626 17.0654 20.6367 16.5103L20.8458 16.5461C20.8633 16.5461 20.8633 16.5282 20.8806 16.5282C20.9503 16.4924 21.0026 16.4387 21.1071 16.4387H21.1419C21.4207 16.4745 21.7167 16.5819 22.0478 16.7073H22.0652C22.1174 16.7252 22.1696 16.761 22.2219 16.7789C22.3265 16.8326 22.4136 16.8684 22.5355 16.9043C22.5703 16.9043 22.6051 16.9222 22.64 16.9222C22.6574 16.9222 22.6748 16.9222 22.6922 16.9401C22.7445 16.958 22.7793 16.958 22.8317 16.958C23.0929 16.958 23.3193 16.779 23.3891 16.5462C23.3891 16.3313 23.1974 16.0448 22.8839 15.9553V15.9552ZM14.8187 15.0778L14.0522 15.4539L13.2858 15.0778L13.0943 14.2362L13.6168 13.5558H14.4703L14.9929 14.2362L14.8188 15.0778H14.8187ZM19.3652 13.2156C19.5003 13.8077 19.5415 14.4184 19.4871 15.024L16.8219 14.2362C16.5781 14.1647 16.4388 13.9139 16.491 13.6633C16.5084 13.5916 16.5433 13.5199 16.5955 13.4663L18.7033 11.5144C18.9993 12.0158 19.2258 12.5889 19.3652 13.2156ZM17.8671 10.4401L15.5852 12.1054C15.3936 12.2307 15.1322 12.1948 14.9755 11.998C14.9233 11.9442 14.9059 11.8725 14.8884 11.801L14.7317 8.88214C15.918 9.02256 17.0231 9.57169 17.8671 10.4401ZM12.8155 8.97158C13.0071 8.93581 13.1813 8.90003 13.3729 8.86425L13.2162 11.7292C13.1988 11.9799 13.0071 12.1947 12.7458 12.1947C12.6762 12.1947 12.5891 12.1768 12.5368 12.1411L10.22 10.4401C10.9343 9.7059 11.8226 9.20436 12.8155 8.97158ZM9.38387 11.5143L11.4568 13.4124C11.6484 13.5736 11.6658 13.8779 11.5091 14.0749C11.4568 14.1465 11.3871 14.2002 11.3 14.2182L8.60003 15.024C8.49551 13.8064 8.75675 12.5708 9.38387 11.5143ZM8.91348 16.367L11.6833 15.8834C11.9097 15.8655 12.1188 16.0268 12.171 16.2595C12.1884 16.3669 12.1884 16.4565 12.1536 16.5461L11.091 19.1782C10.1155 18.5336 9.33156 17.5487 8.91348 16.367ZM15.2717 19.9303C14.871 20.0199 14.4703 20.0736 14.0522 20.0736C13.4426 20.0736 12.8503 19.9662 12.293 19.7871L13.6691 17.2265C13.8084 17.0653 14.0348 16.9937 14.2265 17.1012C14.3078 17.1524 14.3788 17.2192 14.4355 17.2981L15.7768 19.7871C15.62 19.8408 15.4458 19.8767 15.2716 19.9303H15.2717ZM18.6684 17.4414C18.2329 18.1576 17.658 18.7306 16.9962 19.1782L15.8988 16.4743C15.8465 16.2595 15.9336 16.0268 16.1426 15.9192C16.2122 15.8834 16.2993 15.8655 16.3865 15.8655L19.1736 16.3491C19.0691 16.743 18.8948 17.1012 18.6684 17.4414Z" fill="white"/>
</g>
<defs>
<clipPath id="clip0_653_1039">
<rect width="27" height="27" fill="white" transform="translate(0.5 0.5)"/>
</clipPath>
</defs>
</svg>
