<svg width="44" height="24" viewBox="0 0 44 24" fill="none" xmlns="http://www.w3.org/2000/svg">
<path d="M10.45 8.38107C10.874 8.32603 11.3043 8.35829 11.7162 8.47599C12.128 8.59369 12.5131 8.7945 12.8494 9.06681C13.0663 9.41186 13.2046 9.80322 13.2539 10.2114C13.3032 10.6197 13.2622 11.0341 13.134 11.4236C13.0215 12.3825 12.5724 13.2654 11.8717 13.9053C11.0268 14.4673 10.028 14.7309 9.0255 14.6564H7.1005L8.283 8.39385L10.45 8.38107ZM2.75 20.997H5.9125L6.66187 17.0217H9.3665C10.3629 17.0479 11.3573 16.9152 12.3145 16.6284C13.1007 16.3604 13.8193 15.9152 14.4182 15.3251C15.4542 14.3632 16.1524 13.0742 16.4037 11.6593C16.6022 10.9551 16.6371 10.2125 16.5057 9.49172C16.3743 8.77096 16.0803 8.0923 15.6475 7.51077C15.1257 6.97683 14.4973 6.56693 13.8062 6.3097C13.1151 6.05246 12.378 5.95409 11.6462 6.02144H5.57837L2.75 20.997Z" fill="#545454"/>
<path d="M18.7234 2.0376H21.8625L21.1021 6.01291H23.8947C25.1778 5.8742 26.4668 6.21084 27.5316 6.96272C27.884 7.37628 28.1248 7.87822 28.23 8.4182C28.3352 8.95819 28.3011 9.51724 28.1311 10.0393L26.8194 17.0089H23.6431L24.8916 10.3829C24.9785 10.1301 25.0095 9.86043 24.9824 9.59365C24.9552 9.32687 24.8707 9.06973 24.7349 8.84105C24.2797 8.50386 23.7171 8.35864 23.1619 8.43501H20.6552L19.0396 17.016H15.8936L18.7234 2.0376Z" fill="#545454"/>
<path d="M35.1161 8.38108C35.5401 8.32603 35.9705 8.35829 36.3823 8.476C36.7941 8.5937 37.1793 8.79451 37.5155 9.06682C37.7325 9.41187 37.8708 9.80322 37.9201 10.2114C37.9694 10.6197 37.9284 11.0341 37.8001 11.4236C37.6876 12.3825 37.2385 13.2654 36.5379 13.9053C35.6914 14.4685 34.6905 14.7321 33.6861 14.6564H31.7625L32.9423 8.38676L35.1161 8.38108ZM27.4161 20.997H30.5786L31.328 17.0217H34.034C35.0323 17.0485 36.0285 16.9158 36.9875 16.6284C37.7737 16.3604 38.4923 15.9152 39.0913 15.3251C40.1247 14.3622 40.8204 13.0733 41.0699 11.6593C41.2683 10.9551 41.3032 10.2125 41.1719 9.49172C41.0405 8.77096 40.7464 8.09231 40.3136 7.51077C39.7916 6.97779 39.1633 6.56879 38.4725 6.31231C37.7816 6.05582 37.045 5.95801 36.3138 6.02571H30.2363L27.4161 20.997Z" fill="#545454"/>
</svg>
