<svg width="34" height="34" viewBox="0 0 34 34" fill="none" xmlns="http://www.w3.org/2000/svg">
<path fill-rule="evenodd" clip-rule="evenodd" d="M16.8431 26.3622C17.3191 26.7558 17.8771 26.9237 18.4794 26.9548C18.7285 26.9678 18.9848 26.9556 19.2299 26.9109C19.6188 26.8403 20.0065 26.7516 20.3847 26.6377C21.1549 26.4053 21.8205 26.0037 22.3174 25.3552C22.6005 24.9855 22.8329 24.5858 22.9821 24.1438C23.1054 23.7792 23.2212 23.4108 23.3133 23.0377C23.3861 22.7437 23.4222 22.4401 23.4663 22.1397C23.4958 21.9411 23.5136 21.7403 23.5319 21.5398C23.5616 21.2144 23.5927 20.8896 23.6142 20.5635C23.6294 20.3367 23.6288 20.1088 23.6376 19.8817C23.6405 19.8124 23.6517 19.7436 23.6583 19.6748C23.6639 19.6108 23.6963 19.5888 23.7616 19.5898C23.9911 19.5933 24.2211 19.5991 24.4503 19.5888C24.7071 19.5774 24.9658 19.5662 25.2186 19.524C25.5782 19.4637 25.936 19.3875 26.2884 19.2956C26.7048 19.1864 27.087 18.9912 27.4551 18.7692C27.8832 18.5102 28.2742 18.2067 28.5905 17.8155C28.8664 17.475 28.9971 17.0803 28.9304 16.6498C28.8337 16.0244 28.3082 15.6146 27.697 15.5867C27.4755 15.5766 27.2509 15.6 27.0304 15.6279C26.7635 15.6619 26.5006 15.7219 26.2345 15.7614C26.0507 15.7891 25.8645 15.8013 25.6813 15.8204L25.6762 15.7965C26.0188 15.1493 26.3758 14.5095 26.6998 13.8535C26.9486 13.3499 27.1611 12.8286 27.3807 12.3107C27.7446 11.4534 28.0349 10.5698 28.2755 9.67133C28.5057 8.81137 28.7028 7.94211 28.7652 7.04975C28.7902 6.6936 28.8075 6.33586 28.8051 5.97918C28.8035 5.69447 28.7727 5.4095 28.7442 5.12585C28.7118 4.80078 28.6136 4.4927 28.4776 4.19631C28.2986 3.80537 28.0205 3.48481 27.7281 3.18045C27.4941 2.93664 27.2365 2.71461 26.9813 2.49259C26.6172 2.17601 26.2076 1.92291 25.7827 1.69849C25.2996 1.44353 24.7921 1.24381 24.2625 1.10889C23.9422 1.02736 23.615 0.955383 23.291 0.890846C23.1752 0.867474 23.0583 0.807983 22.9418 0.807983H20.7459C20.6665 0.807983 20.5879 0.860038 20.5079 0.868802C19.9823 0.927496 19.4629 1.03214 18.9583 1.18883C18.7697 1.24699 18.5976 1.213 18.4183 1.19627C18.2807 1.18352 18.1456 1.1482 18.008 1.14129C17.4845 1.11526 16.9605 1.07755 16.4368 1.08313C15.9354 1.08844 15.439 1.1713 14.9538 1.30888C14.5477 1.42467 14.1501 1.56516 13.7857 1.77896C13.6301 1.87032 13.5063 1.85306 13.3451 1.80685C12.8031 1.65042 12.2576 1.50381 11.7075 1.38085C11.3647 1.3041 11.0117 1.26532 10.6614 1.2292C10.3254 1.19414 9.98761 1.17343 9.64979 1.16626C9.31993 1.15909 8.98795 1.15935 8.65942 1.18857C8.13649 1.23504 7.62365 1.34128 7.12488 1.51284C6.57113 1.70353 6.06334 1.97948 5.60574 2.34173C5.14096 2.70957 4.76808 3.15814 4.46877 3.67098C4.15299 4.21198 3.93601 4.79122 3.80162 5.39914C3.72858 5.72873 3.75541 6.06762 3.70521 6.40225C3.68981 6.50583 3.72088 6.60994 3.72088 6.71405V8.17078C3.72088 8.26745 3.69247 8.36439 3.70468 8.4616C3.73469 8.69504 3.72434 8.93035 3.76391 9.16221C3.82605 9.52924 3.88209 9.89495 3.95752 10.2593C4.06296 10.7685 4.16361 11.2771 4.28047 11.7838C4.36546 12.1527 4.45761 12.5195 4.5588 12.8841C4.71284 13.4413 4.86316 13.9993 5.03765 14.5499C5.19992 15.0616 5.38477 15.566 5.56935 16.0706C5.82484 16.7685 6.12973 17.4439 6.49624 18.0909C6.81361 18.6515 7.1756 19.1766 7.66162 19.6082C7.98218 19.8929 8.33833 20.1115 8.75291 20.2209C9.07905 20.3064 9.41103 20.3168 9.74434 20.2485C10.1313 20.1694 10.4742 20.0026 10.7788 19.7532C10.8138 19.7248 10.8518 19.7027 10.8935 19.7553C11.0513 19.955 11.2622 20.0883 11.4829 20.2033C12.0783 20.5141 12.7271 20.6073 13.386 20.645C13.5459 20.654 13.7069 20.6312 13.8675 20.627C14.1812 20.6182 14.4855 20.5571 14.7849 20.4705C14.9421 20.4251 15.0953 20.3672 15.2552 20.3136C15.2634 20.4838 15.2741 20.6474 15.2794 20.8113L15.3014 21.7044C15.3057 21.8404 15.311 21.9764 15.3235 22.1118C15.3559 22.4608 15.3875 22.8098 15.4292 23.1577C15.4579 23.3975 15.4881 23.6389 15.5444 23.8732C15.6581 24.3454 15.8116 24.8051 16.0071 25.251C16.1986 25.6882 16.4745 26.0576 16.8431 26.3622ZM15.8894 21.9089C15.8706 21.4896 15.8565 21.0699 15.8472 20.6503C15.836 20.1346 15.8323 19.6185 15.8252 19.1028L15.8238 19.0831C15.5617 19.2406 15.3033 19.4127 15.03 19.5548C14.7094 19.7213 14.3615 19.8177 14.0011 19.8451C13.7188 19.8663 13.4322 19.8857 13.1513 19.8634C12.6902 19.826 12.2291 19.754 11.8164 19.5266C11.6491 19.4345 11.4744 19.3221 11.3588 19.1753C11.0824 18.8223 11.2149 18.3764 11.6318 18.1618C11.92 18.0131 12.2345 17.9512 12.5468 17.879C12.8179 17.8163 13.0883 17.7448 13.3531 17.6585C13.615 17.5727 13.7802 17.3603 13.9435 17.1518L14.2022 16.8193L13.8912 16.7869C13.5826 16.7582 13.288 16.6729 13.0065 16.5481C12.7659 16.4416 12.7622 16.4299 12.5853 16.6217C12.2905 16.9417 12.0037 17.2697 11.7144 17.5953C11.5017 17.8349 11.2906 18.0758 11.0784 18.3161C10.8691 18.5538 10.6726 18.8048 10.4465 19.0257C10.1114 19.354 9.70715 19.5513 9.22485 19.529C8.91545 19.5147 8.63233 19.4063 8.37737 19.2292C7.85178 18.8632 7.49776 18.3506 7.17507 17.8128C6.76209 17.1234 6.44472 16.389 6.17355 15.6348C5.98579 15.1132 5.79696 14.5913 5.63336 14.0622C5.45515 13.4872 5.29872 12.9056 5.14495 12.3235C5.02862 11.8844 4.92557 11.4417 4.82731 10.9982C4.7155 10.4938 4.6082 9.98817 4.51339 9.48038C4.44938 9.13751 4.41246 8.78959 4.36068 8.4446C4.29083 7.97903 4.27808 7.50974 4.30358 7.04258C4.32615 6.62163 4.38644 6.202 4.44646 5.78397C4.52959 5.20553 4.72028 4.65975 4.99436 4.14425C5.16247 3.82847 5.37043 3.54138 5.61131 3.27473C6.00703 2.83678 6.48588 2.52047 7.01864 2.28277C7.39073 2.11678 7.78406 2.01719 8.18482 1.93884C8.77973 1.82305 9.37995 1.82783 9.98018 1.84004C10.2426 1.84562 10.5042 1.89316 10.7663 1.91945C11.3309 1.97549 11.8841 2.09447 12.4305 2.24081C12.8288 2.34758 13.219 2.48621 13.6136 2.60626C13.6529 2.61821 13.7111 2.61714 13.7438 2.59616C14.2789 2.24665 14.8635 2.01613 15.4857 1.88413C15.7218 1.8342 15.9657 1.81216 16.2071 1.79675C16.5003 1.77843 16.7964 1.7609 17.0891 1.77816C17.441 1.79835 17.7918 1.85014 18.1416 1.89794C18.3116 1.92131 18.4773 1.98001 18.6473 1.99594C18.7291 2.00364 18.8154 1.94442 18.9014 1.92423C19.3407 1.82252 19.7781 1.70964 20.2214 1.6297C20.5512 1.57021 20.8885 1.54206 21.2237 1.52294C21.5982 1.50142 21.9748 1.48575 22.3487 1.50381C22.8214 1.52665 23.2907 1.59385 23.7539 1.70167C24.3281 1.83526 24.8784 2.02914 25.4019 2.29844C25.7931 2.50002 26.1646 2.7332 26.4995 3.02004C26.7189 3.20834 26.9436 3.39398 27.1414 3.60379C27.3858 3.86247 27.6349 4.12088 27.7884 4.45207C27.9039 4.70198 27.9863 4.96066 28.0091 5.23395C28.0373 5.57416 28.0715 5.91544 28.0686 6.25618C28.0657 6.58179 28.0211 6.90713 27.9897 7.2322C27.9177 7.97265 27.7571 8.69717 27.5613 9.41212C27.4001 10.0025 27.211 10.5865 27.0065 11.1639C26.8182 11.6959 26.6007 12.218 26.3811 12.7383C26.2188 13.1229 26.0438 13.5034 25.8542 13.8753C25.4946 14.5796 25.1206 15.2768 24.688 15.9407C24.6133 16.0552 24.5424 16.1726 24.4697 16.2897C24.6585 16.4169 24.8723 16.4618 25.0874 16.4852C25.2922 16.5072 25.5009 16.5208 25.7054 16.5054C26.0329 16.4809 26.3593 16.4342 26.6849 16.3888C27.0073 16.3436 27.3231 16.252 27.6545 16.2762C27.9849 16.3003 28.2218 16.5516 28.1993 16.8612C28.1849 17.0572 28.0949 17.2253 27.9648 17.369C27.3499 18.0473 26.5781 18.4585 25.6953 18.6611C25.3599 18.7381 25.0141 18.7777 24.6707 18.8098C24.3783 18.8369 24.0822 18.8414 23.7887 18.8305C23.573 18.8226 23.3593 18.7732 23.1388 18.7413C23.1165 18.9429 23.0955 19.153 23.07 19.3622L22.9673 20.1651C22.9362 20.4195 22.912 20.675 22.8799 20.9295C22.8485 21.1764 22.8095 21.4221 22.7766 21.6688C22.746 21.8986 22.7234 22.1296 22.6889 22.3591C22.6366 22.7107 22.5864 23.0632 22.5176 23.4121C22.4353 23.8291 22.3094 24.2328 22.103 24.6091C21.8518 25.0683 21.4956 25.4181 21.042 25.677C20.5746 25.944 20.0634 26.0829 19.5457 26.1992C19.1787 26.2818 18.8013 26.2951 18.4297 26.2613C17.7857 26.2032 17.2359 25.9278 16.8203 25.4282C16.4238 24.9515 16.1553 24.4054 16.0594 23.7869C16.0132 23.4929 15.9803 23.1965 15.9542 22.9001C15.9245 22.57 15.9048 22.2396 15.8894 21.9089ZM16.6134 17.6718C16.6174 17.8922 16.5946 18.1127 16.5956 18.3331C16.6001 19.3591 16.6076 20.3853 16.6163 21.4115C16.6179 21.5791 16.6262 21.7472 16.6381 21.9145C16.6633 22.2651 16.6883 22.6159 16.7223 22.9654C16.7467 23.2137 16.7799 23.4613 16.819 23.7077C16.8747 24.0564 17.0336 24.3672 17.2136 24.6644C17.3687 24.9199 17.5708 25.1366 17.8367 25.2864C18.2887 25.5405 18.775 25.5618 19.2653 25.4683C19.5965 25.4053 19.9221 25.3036 20.2434 25.1987C20.5605 25.0954 20.8471 24.9268 21.0874 24.6938C21.3129 24.4755 21.4728 24.2092 21.5806 23.9152C21.7896 23.3452 21.8552 22.7447 21.9416 22.1493C21.974 21.9262 22.0021 21.7026 22.0316 21.4792C22.0653 21.225 22.0993 20.9712 22.1317 20.717C22.1562 20.5274 22.1779 20.338 22.201 20.1486C22.2342 19.8767 22.269 19.605 22.3006 19.333C22.3248 19.1227 22.345 18.9115 22.3668 18.7007C22.3944 18.4311 22.4239 18.1623 22.448 17.8922C22.4661 17.6877 22.4587 17.4792 22.495 17.2782C22.5617 16.9098 22.7359 16.5964 23.0626 16.3935C23.1991 16.3091 23.3537 16.2533 23.5051 16.1816L23.479 16.142C23.3391 15.9604 23.1957 15.7816 23.0583 15.5978C22.8427 15.3094 22.6876 14.9878 22.5317 14.6646C22.384 14.3581 22.2034 14.0681 22.0481 13.765C21.7769 13.2365 21.5007 12.7094 21.2508 12.171C20.9366 11.4938 20.6891 10.7932 20.6113 10.0431C20.5781 9.72604 20.5696 9.40893 20.6341 9.09475C20.7369 8.59279 20.9987 8.20026 21.4396 7.93096C21.8486 7.68131 22.3041 7.60057 22.7707 7.57534C23.0602 7.55967 23.3516 7.57242 23.6519 7.57242L23.6421 7.52169C23.4551 7.13075 23.2806 6.73317 23.0759 6.35179C22.7875 5.81319 22.4178 5.3277 22.0066 4.877C21.7023 4.54369 21.3722 4.23455 21.0107 3.96074C20.6553 3.6917 20.2809 3.45134 19.8812 3.25508C19.4047 3.02057 18.9081 2.83944 18.3875 2.72391C17.8869 2.6129 17.3836 2.54491 16.87 2.53933C16.4323 2.53455 15.9973 2.55473 15.5707 2.65326C14.927 2.80226 14.3382 3.06731 13.8264 3.49649C13.5403 3.73632 13.2904 4.00535 13.0724 4.30493C12.8156 4.65683 12.6089 5.03768 12.4321 5.43632C12.1893 5.98369 12.0228 6.55284 11.9086 7.13819C11.8517 7.43033 11.8071 7.72433 11.7617 8.01833C11.7458 8.12165 11.7447 8.22655 11.7352 8.34474L11.9296 8.24355L12.1192 8.15856C12.7611 7.86509 13.4259 7.67626 14.1403 7.69777C14.4441 7.7068 14.7341 7.76709 15.0045 7.90015C15.5224 8.15564 15.8252 8.58987 15.9569 9.1391C16.0477 9.51836 16.1101 9.90505 16.1707 10.2909C16.218 10.5921 16.2666 10.8965 16.2719 11.2003C16.2796 11.6444 16.2573 12.0895 16.2331 12.5333C16.2126 12.9115 16.1338 13.2835 16.0015 13.6365C15.7614 14.2782 15.4937 14.9095 15.2438 15.5474C15.1612 15.7583 15.0977 15.9763 15.0199 16.2082L15.3354 16.2084C15.3737 16.2092 15.4127 16.2103 15.4496 16.2191C15.7367 16.2868 15.9861 16.4169 16.1903 16.6379C16.4634 16.9311 16.6062 17.2742 16.6134 17.6718ZM11.1299 14.6295C10.9668 14.2434 10.8688 13.8405 10.8393 13.4243C10.8117 13.0328 10.8582 12.6435 10.8986 12.2536C10.9373 11.8762 10.9703 11.497 10.9814 11.1182C11.0003 10.4949 10.9583 9.87318 10.9286 9.25038C10.9108 8.87962 10.9538 8.50435 10.9867 8.1328C11.0165 7.79816 11.0537 7.46273 11.1171 7.13288C11.2231 6.5794 11.3641 6.03389 11.5647 5.50511C11.7545 5.00369 11.9734 4.51581 12.2815 4.07627C12.4931 3.77456 12.7327 3.49331 12.963 3.19851L12.8944 3.17407C12.1447 2.93611 11.3825 2.74967 10.5982 2.66867C10.2277 2.63016 9.85562 2.60785 9.48406 2.58554C9.36986 2.5789 9.25407 2.5943 9.1396 2.60519C8.85622 2.63255 8.56913 2.64317 8.29026 2.69629C7.81566 2.78659 7.36019 2.9385 6.9387 3.18576C6.55998 3.40779 6.24208 3.69435 5.97569 4.03855C5.68169 4.4186 5.4833 4.84832 5.34121 5.30619C5.17336 5.84665 5.09316 6.40305 5.07165 6.96423C5.05279 7.45636 5.04349 7.95114 5.12848 8.44141C5.19142 8.80606 5.23365 9.17496 5.30323 9.53854C5.39831 10.0339 5.5003 10.5284 5.61822 11.0186C5.78633 11.7208 5.95471 12.4236 6.15417 13.1173C6.34486 13.7815 6.55971 14.4399 6.79343 15.0906C6.98412 15.6215 7.20482 16.1426 7.43721 16.6565C7.58859 16.9914 7.77184 17.3138 7.96412 17.6272C8.16836 17.9602 8.40101 18.2763 8.71599 18.5179C9.1141 18.8228 9.42192 18.8704 9.82667 18.5355C9.99983 18.3923 10.1462 18.2149 10.297 18.0463C10.5363 17.7786 10.7674 17.5029 11.0059 17.2338C11.3094 16.8915 11.6167 16.5526 11.9219 16.2113C11.9864 16.1394 12.0488 16.065 12.1115 15.9922L12.0071 15.9011C11.6287 15.5368 11.3349 15.1145 11.1299 14.6295ZM22.6406 4.43029C22.8886 4.7211 23.1287 5.02042 23.3502 5.33168C23.7789 5.93403 24.1215 6.58418 24.3741 7.28001C24.4856 7.58676 24.5748 7.89643 24.535 8.23186C24.5074 8.46691 24.5092 8.70514 24.4888 8.94151C24.4715 9.13804 24.4402 9.33351 24.415 9.52951C24.3767 9.82484 24.3215 10.1196 24.305 10.4163C24.2891 10.6989 24.3058 10.9841 24.3236 11.267C24.3414 11.5546 24.3802 11.8409 24.4065 12.1277C24.4362 12.4536 24.4766 12.7787 24.4856 13.1051C24.493 13.3728 24.4691 13.6418 24.446 13.9095C24.4181 14.2317 24.3366 14.5435 24.215 14.8423C24.1292 15.0531 24.0269 15.2571 23.9305 15.468L23.9693 15.5089L24.0283 15.5546L24.088 15.4483C24.5894 14.6577 25.0356 13.8368 25.4215 12.9845C25.6706 12.4358 25.9028 11.8791 26.1264 11.3193C26.4746 10.4479 26.7505 9.55235 26.9632 8.63847C27.0588 8.22841 27.1321 7.81198 27.1969 7.39554C27.2477 7.06993 27.2896 6.74061 27.2992 6.41208C27.309 6.06363 27.2899 5.71253 27.2578 5.36515C27.2336 5.10275 27.1688 4.83876 27.0047 4.62496C26.7401 4.28156 26.4549 3.9533 26.1041 3.69329C25.8085 3.47472 25.5137 3.24977 25.1968 3.06598C24.6941 2.7741 24.1499 2.58023 23.5813 2.44797C23.0259 2.31863 22.464 2.26285 21.8983 2.2509C21.5647 2.24373 21.2295 2.27959 20.8968 2.31119C20.5951 2.33934 20.2952 2.38768 19.9916 2.42752C20.3175 2.61077 20.6391 2.77384 20.9419 2.96586C21.5793 3.36954 22.1508 3.8553 22.6406 4.43029ZM14.3597 15.7344C14.5655 15.0757 14.8462 14.4463 15.1179 13.8137C15.3386 13.3003 15.4589 12.7598 15.499 12.2042C15.5189 11.9304 15.5136 11.6531 15.5001 11.3785C15.4849 11.0736 15.4608 10.7674 15.4162 10.4654C15.3591 10.0793 15.2943 9.69284 15.2029 9.31386C15.1038 8.90379 14.8542 8.61802 14.4261 8.51259C14.1655 8.44858 13.9063 8.45124 13.6426 8.49293C12.9991 8.59412 12.41 8.83129 11.8613 9.17867C11.7508 9.24852 11.6897 9.30509 11.7091 9.46311C11.7495 9.79881 11.7583 10.1398 11.7567 10.4784C11.7545 10.9578 11.7341 11.4372 11.716 11.9163C11.7102 12.0722 11.6876 12.2278 11.6706 12.3832C11.6451 12.6212 11.5955 12.8589 11.5971 13.0966C11.5986 13.3414 11.6236 13.5919 11.6831 13.8291C11.8719 14.5812 12.2714 15.1963 12.9266 15.6305C13.3295 15.8977 13.7751 16.0321 14.2646 16.0578C14.297 15.9455 14.327 15.8395 14.3597 15.7344ZM13.5905 9.28358C13.5042 9.10272 13.5536 8.95266 13.7533 8.88308C13.8022 8.86635 13.8521 8.84776 13.9026 8.84297C13.9724 8.83607 14.0428 8.84111 14.1132 8.84111C14.3668 8.84271 14.6106 8.87803 14.8197 9.03898C14.954 9.14255 14.9902 9.27933 14.903 9.42062C14.7796 9.62061 14.5918 9.721 14.3607 9.74012C13.9971 9.77013 13.7419 9.60069 13.5905 9.28358ZM23.6761 9.21745L23.7587 8.49373C23.7706 8.39706 23.7199 8.3705 23.6386 8.36811C23.3829 8.3612 23.1274 8.35191 22.8716 8.34766C22.5837 8.34235 22.303 8.38856 22.0364 8.49798C21.7405 8.61988 21.5153 8.81482 21.4231 9.13698C21.3544 9.37706 21.336 9.61689 21.3605 9.86786C21.3974 10.2506 21.4824 10.6219 21.6162 10.978C21.7952 11.4542 21.9822 11.9301 22.2061 12.3864C22.5091 13.0039 22.8517 13.602 23.1736 14.2102C23.2594 14.3724 23.3322 14.5421 23.4217 14.7315C23.6094 14.3342 23.7008 13.9364 23.7112 13.5263C23.7199 13.1808 23.6926 12.8344 23.6724 12.4889C23.6599 12.2775 23.6299 12.0672 23.6094 11.8563C23.581 11.5626 23.5375 11.2686 23.5306 10.974C23.5239 10.6744 23.5452 10.3733 23.5707 10.074C23.5946 9.78766 23.6418 9.50322 23.6761 9.21745ZM23.1 8.98533C23.005 9.24746 22.8021 9.39566 22.5386 9.43895C22.2932 9.47958 22.0781 9.38902 21.9182 9.19301C21.8043 9.05358 21.8478 8.88865 22.0186 8.79411C22.2146 8.68575 22.43 8.65839 22.6841 8.64193C22.7535 8.65441 22.857 8.6653 22.9558 8.69318C23.099 8.73355 23.1521 8.84191 23.1 8.98533ZM15.5049 17.0599C15.3646 16.9452 15.1787 16.9385 15.0454 17.0644C14.8797 17.2211 14.7339 17.4001 14.5881 17.5765C14.4199 17.7804 14.2617 17.9924 14.0449 18.1504C13.7292 18.3801 13.3603 18.4752 12.99 18.5652C12.6958 18.6369 12.3999 18.7036 12.1049 18.7721L12.1011 18.8104C12.1888 18.8507 12.2735 18.9015 12.3651 18.9304C12.8153 19.0728 13.2734 19.1439 13.7493 19.1036C14.0925 19.0741 14.4197 18.9992 14.7296 18.8523C15.1564 18.6502 15.4849 18.3296 15.7641 17.9573C15.8108 17.8952 15.8321 17.8033 15.8374 17.7231C15.8562 17.4399 15.7125 17.2293 15.5049 17.0599ZM23.7234 16.9372C23.5027 17.0113 23.3231 17.1242 23.2698 17.3629C23.2334 17.5244 23.2201 17.6915 23.206 17.8569C23.2034 17.8861 23.2397 17.9398 23.2674 17.9472C23.4373 17.9921 23.6084 18.0449 23.7821 18.0606C23.9959 18.08 24.2131 18.0739 24.4282 18.0633C24.6604 18.0516 24.8941 18.0364 25.123 17.9982C25.6619 17.9074 26.1837 17.7602 26.6469 17.4543C26.8142 17.3441 26.9794 17.2315 27.1457 17.1194L27.1319 17.0957C26.9547 17.122 26.7781 17.1542 26.6002 17.173C26.2379 17.2118 25.8754 17.2527 25.5118 17.2737C25.3363 17.2838 25.1583 17.25 24.9814 17.2357C24.6845 17.2115 24.3945 17.1457 24.1435 16.9869C23.9988 16.8955 23.8777 16.8854 23.7234 16.9372Z" fill="#336791"/>
<path d="M0.755554 27.1496C1.04584 27.1013 1.42536 27.0599 1.90899 27.0599C2.50257 27.0599 2.93786 27.198 3.21407 27.4466C3.46956 27.6675 3.62148 28.0059 3.62148 28.4205C3.62148 28.8417 3.49692 29.1731 3.26214 29.4148C2.9445 29.7532 2.42661 29.9258 1.83967 29.9258C1.66013 29.9258 1.49441 29.9189 1.35657 29.8844V31.749H0.755554V27.1496ZM1.35657 29.3938C1.48777 29.4283 1.65349 29.4422 1.85375 29.4422C2.57853 29.4422 3.02072 29.09 3.02072 28.4478C3.02072 27.8332 2.5857 27.5363 1.9228 27.5363C1.6604 27.5363 1.46015 27.557 1.35657 27.5847V29.3938ZM7.26051 30.0498C7.26051 31.2858 6.404 31.8247 5.5961 31.8247C4.69152 31.8247 3.99409 31.1618 3.99409 30.1051C3.99409 28.9864 4.72604 28.3304 5.65134 28.3304C6.61142 28.3302 7.26051 29.0278 7.26051 30.0498ZM4.60892 30.0843C4.60892 30.8163 5.03014 31.3687 5.62398 31.3687C6.20402 31.3687 6.63878 30.8232 6.63878 30.0705C6.63878 29.5043 6.35593 28.7862 5.63753 28.7862C4.91912 28.7862 4.60892 29.4491 4.60892 30.0843ZM7.94386 31.127C8.1234 31.2444 8.44104 31.3687 8.74486 31.3687C9.1868 31.3687 9.39395 31.1477 9.39395 30.8715C9.39395 30.5815 9.22159 30.4227 8.77248 30.257C8.17173 30.0429 7.88862 29.7115 7.88862 29.311C7.88862 28.7724 8.32365 28.3304 9.04179 28.3304C9.38014 28.3304 9.67733 28.4271 9.86377 28.5376L9.71186 28.9795C9.58066 28.8966 9.33898 28.7862 9.02824 28.7862C8.66917 28.7862 8.46892 28.9933 8.46892 29.2419C8.46892 29.5181 8.66944 29.6424 9.10446 29.8081C9.6845 30.0291 9.98143 30.3191 9.98143 30.8163C9.98143 31.4032 9.52568 31.8175 8.73158 31.8175C8.36561 31.8175 8.02725 31.7278 7.79248 31.5897L7.94386 31.127ZM11.4934 27.4463V28.4061H12.3632V28.8688H11.4934V30.671C11.4934 31.0853 11.6105 31.3201 11.9491 31.3201C12.108 31.3201 12.2253 31.2994 12.3013 31.2787L12.3289 31.7344C12.2118 31.7827 12.0251 31.8173 11.7906 31.8173C11.5075 31.8173 11.2793 31.7275 11.1343 31.5618C10.962 31.3822 10.8995 31.0853 10.8995 30.6917V28.8688H10.3817V28.4061H10.8995V27.6051L11.4934 27.4463ZM15.8851 28.4064C15.871 28.6481 15.8575 28.9174 15.8575 29.3248V31.2651C15.8575 32.0316 15.7056 32.5012 15.381 32.7914C15.0565 33.0953 14.5869 33.1919 14.1657 33.1919C13.7652 33.1919 13.3233 33.0953 13.0537 32.9157L13.2056 32.4531C13.4266 32.5912 13.7718 32.7155 14.1862 32.7155C14.8076 32.7155 15.2634 32.3909 15.2634 31.5485V31.1756H15.2496C15.0631 31.4864 14.704 31.7349 14.1862 31.7349C13.3575 31.7349 12.7637 31.0306 12.7637 30.1051C12.7637 28.9726 13.5025 28.3304 14.269 28.3304C14.8493 28.3304 15.167 28.6342 15.312 28.9105H15.3258L15.3534 28.4064H15.8851ZM15.2567 29.7253C15.2567 29.6217 15.2498 29.5319 15.2222 29.4491C15.1117 29.0969 14.8148 28.8069 14.3729 28.8069C13.7926 28.8069 13.3785 29.2971 13.3785 30.0705C13.3785 30.7265 13.71 31.272 14.366 31.272C14.7388 31.272 15.0772 31.0373 15.2084 30.6506C15.2429 30.547 15.257 30.4296 15.257 30.326L15.2567 29.7253ZM16.8239 29.4491C16.8239 29.0555 16.817 28.7171 16.7963 28.4064H17.3283L17.3487 29.0624H17.3764C17.5283 28.6135 17.8942 28.3304 18.3017 28.3304C18.3707 28.3304 18.4188 28.3373 18.474 28.3511V28.9243C18.4121 28.9105 18.3497 28.9036 18.2671 28.9036C17.839 28.9036 17.5349 29.2281 17.4523 29.6838C17.4385 29.7667 17.4247 29.8634 17.4247 29.9669V31.7485H16.8239V29.4491ZM19.3515 30.1879C19.3653 31.0096 19.8898 31.348 20.4975 31.348C20.9328 31.348 21.1949 31.272 21.4228 31.1754L21.5264 31.6104C21.3123 31.7071 20.9463 31.8175 20.4146 31.8175C19.3858 31.8175 18.7712 31.1408 18.7712 30.1327C18.7712 29.1245 19.3651 28.3302 20.3387 28.3302C21.4297 28.3302 21.7197 29.29 21.7197 29.9045C21.7197 30.0288 21.7059 30.1255 21.699 30.1877L19.3515 30.1879ZM21.133 29.7529C21.1397 29.3662 20.974 28.7654 20.2906 28.7654C19.6761 28.7654 19.4067 29.3317 19.3581 29.7529H21.133ZM22.4102 31.0165C22.6795 31.1823 23.0731 31.3204 23.4875 31.3204C24.102 31.3204 24.4611 30.9958 24.4611 30.5263C24.4611 30.0912 24.2125 29.8427 23.5841 29.601C22.8246 29.3317 22.355 28.9381 22.355 28.2821C22.355 27.557 22.9558 27.0184 23.8603 27.0184C24.3368 27.0184 24.6821 27.1289 24.8892 27.2463L24.7235 27.7366C24.5716 27.6537 24.2608 27.5156 23.8396 27.5156C23.2043 27.5156 22.9627 27.8954 22.9627 28.213C22.9627 28.6481 23.2455 28.8621 23.888 29.1107C24.6751 29.4148 25.0756 29.7943 25.0756 30.4779C25.0756 31.1961 24.5439 31.8175 23.446 31.8175C22.9972 31.8175 22.5069 31.6863 22.2581 31.5206L22.4102 31.0165ZM29.7367 32.4321C29.1083 32.2664 28.4937 32.0799 27.9551 31.8935C27.8584 31.859 27.7618 31.8244 27.672 31.8244C26.5672 31.783 25.6212 30.9682 25.6212 29.4698C25.6212 27.9783 26.5326 27.0184 27.7894 27.0184C29.053 27.0184 29.875 27.999 29.875 29.3731C29.875 30.5677 29.3226 31.3342 28.5492 31.6035V31.6311C29.0119 31.7485 29.516 31.859 29.9095 31.928L29.7367 32.4321ZM29.2395 29.4007C29.2395 28.4685 28.7564 27.5084 27.7687 27.5084C26.7536 27.5084 26.2564 28.4475 26.2633 29.456C26.2564 30.4434 26.8019 31.3342 27.7411 31.3342C28.7011 31.3342 29.2395 30.4641 29.2395 29.4007ZM30.6548 27.0944H31.2558V31.2444H33.2445V31.7485H30.6548V27.0944Z" fill="#336791"/>
</svg>
