<svg width="66" height="16" viewBox="0 0 66 16" fill="none" xmlns="http://www.w3.org/2000/svg">
<path d="M58.3386 13.3317C58.0327 13.3317 57.7657 13.2996 57.5382 13.2355V12.1044C57.7711 12.1626 57.9839 12.192 58.1766 12.192C58.4738 12.192 58.6866 12.0984 58.8151 11.9114C58.9436 11.7276 59.0072 11.4384 59.0072 11.0435V5.03757H60.3631V11.0342C60.3631 11.7824 60.1925 12.3523 59.8518 12.7438C59.5105 13.1359 59.0065 13.3317 58.3386 13.3317ZM27.1361 11.5346C26.349 11.5346 25.734 11.3168 25.2909 10.8812C24.8479 10.4456 24.6263 9.82899 24.6263 9.03131C24.6263 8.21025 24.8305 7.57625 25.2387 7.12931C25.6496 6.67903 26.2165 6.45455 26.94 6.45455C27.6307 6.45455 28.1688 6.65164 28.5536 7.04647C28.9384 7.44063 29.1312 7.98578 29.1312 8.68124V9.32994H25.9782C25.993 9.71007 26.1047 10.006 26.3149 10.2198C26.525 10.4329 26.8195 10.5398 27.1983 10.5398C27.4928 10.5398 27.7712 10.5091 28.0336 10.4476C28.2959 10.3862 28.5696 10.2886 28.8554 10.1537V11.1885C28.6225 11.3054 28.3729 11.3916 28.1078 11.4471C27.8415 11.5052 27.5182 11.5346 27.1361 11.5346ZM47.2917 8.98788C47.2917 9.78556 47.0815 10.4095 46.6619 10.8598C46.2416 11.3101 45.6573 11.5346 44.9084 11.5346C44.4393 11.5346 44.025 11.4324 43.6663 11.2273C43.3076 11.0202 43.0325 10.7229 42.8397 10.3374C42.6477 9.95124 42.5513 9.50163 42.5513 8.98722C42.5513 8.1862 42.7594 7.56422 43.1764 7.11995C43.5933 6.67568 44.1789 6.45389 44.9339 6.45389C45.4037 6.45389 45.8173 6.5561 46.176 6.76053C46.5348 6.96496 46.8105 7.25891 47.0026 7.64172C47.196 8.02452 47.2917 8.47347 47.2917 8.98788ZM52.4785 8.98788C52.4785 9.78556 52.2684 10.4095 51.8487 10.8598C51.4291 11.3101 50.8442 11.5346 50.0952 11.5346C49.6261 11.5346 49.2118 11.4324 48.8531 11.2273C48.4944 11.0202 48.2193 10.7229 48.0265 10.3374C47.8338 9.95124 47.7381 9.50163 47.7381 8.98722C47.7381 8.1862 47.9462 7.56422 48.3632 7.11995C48.7801 6.67568 49.3664 6.45389 50.1214 6.45389C50.5905 6.45389 51.0048 6.5561 51.3635 6.76053C51.7216 6.96496 51.9973 7.25891 52.1901 7.64172C52.3821 8.02452 52.4785 8.47347 52.4785 8.98788ZM65.388 9.66731C65.388 10.2459 65.1798 10.7022 64.7629 11.0349C64.3486 11.3682 63.7717 11.5346 63.0308 11.5346C62.3488 11.5346 61.7452 11.4063 61.2205 11.1484V9.88577C61.6521 10.0788 62.0162 10.2145 62.314 10.2933C62.6139 10.3721 62.8883 10.4115 63.1359 10.4115C63.4331 10.4115 63.6606 10.3548 63.8179 10.2405C63.9785 10.1263 64.0582 9.95726 64.0582 9.73212C64.0602 9.61253 64.0234 9.49562 63.9531 9.39875C63.8828 9.29921 63.7797 9.20434 63.6425 9.11348C63.5087 9.02262 63.2329 8.87832 62.816 8.67924C62.4258 8.49552 62.1327 8.31848 61.9372 8.14879C61.7452 7.9831 61.5859 7.78201 61.4694 7.55687C61.353 7.33173 61.2947 7.06851 61.2947 6.76788C61.2947 6.20069 61.4855 5.75508 61.8676 5.43107C62.2525 5.10638 62.7832 4.94404 63.4592 4.94404C63.7918 4.94404 64.1077 4.98346 64.4082 5.06229C64.7114 5.14112 65.0272 5.25202 65.3572 5.39566L64.9195 6.45255C64.5788 6.31225 64.2957 6.21405 64.0709 6.1586C63.8567 6.10382 63.6365 6.07576 63.415 6.07509C63.1587 6.07509 62.9612 6.13522 62.8247 6.2548C62.6875 6.37439 62.6192 6.53071 62.6192 6.72379C62.6192 6.84404 62.6467 6.94893 62.7022 7.03979C62.7571 7.1273 62.8448 7.21348 62.9646 7.29833C63.087 7.37983 63.3742 7.52881 63.8259 7.74527C64.4236 8.03187 64.8332 8.31981 65.0547 8.60909C65.2769 8.89703 65.388 9.2491 65.388 9.66731ZM54.9561 11.5346C54.3819 11.5346 53.9301 11.3108 53.6002 10.8638C53.2736 10.4169 53.1103 9.79692 53.1103 9.00525C53.1103 8.20156 53.2763 7.57625 53.6089 7.12931C53.9442 6.67903 54.4047 6.45455 54.9909 6.45455C55.606 6.45455 56.0758 6.69439 56.3991 7.1734H56.4426C56.3756 6.80796 56.3422 6.48261 56.3422 6.19601V4.62671H57.68V11.4477H56.6567L56.3984 10.8117H56.3415C56.039 11.2934 55.5765 11.5346 54.9561 11.5346ZM31.4883 11.5346C30.9141 11.5346 30.4623 11.3108 30.133 10.8638C29.8064 10.4169 29.6431 9.79692 29.6431 9.00525C29.6431 8.20156 29.8098 7.57625 30.1417 7.12931C30.477 6.67903 30.9375 6.45455 31.5238 6.45455C32.1388 6.45455 32.6087 6.69439 32.9319 7.1734H32.9754C32.9085 6.80796 32.8744 6.48261 32.8744 6.19601V4.62671H34.2129V11.4477H33.1896L32.9319 10.8117H32.875C32.5712 11.2934 32.1094 11.5346 31.4883 11.5346ZM20.6797 8.98788V11.4471H19.3237V5.03824H21.1863C22.055 5.03824 22.6982 5.19724 23.1151 5.51591C23.5321 5.83124 23.7402 6.31225 23.7402 6.95828C23.7402 7.33507 23.6372 7.67111 23.4297 7.9664C23.2229 8.25835 22.9297 8.48817 22.5509 8.65452C23.5127 10.0949 24.1398 11.0262 24.4316 11.4471H22.9271L21.4011 8.98788H20.6797ZM39.3696 11.4471L38.9935 9.73278L38.4862 7.56756H38.4554L37.5632 11.4471H36.129L34.7383 6.54608H36.0674L36.6316 8.71598C36.722 9.1048 36.8137 9.64059 36.9074 10.3247H36.9335C36.9448 10.1022 36.9964 9.75082 37.0867 9.26781L37.157 8.89569L37.7607 6.54608H39.2297L39.8026 8.89569L39.8555 9.18029C39.9104 9.45153 39.9559 9.72544 39.9907 10C40.0114 10.1343 40.0228 10.2425 40.0255 10.324H40.0516C40.0777 10.1136 40.1245 9.82565 40.1915 9.46021C40.2584 9.0921 40.3066 8.84358 40.336 8.71531L40.9223 6.54541H42.23L40.8219 11.4464H39.3696V11.4471ZM55.4239 10.469C55.7646 10.469 56.0142 10.3695 56.1715 10.171C56.3321 9.97262 56.4191 9.63458 56.4339 9.15824V9.01327C56.4339 8.4875 56.3522 8.11004 56.1889 7.88222C56.0283 7.65441 55.7666 7.54017 55.4019 7.54017C55.1047 7.54017 54.8725 7.6671 54.7065 7.92164C54.5432 8.17283 54.4615 8.53961 54.4615 9.02196C54.4615 9.5043 54.5445 9.8664 54.7105 10.1096C54.8772 10.3494 55.1147 10.469 55.4239 10.469ZM31.9561 10.469C32.2975 10.469 32.5464 10.3695 32.7037 10.171C32.8643 9.97262 32.952 9.63458 32.9661 9.15824V9.01327C32.9661 8.4875 32.8844 8.11004 32.7211 7.88222C32.5605 7.65441 32.2981 7.54017 31.934 7.54017C31.6369 7.54017 31.4047 7.6671 31.2387 7.92164C31.0754 8.17283 30.9937 8.53961 30.9937 9.02196C30.9937 9.5043 31.0767 9.8664 31.2427 10.1096C31.41 10.3494 31.6476 10.469 31.9561 10.469ZM43.9112 8.98788C43.9112 9.47291 43.9902 9.83968 44.1475 10.0882C44.3074 10.3367 44.5671 10.4603 44.9258 10.4603C45.2812 10.4603 45.5369 10.3374 45.6908 10.0922C45.8481 9.84369 45.9271 9.47558 45.9271 8.98722C45.9271 8.5022 45.8488 8.1381 45.6908 7.89559C45.5335 7.65308 45.2752 7.53149 44.9171 7.53149C44.5611 7.53149 44.3048 7.65308 44.1475 7.89559C43.9902 8.13609 43.9112 8.49952 43.9112 8.98788ZM49.098 8.98788C49.098 9.47291 49.177 9.83968 49.3343 10.0882C49.4949 10.3367 49.7539 10.4603 50.1126 10.4603C50.468 10.4603 50.7237 10.3374 50.8776 10.0922C51.0349 9.84369 51.1139 9.47558 51.1139 8.98722C51.1139 8.5022 51.0349 8.1381 50.8776 7.89559C50.7203 7.65308 50.462 7.53149 50.1039 7.53149C49.7479 7.53149 49.4916 7.65308 49.3343 7.89559C49.177 8.13609 49.098 8.49952 49.098 8.98788ZM26.9487 7.40522C26.6656 7.40522 26.4441 7.49608 26.2841 7.67713C26.1235 7.8555 26.0318 8.10937 26.0084 8.44006H27.8796C27.8736 8.11004 27.7879 7.8555 27.622 7.67713C27.4553 7.49608 27.2311 7.40522 26.9487 7.40522ZM20.6797 7.88289H21.1167C21.545 7.88289 21.8616 7.81141 22.0657 7.66777C22.2698 7.52481 22.3716 7.29966 22.3716 6.99302C22.3716 6.68905 22.2665 6.47259 22.057 6.34432C21.8502 6.21605 21.5276 6.15125 21.0906 6.15125H20.6797V7.88289Z" fill="#020203"/>
<path d="M4.61125 2.3132L7.72334 4.43366C7.79361 4.48043 7.87526 4.50581 7.95959 4.50715C8.04392 4.50648 8.12624 4.48109 8.19584 4.43366L11.3113 2.30585C11.4324 2.219 11.4993 2.0747 11.4866 1.92639C11.4746 1.77807 11.3856 1.64647 11.2517 1.58099L8.13962 0.0430907C8.02183 -0.0143636 7.88396 -0.0143636 7.76617 0.0430907L4.66345 1.58099C4.52759 1.64713 4.43724 1.78142 4.42653 1.93173C4.41583 2.08338 4.4861 2.22836 4.61125 2.3132ZM9.01703 5.09906C9.01703 5.24002 9.08596 5.37097 9.20175 5.45114L11.6968 7.15338C11.8561 7.26361 12.0709 7.24959 12.2148 7.11998L14.3076 5.25138C14.4006 5.16854 14.4528 5.04762 14.4488 4.92269C14.4454 4.79776 14.3866 4.68018 14.2888 4.60268L12.2904 3.00733C12.1452 2.89175 11.9424 2.8844 11.7891 2.98795L9.20175 4.75434C9.08864 4.83317 9.01971 4.96144 9.01703 5.09906ZM2.81226 7.41527C2.91332 7.50546 2.96486 7.63907 2.95147 7.77402C2.93875 7.90964 2.85978 8.03056 2.74132 8.09737L1.25153 8.98858C1.10095 9.07877 0.909539 9.06608 0.77234 8.95584C0.634471 8.84561 0.578922 8.66256 0.631794 8.4942L1.1826 6.76323C1.2261 6.62627 1.33519 6.52005 1.47373 6.48264C1.6116 6.44256 1.76085 6.47796 1.86659 6.5755C1.86592 6.5755 2.81226 7.41527 2.81226 7.41527ZM10.893 7.59565L8.19919 5.75578C8.05596 5.65957 7.86924 5.65957 7.72601 5.75578L5.03222 7.59565C4.92514 7.6698 4.85687 7.78872 4.8475 7.919C4.84081 8.05061 4.89234 8.17754 4.98939 8.26639L7.6805 10.6701C7.84113 10.8124 8.08273 10.8124 8.24336 10.6701L10.9345 8.26639C11.0315 8.17821 11.0831 8.04994 11.0744 7.919C11.0677 7.78872 11.0001 7.66914 10.893 7.59565ZM3.70841 7.11998L1.61762 5.25138C1.52326 5.16587 1.47172 5.04294 1.47574 4.91601C1.47775 4.79108 1.53597 4.6735 1.63435 4.59534L3.63278 2.99063C3.77868 2.87572 3.98214 2.86837 4.13674 2.97192L6.72145 4.7383C6.84125 4.81713 6.91353 4.95075 6.91353 5.09505C6.91353 5.23869 6.84125 5.37297 6.72145 5.45114L4.2291 7.15338C4.06781 7.26295 3.85364 7.24892 3.70841 7.11998ZM14.4428 9.8043L12.3145 8.53228C12.1566 8.43675 11.9551 8.45612 11.8179 8.57972L9.21647 10.8979C9.04045 11.0556 9.02573 11.3255 9.18368 11.5012C9.22651 11.5493 9.28005 11.5867 9.33961 11.6114L12.9483 13.0712C12.9978 13.0919 13.0507 13.1019 13.1042 13.1019C13.2722 13.1019 13.4241 13.003 13.4924 12.85L14.6108 10.3494C14.7011 10.151 14.6288 9.91653 14.4428 9.8043ZM14.7379 6.76323L15.2887 8.4942H15.284C15.3249 8.62381 15.3014 8.76477 15.2218 8.87434C15.0933 9.05071 14.8517 9.10015 14.6643 8.98858L13.1718 8.09737C13.0554 8.02923 12.9798 7.90831 12.9684 7.77402C12.9543 7.63907 13.0059 7.50546 13.1076 7.41527L14.0533 6.5735C14.1603 6.47796 14.3076 6.44256 14.4461 6.48064C14.5853 6.52005 14.6944 6.62627 14.7379 6.76323ZM6.84392 11.2874C6.86935 11.1431 6.81849 10.9955 6.7094 10.8973L4.10796 8.57905C3.97076 8.45546 3.76931 8.43675 3.61137 8.53162L1.4831 9.80363C1.29838 9.91653 1.2261 10.1477 1.31311 10.3454L2.43413 12.846C2.52582 13.0545 2.76675 13.152 2.97824 13.0672L6.58425 11.6074C6.72011 11.554 6.81849 11.4324 6.84392 11.2874ZM8.12088 12.0009L11.0155 13.1707C11.1567 13.2315 11.2544 13.3645 11.2704 13.5181C11.2892 13.6738 11.2196 13.8261 11.0911 13.9149L8.19383 15.9238C8.12423 15.9726 8.04191 15.9993 7.95758 16C7.87325 15.9987 7.79093 15.9719 7.72133 15.9238L4.82675 13.9149C4.69692 13.8261 4.62731 13.6738 4.64471 13.5181C4.66412 13.3631 4.76518 13.2302 4.90974 13.1707L7.80432 12.0009C7.90605 11.9602 8.01915 11.9602 8.12088 12.0009Z" fill="#BF4822"/>
</svg>
