<svg width="24" height="24" viewBox="0 0 24 24" fill="none" xmlns="http://www.w3.org/2000/svg">
<g clip-path="url(#clip0_654_2618)">
<path fill-rule="evenodd" clip-rule="evenodd" d="M20.0039 7.28885H16C15.7731 7.29777 15.5468 7.25977 15.3351 7.17718C15.1233 7.0946 14.9305 6.96917 14.7686 6.80863C14.6067 6.64808 14.479 6.45581 14.3935 6.24366C14.3081 6.0315 14.2665 5.80394 14.2715 5.57498V1.48338H4.10157C4.08656 1.48364 4.07175 1.48691 4.058 1.493C4.04425 1.49909 4.03184 1.50787 4.02149 1.51884C4.00884 1.52821 3.99891 1.54082 3.99273 1.55537C3.98654 1.56992 3.98434 1.58588 3.98633 1.60158V22.4004C3.98897 22.4305 4.00132 22.4588 4.02149 22.4812C4.03128 22.4928 4.04359 22.5021 4.05747 22.5082C4.07134 22.5144 4.08643 22.5172 4.10157 22.5166H19.8906C19.9258 22.5166 19.9238 22.4989 19.9414 22.4812C19.959 22.4634 20.0078 22.426 20.0078 22.4004V7.28885H20.0039ZM21.4629 22.8673C21.4624 23.1681 21.3437 23.4564 21.1328 23.6691C20.922 23.8817 20.6361 24.0014 20.3379 24.002H3.64454C3.34633 24.0014 3.06048 23.8817 2.84961 23.6691C2.63875 23.4564 2.52005 23.1681 2.51954 22.8673V1.1347C2.51904 0.985646 2.54798 0.837989 2.60465 0.700333C2.66132 0.562678 2.74459 0.43778 2.84962 0.332923C3.06048 0.120239 3.34633 0.000522375 3.64454 0L15.0195 0C15.1925 0.00165137 15.3606 0.0581657 15.5 0.161537L21.3106 6.09505C21.3808 6.15758 21.4323 6.23869 21.4592 6.3292C21.4862 6.41972 21.4874 6.51603 21.4629 6.60724V22.8653V22.8673ZM15.625 5.45481L15.541 1.89707L19.6602 6.10687L16.1172 5.9473C16.052 5.95066 15.9869 5.94024 15.9259 5.91673C15.8649 5.89322 15.8095 5.85713 15.7632 5.81077C15.7169 5.76441 15.6806 5.7088 15.6568 5.64751C15.633 5.58621 15.6222 5.52058 15.625 5.45481Z" fill="black"/>
<path fill-rule="evenodd" clip-rule="evenodd" d="M1.31055 9.11697H22.6895C23.0371 9.11802 23.3701 9.25789 23.6157 9.50598C23.8613 9.75407 23.9995 10.0902 24 10.4408V19.3253C23.999 19.6756 23.8606 20.0112 23.615 20.2588C23.3695 20.5065 23.0367 20.6461 22.6895 20.6471H1.31055C0.962948 20.6461 0.629909 20.5062 0.384301 20.2581C0.138693 20.01 0.000514961 19.6739 0 19.3233L0 10.4408C0.00103046 10.0905 0.139436 9.75492 0.384989 9.50725C0.630541 9.25958 0.963285 9.11998 1.31055 9.11894V9.11697Z" fill="#FF0000"/>
<path d="M2.71094 15.6375L4.51758 15.5233C4.53687 15.7651 4.61906 15.9975 4.75586 16.197C4.85646 16.3221 4.98501 16.4215 5.13098 16.4869C5.27695 16.5523 5.43621 16.5819 5.5957 16.5733C5.82149 16.5867 6.04439 16.5167 6.22266 16.3763C6.28997 16.3254 6.34485 16.2597 6.38308 16.1841C6.4213 16.1086 6.44186 16.0252 6.44318 15.9404C6.4445 15.8555 6.42655 15.7715 6.39069 15.6948C6.35483 15.6181 6.30203 15.5506 6.23633 15.4977C6.09766 15.3696 5.77344 15.2514 5.25977 15.1372C4.42643 14.9507 3.83203 14.6998 3.47656 14.3846C3.30586 14.2394 3.16942 14.0576 3.07718 13.8524C2.98494 13.6473 2.93923 13.4239 2.94336 13.1987C2.94463 12.8771 3.04047 12.5631 3.21875 12.2965C3.42229 11.9947 3.70972 11.7603 4.04492 11.6228C4.52852 11.4414 5.04309 11.359 5.55859 11.3805C6.33984 11.3805 6.93945 11.5282 7.35742 11.8237C7.77148 12.1192 8.01562 12.59 8.0957 13.2342L6.30664 13.3406C6.28257 13.106 6.17584 12.8879 6.00586 12.7259C5.82541 12.5869 5.6018 12.517 5.375 12.5289C5.19702 12.5158 5.02012 12.566 4.875 12.6708C4.82228 12.711 4.77963 12.7632 4.75046 12.823C4.7213 12.8829 4.70642 12.9488 4.70703 13.0155C4.70843 13.0672 4.72125 13.1179 4.74457 13.1639C4.76788 13.2099 4.8011 13.2501 4.8418 13.2815C5.03451 13.4045 5.25205 13.4826 5.47852 13.51C6.09228 13.6218 6.69082 13.8063 7.26172 14.0596C7.58114 14.21 7.85196 14.4483 8.04297 14.7471C8.2082 15.0247 8.29342 15.3433 8.28906 15.6671C8.29057 16.0586 8.17707 16.4418 7.96289 16.7683C7.73951 17.1076 7.42239 17.3733 7.05078 17.5326C6.58013 17.7206 6.07624 17.8091 5.57031 17.7927C4.52865 17.7927 3.80339 17.5898 3.39453 17.184C2.98765 16.7688 2.74463 16.2183 2.71094 15.6356V15.6375ZM14.7188 16.7801C14.9551 16.9476 15.1094 17.052 15.1816 17.0953C15.2891 17.1564 15.4375 17.2293 15.6211 17.312L15.0957 18.3856C14.8244 18.2509 14.5632 18.0961 14.3145 17.9227C14.1256 17.8009 13.943 17.6694 13.7676 17.5287C13.2655 17.7274 12.7286 17.8212 12.1895 17.8045C11.2546 17.8045 10.5163 17.5589 9.97461 17.0677C9.33529 16.4859 9.01562 15.6691 9.01562 14.6171C9.01562 13.5947 9.29492 12.8028 9.85352 12.2354C10.4121 11.6681 11.1934 11.3864 12.1973 11.3864C13.2012 11.3864 14.0078 11.6622 14.5645 12.2157C15.1211 12.7693 15.3887 13.5513 15.3887 14.5777C15.3887 15.497 15.1654 16.2305 14.7188 16.7781V16.7801ZM13.2598 15.7951C13.4329 15.4141 13.5113 14.9962 13.4883 14.5777C13.4883 13.9526 13.3724 13.5054 13.1406 13.2362C13.0201 13.103 12.8716 12.9986 12.7061 12.9304C12.5406 12.8623 12.3621 12.8321 12.1836 12.8422C12.0092 12.8373 11.836 12.8717 11.6765 12.9429C11.517 13.0141 11.3753 13.1204 11.2617 13.2539C11.026 13.5284 10.9082 13.9558 10.9082 14.5363C10.9082 15.214 11.0228 15.6894 11.252 15.9626C11.3705 16.0952 11.5173 16.1991 11.6814 16.2663C11.8455 16.3335 12.0225 16.3624 12.1992 16.3507C12.322 16.351 12.4445 16.3377 12.5645 16.3113C12.3403 16.1187 12.0827 15.9698 11.8047 15.872L12.1094 15.1884C12.244 15.2089 12.3754 15.2473 12.5 15.3026C12.6916 15.4077 12.8756 15.5262 13.0508 15.6572C13.1152 15.7025 13.1855 15.7479 13.2617 15.7971L13.2598 15.7951ZM16.4063 11.4809H18.3066V16.1655H21.2891V17.6922H16.4063V11.4809Z" fill="white"/>
</g>
<defs>
<clipPath id="clip0_654_2618">
<rect width="24" height="24" fill="white"/>
</clipPath>
</defs>
</svg>
